G75*
G70*
%OFA0B0*%
%FSLAX25Y25*%
%IPPOS*%
%LPD*%
%AMOC8*
5,1,8,0,0,1.08239X$1,22.5*
%
%ADD24C,0.01000*%
%ADD43C,0.00800*%
%ADD53R,0.03000X0.03400*%
X0020000Y0020000D02*
G75*
%LPD*%
D43*
X0280000Y0020000D02*
X0020000Y0020000D01*
X0020000Y0240000D01*
X0280000Y0240000D01*
X0280000Y0020000D01*
X0140000Y0084490D02*
X0139530Y0084510D01*
X0139070Y0084570D01*
X0138610Y0084670D01*
X0138160Y0084800D01*
X0137730Y0084980D01*
X0137310Y0085190D01*
X0136910Y0085430D01*
X0136540Y0085710D01*
X0136190Y0086020D01*
X0135860Y0086360D01*
X0135570Y0086720D01*
X0135310Y0087110D01*
X0135080Y0087520D01*
X0134890Y0087950D01*
X0134730Y0088390D01*
X0134610Y0088840D01*
X0134530Y0089300D01*
X0134490Y0089770D01*
X0134490Y0090230D01*
X0134530Y0090700D01*
X0134610Y0091160D01*
X0134730Y0091610D01*
X0134890Y0092050D01*
X0135080Y0092480D01*
X0135310Y0092890D01*
X0135570Y0093280D01*
X0135860Y0093640D01*
X0136190Y0093980D01*
X0136540Y0094290D01*
X0136910Y0094570D01*
X0137310Y0094810D01*
X0137730Y0095020D01*
X0138160Y0095200D01*
X0138610Y0095330D01*
X0139070Y0095430D01*
X0139530Y0095490D01*
X0140000Y0095510D01*
X0140470Y0095490D01*
X0140930Y0095430D01*
X0141390Y0095330D01*
X0141840Y0095200D01*
X0142270Y0095020D01*
X0142690Y0094810D01*
X0143090Y0094570D01*
X0143460Y0094290D01*
X0143810Y0093980D01*
X0144140Y0093640D01*
X0144430Y0093280D01*
X0144690Y0092890D01*
X0144920Y0092480D01*
X0145110Y0092050D01*
X0145270Y0091610D01*
X0145390Y0091160D01*
X0145470Y0090700D01*
X0145510Y0090230D01*
X0145510Y0089770D01*
X0145470Y0089300D01*
X0145390Y0088840D01*
X0145270Y0088390D01*
X0145110Y0087950D01*
X0144920Y0087520D01*
X0144690Y0087110D01*
X0144430Y0086720D01*
X0144140Y0086360D01*
X0143810Y0086020D01*
X0143460Y0085710D01*
X0143090Y0085430D01*
X0142690Y0085190D01*
X0142270Y0084980D01*
X0141840Y0084800D01*
X0141390Y0084670D01*
X0140930Y0084570D01*
X0140470Y0084510D01*
X0140000Y0084490D01*
X0260000Y0214490D02*
X0259530Y0214510D01*
X0259070Y0214570D01*
X0258610Y0214670D01*
X0258160Y0214800D01*
X0257730Y0214980D01*
X0257310Y0215190D01*
X0256910Y0215430D01*
X0256540Y0215710D01*
X0256190Y0216020D01*
X0255860Y0216360D01*
X0255570Y0216720D01*
X0255310Y0217110D01*
X0255080Y0217520D01*
X0254890Y0217950D01*
X0254730Y0218390D01*
X0254610Y0218840D01*
X0254530Y0219300D01*
X0254490Y0219770D01*
X0254490Y0220230D01*
X0254530Y0220700D01*
X0254610Y0221160D01*
X0254730Y0221610D01*
X0254890Y0222050D01*
X0255080Y0222480D01*
X0255310Y0222890D01*
X0255570Y0223280D01*
X0255860Y0223640D01*
X0256190Y0223980D01*
X0256540Y0224290D01*
X0256910Y0224570D01*
X0257310Y0224810D01*
X0257730Y0225020D01*
X0258160Y0225200D01*
X0258610Y0225330D01*
X0259070Y0225430D01*
X0259530Y0225490D01*
X0260000Y0225510D01*
X0260470Y0225490D01*
X0260930Y0225430D01*
X0261390Y0225330D01*
X0261840Y0225200D01*
X0262270Y0225020D01*
X0262690Y0224810D01*
X0263090Y0224570D01*
X0263460Y0224290D01*
X0263810Y0223980D01*
X0264140Y0223640D01*
X0264430Y0223280D01*
X0264690Y0222890D01*
X0264920Y0222480D01*
X0265110Y0222050D01*
X0265270Y0221610D01*
X0265390Y0221160D01*
X0265470Y0220700D01*
X0265510Y0220230D01*
X0265510Y0219770D01*
X0265470Y0219300D01*
X0265390Y0218840D01*
X0265270Y0218390D01*
X0265110Y0217950D01*
X0264920Y0217520D01*
X0264690Y0217110D01*
X0264430Y0216720D01*
X0264140Y0216360D01*
X0263810Y0216020D01*
X0263460Y0215710D01*
X0263090Y0215430D01*
X0262690Y0215190D01*
X0262270Y0214980D01*
X0261840Y0214800D01*
X0261390Y0214670D01*
X0260930Y0214570D01*
X0260470Y0214510D01*
X0260000Y0214490D01*
D43*
X0209380Y0222610D02*
X0209380Y0173400D01*
X0182610Y0173400D01*
X0182610Y0222610D01*
X0209380Y0222610D01*
X0185760Y0217200D02*
X0185540Y0217220D01*
X0185320Y0217280D01*
X0185120Y0217370D01*
X0184940Y0217500D01*
X0184780Y0217660D01*
X0184650Y0217840D01*
X0184560Y0218040D01*
X0184500Y0218260D01*
X0184480Y0218480D01*
X0184500Y0218700D01*
X0184560Y0218920D01*
X0184650Y0219120D01*
X0184780Y0219300D01*
X0184940Y0219460D01*
X0185120Y0219590D01*
X0185320Y0219680D01*
X0185540Y0219740D01*
X0185760Y0219760D01*
X0185980Y0219740D01*
X0186200Y0219680D01*
X0186400Y0219590D01*
X0186580Y0219460D01*
X0186740Y0219300D01*
X0186870Y0219120D01*
X0186960Y0218920D01*
X0187020Y0218700D01*
X0187040Y0218480D01*
X0187020Y0218260D01*
X0186960Y0218040D01*
X0186870Y0217840D01*
X0186740Y0217660D01*
X0186580Y0217500D01*
X0186400Y0217370D01*
X0186200Y0217280D01*
X0185980Y0217220D01*
X0185760Y0217200D01*
X0182610Y0107610D02*
X0209380Y0107610D01*
X0209380Y0058400D01*
X0182610Y0058400D01*
X0182610Y0107610D01*
X0206230Y0061250D02*
X0206010Y0061270D01*
X0205790Y0061330D01*
X0205590Y0061420D01*
X0205410Y0061550D01*
X0205250Y0061710D01*
X0205120Y0061890D01*
X0205030Y0062090D01*
X0204970Y0062310D01*
X0204950Y0062530D01*
X0204970Y0062750D01*
X0205030Y0062970D01*
X0205120Y0063170D01*
X0205250Y0063350D01*
X0205410Y0063510D01*
X0205590Y0063640D01*
X0205790Y0063730D01*
X0206010Y0063790D01*
X0206230Y0063810D01*
X0206450Y0063790D01*
X0206670Y0063730D01*
X0206870Y0063640D01*
X0207050Y0063510D01*
X0207210Y0063350D01*
X0207340Y0063170D01*
X0207430Y0062970D01*
X0207490Y0062750D01*
X0207510Y0062530D01*
X0207490Y0062310D01*
X0207430Y0062090D01*
X0207340Y0061890D01*
X0207210Y0061710D01*
X0207050Y0061550D01*
X0206870Y0061420D01*
X0206670Y0061330D01*
X0206450Y0061270D01*
X0206230Y0061250D01*
D43*
X0112000Y0093500D02*
X0112000Y0098500D01*
X0109500Y0101000D01*
X0112000Y0103500D01*
X0112000Y0108500D01*
X0109500Y0111000D01*
X0104500Y0111000D01*
X0102000Y0108500D01*
X0102000Y0103500D01*
X0104500Y0101000D01*
X0109500Y0101000D01*
X0104500Y0101000D02*
X0102000Y0098500D01*
X0102000Y0093500D01*
X0104500Y0091000D01*
X0109500Y0091000D01*
X0112000Y0093500D01*
X0109500Y0111000D02*
X0112000Y0113500D01*
X0112000Y0118500D01*
X0109500Y0121000D01*
X0112000Y0123500D01*
X0112000Y0128500D01*
X0109500Y0131000D01*
X0112000Y0133500D01*
X0112000Y0138500D01*
X0109500Y0141000D01*
X0104500Y0141000D01*
X0102000Y0138500D01*
X0102000Y0133500D01*
X0104500Y0131000D01*
X0109500Y0131000D01*
X0104500Y0131000D02*
X0102000Y0128500D01*
X0102000Y0123500D01*
X0104500Y0121000D01*
X0109500Y0121000D01*
X0104500Y0121000D02*
X0102000Y0118500D01*
X0102000Y0113500D01*
X0104500Y0111000D01*
X0082000Y0108500D02*
X0082000Y0103500D01*
X0079500Y0101000D01*
X0082000Y0098500D01*
X0082000Y0093500D01*
X0079500Y0091000D01*
X0074500Y0091000D01*
X0072000Y0093500D01*
X0072000Y0098500D01*
X0074500Y0101000D01*
X0072000Y0103500D01*
X0072000Y0108500D01*
X0074500Y0111000D01*
X0072000Y0113500D01*
X0072000Y0118500D01*
X0074500Y0121000D01*
X0072000Y0123500D01*
X0072000Y0128500D01*
X0074500Y0131000D01*
X0072000Y0133500D01*
X0072000Y0138500D01*
X0074500Y0141000D01*
X0072000Y0143500D01*
X0072000Y0148500D01*
X0074500Y0151000D01*
X0072000Y0153500D01*
X0072000Y0158500D01*
X0074500Y0161000D01*
X0072000Y0163500D01*
X0072000Y0168500D01*
X0074500Y0171000D01*
X0072000Y0173500D01*
X0072000Y0178500D01*
X0074500Y0181000D01*
X0072000Y0183500D01*
X0072000Y0188500D01*
X0074500Y0191000D01*
X0072000Y0193500D01*
X0072000Y0198500D01*
X0074500Y0201000D01*
X0072000Y0203500D01*
X0072000Y0208500D01*
X0074500Y0211000D01*
X0072000Y0213500D01*
X0072000Y0218500D01*
X0074500Y0221000D01*
X0072000Y0223500D01*
X0072000Y0228500D01*
X0074500Y0231000D01*
X0079500Y0231000D01*
X0082000Y0228500D01*
X0082000Y0223500D01*
X0079500Y0221000D01*
X0082000Y0218500D01*
X0082000Y0213500D01*
X0079500Y0211000D01*
X0074500Y0211000D01*
X0079500Y0211000D02*
X0082000Y0208500D01*
X0082000Y0203500D01*
X0079500Y0201000D01*
X0082000Y0198500D01*
X0082000Y0193500D01*
X0079500Y0191000D01*
X0082000Y0188500D01*
X0082000Y0183500D01*
X0079500Y0181000D01*
X0074500Y0181000D01*
X0079500Y0181000D02*
X0082000Y0178500D01*
X0082000Y0173500D01*
X0079500Y0171000D01*
X0082000Y0168500D01*
X0082000Y0163500D01*
X0079500Y0161000D01*
X0082000Y0158500D01*
X0082000Y0153500D01*
X0079500Y0151000D01*
X0074500Y0151000D01*
X0079500Y0151000D02*
X0082000Y0148500D01*
X0082000Y0143500D01*
X0079500Y0141000D01*
X0082000Y0138500D01*
X0082000Y0133500D01*
X0079500Y0131000D01*
X0082000Y0128500D01*
X0082000Y0123500D01*
X0079500Y0121000D01*
X0074500Y0121000D01*
X0079500Y0121000D02*
X0082000Y0118500D01*
X0082000Y0113500D01*
X0079500Y0111000D01*
X0082000Y0108500D01*
X0079500Y0111000D02*
X0074500Y0111000D01*
X0074500Y0101000D02*
X0079500Y0101000D01*
X0052000Y0098500D02*
X0052000Y0093500D01*
X0049500Y0091000D01*
X0044500Y0091000D01*
X0042000Y0093500D01*
X0042000Y0098500D01*
X0044500Y0101000D01*
X0042000Y0103500D01*
X0042000Y0108500D01*
X0044500Y0111000D01*
X0042000Y0113500D01*
X0042000Y0118500D01*
X0044500Y0121000D01*
X0042000Y0123500D01*
X0042000Y0128500D01*
X0044500Y0131000D01*
X0042000Y0133500D01*
X0042000Y0138500D01*
X0044500Y0141000D01*
X0042000Y0143500D01*
X0042000Y0148500D01*
X0044500Y0151000D01*
X0042000Y0153500D01*
X0042000Y0158500D01*
X0044500Y0161000D01*
X0042000Y0163500D01*
X0042000Y0168500D01*
X0044500Y0171000D01*
X0042000Y0173500D01*
X0042000Y0178500D01*
X0044500Y0181000D01*
X0042000Y0183500D01*
X0042000Y0188500D01*
X0044500Y0191000D01*
X0042000Y0193500D01*
X0042000Y0198500D01*
X0044500Y0201000D01*
X0042000Y0203500D01*
X0042000Y0208500D01*
X0044500Y0211000D01*
X0042000Y0213500D01*
X0042000Y0218500D01*
X0044500Y0221000D01*
X0042000Y0223500D01*
X0042000Y0228500D01*
X0044500Y0231000D01*
X0049500Y0231000D01*
X0052000Y0228500D01*
X0052000Y0223500D01*
X0049500Y0221000D01*
X0052000Y0218500D01*
X0052000Y0213500D01*
X0049500Y0211000D01*
X0044500Y0211000D01*
X0049500Y0211000D02*
X0052000Y0208500D01*
X0052000Y0203500D01*
X0049500Y0201000D01*
X0052000Y0198500D01*
X0052000Y0193500D01*
X0049500Y0191000D01*
X0052000Y0188500D01*
X0052000Y0183500D01*
X0049500Y0181000D01*
X0044500Y0181000D01*
X0049500Y0181000D02*
X0052000Y0178500D01*
X0052000Y0173500D01*
X0049500Y0171000D01*
X0052000Y0168500D01*
X0052000Y0163500D01*
X0049500Y0161000D01*
X0052000Y0158500D01*
X0052000Y0153500D01*
X0049500Y0151000D01*
X0044500Y0151000D01*
X0049500Y0151000D02*
X0052000Y0148500D01*
X0052000Y0143500D01*
X0049500Y0141000D01*
X0052000Y0138500D01*
X0052000Y0133500D01*
X0049500Y0131000D01*
X0052000Y0128500D01*
X0052000Y0123500D01*
X0049500Y0121000D01*
X0044500Y0121000D01*
X0049500Y0121000D02*
X0052000Y0118500D01*
X0052000Y0113500D01*
X0049500Y0111000D01*
X0052000Y0108500D01*
X0052000Y0103500D01*
X0049500Y0101000D01*
X0052000Y0098500D01*
X0049500Y0101000D02*
X0044500Y0101000D01*
X0044500Y0111000D02*
X0049500Y0111000D01*
X0041000Y0121000D02*
X0040980Y0121390D01*
X0040920Y0121780D01*
X0040830Y0122160D01*
X0040700Y0122530D01*
X0040530Y0122890D01*
X0040330Y0123220D01*
X0040090Y0123540D01*
X0039830Y0123830D01*
X0041000Y0121000D02*
X0040980Y0120610D01*
X0040920Y0120220D01*
X0040830Y0119840D01*
X0040700Y0119470D01*
X0040530Y0119110D01*
X0040330Y0118780D01*
X0040090Y0118460D01*
X0039830Y0118170D01*
X0034170Y0118170D02*
X0033910Y0118460D01*
X0033670Y0118780D01*
X0033470Y0119110D01*
X0033300Y0119470D01*
X0033170Y0119840D01*
X0033080Y0120220D01*
X0033020Y0120610D01*
X0033000Y0121000D01*
X0033020Y0121390D01*
X0033080Y0121780D01*
X0033170Y0122160D01*
X0033300Y0122530D01*
X0033470Y0122890D01*
X0033670Y0123220D01*
X0033910Y0123540D01*
X0034170Y0123830D01*
X0044500Y0131000D02*
X0049500Y0131000D01*
X0049500Y0141000D02*
X0044500Y0141000D01*
X0044500Y0161000D02*
X0049500Y0161000D01*
X0049500Y0171000D02*
X0044500Y0171000D01*
X0044500Y0191000D02*
X0049500Y0191000D01*
X0049500Y0201000D02*
X0044500Y0201000D01*
X0044500Y0221000D02*
X0049500Y0221000D01*
X0074500Y0221000D02*
X0079500Y0221000D01*
X0102000Y0218500D02*
X0102000Y0213500D01*
X0104500Y0211000D01*
X0109500Y0211000D01*
X0112000Y0213500D01*
X0112000Y0218500D01*
X0109500Y0221000D01*
X0112000Y0223500D01*
X0112000Y0228500D01*
X0109500Y0231000D01*
X0104500Y0231000D01*
X0102000Y0228500D01*
X0102000Y0223500D01*
X0104500Y0221000D01*
X0109500Y0221000D01*
X0104500Y0221000D02*
X0102000Y0218500D01*
X0104500Y0211000D02*
X0102000Y0208500D01*
X0102000Y0203500D01*
X0104500Y0201000D01*
X0109500Y0201000D01*
X0112000Y0198500D01*
X0112000Y0193500D01*
X0109500Y0191000D01*
X0112000Y0188500D01*
X0112000Y0183500D01*
X0109500Y0181000D01*
X0112000Y0178500D01*
X0112000Y0173500D01*
X0109500Y0171000D01*
X0112000Y0168500D01*
X0112000Y0163500D01*
X0109500Y0161000D01*
X0112000Y0158500D01*
X0112000Y0153500D01*
X0109500Y0151000D01*
X0112000Y0148500D01*
X0112000Y0143500D01*
X0109500Y0141000D01*
X0104500Y0141000D02*
X0102000Y0143500D01*
X0102000Y0148500D01*
X0104500Y0151000D01*
X0102000Y0153500D01*
X0102000Y0158500D01*
X0104500Y0161000D01*
X0102000Y0163500D01*
X0102000Y0168500D01*
X0104500Y0171000D01*
X0109500Y0171000D01*
X0104500Y0171000D02*
X0102000Y0173500D01*
X0102000Y0178500D01*
X0104500Y0181000D01*
X0102000Y0183500D01*
X0102000Y0188500D01*
X0104500Y0191000D01*
X0102000Y0193500D01*
X0102000Y0198500D01*
X0104500Y0201000D01*
X0109500Y0201000D02*
X0112000Y0203500D01*
X0112000Y0208500D01*
X0109500Y0211000D01*
X0109500Y0191000D02*
X0104500Y0191000D01*
X0104500Y0181000D02*
X0109500Y0181000D01*
X0109500Y0161000D02*
X0104500Y0161000D01*
X0104500Y0151000D02*
X0109500Y0151000D01*
X0079500Y0141000D02*
X0074500Y0141000D01*
X0074500Y0131000D02*
X0079500Y0131000D01*
X0079500Y0161000D02*
X0074500Y0161000D01*
X0074500Y0171000D02*
X0079500Y0171000D01*
X0079500Y0191000D02*
X0074500Y0191000D01*
X0074500Y0201000D02*
X0079500Y0201000D01*
X0032500Y0081000D02*
X0035000Y0078500D01*
X0035000Y0073500D01*
X0032500Y0071000D01*
X0035000Y0068500D01*
X0035000Y0063500D01*
X0032500Y0061000D01*
X0027500Y0061000D01*
X0025000Y0063500D01*
X0025000Y0068500D01*
X0027500Y0071000D01*
X0025000Y0073500D01*
X0025000Y0078500D01*
X0027500Y0081000D01*
X0032500Y0081000D01*
X0032500Y0071000D02*
X0027500Y0071000D01*
D24*
X0029000Y0054500D02*
X0109000Y0054500D01*
X0109000Y0037000D01*
X0029000Y0037000D01*
X0029000Y0054500D01*
X0029000Y0037000D02*
X0029000Y0029500D01*
X0109000Y0029500D01*
X0109000Y0037000D01*
X0251000Y0071500D02*
X0251000Y0079000D01*
X0271000Y0079000D01*
X0271000Y0071500D01*
X0251000Y0071500D01*
X0251000Y0079000D02*
X0251000Y0096500D01*
X0271000Y0096500D01*
X0271000Y0079000D01*
D43*
X0260100Y0052900D02*
X0236500Y0052910D01*
X0236500Y0027100D01*
X0260100Y0027100D01*
D53*
X0234600Y0040000D03*
D24*
X0019500Y0019500D02*
X0019500Y0240500D01*
X0280500Y0240500D01*
X0280500Y0019500D01*
X0019500Y0019500D01*
X0292500Y0020000D02*
G75*
%LPD*%
D43*
X0552500Y0020000D02*
X0292500Y0020000D01*
X0292500Y0240000D01*
X0552500Y0240000D01*
X0552500Y0020000D01*
X0412500Y0084490D02*
X0412030Y0084510D01*
X0411570Y0084570D01*
X0411110Y0084670D01*
X0410660Y0084800D01*
X0410230Y0084980D01*
X0409810Y0085190D01*
X0409410Y0085430D01*
X0409040Y0085710D01*
X0408690Y0086020D01*
X0408360Y0086360D01*
X0408070Y0086720D01*
X0407810Y0087110D01*
X0407580Y0087520D01*
X0407390Y0087950D01*
X0407230Y0088390D01*
X0407110Y0088840D01*
X0407030Y0089300D01*
X0406990Y0089770D01*
X0406990Y0090230D01*
X0407030Y0090700D01*
X0407110Y0091160D01*
X0407230Y0091610D01*
X0407390Y0092050D01*
X0407580Y0092480D01*
X0407810Y0092890D01*
X0408070Y0093280D01*
X0408360Y0093640D01*
X0408690Y0093980D01*
X0409040Y0094290D01*
X0409410Y0094570D01*
X0409810Y0094810D01*
X0410230Y0095020D01*
X0410660Y0095200D01*
X0411110Y0095330D01*
X0411570Y0095430D01*
X0412030Y0095490D01*
X0412500Y0095510D01*
X0412970Y0095490D01*
X0413430Y0095430D01*
X0413890Y0095330D01*
X0414340Y0095200D01*
X0414770Y0095020D01*
X0415190Y0094810D01*
X0415590Y0094570D01*
X0415960Y0094290D01*
X0416310Y0093980D01*
X0416640Y0093640D01*
X0416930Y0093280D01*
X0417190Y0092890D01*
X0417420Y0092480D01*
X0417610Y0092050D01*
X0417770Y0091610D01*
X0417890Y0091160D01*
X0417970Y0090700D01*
X0418010Y0090230D01*
X0418010Y0089770D01*
X0417970Y0089300D01*
X0417890Y0088840D01*
X0417770Y0088390D01*
X0417610Y0087950D01*
X0417420Y0087520D01*
X0417190Y0087110D01*
X0416930Y0086720D01*
X0416640Y0086360D01*
X0416310Y0086020D01*
X0415960Y0085710D01*
X0415590Y0085430D01*
X0415190Y0085190D01*
X0414770Y0084980D01*
X0414340Y0084800D01*
X0413890Y0084670D01*
X0413430Y0084570D01*
X0412970Y0084510D01*
X0412500Y0084490D01*
X0532500Y0214490D02*
X0532030Y0214510D01*
X0531570Y0214570D01*
X0531110Y0214670D01*
X0530660Y0214800D01*
X0530230Y0214980D01*
X0529810Y0215190D01*
X0529410Y0215430D01*
X0529040Y0215710D01*
X0528690Y0216020D01*
X0528360Y0216360D01*
X0528070Y0216720D01*
X0527810Y0217110D01*
X0527580Y0217520D01*
X0527390Y0217950D01*
X0527230Y0218390D01*
X0527110Y0218840D01*
X0527030Y0219300D01*
X0526990Y0219770D01*
X0526990Y0220230D01*
X0527030Y0220700D01*
X0527110Y0221160D01*
X0527230Y0221610D01*
X0527390Y0222050D01*
X0527580Y0222480D01*
X0527810Y0222890D01*
X0528070Y0223280D01*
X0528360Y0223640D01*
X0528690Y0223980D01*
X0529040Y0224290D01*
X0529410Y0224570D01*
X0529810Y0224810D01*
X0530230Y0225020D01*
X0530660Y0225200D01*
X0531110Y0225330D01*
X0531570Y0225430D01*
X0532030Y0225490D01*
X0532500Y0225510D01*
X0532970Y0225490D01*
X0533430Y0225430D01*
X0533890Y0225330D01*
X0534340Y0225200D01*
X0534770Y0225020D01*
X0535190Y0224810D01*
X0535590Y0224570D01*
X0535960Y0224290D01*
X0536310Y0223980D01*
X0536640Y0223640D01*
X0536930Y0223280D01*
X0537190Y0222890D01*
X0537420Y0222480D01*
X0537610Y0222050D01*
X0537770Y0221610D01*
X0537890Y0221160D01*
X0537970Y0220700D01*
X0538010Y0220230D01*
X0538010Y0219770D01*
X0537970Y0219300D01*
X0537890Y0218840D01*
X0537770Y0218390D01*
X0537610Y0217950D01*
X0537420Y0217520D01*
X0537190Y0217110D01*
X0536930Y0216720D01*
X0536640Y0216360D01*
X0536310Y0216020D01*
X0535960Y0215710D01*
X0535590Y0215430D01*
X0535190Y0215190D01*
X0534770Y0214980D01*
X0534340Y0214800D01*
X0533890Y0214670D01*
X0533430Y0214570D01*
X0532970Y0214510D01*
X0532500Y0214490D01*
D43*
X0481880Y0222610D02*
X0481880Y0173400D01*
X0455110Y0173400D01*
X0455110Y0222610D01*
X0481880Y0222610D01*
X0458260Y0217200D02*
X0458040Y0217220D01*
X0457820Y0217280D01*
X0457620Y0217370D01*
X0457440Y0217500D01*
X0457280Y0217660D01*
X0457150Y0217840D01*
X0457060Y0218040D01*
X0457000Y0218260D01*
X0456980Y0218480D01*
X0457000Y0218700D01*
X0457060Y0218920D01*
X0457150Y0219120D01*
X0457280Y0219300D01*
X0457440Y0219460D01*
X0457620Y0219590D01*
X0457820Y0219680D01*
X0458040Y0219740D01*
X0458260Y0219760D01*
X0458480Y0219740D01*
X0458700Y0219680D01*
X0458900Y0219590D01*
X0459080Y0219460D01*
X0459240Y0219300D01*
X0459370Y0219120D01*
X0459460Y0218920D01*
X0459520Y0218700D01*
X0459540Y0218480D01*
X0459520Y0218260D01*
X0459460Y0218040D01*
X0459370Y0217840D01*
X0459240Y0217660D01*
X0459080Y0217500D01*
X0458900Y0217370D01*
X0458700Y0217280D01*
X0458480Y0217220D01*
X0458260Y0217200D01*
X0455110Y0107610D02*
X0481880Y0107610D01*
X0481880Y0058400D01*
X0455110Y0058400D01*
X0455110Y0107610D01*
X0478730Y0061250D02*
X0478510Y0061270D01*
X0478290Y0061330D01*
X0478090Y0061420D01*
X0477910Y0061550D01*
X0477750Y0061710D01*
X0477620Y0061890D01*
X0477530Y0062090D01*
X0477470Y0062310D01*
X0477450Y0062530D01*
X0477470Y0062750D01*
X0477530Y0062970D01*
X0477620Y0063170D01*
X0477750Y0063350D01*
X0477910Y0063510D01*
X0478090Y0063640D01*
X0478290Y0063730D01*
X0478510Y0063790D01*
X0478730Y0063810D01*
X0478950Y0063790D01*
X0479170Y0063730D01*
X0479370Y0063640D01*
X0479550Y0063510D01*
X0479710Y0063350D01*
X0479840Y0063170D01*
X0479930Y0062970D01*
X0479990Y0062750D01*
X0480010Y0062530D01*
X0479990Y0062310D01*
X0479930Y0062090D01*
X0479840Y0061890D01*
X0479710Y0061710D01*
X0479550Y0061550D01*
X0479370Y0061420D01*
X0479170Y0061330D01*
X0478950Y0061270D01*
X0478730Y0061250D01*
D43*
X0384500Y0093500D02*
X0384500Y0098500D01*
X0382000Y0101000D01*
X0384500Y0103500D01*
X0384500Y0108500D01*
X0382000Y0111000D01*
X0377000Y0111000D01*
X0374500Y0108500D01*
X0374500Y0103500D01*
X0377000Y0101000D01*
X0382000Y0101000D01*
X0377000Y0101000D02*
X0374500Y0098500D01*
X0374500Y0093500D01*
X0377000Y0091000D01*
X0382000Y0091000D01*
X0384500Y0093500D01*
X0382000Y0111000D02*
X0384500Y0113500D01*
X0384500Y0118500D01*
X0382000Y0121000D01*
X0384500Y0123500D01*
X0384500Y0128500D01*
X0382000Y0131000D01*
X0384500Y0133500D01*
X0384500Y0138500D01*
X0382000Y0141000D01*
X0377000Y0141000D01*
X0374500Y0138500D01*
X0374500Y0133500D01*
X0377000Y0131000D01*
X0382000Y0131000D01*
X0377000Y0131000D02*
X0374500Y0128500D01*
X0374500Y0123500D01*
X0377000Y0121000D01*
X0382000Y0121000D01*
X0377000Y0121000D02*
X0374500Y0118500D01*
X0374500Y0113500D01*
X0377000Y0111000D01*
X0354500Y0108500D02*
X0354500Y0103500D01*
X0352000Y0101000D01*
X0354500Y0098500D01*
X0354500Y0093500D01*
X0352000Y0091000D01*
X0347000Y0091000D01*
X0344500Y0093500D01*
X0344500Y0098500D01*
X0347000Y0101000D01*
X0344500Y0103500D01*
X0344500Y0108500D01*
X0347000Y0111000D01*
X0344500Y0113500D01*
X0344500Y0118500D01*
X0347000Y0121000D01*
X0344500Y0123500D01*
X0344500Y0128500D01*
X0347000Y0131000D01*
X0344500Y0133500D01*
X0344500Y0138500D01*
X0347000Y0141000D01*
X0344500Y0143500D01*
X0344500Y0148500D01*
X0347000Y0151000D01*
X0344500Y0153500D01*
X0344500Y0158500D01*
X0347000Y0161000D01*
X0344500Y0163500D01*
X0344500Y0168500D01*
X0347000Y0171000D01*
X0344500Y0173500D01*
X0344500Y0178500D01*
X0347000Y0181000D01*
X0344500Y0183500D01*
X0344500Y0188500D01*
X0347000Y0191000D01*
X0344500Y0193500D01*
X0344500Y0198500D01*
X0347000Y0201000D01*
X0344500Y0203500D01*
X0344500Y0208500D01*
X0347000Y0211000D01*
X0344500Y0213500D01*
X0344500Y0218500D01*
X0347000Y0221000D01*
X0344500Y0223500D01*
X0344500Y0228500D01*
X0347000Y0231000D01*
X0352000Y0231000D01*
X0354500Y0228500D01*
X0354500Y0223500D01*
X0352000Y0221000D01*
X0354500Y0218500D01*
X0354500Y0213500D01*
X0352000Y0211000D01*
X0347000Y0211000D01*
X0352000Y0211000D02*
X0354500Y0208500D01*
X0354500Y0203500D01*
X0352000Y0201000D01*
X0354500Y0198500D01*
X0354500Y0193500D01*
X0352000Y0191000D01*
X0354500Y0188500D01*
X0354500Y0183500D01*
X0352000Y0181000D01*
X0347000Y0181000D01*
X0352000Y0181000D02*
X0354500Y0178500D01*
X0354500Y0173500D01*
X0352000Y0171000D01*
X0354500Y0168500D01*
X0354500Y0163500D01*
X0352000Y0161000D01*
X0354500Y0158500D01*
X0354500Y0153500D01*
X0352000Y0151000D01*
X0347000Y0151000D01*
X0352000Y0151000D02*
X0354500Y0148500D01*
X0354500Y0143500D01*
X0352000Y0141000D01*
X0354500Y0138500D01*
X0354500Y0133500D01*
X0352000Y0131000D01*
X0354500Y0128500D01*
X0354500Y0123500D01*
X0352000Y0121000D01*
X0347000Y0121000D01*
X0352000Y0121000D02*
X0354500Y0118500D01*
X0354500Y0113500D01*
X0352000Y0111000D01*
X0354500Y0108500D01*
X0352000Y0111000D02*
X0347000Y0111000D01*
X0347000Y0101000D02*
X0352000Y0101000D01*
X0324500Y0098500D02*
X0324500Y0093500D01*
X0322000Y0091000D01*
X0317000Y0091000D01*
X0314500Y0093500D01*
X0314500Y0098500D01*
X0317000Y0101000D01*
X0314500Y0103500D01*
X0314500Y0108500D01*
X0317000Y0111000D01*
X0314500Y0113500D01*
X0314500Y0118500D01*
X0317000Y0121000D01*
X0314500Y0123500D01*
X0314500Y0128500D01*
X0317000Y0131000D01*
X0314500Y0133500D01*
X0314500Y0138500D01*
X0317000Y0141000D01*
X0314500Y0143500D01*
X0314500Y0148500D01*
X0317000Y0151000D01*
X0314500Y0153500D01*
X0314500Y0158500D01*
X0317000Y0161000D01*
X0314500Y0163500D01*
X0314500Y0168500D01*
X0317000Y0171000D01*
X0314500Y0173500D01*
X0314500Y0178500D01*
X0317000Y0181000D01*
X0314500Y0183500D01*
X0314500Y0188500D01*
X0317000Y0191000D01*
X0314500Y0193500D01*
X0314500Y0198500D01*
X0317000Y0201000D01*
X0314500Y0203500D01*
X0314500Y0208500D01*
X0317000Y0211000D01*
X0314500Y0213500D01*
X0314500Y0218500D01*
X0317000Y0221000D01*
X0314500Y0223500D01*
X0314500Y0228500D01*
X0317000Y0231000D01*
X0322000Y0231000D01*
X0324500Y0228500D01*
X0324500Y0223500D01*
X0322000Y0221000D01*
X0324500Y0218500D01*
X0324500Y0213500D01*
X0322000Y0211000D01*
X0317000Y0211000D01*
X0322000Y0211000D02*
X0324500Y0208500D01*
X0324500Y0203500D01*
X0322000Y0201000D01*
X0324500Y0198500D01*
X0324500Y0193500D01*
X0322000Y0191000D01*
X0324500Y0188500D01*
X0324500Y0183500D01*
X0322000Y0181000D01*
X0317000Y0181000D01*
X0322000Y0181000D02*
X0324500Y0178500D01*
X0324500Y0173500D01*
X0322000Y0171000D01*
X0324500Y0168500D01*
X0324500Y0163500D01*
X0322000Y0161000D01*
X0324500Y0158500D01*
X0324500Y0153500D01*
X0322000Y0151000D01*
X0317000Y0151000D01*
X0322000Y0151000D02*
X0324500Y0148500D01*
X0324500Y0143500D01*
X0322000Y0141000D01*
X0324500Y0138500D01*
X0324500Y0133500D01*
X0322000Y0131000D01*
X0324500Y0128500D01*
X0324500Y0123500D01*
X0322000Y0121000D01*
X0317000Y0121000D01*
X0322000Y0121000D02*
X0324500Y0118500D01*
X0324500Y0113500D01*
X0322000Y0111000D01*
X0324500Y0108500D01*
X0324500Y0103500D01*
X0322000Y0101000D01*
X0324500Y0098500D01*
X0322000Y0101000D02*
X0317000Y0101000D01*
X0317000Y0111000D02*
X0322000Y0111000D01*
X0313500Y0121000D02*
X0313480Y0121390D01*
X0313420Y0121780D01*
X0313330Y0122160D01*
X0313200Y0122530D01*
X0313030Y0122890D01*
X0312830Y0123220D01*
X0312590Y0123540D01*
X0312330Y0123830D01*
X0313500Y0121000D02*
X0313480Y0120610D01*
X0313420Y0120220D01*
X0313330Y0119840D01*
X0313200Y0119470D01*
X0313030Y0119110D01*
X0312830Y0118780D01*
X0312590Y0118460D01*
X0312330Y0118170D01*
X0306670Y0118170D02*
X0306410Y0118460D01*
X0306170Y0118780D01*
X0305970Y0119110D01*
X0305800Y0119470D01*
X0305670Y0119840D01*
X0305580Y0120220D01*
X0305520Y0120610D01*
X0305500Y0121000D01*
X0305520Y0121390D01*
X0305580Y0121780D01*
X0305670Y0122160D01*
X0305800Y0122530D01*
X0305970Y0122890D01*
X0306170Y0123220D01*
X0306410Y0123540D01*
X0306670Y0123830D01*
X0317000Y0131000D02*
X0322000Y0131000D01*
X0322000Y0141000D02*
X0317000Y0141000D01*
X0317000Y0161000D02*
X0322000Y0161000D01*
X0322000Y0171000D02*
X0317000Y0171000D01*
X0317000Y0191000D02*
X0322000Y0191000D01*
X0322000Y0201000D02*
X0317000Y0201000D01*
X0317000Y0221000D02*
X0322000Y0221000D01*
X0347000Y0221000D02*
X0352000Y0221000D01*
X0374500Y0218500D02*
X0374500Y0213500D01*
X0377000Y0211000D01*
X0382000Y0211000D01*
X0384500Y0213500D01*
X0384500Y0218500D01*
X0382000Y0221000D01*
X0384500Y0223500D01*
X0384500Y0228500D01*
X0382000Y0231000D01*
X0377000Y0231000D01*
X0374500Y0228500D01*
X0374500Y0223500D01*
X0377000Y0221000D01*
X0382000Y0221000D01*
X0377000Y0221000D02*
X0374500Y0218500D01*
X0377000Y0211000D02*
X0374500Y0208500D01*
X0374500Y0203500D01*
X0377000Y0201000D01*
X0382000Y0201000D01*
X0384500Y0198500D01*
X0384500Y0193500D01*
X0382000Y0191000D01*
X0384500Y0188500D01*
X0384500Y0183500D01*
X0382000Y0181000D01*
X0384500Y0178500D01*
X0384500Y0173500D01*
X0382000Y0171000D01*
X0384500Y0168500D01*
X0384500Y0163500D01*
X0382000Y0161000D01*
X0384500Y0158500D01*
X0384500Y0153500D01*
X0382000Y0151000D01*
X0384500Y0148500D01*
X0384500Y0143500D01*
X0382000Y0141000D01*
X0377000Y0141000D02*
X0374500Y0143500D01*
X0374500Y0148500D01*
X0377000Y0151000D01*
X0374500Y0153500D01*
X0374500Y0158500D01*
X0377000Y0161000D01*
X0374500Y0163500D01*
X0374500Y0168500D01*
X0377000Y0171000D01*
X0382000Y0171000D01*
X0377000Y0171000D02*
X0374500Y0173500D01*
X0374500Y0178500D01*
X0377000Y0181000D01*
X0374500Y0183500D01*
X0374500Y0188500D01*
X0377000Y0191000D01*
X0374500Y0193500D01*
X0374500Y0198500D01*
X0377000Y0201000D01*
X0382000Y0201000D02*
X0384500Y0203500D01*
X0384500Y0208500D01*
X0382000Y0211000D01*
X0382000Y0191000D02*
X0377000Y0191000D01*
X0377000Y0181000D02*
X0382000Y0181000D01*
X0382000Y0161000D02*
X0377000Y0161000D01*
X0377000Y0151000D02*
X0382000Y0151000D01*
X0352000Y0141000D02*
X0347000Y0141000D01*
X0347000Y0131000D02*
X0352000Y0131000D01*
X0352000Y0161000D02*
X0347000Y0161000D01*
X0347000Y0171000D02*
X0352000Y0171000D01*
X0352000Y0191000D02*
X0347000Y0191000D01*
X0347000Y0201000D02*
X0352000Y0201000D01*
X0305000Y0081000D02*
X0307500Y0078500D01*
X0307500Y0073500D01*
X0305000Y0071000D01*
X0307500Y0068500D01*
X0307500Y0063500D01*
X0305000Y0061000D01*
X0300000Y0061000D01*
X0297500Y0063500D01*
X0297500Y0068500D01*
X0300000Y0071000D01*
X0297500Y0073500D01*
X0297500Y0078500D01*
X0300000Y0081000D01*
X0305000Y0081000D01*
X0305000Y0071000D02*
X0300000Y0071000D01*
D24*
X0301500Y0054500D02*
X0381500Y0054500D01*
X0381500Y0037000D01*
X0301500Y0037000D01*
X0301500Y0054500D01*
X0301500Y0037000D02*
X0301500Y0029500D01*
X0381500Y0029500D01*
X0381500Y0037000D01*
X0523500Y0071500D02*
X0523500Y0079000D01*
X0543500Y0079000D01*
X0543500Y0071500D01*
X0523500Y0071500D01*
X0523500Y0079000D02*
X0523500Y0096500D01*
X0543500Y0096500D01*
X0543500Y0079000D01*
D43*
X0532600Y0052900D02*
X0509000Y0052910D01*
X0509000Y0027100D01*
X0532600Y0027100D01*
D53*
X0507100Y0040000D03*
D24*
X0292000Y0019500D02*
X0292000Y0240500D01*
X0553000Y0240500D01*
X0553000Y0019500D01*
X0292000Y0019500D01*
X0565000Y0020000D02*
G75*
%LPD*%
D43*
X0825000Y0020000D02*
X0565000Y0020000D01*
X0565000Y0240000D01*
X0825000Y0240000D01*
X0825000Y0020000D01*
X0685000Y0084490D02*
X0684530Y0084510D01*
X0684070Y0084570D01*
X0683610Y0084670D01*
X0683160Y0084800D01*
X0682730Y0084980D01*
X0682310Y0085190D01*
X0681910Y0085430D01*
X0681540Y0085710D01*
X0681190Y0086020D01*
X0680860Y0086360D01*
X0680570Y0086720D01*
X0680310Y0087110D01*
X0680080Y0087520D01*
X0679890Y0087950D01*
X0679730Y0088390D01*
X0679610Y0088840D01*
X0679530Y0089300D01*
X0679490Y0089770D01*
X0679490Y0090230D01*
X0679530Y0090700D01*
X0679610Y0091160D01*
X0679730Y0091610D01*
X0679890Y0092050D01*
X0680080Y0092480D01*
X0680310Y0092890D01*
X0680570Y0093280D01*
X0680860Y0093640D01*
X0681190Y0093980D01*
X0681540Y0094290D01*
X0681910Y0094570D01*
X0682310Y0094810D01*
X0682730Y0095020D01*
X0683160Y0095200D01*
X0683610Y0095330D01*
X0684070Y0095430D01*
X0684530Y0095490D01*
X0685000Y0095510D01*
X0685470Y0095490D01*
X0685930Y0095430D01*
X0686390Y0095330D01*
X0686840Y0095200D01*
X0687270Y0095020D01*
X0687690Y0094810D01*
X0688090Y0094570D01*
X0688460Y0094290D01*
X0688810Y0093980D01*
X0689140Y0093640D01*
X0689430Y0093280D01*
X0689690Y0092890D01*
X0689920Y0092480D01*
X0690110Y0092050D01*
X0690270Y0091610D01*
X0690390Y0091160D01*
X0690470Y0090700D01*
X0690510Y0090230D01*
X0690510Y0089770D01*
X0690470Y0089300D01*
X0690390Y0088840D01*
X0690270Y0088390D01*
X0690110Y0087950D01*
X0689920Y0087520D01*
X0689690Y0087110D01*
X0689430Y0086720D01*
X0689140Y0086360D01*
X0688810Y0086020D01*
X0688460Y0085710D01*
X0688090Y0085430D01*
X0687690Y0085190D01*
X0687270Y0084980D01*
X0686840Y0084800D01*
X0686390Y0084670D01*
X0685930Y0084570D01*
X0685470Y0084510D01*
X0685000Y0084490D01*
X0805000Y0214490D02*
X0804530Y0214510D01*
X0804070Y0214570D01*
X0803610Y0214670D01*
X0803160Y0214800D01*
X0802730Y0214980D01*
X0802310Y0215190D01*
X0801910Y0215430D01*
X0801540Y0215710D01*
X0801190Y0216020D01*
X0800860Y0216360D01*
X0800570Y0216720D01*
X0800310Y0217110D01*
X0800080Y0217520D01*
X0799890Y0217950D01*
X0799730Y0218390D01*
X0799610Y0218840D01*
X0799530Y0219300D01*
X0799490Y0219770D01*
X0799490Y0220230D01*
X0799530Y0220700D01*
X0799610Y0221160D01*
X0799730Y0221610D01*
X0799890Y0222050D01*
X0800080Y0222480D01*
X0800310Y0222890D01*
X0800570Y0223280D01*
X0800860Y0223640D01*
X0801190Y0223980D01*
X0801540Y0224290D01*
X0801910Y0224570D01*
X0802310Y0224810D01*
X0802730Y0225020D01*
X0803160Y0225200D01*
X0803610Y0225330D01*
X0804070Y0225430D01*
X0804530Y0225490D01*
X0805000Y0225510D01*
X0805470Y0225490D01*
X0805930Y0225430D01*
X0806390Y0225330D01*
X0806840Y0225200D01*
X0807270Y0225020D01*
X0807690Y0224810D01*
X0808090Y0224570D01*
X0808460Y0224290D01*
X0808810Y0223980D01*
X0809140Y0223640D01*
X0809430Y0223280D01*
X0809690Y0222890D01*
X0809920Y0222480D01*
X0810110Y0222050D01*
X0810270Y0221610D01*
X0810390Y0221160D01*
X0810470Y0220700D01*
X0810510Y0220230D01*
X0810510Y0219770D01*
X0810470Y0219300D01*
X0810390Y0218840D01*
X0810270Y0218390D01*
X0810110Y0217950D01*
X0809920Y0217520D01*
X0809690Y0217110D01*
X0809430Y0216720D01*
X0809140Y0216360D01*
X0808810Y0216020D01*
X0808460Y0215710D01*
X0808090Y0215430D01*
X0807690Y0215190D01*
X0807270Y0214980D01*
X0806840Y0214800D01*
X0806390Y0214670D01*
X0805930Y0214570D01*
X0805470Y0214510D01*
X0805000Y0214490D01*
D43*
X0754380Y0222610D02*
X0754380Y0173400D01*
X0727610Y0173400D01*
X0727610Y0222610D01*
X0754380Y0222610D01*
X0730760Y0217200D02*
X0730540Y0217220D01*
X0730320Y0217280D01*
X0730120Y0217370D01*
X0729940Y0217500D01*
X0729780Y0217660D01*
X0729650Y0217840D01*
X0729560Y0218040D01*
X0729500Y0218260D01*
X0729480Y0218480D01*
X0729500Y0218700D01*
X0729560Y0218920D01*
X0729650Y0219120D01*
X0729780Y0219300D01*
X0729940Y0219460D01*
X0730120Y0219590D01*
X0730320Y0219680D01*
X0730540Y0219740D01*
X0730760Y0219760D01*
X0730980Y0219740D01*
X0731200Y0219680D01*
X0731400Y0219590D01*
X0731580Y0219460D01*
X0731740Y0219300D01*
X0731870Y0219120D01*
X0731960Y0218920D01*
X0732020Y0218700D01*
X0732040Y0218480D01*
X0732020Y0218260D01*
X0731960Y0218040D01*
X0731870Y0217840D01*
X0731740Y0217660D01*
X0731580Y0217500D01*
X0731400Y0217370D01*
X0731200Y0217280D01*
X0730980Y0217220D01*
X0730760Y0217200D01*
X0727610Y0107610D02*
X0754380Y0107610D01*
X0754380Y0058400D01*
X0727610Y0058400D01*
X0727610Y0107610D01*
X0751230Y0061250D02*
X0751010Y0061270D01*
X0750790Y0061330D01*
X0750590Y0061420D01*
X0750410Y0061550D01*
X0750250Y0061710D01*
X0750120Y0061890D01*
X0750030Y0062090D01*
X0749970Y0062310D01*
X0749950Y0062530D01*
X0749970Y0062750D01*
X0750030Y0062970D01*
X0750120Y0063170D01*
X0750250Y0063350D01*
X0750410Y0063510D01*
X0750590Y0063640D01*
X0750790Y0063730D01*
X0751010Y0063790D01*
X0751230Y0063810D01*
X0751450Y0063790D01*
X0751670Y0063730D01*
X0751870Y0063640D01*
X0752050Y0063510D01*
X0752210Y0063350D01*
X0752340Y0063170D01*
X0752430Y0062970D01*
X0752490Y0062750D01*
X0752510Y0062530D01*
X0752490Y0062310D01*
X0752430Y0062090D01*
X0752340Y0061890D01*
X0752210Y0061710D01*
X0752050Y0061550D01*
X0751870Y0061420D01*
X0751670Y0061330D01*
X0751450Y0061270D01*
X0751230Y0061250D01*
D43*
X0657000Y0093500D02*
X0657000Y0098500D01*
X0654500Y0101000D01*
X0657000Y0103500D01*
X0657000Y0108500D01*
X0654500Y0111000D01*
X0649500Y0111000D01*
X0647000Y0108500D01*
X0647000Y0103500D01*
X0649500Y0101000D01*
X0654500Y0101000D01*
X0649500Y0101000D02*
X0647000Y0098500D01*
X0647000Y0093500D01*
X0649500Y0091000D01*
X0654500Y0091000D01*
X0657000Y0093500D01*
X0654500Y0111000D02*
X0657000Y0113500D01*
X0657000Y0118500D01*
X0654500Y0121000D01*
X0657000Y0123500D01*
X0657000Y0128500D01*
X0654500Y0131000D01*
X0657000Y0133500D01*
X0657000Y0138500D01*
X0654500Y0141000D01*
X0649500Y0141000D01*
X0647000Y0138500D01*
X0647000Y0133500D01*
X0649500Y0131000D01*
X0654500Y0131000D01*
X0649500Y0131000D02*
X0647000Y0128500D01*
X0647000Y0123500D01*
X0649500Y0121000D01*
X0654500Y0121000D01*
X0649500Y0121000D02*
X0647000Y0118500D01*
X0647000Y0113500D01*
X0649500Y0111000D01*
X0627000Y0108500D02*
X0627000Y0103500D01*
X0624500Y0101000D01*
X0627000Y0098500D01*
X0627000Y0093500D01*
X0624500Y0091000D01*
X0619500Y0091000D01*
X0617000Y0093500D01*
X0617000Y0098500D01*
X0619500Y0101000D01*
X0617000Y0103500D01*
X0617000Y0108500D01*
X0619500Y0111000D01*
X0617000Y0113500D01*
X0617000Y0118500D01*
X0619500Y0121000D01*
X0617000Y0123500D01*
X0617000Y0128500D01*
X0619500Y0131000D01*
X0617000Y0133500D01*
X0617000Y0138500D01*
X0619500Y0141000D01*
X0617000Y0143500D01*
X0617000Y0148500D01*
X0619500Y0151000D01*
X0617000Y0153500D01*
X0617000Y0158500D01*
X0619500Y0161000D01*
X0617000Y0163500D01*
X0617000Y0168500D01*
X0619500Y0171000D01*
X0617000Y0173500D01*
X0617000Y0178500D01*
X0619500Y0181000D01*
X0617000Y0183500D01*
X0617000Y0188500D01*
X0619500Y0191000D01*
X0617000Y0193500D01*
X0617000Y0198500D01*
X0619500Y0201000D01*
X0617000Y0203500D01*
X0617000Y0208500D01*
X0619500Y0211000D01*
X0617000Y0213500D01*
X0617000Y0218500D01*
X0619500Y0221000D01*
X0617000Y0223500D01*
X0617000Y0228500D01*
X0619500Y0231000D01*
X0624500Y0231000D01*
X0627000Y0228500D01*
X0627000Y0223500D01*
X0624500Y0221000D01*
X0627000Y0218500D01*
X0627000Y0213500D01*
X0624500Y0211000D01*
X0619500Y0211000D01*
X0624500Y0211000D02*
X0627000Y0208500D01*
X0627000Y0203500D01*
X0624500Y0201000D01*
X0627000Y0198500D01*
X0627000Y0193500D01*
X0624500Y0191000D01*
X0627000Y0188500D01*
X0627000Y0183500D01*
X0624500Y0181000D01*
X0619500Y0181000D01*
X0624500Y0181000D02*
X0627000Y0178500D01*
X0627000Y0173500D01*
X0624500Y0171000D01*
X0627000Y0168500D01*
X0627000Y0163500D01*
X0624500Y0161000D01*
X0627000Y0158500D01*
X0627000Y0153500D01*
X0624500Y0151000D01*
X0619500Y0151000D01*
X0624500Y0151000D02*
X0627000Y0148500D01*
X0627000Y0143500D01*
X0624500Y0141000D01*
X0627000Y0138500D01*
X0627000Y0133500D01*
X0624500Y0131000D01*
X0627000Y0128500D01*
X0627000Y0123500D01*
X0624500Y0121000D01*
X0619500Y0121000D01*
X0624500Y0121000D02*
X0627000Y0118500D01*
X0627000Y0113500D01*
X0624500Y0111000D01*
X0627000Y0108500D01*
X0624500Y0111000D02*
X0619500Y0111000D01*
X0619500Y0101000D02*
X0624500Y0101000D01*
X0597000Y0098500D02*
X0597000Y0093500D01*
X0594500Y0091000D01*
X0589500Y0091000D01*
X0587000Y0093500D01*
X0587000Y0098500D01*
X0589500Y0101000D01*
X0587000Y0103500D01*
X0587000Y0108500D01*
X0589500Y0111000D01*
X0587000Y0113500D01*
X0587000Y0118500D01*
X0589500Y0121000D01*
X0587000Y0123500D01*
X0587000Y0128500D01*
X0589500Y0131000D01*
X0587000Y0133500D01*
X0587000Y0138500D01*
X0589500Y0141000D01*
X0587000Y0143500D01*
X0587000Y0148500D01*
X0589500Y0151000D01*
X0587000Y0153500D01*
X0587000Y0158500D01*
X0589500Y0161000D01*
X0587000Y0163500D01*
X0587000Y0168500D01*
X0589500Y0171000D01*
X0587000Y0173500D01*
X0587000Y0178500D01*
X0589500Y0181000D01*
X0587000Y0183500D01*
X0587000Y0188500D01*
X0589500Y0191000D01*
X0587000Y0193500D01*
X0587000Y0198500D01*
X0589500Y0201000D01*
X0587000Y0203500D01*
X0587000Y0208500D01*
X0589500Y0211000D01*
X0587000Y0213500D01*
X0587000Y0218500D01*
X0589500Y0221000D01*
X0587000Y0223500D01*
X0587000Y0228500D01*
X0589500Y0231000D01*
X0594500Y0231000D01*
X0597000Y0228500D01*
X0597000Y0223500D01*
X0594500Y0221000D01*
X0597000Y0218500D01*
X0597000Y0213500D01*
X0594500Y0211000D01*
X0589500Y0211000D01*
X0594500Y0211000D02*
X0597000Y0208500D01*
X0597000Y0203500D01*
X0594500Y0201000D01*
X0597000Y0198500D01*
X0597000Y0193500D01*
X0594500Y0191000D01*
X0597000Y0188500D01*
X0597000Y0183500D01*
X0594500Y0181000D01*
X0589500Y0181000D01*
X0594500Y0181000D02*
X0597000Y0178500D01*
X0597000Y0173500D01*
X0594500Y0171000D01*
X0597000Y0168500D01*
X0597000Y0163500D01*
X0594500Y0161000D01*
X0597000Y0158500D01*
X0597000Y0153500D01*
X0594500Y0151000D01*
X0589500Y0151000D01*
X0594500Y0151000D02*
X0597000Y0148500D01*
X0597000Y0143500D01*
X0594500Y0141000D01*
X0597000Y0138500D01*
X0597000Y0133500D01*
X0594500Y0131000D01*
X0597000Y0128500D01*
X0597000Y0123500D01*
X0594500Y0121000D01*
X0589500Y0121000D01*
X0594500Y0121000D02*
X0597000Y0118500D01*
X0597000Y0113500D01*
X0594500Y0111000D01*
X0597000Y0108500D01*
X0597000Y0103500D01*
X0594500Y0101000D01*
X0597000Y0098500D01*
X0594500Y0101000D02*
X0589500Y0101000D01*
X0589500Y0111000D02*
X0594500Y0111000D01*
X0586000Y0121000D02*
X0585980Y0121390D01*
X0585920Y0121780D01*
X0585830Y0122160D01*
X0585700Y0122530D01*
X0585530Y0122890D01*
X0585330Y0123220D01*
X0585090Y0123540D01*
X0584830Y0123830D01*
X0586000Y0121000D02*
X0585980Y0120610D01*
X0585920Y0120220D01*
X0585830Y0119840D01*
X0585700Y0119470D01*
X0585530Y0119110D01*
X0585330Y0118780D01*
X0585090Y0118460D01*
X0584830Y0118170D01*
X0579170Y0118170D02*
X0578910Y0118460D01*
X0578670Y0118780D01*
X0578470Y0119110D01*
X0578300Y0119470D01*
X0578170Y0119840D01*
X0578080Y0120220D01*
X0578020Y0120610D01*
X0578000Y0121000D01*
X0578020Y0121390D01*
X0578080Y0121780D01*
X0578170Y0122160D01*
X0578300Y0122530D01*
X0578470Y0122890D01*
X0578670Y0123220D01*
X0578910Y0123540D01*
X0579170Y0123830D01*
X0589500Y0131000D02*
X0594500Y0131000D01*
X0594500Y0141000D02*
X0589500Y0141000D01*
X0589500Y0161000D02*
X0594500Y0161000D01*
X0594500Y0171000D02*
X0589500Y0171000D01*
X0589500Y0191000D02*
X0594500Y0191000D01*
X0594500Y0201000D02*
X0589500Y0201000D01*
X0589500Y0221000D02*
X0594500Y0221000D01*
X0619500Y0221000D02*
X0624500Y0221000D01*
X0647000Y0218500D02*
X0647000Y0213500D01*
X0649500Y0211000D01*
X0654500Y0211000D01*
X0657000Y0213500D01*
X0657000Y0218500D01*
X0654500Y0221000D01*
X0657000Y0223500D01*
X0657000Y0228500D01*
X0654500Y0231000D01*
X0649500Y0231000D01*
X0647000Y0228500D01*
X0647000Y0223500D01*
X0649500Y0221000D01*
X0654500Y0221000D01*
X0649500Y0221000D02*
X0647000Y0218500D01*
X0649500Y0211000D02*
X0647000Y0208500D01*
X0647000Y0203500D01*
X0649500Y0201000D01*
X0654500Y0201000D01*
X0657000Y0198500D01*
X0657000Y0193500D01*
X0654500Y0191000D01*
X0657000Y0188500D01*
X0657000Y0183500D01*
X0654500Y0181000D01*
X0657000Y0178500D01*
X0657000Y0173500D01*
X0654500Y0171000D01*
X0657000Y0168500D01*
X0657000Y0163500D01*
X0654500Y0161000D01*
X0657000Y0158500D01*
X0657000Y0153500D01*
X0654500Y0151000D01*
X0657000Y0148500D01*
X0657000Y0143500D01*
X0654500Y0141000D01*
X0649500Y0141000D02*
X0647000Y0143500D01*
X0647000Y0148500D01*
X0649500Y0151000D01*
X0647000Y0153500D01*
X0647000Y0158500D01*
X0649500Y0161000D01*
X0647000Y0163500D01*
X0647000Y0168500D01*
X0649500Y0171000D01*
X0654500Y0171000D01*
X0649500Y0171000D02*
X0647000Y0173500D01*
X0647000Y0178500D01*
X0649500Y0181000D01*
X0647000Y0183500D01*
X0647000Y0188500D01*
X0649500Y0191000D01*
X0647000Y0193500D01*
X0647000Y0198500D01*
X0649500Y0201000D01*
X0654500Y0201000D02*
X0657000Y0203500D01*
X0657000Y0208500D01*
X0654500Y0211000D01*
X0654500Y0191000D02*
X0649500Y0191000D01*
X0649500Y0181000D02*
X0654500Y0181000D01*
X0654500Y0161000D02*
X0649500Y0161000D01*
X0649500Y0151000D02*
X0654500Y0151000D01*
X0624500Y0141000D02*
X0619500Y0141000D01*
X0619500Y0131000D02*
X0624500Y0131000D01*
X0624500Y0161000D02*
X0619500Y0161000D01*
X0619500Y0171000D02*
X0624500Y0171000D01*
X0624500Y0191000D02*
X0619500Y0191000D01*
X0619500Y0201000D02*
X0624500Y0201000D01*
X0577500Y0081000D02*
X0580000Y0078500D01*
X0580000Y0073500D01*
X0577500Y0071000D01*
X0580000Y0068500D01*
X0580000Y0063500D01*
X0577500Y0061000D01*
X0572500Y0061000D01*
X0570000Y0063500D01*
X0570000Y0068500D01*
X0572500Y0071000D01*
X0570000Y0073500D01*
X0570000Y0078500D01*
X0572500Y0081000D01*
X0577500Y0081000D01*
X0577500Y0071000D02*
X0572500Y0071000D01*
D24*
X0574000Y0054500D02*
X0654000Y0054500D01*
X0654000Y0037000D01*
X0574000Y0037000D01*
X0574000Y0054500D01*
X0574000Y0037000D02*
X0574000Y0029500D01*
X0654000Y0029500D01*
X0654000Y0037000D01*
X0796000Y0071500D02*
X0796000Y0079000D01*
X0816000Y0079000D01*
X0816000Y0071500D01*
X0796000Y0071500D01*
X0796000Y0079000D02*
X0796000Y0096500D01*
X0816000Y0096500D01*
X0816000Y0079000D01*
D43*
X0805100Y0052900D02*
X0781500Y0052910D01*
X0781500Y0027100D01*
X0805100Y0027100D01*
D53*
X0779600Y0040000D03*
D24*
X0564500Y0019500D02*
X0564500Y0240500D01*
X0825500Y0240500D01*
X0825500Y0019500D01*
X0564500Y0019500D01*
D24*
X0023000Y0010500D02*
X0010500Y0010500D01*
X0010500Y0023000D01*
X0834500Y0023000D02*
X0834500Y0010500D01*
X0822000Y0010500D01*
X0822000Y0249500D02*
X0834500Y0249500D01*
X0834500Y0237000D01*
X0010500Y0237000D02*
X0010500Y0249500D01*
X0023000Y0249500D01*
M02*
