G75*
G70*
%OFA0B0*%
%FSLAX25Y25*%
%IPPOS*%
%LPD*%
%AMOC8*
5,1,8,0,0,1.08239X$1,22.5*
%
%ADD66C,0.00100*%
D66*
X0213000Y0216000D02*
X0221000Y0224000D01*
X0221000Y0216000D02*
X0213000Y0224000D01*
X0213000Y0220000D02*
X0221000Y0220000D01*
X0213000Y0222000D02*
X0221000Y0230000D01*
X0221000Y0222000D02*
X0213000Y0230000D01*
X0213000Y0226000D02*
X0221000Y0226000D01*
X0230000Y0185000D02*
X0238000Y0193000D01*
X0238000Y0185000D02*
X0230000Y0193000D01*
X0230000Y0189000D02*
X0238000Y0189000D01*
X0166000Y0207000D02*
X0174000Y0215000D01*
X0174000Y0207000D02*
X0166000Y0215000D01*
X0166000Y0211000D02*
X0174000Y0211000D01*
X0152000Y0064000D02*
X0160000Y0072000D01*
X0160000Y0064000D02*
X0152000Y0072000D01*
X0152000Y0068000D02*
X0160000Y0068000D01*
X0160000Y0048000D02*
X0168000Y0056000D01*
X0168000Y0048000D02*
X0160000Y0056000D01*
X0160000Y0052000D02*
X0168000Y0052000D01*
X0192000Y0070000D02*
X0200000Y0078000D01*
X0200000Y0070000D02*
X0192000Y0078000D01*
X0192000Y0074000D02*
X0200000Y0074000D01*
X0192000Y0076000D02*
X0200000Y0084000D01*
X0200000Y0076000D02*
X0192000Y0084000D01*
X0192000Y0080000D02*
X0200000Y0080000D01*
X0192000Y0082000D02*
X0200000Y0090000D01*
X0200000Y0082000D02*
X0192000Y0090000D01*
X0192000Y0086000D02*
X0200000Y0086000D01*
X0192000Y0088000D02*
X0200000Y0096000D01*
X0200000Y0088000D02*
X0192000Y0096000D01*
X0192000Y0092000D02*
X0200000Y0092000D01*
X0192000Y0185000D02*
X0200000Y0193000D01*
X0200000Y0185000D02*
X0192000Y0193000D01*
X0192000Y0189000D02*
X0200000Y0189000D01*
X0192000Y0191000D02*
X0200000Y0199000D01*
X0200000Y0191000D02*
X0192000Y0199000D01*
X0192000Y0195000D02*
X0200000Y0195000D01*
X0192000Y0197000D02*
X0200000Y0205000D01*
X0200000Y0197000D02*
X0192000Y0205000D01*
X0192000Y0201000D02*
X0200000Y0201000D01*
X0192000Y0203000D02*
X0200000Y0211000D01*
X0200000Y0203000D02*
X0192000Y0211000D01*
X0192000Y0207000D02*
X0200000Y0207000D01*
X0485500Y0216000D02*
X0493500Y0224000D01*
X0493500Y0216000D02*
X0485500Y0224000D01*
X0485500Y0220000D02*
X0493500Y0220000D01*
X0485500Y0222000D02*
X0493500Y0230000D01*
X0493500Y0222000D02*
X0485500Y0230000D01*
X0485500Y0226000D02*
X0493500Y0226000D01*
X0502500Y0185000D02*
X0510500Y0193000D01*
X0510500Y0185000D02*
X0502500Y0193000D01*
X0502500Y0189000D02*
X0510500Y0189000D01*
X0438500Y0207000D02*
X0446500Y0215000D01*
X0446500Y0207000D02*
X0438500Y0215000D01*
X0438500Y0211000D02*
X0446500Y0211000D01*
X0424500Y0064000D02*
X0432500Y0072000D01*
X0432500Y0064000D02*
X0424500Y0072000D01*
X0424500Y0068000D02*
X0432500Y0068000D01*
X0432500Y0048000D02*
X0440500Y0056000D01*
X0440500Y0048000D02*
X0432500Y0056000D01*
X0432500Y0052000D02*
X0440500Y0052000D01*
X0464500Y0070000D02*
X0472500Y0078000D01*
X0472500Y0070000D02*
X0464500Y0078000D01*
X0464500Y0074000D02*
X0472500Y0074000D01*
X0464500Y0076000D02*
X0472500Y0084000D01*
X0472500Y0076000D02*
X0464500Y0084000D01*
X0464500Y0080000D02*
X0472500Y0080000D01*
X0464500Y0082000D02*
X0472500Y0090000D01*
X0472500Y0082000D02*
X0464500Y0090000D01*
X0464500Y0086000D02*
X0472500Y0086000D01*
X0464500Y0088000D02*
X0472500Y0096000D01*
X0472500Y0088000D02*
X0464500Y0096000D01*
X0464500Y0092000D02*
X0472500Y0092000D01*
X0464500Y0185000D02*
X0472500Y0193000D01*
X0472500Y0185000D02*
X0464500Y0193000D01*
X0464500Y0189000D02*
X0472500Y0189000D01*
X0464500Y0191000D02*
X0472500Y0199000D01*
X0472500Y0191000D02*
X0464500Y0199000D01*
X0464500Y0195000D02*
X0472500Y0195000D01*
X0464500Y0197000D02*
X0472500Y0205000D01*
X0472500Y0197000D02*
X0464500Y0205000D01*
X0464500Y0201000D02*
X0472500Y0201000D01*
X0464500Y0203000D02*
X0472500Y0211000D01*
X0472500Y0203000D02*
X0464500Y0211000D01*
X0464500Y0207000D02*
X0472500Y0207000D01*
X0758000Y0216000D02*
X0766000Y0224000D01*
X0766000Y0216000D02*
X0758000Y0224000D01*
X0758000Y0220000D02*
X0766000Y0220000D01*
X0758000Y0222000D02*
X0766000Y0230000D01*
X0766000Y0222000D02*
X0758000Y0230000D01*
X0758000Y0226000D02*
X0766000Y0226000D01*
X0775000Y0185000D02*
X0783000Y0193000D01*
X0783000Y0185000D02*
X0775000Y0193000D01*
X0775000Y0189000D02*
X0783000Y0189000D01*
X0711000Y0207000D02*
X0719000Y0215000D01*
X0719000Y0207000D02*
X0711000Y0215000D01*
X0711000Y0211000D02*
X0719000Y0211000D01*
X0697000Y0064000D02*
X0705000Y0072000D01*
X0705000Y0064000D02*
X0697000Y0072000D01*
X0697000Y0068000D02*
X0705000Y0068000D01*
X0705000Y0048000D02*
X0713000Y0056000D01*
X0713000Y0048000D02*
X0705000Y0056000D01*
X0705000Y0052000D02*
X0713000Y0052000D01*
X0737000Y0070000D02*
X0745000Y0078000D01*
X0745000Y0070000D02*
X0737000Y0078000D01*
X0737000Y0074000D02*
X0745000Y0074000D01*
X0737000Y0076000D02*
X0745000Y0084000D01*
X0745000Y0076000D02*
X0737000Y0084000D01*
X0737000Y0080000D02*
X0745000Y0080000D01*
X0737000Y0082000D02*
X0745000Y0090000D01*
X0745000Y0082000D02*
X0737000Y0090000D01*
X0737000Y0086000D02*
X0745000Y0086000D01*
X0737000Y0088000D02*
X0745000Y0096000D01*
X0745000Y0088000D02*
X0737000Y0096000D01*
X0737000Y0092000D02*
X0745000Y0092000D01*
X0737000Y0185000D02*
X0745000Y0193000D01*
X0745000Y0185000D02*
X0737000Y0193000D01*
X0737000Y0189000D02*
X0745000Y0189000D01*
X0737000Y0191000D02*
X0745000Y0199000D01*
X0745000Y0191000D02*
X0737000Y0199000D01*
X0737000Y0195000D02*
X0745000Y0195000D01*
X0737000Y0197000D02*
X0745000Y0205000D01*
X0745000Y0197000D02*
X0737000Y0205000D01*
X0737000Y0201000D02*
X0745000Y0201000D01*
X0737000Y0203000D02*
X0745000Y0211000D01*
X0745000Y0203000D02*
X0737000Y0211000D01*
X0737000Y0207000D02*
X0745000Y0207000D01*
X0037000Y0116000D02*
X0033000Y0116000D01*
X0037000Y0116000D02*
X0041000Y0120000D01*
X0041000Y0112000D01*
X0037000Y0116000D01*
X0037000Y0126000D02*
X0033000Y0126000D01*
X0037000Y0126000D02*
X0041000Y0130000D01*
X0041000Y0122000D01*
X0037000Y0126000D01*
X0309500Y0116000D02*
X0305500Y0116000D01*
X0309500Y0116000D02*
X0313500Y0120000D01*
X0313500Y0112000D01*
X0309500Y0116000D01*
X0309500Y0126000D02*
X0305500Y0126000D01*
X0309500Y0126000D02*
X0313500Y0130000D01*
X0313500Y0122000D01*
X0309500Y0126000D01*
X0582000Y0116000D02*
X0578000Y0116000D01*
X0582000Y0116000D02*
X0586000Y0120000D01*
X0586000Y0112000D01*
X0582000Y0116000D01*
X0582000Y0126000D02*
X0578000Y0126000D01*
X0582000Y0126000D02*
X0586000Y0130000D01*
X0586000Y0122000D01*
X0582000Y0126000D01*
X0030000Y0066000D02*
X0034000Y0066000D01*
X0030000Y0066000D02*
X0026000Y0070000D01*
X0026000Y0062000D01*
X0030000Y0066000D01*
X0030000Y0076000D02*
X0034000Y0076000D01*
X0030000Y0076000D02*
X0026000Y0080000D01*
X0026000Y0072000D01*
X0030000Y0076000D01*
X0047000Y0096000D02*
X0051000Y0096000D01*
X0047000Y0096000D02*
X0043000Y0100000D01*
X0043000Y0092000D01*
X0047000Y0096000D01*
X0047000Y0106000D02*
X0051000Y0106000D01*
X0047000Y0106000D02*
X0043000Y0110000D01*
X0043000Y0102000D01*
X0047000Y0106000D01*
X0047000Y0116000D02*
X0051000Y0116000D01*
X0047000Y0116000D02*
X0043000Y0120000D01*
X0043000Y0112000D01*
X0047000Y0116000D01*
X0047000Y0126000D02*
X0051000Y0126000D01*
X0047000Y0126000D02*
X0043000Y0130000D01*
X0043000Y0122000D01*
X0047000Y0126000D01*
X0047000Y0136000D02*
X0051000Y0136000D01*
X0047000Y0136000D02*
X0043000Y0140000D01*
X0043000Y0132000D01*
X0047000Y0136000D01*
X0047000Y0146000D02*
X0051000Y0146000D01*
X0047000Y0146000D02*
X0043000Y0150000D01*
X0043000Y0142000D01*
X0047000Y0146000D01*
X0047000Y0156000D02*
X0051000Y0156000D01*
X0047000Y0156000D02*
X0043000Y0160000D01*
X0043000Y0152000D01*
X0047000Y0156000D01*
X0047000Y0166000D02*
X0051000Y0166000D01*
X0047000Y0166000D02*
X0043000Y0170000D01*
X0043000Y0162000D01*
X0047000Y0166000D01*
X0047000Y0176000D02*
X0051000Y0176000D01*
X0047000Y0176000D02*
X0043000Y0180000D01*
X0043000Y0172000D01*
X0047000Y0176000D01*
X0047000Y0186000D02*
X0051000Y0186000D01*
X0047000Y0186000D02*
X0043000Y0190000D01*
X0043000Y0182000D01*
X0047000Y0186000D01*
X0047000Y0196000D02*
X0051000Y0196000D01*
X0047000Y0196000D02*
X0043000Y0200000D01*
X0043000Y0192000D01*
X0047000Y0196000D01*
X0047000Y0206000D02*
X0051000Y0206000D01*
X0047000Y0206000D02*
X0043000Y0210000D01*
X0043000Y0202000D01*
X0047000Y0206000D01*
X0047000Y0216000D02*
X0051000Y0216000D01*
X0047000Y0216000D02*
X0043000Y0220000D01*
X0043000Y0212000D01*
X0047000Y0216000D01*
X0047000Y0226000D02*
X0051000Y0226000D01*
X0047000Y0226000D02*
X0043000Y0230000D01*
X0043000Y0222000D01*
X0047000Y0226000D01*
X0077000Y0226000D02*
X0081000Y0226000D01*
X0077000Y0226000D02*
X0073000Y0230000D01*
X0073000Y0222000D01*
X0077000Y0226000D01*
X0077000Y0216000D02*
X0081000Y0216000D01*
X0077000Y0216000D02*
X0073000Y0220000D01*
X0073000Y0212000D01*
X0077000Y0216000D01*
X0077000Y0206000D02*
X0081000Y0206000D01*
X0077000Y0206000D02*
X0073000Y0210000D01*
X0073000Y0202000D01*
X0077000Y0206000D01*
X0077000Y0196000D02*
X0081000Y0196000D01*
X0077000Y0196000D02*
X0073000Y0200000D01*
X0073000Y0192000D01*
X0077000Y0196000D01*
X0077000Y0186000D02*
X0081000Y0186000D01*
X0077000Y0186000D02*
X0073000Y0190000D01*
X0073000Y0182000D01*
X0077000Y0186000D01*
X0077000Y0176000D02*
X0081000Y0176000D01*
X0077000Y0176000D02*
X0073000Y0180000D01*
X0073000Y0172000D01*
X0077000Y0176000D01*
X0077000Y0166000D02*
X0081000Y0166000D01*
X0077000Y0166000D02*
X0073000Y0170000D01*
X0073000Y0162000D01*
X0077000Y0166000D01*
X0077000Y0156000D02*
X0081000Y0156000D01*
X0077000Y0156000D02*
X0073000Y0160000D01*
X0073000Y0152000D01*
X0077000Y0156000D01*
X0077000Y0146000D02*
X0081000Y0146000D01*
X0077000Y0146000D02*
X0073000Y0150000D01*
X0073000Y0142000D01*
X0077000Y0146000D01*
X0077000Y0136000D02*
X0081000Y0136000D01*
X0077000Y0136000D02*
X0073000Y0140000D01*
X0073000Y0132000D01*
X0077000Y0136000D01*
X0077000Y0126000D02*
X0081000Y0126000D01*
X0077000Y0126000D02*
X0073000Y0130000D01*
X0073000Y0122000D01*
X0077000Y0126000D01*
X0077000Y0116000D02*
X0081000Y0116000D01*
X0077000Y0116000D02*
X0073000Y0120000D01*
X0073000Y0112000D01*
X0077000Y0116000D01*
X0077000Y0106000D02*
X0081000Y0106000D01*
X0077000Y0106000D02*
X0073000Y0110000D01*
X0073000Y0102000D01*
X0077000Y0106000D01*
X0077000Y0096000D02*
X0081000Y0096000D01*
X0077000Y0096000D02*
X0073000Y0100000D01*
X0073000Y0092000D01*
X0077000Y0096000D01*
X0107000Y0096000D02*
X0111000Y0096000D01*
X0107000Y0096000D02*
X0103000Y0100000D01*
X0103000Y0092000D01*
X0107000Y0096000D01*
X0107000Y0106000D02*
X0111000Y0106000D01*
X0107000Y0106000D02*
X0103000Y0110000D01*
X0103000Y0102000D01*
X0107000Y0106000D01*
X0107000Y0116000D02*
X0111000Y0116000D01*
X0107000Y0116000D02*
X0103000Y0120000D01*
X0103000Y0112000D01*
X0107000Y0116000D01*
X0107000Y0126000D02*
X0111000Y0126000D01*
X0107000Y0126000D02*
X0103000Y0130000D01*
X0103000Y0122000D01*
X0107000Y0126000D01*
X0107000Y0136000D02*
X0111000Y0136000D01*
X0107000Y0136000D02*
X0103000Y0140000D01*
X0103000Y0132000D01*
X0107000Y0136000D01*
X0107000Y0146000D02*
X0111000Y0146000D01*
X0107000Y0146000D02*
X0103000Y0150000D01*
X0103000Y0142000D01*
X0107000Y0146000D01*
X0107000Y0156000D02*
X0111000Y0156000D01*
X0107000Y0156000D02*
X0103000Y0160000D01*
X0103000Y0152000D01*
X0107000Y0156000D01*
X0107000Y0166000D02*
X0111000Y0166000D01*
X0107000Y0166000D02*
X0103000Y0170000D01*
X0103000Y0162000D01*
X0107000Y0166000D01*
X0107000Y0176000D02*
X0111000Y0176000D01*
X0107000Y0176000D02*
X0103000Y0180000D01*
X0103000Y0172000D01*
X0107000Y0176000D01*
X0107000Y0186000D02*
X0111000Y0186000D01*
X0107000Y0186000D02*
X0103000Y0190000D01*
X0103000Y0182000D01*
X0107000Y0186000D01*
X0107000Y0196000D02*
X0111000Y0196000D01*
X0107000Y0196000D02*
X0103000Y0200000D01*
X0103000Y0192000D01*
X0107000Y0196000D01*
X0107000Y0206000D02*
X0111000Y0206000D01*
X0107000Y0206000D02*
X0103000Y0210000D01*
X0103000Y0202000D01*
X0107000Y0206000D01*
X0107000Y0216000D02*
X0111000Y0216000D01*
X0107000Y0216000D02*
X0103000Y0220000D01*
X0103000Y0212000D01*
X0107000Y0216000D01*
X0107000Y0226000D02*
X0111000Y0226000D01*
X0107000Y0226000D02*
X0103000Y0230000D01*
X0103000Y0222000D01*
X0107000Y0226000D01*
X0266000Y0084000D02*
X0270000Y0084000D01*
X0266000Y0084000D02*
X0262000Y0088000D01*
X0262000Y0080000D01*
X0266000Y0084000D01*
X0256000Y0084000D02*
X0260000Y0084000D01*
X0256000Y0084000D02*
X0252000Y0088000D01*
X0252000Y0080000D01*
X0256000Y0084000D01*
X0104000Y0042000D02*
X0108000Y0042000D01*
X0104000Y0042000D02*
X0100000Y0046000D01*
X0100000Y0038000D01*
X0104000Y0042000D01*
X0094000Y0042000D02*
X0098000Y0042000D01*
X0094000Y0042000D02*
X0090000Y0046000D01*
X0090000Y0038000D01*
X0094000Y0042000D01*
X0084000Y0042000D02*
X0088000Y0042000D01*
X0084000Y0042000D02*
X0080000Y0046000D01*
X0080000Y0038000D01*
X0084000Y0042000D01*
X0074000Y0042000D02*
X0078000Y0042000D01*
X0074000Y0042000D02*
X0070000Y0046000D01*
X0070000Y0038000D01*
X0074000Y0042000D01*
X0064000Y0042000D02*
X0068000Y0042000D01*
X0064000Y0042000D02*
X0060000Y0046000D01*
X0060000Y0038000D01*
X0064000Y0042000D01*
X0054000Y0042000D02*
X0058000Y0042000D01*
X0054000Y0042000D02*
X0050000Y0046000D01*
X0050000Y0038000D01*
X0054000Y0042000D01*
X0044000Y0042000D02*
X0048000Y0042000D01*
X0044000Y0042000D02*
X0040000Y0046000D01*
X0040000Y0038000D01*
X0044000Y0042000D01*
X0034000Y0042000D02*
X0038000Y0042000D01*
X0034000Y0042000D02*
X0030000Y0046000D01*
X0030000Y0038000D01*
X0034000Y0042000D01*
X0302500Y0066000D02*
X0306500Y0066000D01*
X0302500Y0066000D02*
X0298500Y0070000D01*
X0298500Y0062000D01*
X0302500Y0066000D01*
X0302500Y0076000D02*
X0306500Y0076000D01*
X0302500Y0076000D02*
X0298500Y0080000D01*
X0298500Y0072000D01*
X0302500Y0076000D01*
X0319500Y0096000D02*
X0323500Y0096000D01*
X0319500Y0096000D02*
X0315500Y0100000D01*
X0315500Y0092000D01*
X0319500Y0096000D01*
X0319500Y0106000D02*
X0323500Y0106000D01*
X0319500Y0106000D02*
X0315500Y0110000D01*
X0315500Y0102000D01*
X0319500Y0106000D01*
X0319500Y0116000D02*
X0323500Y0116000D01*
X0319500Y0116000D02*
X0315500Y0120000D01*
X0315500Y0112000D01*
X0319500Y0116000D01*
X0319500Y0126000D02*
X0323500Y0126000D01*
X0319500Y0126000D02*
X0315500Y0130000D01*
X0315500Y0122000D01*
X0319500Y0126000D01*
X0319500Y0136000D02*
X0323500Y0136000D01*
X0319500Y0136000D02*
X0315500Y0140000D01*
X0315500Y0132000D01*
X0319500Y0136000D01*
X0319500Y0146000D02*
X0323500Y0146000D01*
X0319500Y0146000D02*
X0315500Y0150000D01*
X0315500Y0142000D01*
X0319500Y0146000D01*
X0319500Y0156000D02*
X0323500Y0156000D01*
X0319500Y0156000D02*
X0315500Y0160000D01*
X0315500Y0152000D01*
X0319500Y0156000D01*
X0319500Y0166000D02*
X0323500Y0166000D01*
X0319500Y0166000D02*
X0315500Y0170000D01*
X0315500Y0162000D01*
X0319500Y0166000D01*
X0319500Y0176000D02*
X0323500Y0176000D01*
X0319500Y0176000D02*
X0315500Y0180000D01*
X0315500Y0172000D01*
X0319500Y0176000D01*
X0319500Y0186000D02*
X0323500Y0186000D01*
X0319500Y0186000D02*
X0315500Y0190000D01*
X0315500Y0182000D01*
X0319500Y0186000D01*
X0319500Y0196000D02*
X0323500Y0196000D01*
X0319500Y0196000D02*
X0315500Y0200000D01*
X0315500Y0192000D01*
X0319500Y0196000D01*
X0319500Y0206000D02*
X0323500Y0206000D01*
X0319500Y0206000D02*
X0315500Y0210000D01*
X0315500Y0202000D01*
X0319500Y0206000D01*
X0319500Y0216000D02*
X0323500Y0216000D01*
X0319500Y0216000D02*
X0315500Y0220000D01*
X0315500Y0212000D01*
X0319500Y0216000D01*
X0319500Y0226000D02*
X0323500Y0226000D01*
X0319500Y0226000D02*
X0315500Y0230000D01*
X0315500Y0222000D01*
X0319500Y0226000D01*
X0349500Y0226000D02*
X0353500Y0226000D01*
X0349500Y0226000D02*
X0345500Y0230000D01*
X0345500Y0222000D01*
X0349500Y0226000D01*
X0349500Y0216000D02*
X0353500Y0216000D01*
X0349500Y0216000D02*
X0345500Y0220000D01*
X0345500Y0212000D01*
X0349500Y0216000D01*
X0349500Y0206000D02*
X0353500Y0206000D01*
X0349500Y0206000D02*
X0345500Y0210000D01*
X0345500Y0202000D01*
X0349500Y0206000D01*
X0349500Y0196000D02*
X0353500Y0196000D01*
X0349500Y0196000D02*
X0345500Y0200000D01*
X0345500Y0192000D01*
X0349500Y0196000D01*
X0349500Y0186000D02*
X0353500Y0186000D01*
X0349500Y0186000D02*
X0345500Y0190000D01*
X0345500Y0182000D01*
X0349500Y0186000D01*
X0349500Y0176000D02*
X0353500Y0176000D01*
X0349500Y0176000D02*
X0345500Y0180000D01*
X0345500Y0172000D01*
X0349500Y0176000D01*
X0349500Y0166000D02*
X0353500Y0166000D01*
X0349500Y0166000D02*
X0345500Y0170000D01*
X0345500Y0162000D01*
X0349500Y0166000D01*
X0349500Y0156000D02*
X0353500Y0156000D01*
X0349500Y0156000D02*
X0345500Y0160000D01*
X0345500Y0152000D01*
X0349500Y0156000D01*
X0349500Y0146000D02*
X0353500Y0146000D01*
X0349500Y0146000D02*
X0345500Y0150000D01*
X0345500Y0142000D01*
X0349500Y0146000D01*
X0349500Y0136000D02*
X0353500Y0136000D01*
X0349500Y0136000D02*
X0345500Y0140000D01*
X0345500Y0132000D01*
X0349500Y0136000D01*
X0349500Y0126000D02*
X0353500Y0126000D01*
X0349500Y0126000D02*
X0345500Y0130000D01*
X0345500Y0122000D01*
X0349500Y0126000D01*
X0349500Y0116000D02*
X0353500Y0116000D01*
X0349500Y0116000D02*
X0345500Y0120000D01*
X0345500Y0112000D01*
X0349500Y0116000D01*
X0349500Y0106000D02*
X0353500Y0106000D01*
X0349500Y0106000D02*
X0345500Y0110000D01*
X0345500Y0102000D01*
X0349500Y0106000D01*
X0349500Y0096000D02*
X0353500Y0096000D01*
X0349500Y0096000D02*
X0345500Y0100000D01*
X0345500Y0092000D01*
X0349500Y0096000D01*
X0379500Y0096000D02*
X0383500Y0096000D01*
X0379500Y0096000D02*
X0375500Y0100000D01*
X0375500Y0092000D01*
X0379500Y0096000D01*
X0379500Y0106000D02*
X0383500Y0106000D01*
X0379500Y0106000D02*
X0375500Y0110000D01*
X0375500Y0102000D01*
X0379500Y0106000D01*
X0379500Y0116000D02*
X0383500Y0116000D01*
X0379500Y0116000D02*
X0375500Y0120000D01*
X0375500Y0112000D01*
X0379500Y0116000D01*
X0379500Y0126000D02*
X0383500Y0126000D01*
X0379500Y0126000D02*
X0375500Y0130000D01*
X0375500Y0122000D01*
X0379500Y0126000D01*
X0379500Y0136000D02*
X0383500Y0136000D01*
X0379500Y0136000D02*
X0375500Y0140000D01*
X0375500Y0132000D01*
X0379500Y0136000D01*
X0379500Y0146000D02*
X0383500Y0146000D01*
X0379500Y0146000D02*
X0375500Y0150000D01*
X0375500Y0142000D01*
X0379500Y0146000D01*
X0379500Y0156000D02*
X0383500Y0156000D01*
X0379500Y0156000D02*
X0375500Y0160000D01*
X0375500Y0152000D01*
X0379500Y0156000D01*
X0379500Y0166000D02*
X0383500Y0166000D01*
X0379500Y0166000D02*
X0375500Y0170000D01*
X0375500Y0162000D01*
X0379500Y0166000D01*
X0379500Y0176000D02*
X0383500Y0176000D01*
X0379500Y0176000D02*
X0375500Y0180000D01*
X0375500Y0172000D01*
X0379500Y0176000D01*
X0379500Y0186000D02*
X0383500Y0186000D01*
X0379500Y0186000D02*
X0375500Y0190000D01*
X0375500Y0182000D01*
X0379500Y0186000D01*
X0379500Y0196000D02*
X0383500Y0196000D01*
X0379500Y0196000D02*
X0375500Y0200000D01*
X0375500Y0192000D01*
X0379500Y0196000D01*
X0379500Y0206000D02*
X0383500Y0206000D01*
X0379500Y0206000D02*
X0375500Y0210000D01*
X0375500Y0202000D01*
X0379500Y0206000D01*
X0379500Y0216000D02*
X0383500Y0216000D01*
X0379500Y0216000D02*
X0375500Y0220000D01*
X0375500Y0212000D01*
X0379500Y0216000D01*
X0379500Y0226000D02*
X0383500Y0226000D01*
X0379500Y0226000D02*
X0375500Y0230000D01*
X0375500Y0222000D01*
X0379500Y0226000D01*
X0538500Y0084000D02*
X0542500Y0084000D01*
X0538500Y0084000D02*
X0534500Y0088000D01*
X0534500Y0080000D01*
X0538500Y0084000D01*
X0528500Y0084000D02*
X0532500Y0084000D01*
X0528500Y0084000D02*
X0524500Y0088000D01*
X0524500Y0080000D01*
X0528500Y0084000D01*
X0376500Y0042000D02*
X0380500Y0042000D01*
X0376500Y0042000D02*
X0372500Y0046000D01*
X0372500Y0038000D01*
X0376500Y0042000D01*
X0366500Y0042000D02*
X0370500Y0042000D01*
X0366500Y0042000D02*
X0362500Y0046000D01*
X0362500Y0038000D01*
X0366500Y0042000D01*
X0356500Y0042000D02*
X0360500Y0042000D01*
X0356500Y0042000D02*
X0352500Y0046000D01*
X0352500Y0038000D01*
X0356500Y0042000D01*
X0346500Y0042000D02*
X0350500Y0042000D01*
X0346500Y0042000D02*
X0342500Y0046000D01*
X0342500Y0038000D01*
X0346500Y0042000D01*
X0336500Y0042000D02*
X0340500Y0042000D01*
X0336500Y0042000D02*
X0332500Y0046000D01*
X0332500Y0038000D01*
X0336500Y0042000D01*
X0326500Y0042000D02*
X0330500Y0042000D01*
X0326500Y0042000D02*
X0322500Y0046000D01*
X0322500Y0038000D01*
X0326500Y0042000D01*
X0316500Y0042000D02*
X0320500Y0042000D01*
X0316500Y0042000D02*
X0312500Y0046000D01*
X0312500Y0038000D01*
X0316500Y0042000D01*
X0306500Y0042000D02*
X0310500Y0042000D01*
X0306500Y0042000D02*
X0302500Y0046000D01*
X0302500Y0038000D01*
X0306500Y0042000D01*
X0575000Y0066000D02*
X0579000Y0066000D01*
X0575000Y0066000D02*
X0571000Y0070000D01*
X0571000Y0062000D01*
X0575000Y0066000D01*
X0575000Y0076000D02*
X0579000Y0076000D01*
X0575000Y0076000D02*
X0571000Y0080000D01*
X0571000Y0072000D01*
X0575000Y0076000D01*
X0592000Y0096000D02*
X0596000Y0096000D01*
X0592000Y0096000D02*
X0588000Y0100000D01*
X0588000Y0092000D01*
X0592000Y0096000D01*
X0592000Y0106000D02*
X0596000Y0106000D01*
X0592000Y0106000D02*
X0588000Y0110000D01*
X0588000Y0102000D01*
X0592000Y0106000D01*
X0592000Y0116000D02*
X0596000Y0116000D01*
X0592000Y0116000D02*
X0588000Y0120000D01*
X0588000Y0112000D01*
X0592000Y0116000D01*
X0592000Y0126000D02*
X0596000Y0126000D01*
X0592000Y0126000D02*
X0588000Y0130000D01*
X0588000Y0122000D01*
X0592000Y0126000D01*
X0592000Y0136000D02*
X0596000Y0136000D01*
X0592000Y0136000D02*
X0588000Y0140000D01*
X0588000Y0132000D01*
X0592000Y0136000D01*
X0592000Y0146000D02*
X0596000Y0146000D01*
X0592000Y0146000D02*
X0588000Y0150000D01*
X0588000Y0142000D01*
X0592000Y0146000D01*
X0592000Y0156000D02*
X0596000Y0156000D01*
X0592000Y0156000D02*
X0588000Y0160000D01*
X0588000Y0152000D01*
X0592000Y0156000D01*
X0592000Y0166000D02*
X0596000Y0166000D01*
X0592000Y0166000D02*
X0588000Y0170000D01*
X0588000Y0162000D01*
X0592000Y0166000D01*
X0592000Y0176000D02*
X0596000Y0176000D01*
X0592000Y0176000D02*
X0588000Y0180000D01*
X0588000Y0172000D01*
X0592000Y0176000D01*
X0592000Y0186000D02*
X0596000Y0186000D01*
X0592000Y0186000D02*
X0588000Y0190000D01*
X0588000Y0182000D01*
X0592000Y0186000D01*
X0592000Y0196000D02*
X0596000Y0196000D01*
X0592000Y0196000D02*
X0588000Y0200000D01*
X0588000Y0192000D01*
X0592000Y0196000D01*
X0592000Y0206000D02*
X0596000Y0206000D01*
X0592000Y0206000D02*
X0588000Y0210000D01*
X0588000Y0202000D01*
X0592000Y0206000D01*
X0592000Y0216000D02*
X0596000Y0216000D01*
X0592000Y0216000D02*
X0588000Y0220000D01*
X0588000Y0212000D01*
X0592000Y0216000D01*
X0592000Y0226000D02*
X0596000Y0226000D01*
X0592000Y0226000D02*
X0588000Y0230000D01*
X0588000Y0222000D01*
X0592000Y0226000D01*
X0622000Y0226000D02*
X0626000Y0226000D01*
X0622000Y0226000D02*
X0618000Y0230000D01*
X0618000Y0222000D01*
X0622000Y0226000D01*
X0622000Y0216000D02*
X0626000Y0216000D01*
X0622000Y0216000D02*
X0618000Y0220000D01*
X0618000Y0212000D01*
X0622000Y0216000D01*
X0622000Y0206000D02*
X0626000Y0206000D01*
X0622000Y0206000D02*
X0618000Y0210000D01*
X0618000Y0202000D01*
X0622000Y0206000D01*
X0622000Y0196000D02*
X0626000Y0196000D01*
X0622000Y0196000D02*
X0618000Y0200000D01*
X0618000Y0192000D01*
X0622000Y0196000D01*
X0622000Y0186000D02*
X0626000Y0186000D01*
X0622000Y0186000D02*
X0618000Y0190000D01*
X0618000Y0182000D01*
X0622000Y0186000D01*
X0622000Y0176000D02*
X0626000Y0176000D01*
X0622000Y0176000D02*
X0618000Y0180000D01*
X0618000Y0172000D01*
X0622000Y0176000D01*
X0622000Y0166000D02*
X0626000Y0166000D01*
X0622000Y0166000D02*
X0618000Y0170000D01*
X0618000Y0162000D01*
X0622000Y0166000D01*
X0622000Y0156000D02*
X0626000Y0156000D01*
X0622000Y0156000D02*
X0618000Y0160000D01*
X0618000Y0152000D01*
X0622000Y0156000D01*
X0622000Y0146000D02*
X0626000Y0146000D01*
X0622000Y0146000D02*
X0618000Y0150000D01*
X0618000Y0142000D01*
X0622000Y0146000D01*
X0622000Y0136000D02*
X0626000Y0136000D01*
X0622000Y0136000D02*
X0618000Y0140000D01*
X0618000Y0132000D01*
X0622000Y0136000D01*
X0622000Y0126000D02*
X0626000Y0126000D01*
X0622000Y0126000D02*
X0618000Y0130000D01*
X0618000Y0122000D01*
X0622000Y0126000D01*
X0622000Y0116000D02*
X0626000Y0116000D01*
X0622000Y0116000D02*
X0618000Y0120000D01*
X0618000Y0112000D01*
X0622000Y0116000D01*
X0622000Y0106000D02*
X0626000Y0106000D01*
X0622000Y0106000D02*
X0618000Y0110000D01*
X0618000Y0102000D01*
X0622000Y0106000D01*
X0622000Y0096000D02*
X0626000Y0096000D01*
X0622000Y0096000D02*
X0618000Y0100000D01*
X0618000Y0092000D01*
X0622000Y0096000D01*
X0652000Y0096000D02*
X0656000Y0096000D01*
X0652000Y0096000D02*
X0648000Y0100000D01*
X0648000Y0092000D01*
X0652000Y0096000D01*
X0652000Y0106000D02*
X0656000Y0106000D01*
X0652000Y0106000D02*
X0648000Y0110000D01*
X0648000Y0102000D01*
X0652000Y0106000D01*
X0652000Y0116000D02*
X0656000Y0116000D01*
X0652000Y0116000D02*
X0648000Y0120000D01*
X0648000Y0112000D01*
X0652000Y0116000D01*
X0652000Y0126000D02*
X0656000Y0126000D01*
X0652000Y0126000D02*
X0648000Y0130000D01*
X0648000Y0122000D01*
X0652000Y0126000D01*
X0652000Y0136000D02*
X0656000Y0136000D01*
X0652000Y0136000D02*
X0648000Y0140000D01*
X0648000Y0132000D01*
X0652000Y0136000D01*
X0652000Y0146000D02*
X0656000Y0146000D01*
X0652000Y0146000D02*
X0648000Y0150000D01*
X0648000Y0142000D01*
X0652000Y0146000D01*
X0652000Y0156000D02*
X0656000Y0156000D01*
X0652000Y0156000D02*
X0648000Y0160000D01*
X0648000Y0152000D01*
X0652000Y0156000D01*
X0652000Y0166000D02*
X0656000Y0166000D01*
X0652000Y0166000D02*
X0648000Y0170000D01*
X0648000Y0162000D01*
X0652000Y0166000D01*
X0652000Y0176000D02*
X0656000Y0176000D01*
X0652000Y0176000D02*
X0648000Y0180000D01*
X0648000Y0172000D01*
X0652000Y0176000D01*
X0652000Y0186000D02*
X0656000Y0186000D01*
X0652000Y0186000D02*
X0648000Y0190000D01*
X0648000Y0182000D01*
X0652000Y0186000D01*
X0652000Y0196000D02*
X0656000Y0196000D01*
X0652000Y0196000D02*
X0648000Y0200000D01*
X0648000Y0192000D01*
X0652000Y0196000D01*
X0652000Y0206000D02*
X0656000Y0206000D01*
X0652000Y0206000D02*
X0648000Y0210000D01*
X0648000Y0202000D01*
X0652000Y0206000D01*
X0652000Y0216000D02*
X0656000Y0216000D01*
X0652000Y0216000D02*
X0648000Y0220000D01*
X0648000Y0212000D01*
X0652000Y0216000D01*
X0652000Y0226000D02*
X0656000Y0226000D01*
X0652000Y0226000D02*
X0648000Y0230000D01*
X0648000Y0222000D01*
X0652000Y0226000D01*
X0811000Y0084000D02*
X0815000Y0084000D01*
X0811000Y0084000D02*
X0807000Y0088000D01*
X0807000Y0080000D01*
X0811000Y0084000D01*
X0801000Y0084000D02*
X0805000Y0084000D01*
X0801000Y0084000D02*
X0797000Y0088000D01*
X0797000Y0080000D01*
X0801000Y0084000D01*
X0649000Y0042000D02*
X0653000Y0042000D01*
X0649000Y0042000D02*
X0645000Y0046000D01*
X0645000Y0038000D01*
X0649000Y0042000D01*
X0639000Y0042000D02*
X0643000Y0042000D01*
X0639000Y0042000D02*
X0635000Y0046000D01*
X0635000Y0038000D01*
X0639000Y0042000D01*
X0629000Y0042000D02*
X0633000Y0042000D01*
X0629000Y0042000D02*
X0625000Y0046000D01*
X0625000Y0038000D01*
X0629000Y0042000D01*
X0619000Y0042000D02*
X0623000Y0042000D01*
X0619000Y0042000D02*
X0615000Y0046000D01*
X0615000Y0038000D01*
X0619000Y0042000D01*
X0609000Y0042000D02*
X0613000Y0042000D01*
X0609000Y0042000D02*
X0605000Y0046000D01*
X0605000Y0038000D01*
X0609000Y0042000D01*
X0599000Y0042000D02*
X0603000Y0042000D01*
X0599000Y0042000D02*
X0595000Y0046000D01*
X0595000Y0038000D01*
X0599000Y0042000D01*
X0589000Y0042000D02*
X0593000Y0042000D01*
X0589000Y0042000D02*
X0585000Y0046000D01*
X0585000Y0038000D01*
X0589000Y0042000D01*
X0579000Y0042000D02*
X0583000Y0042000D01*
X0579000Y0042000D02*
X0575000Y0046000D01*
X0575000Y0038000D01*
X0579000Y0042000D01*
X0256000Y0220000D02*
X0264000Y0220000D01*
X0260000Y0216000D02*
X0260000Y0224000D01*
X0256100Y0220000D02*
X0256120Y0220390D01*
X0256180Y0220790D01*
X0256280Y0221170D01*
X0256420Y0221540D01*
X0256590Y0221890D01*
X0256800Y0222230D01*
X0257040Y0222540D01*
X0257310Y0222830D01*
X0257610Y0223080D01*
X0257940Y0223310D01*
X0258280Y0223500D01*
X0258650Y0223660D01*
X0259020Y0223780D01*
X0259410Y0223860D01*
X0259800Y0223890D01*
X0260200Y0223890D01*
X0260590Y0223860D01*
X0260980Y0223780D01*
X0261350Y0223660D01*
X0261720Y0223500D01*
X0262060Y0223310D01*
X0262390Y0223080D01*
X0262690Y0222830D01*
X0262960Y0222540D01*
X0263200Y0222230D01*
X0263410Y0221890D01*
X0263580Y0221540D01*
X0263720Y0221170D01*
X0263820Y0220790D01*
X0263880Y0220390D01*
X0263900Y0220000D01*
X0263880Y0219610D01*
X0263820Y0219210D01*
X0263720Y0218830D01*
X0263580Y0218460D01*
X0263410Y0218110D01*
X0263200Y0217770D01*
X0262960Y0217460D01*
X0262690Y0217170D01*
X0262390Y0216920D01*
X0262060Y0216690D01*
X0261720Y0216500D01*
X0261350Y0216340D01*
X0260980Y0216220D01*
X0260590Y0216140D01*
X0260200Y0216110D01*
X0259800Y0216110D01*
X0259410Y0216140D01*
X0259020Y0216220D01*
X0258650Y0216340D01*
X0258280Y0216500D01*
X0257940Y0216690D01*
X0257610Y0216920D01*
X0257310Y0217170D01*
X0257040Y0217460D01*
X0256800Y0217770D01*
X0256590Y0218110D01*
X0256420Y0218460D01*
X0256280Y0218830D01*
X0256180Y0219210D01*
X0256120Y0219610D01*
X0256100Y0220000D01*
X0136000Y0090000D02*
X0144000Y0090000D01*
X0140000Y0086000D02*
X0140000Y0094000D01*
X0136100Y0090000D02*
X0136120Y0090390D01*
X0136180Y0090790D01*
X0136280Y0091170D01*
X0136420Y0091540D01*
X0136590Y0091890D01*
X0136800Y0092230D01*
X0137040Y0092540D01*
X0137310Y0092830D01*
X0137610Y0093080D01*
X0137940Y0093310D01*
X0138280Y0093500D01*
X0138650Y0093660D01*
X0139020Y0093780D01*
X0139410Y0093860D01*
X0139800Y0093890D01*
X0140200Y0093890D01*
X0140590Y0093860D01*
X0140980Y0093780D01*
X0141350Y0093660D01*
X0141720Y0093500D01*
X0142060Y0093310D01*
X0142390Y0093080D01*
X0142690Y0092830D01*
X0142960Y0092540D01*
X0143200Y0092230D01*
X0143410Y0091890D01*
X0143580Y0091540D01*
X0143720Y0091170D01*
X0143820Y0090790D01*
X0143880Y0090390D01*
X0143900Y0090000D01*
X0143880Y0089610D01*
X0143820Y0089210D01*
X0143720Y0088830D01*
X0143580Y0088460D01*
X0143410Y0088110D01*
X0143200Y0087770D01*
X0142960Y0087460D01*
X0142690Y0087170D01*
X0142390Y0086920D01*
X0142060Y0086690D01*
X0141720Y0086500D01*
X0141350Y0086340D01*
X0140980Y0086220D01*
X0140590Y0086140D01*
X0140200Y0086110D01*
X0139800Y0086110D01*
X0139410Y0086140D01*
X0139020Y0086220D01*
X0138650Y0086340D01*
X0138280Y0086500D01*
X0137940Y0086690D01*
X0137610Y0086920D01*
X0137310Y0087170D01*
X0137040Y0087460D01*
X0136800Y0087770D01*
X0136590Y0088110D01*
X0136420Y0088460D01*
X0136280Y0088830D01*
X0136180Y0089210D01*
X0136120Y0089610D01*
X0136100Y0090000D01*
X0528500Y0220000D02*
X0536500Y0220000D01*
X0532500Y0216000D02*
X0532500Y0224000D01*
X0528600Y0220000D02*
X0528620Y0220390D01*
X0528680Y0220790D01*
X0528780Y0221170D01*
X0528920Y0221540D01*
X0529090Y0221890D01*
X0529300Y0222230D01*
X0529540Y0222540D01*
X0529810Y0222830D01*
X0530110Y0223080D01*
X0530440Y0223310D01*
X0530780Y0223500D01*
X0531150Y0223660D01*
X0531520Y0223780D01*
X0531910Y0223860D01*
X0532300Y0223890D01*
X0532700Y0223890D01*
X0533090Y0223860D01*
X0533480Y0223780D01*
X0533850Y0223660D01*
X0534220Y0223500D01*
X0534560Y0223310D01*
X0534890Y0223080D01*
X0535190Y0222830D01*
X0535460Y0222540D01*
X0535700Y0222230D01*
X0535910Y0221890D01*
X0536080Y0221540D01*
X0536220Y0221170D01*
X0536320Y0220790D01*
X0536380Y0220390D01*
X0536400Y0220000D01*
X0536380Y0219610D01*
X0536320Y0219210D01*
X0536220Y0218830D01*
X0536080Y0218460D01*
X0535910Y0218110D01*
X0535700Y0217770D01*
X0535460Y0217460D01*
X0535190Y0217170D01*
X0534890Y0216920D01*
X0534560Y0216690D01*
X0534220Y0216500D01*
X0533850Y0216340D01*
X0533480Y0216220D01*
X0533090Y0216140D01*
X0532700Y0216110D01*
X0532300Y0216110D01*
X0531910Y0216140D01*
X0531520Y0216220D01*
X0531150Y0216340D01*
X0530780Y0216500D01*
X0530440Y0216690D01*
X0530110Y0216920D01*
X0529810Y0217170D01*
X0529540Y0217460D01*
X0529300Y0217770D01*
X0529090Y0218110D01*
X0528920Y0218460D01*
X0528780Y0218830D01*
X0528680Y0219210D01*
X0528620Y0219610D01*
X0528600Y0220000D01*
X0408500Y0090000D02*
X0416500Y0090000D01*
X0412500Y0086000D02*
X0412500Y0094000D01*
X0408600Y0090000D02*
X0408620Y0090390D01*
X0408680Y0090790D01*
X0408780Y0091170D01*
X0408920Y0091540D01*
X0409090Y0091890D01*
X0409300Y0092230D01*
X0409540Y0092540D01*
X0409810Y0092830D01*
X0410110Y0093080D01*
X0410440Y0093310D01*
X0410780Y0093500D01*
X0411150Y0093660D01*
X0411520Y0093780D01*
X0411910Y0093860D01*
X0412300Y0093890D01*
X0412700Y0093890D01*
X0413090Y0093860D01*
X0413480Y0093780D01*
X0413850Y0093660D01*
X0414220Y0093500D01*
X0414560Y0093310D01*
X0414890Y0093080D01*
X0415190Y0092830D01*
X0415460Y0092540D01*
X0415700Y0092230D01*
X0415910Y0091890D01*
X0416080Y0091540D01*
X0416220Y0091170D01*
X0416320Y0090790D01*
X0416380Y0090390D01*
X0416400Y0090000D01*
X0416380Y0089610D01*
X0416320Y0089210D01*
X0416220Y0088830D01*
X0416080Y0088460D01*
X0415910Y0088110D01*
X0415700Y0087770D01*
X0415460Y0087460D01*
X0415190Y0087170D01*
X0414890Y0086920D01*
X0414560Y0086690D01*
X0414220Y0086500D01*
X0413850Y0086340D01*
X0413480Y0086220D01*
X0413090Y0086140D01*
X0412700Y0086110D01*
X0412300Y0086110D01*
X0411910Y0086140D01*
X0411520Y0086220D01*
X0411150Y0086340D01*
X0410780Y0086500D01*
X0410440Y0086690D01*
X0410110Y0086920D01*
X0409810Y0087170D01*
X0409540Y0087460D01*
X0409300Y0087770D01*
X0409090Y0088110D01*
X0408920Y0088460D01*
X0408780Y0088830D01*
X0408680Y0089210D01*
X0408620Y0089610D01*
X0408600Y0090000D01*
X0801000Y0220000D02*
X0809000Y0220000D01*
X0805000Y0216000D02*
X0805000Y0224000D01*
X0801100Y0220000D02*
X0801120Y0220390D01*
X0801180Y0220790D01*
X0801280Y0221170D01*
X0801420Y0221540D01*
X0801590Y0221890D01*
X0801800Y0222230D01*
X0802040Y0222540D01*
X0802310Y0222830D01*
X0802610Y0223080D01*
X0802940Y0223310D01*
X0803280Y0223500D01*
X0803650Y0223660D01*
X0804020Y0223780D01*
X0804410Y0223860D01*
X0804800Y0223890D01*
X0805200Y0223890D01*
X0805590Y0223860D01*
X0805980Y0223780D01*
X0806350Y0223660D01*
X0806720Y0223500D01*
X0807060Y0223310D01*
X0807390Y0223080D01*
X0807690Y0222830D01*
X0807960Y0222540D01*
X0808200Y0222230D01*
X0808410Y0221890D01*
X0808580Y0221540D01*
X0808720Y0221170D01*
X0808820Y0220790D01*
X0808880Y0220390D01*
X0808900Y0220000D01*
X0808880Y0219610D01*
X0808820Y0219210D01*
X0808720Y0218830D01*
X0808580Y0218460D01*
X0808410Y0218110D01*
X0808200Y0217770D01*
X0807960Y0217460D01*
X0807690Y0217170D01*
X0807390Y0216920D01*
X0807060Y0216690D01*
X0806720Y0216500D01*
X0806350Y0216340D01*
X0805980Y0216220D01*
X0805590Y0216140D01*
X0805200Y0216110D01*
X0804800Y0216110D01*
X0804410Y0216140D01*
X0804020Y0216220D01*
X0803650Y0216340D01*
X0803280Y0216500D01*
X0802940Y0216690D01*
X0802610Y0216920D01*
X0802310Y0217170D01*
X0802040Y0217460D01*
X0801800Y0217770D01*
X0801590Y0218110D01*
X0801420Y0218460D01*
X0801280Y0218830D01*
X0801180Y0219210D01*
X0801120Y0219610D01*
X0801100Y0220000D01*
X0681000Y0090000D02*
X0689000Y0090000D01*
X0685000Y0086000D02*
X0685000Y0094000D01*
X0681100Y0090000D02*
X0681120Y0090390D01*
X0681180Y0090790D01*
X0681280Y0091170D01*
X0681420Y0091540D01*
X0681590Y0091890D01*
X0681800Y0092230D01*
X0682040Y0092540D01*
X0682310Y0092830D01*
X0682610Y0093080D01*
X0682940Y0093310D01*
X0683280Y0093500D01*
X0683650Y0093660D01*
X0684020Y0093780D01*
X0684410Y0093860D01*
X0684800Y0093890D01*
X0685200Y0093890D01*
X0685590Y0093860D01*
X0685980Y0093780D01*
X0686350Y0093660D01*
X0686720Y0093500D01*
X0687060Y0093310D01*
X0687390Y0093080D01*
X0687690Y0092830D01*
X0687960Y0092540D01*
X0688200Y0092230D01*
X0688410Y0091890D01*
X0688580Y0091540D01*
X0688720Y0091170D01*
X0688820Y0090790D01*
X0688880Y0090390D01*
X0688900Y0090000D01*
X0688880Y0089610D01*
X0688820Y0089210D01*
X0688720Y0088830D01*
X0688580Y0088460D01*
X0688410Y0088110D01*
X0688200Y0087770D01*
X0687960Y0087460D01*
X0687690Y0087170D01*
X0687390Y0086920D01*
X0687060Y0086690D01*
X0686720Y0086500D01*
X0686350Y0086340D01*
X0685980Y0086220D01*
X0685590Y0086140D01*
X0685200Y0086110D01*
X0684800Y0086110D01*
X0684410Y0086140D01*
X0684020Y0086220D01*
X0683650Y0086340D01*
X0683280Y0086500D01*
X0682940Y0086690D01*
X0682610Y0086920D01*
X0682310Y0087170D01*
X0682040Y0087460D01*
X0681800Y0087770D01*
X0681590Y0088110D01*
X0681420Y0088460D01*
X0681280Y0088830D01*
X0681180Y0089210D01*
X0681120Y0089610D01*
X0681100Y0090000D01*
X0010000Y0010000D02*
X0835000Y0010000D01*
X0835000Y0250000D01*
X0010000Y0250000D01*
X0010000Y0010000D01*
X0881000Y0013500D02*
X0889000Y0013500D01*
X0885000Y0009500D02*
X0885000Y0017500D01*
X0881100Y0013500D02*
X0881120Y0013890D01*
X0881180Y0014290D01*
X0881280Y0014670D01*
X0881420Y0015040D01*
X0881590Y0015390D01*
X0881800Y0015730D01*
X0882040Y0016040D01*
X0882310Y0016330D01*
X0882610Y0016580D01*
X0882940Y0016810D01*
X0883280Y0017000D01*
X0883650Y0017160D01*
X0884020Y0017280D01*
X0884410Y0017360D01*
X0884800Y0017390D01*
X0885200Y0017390D01*
X0885590Y0017360D01*
X0885980Y0017280D01*
X0886350Y0017160D01*
X0886720Y0017000D01*
X0887060Y0016810D01*
X0887390Y0016580D01*
X0887690Y0016330D01*
X0887960Y0016040D01*
X0888200Y0015730D01*
X0888410Y0015390D01*
X0888580Y0015040D01*
X0888720Y0014670D01*
X0888820Y0014290D01*
X0888880Y0013890D01*
X0888900Y0013500D01*
X0888880Y0013110D01*
X0888820Y0012710D01*
X0888720Y0012330D01*
X0888580Y0011960D01*
X0888410Y0011610D01*
X0888200Y0011270D01*
X0887960Y0010960D01*
X0887690Y0010670D01*
X0887390Y0010420D01*
X0887060Y0010190D01*
X0886720Y0010000D01*
X0886350Y0009840D01*
X0885980Y0009720D01*
X0885590Y0009640D01*
X0885200Y0009610D01*
X0884800Y0009610D01*
X0884410Y0009640D01*
X0884020Y0009720D01*
X0883650Y0009840D01*
X0883280Y0010000D01*
X0882940Y0010190D01*
X0882610Y0010420D01*
X0882310Y0010670D01*
X0882040Y0010960D01*
X0881800Y0011270D01*
X0881590Y0011610D01*
X0881420Y0011960D01*
X0881280Y0012330D01*
X0881180Y0012710D01*
X0881120Y0013110D01*
X0881100Y0013500D01*
X0896500Y0010000D02*
X0895500Y0011000D01*
X0899500Y0015000D01*
X0899500Y0011000D01*
X0898500Y0010000D01*
X0896500Y0010000D01*
X0895500Y0011000D02*
X0895500Y0015000D01*
X0896500Y0016000D01*
X0898500Y0016000D01*
X0899500Y0015000D01*
X0903000Y0011000D02*
X0904000Y0011000D01*
X0904000Y0010000D01*
X0903000Y0010000D01*
X0903000Y0011000D01*
X0908500Y0015000D02*
X0909500Y0016000D01*
X0909500Y0010000D01*
X0908500Y0010000D02*
X0910500Y0010000D01*
X0914500Y0015000D02*
X0915500Y0016000D01*
X0915500Y0010000D01*
X0914500Y0010000D02*
X0916500Y0010000D01*
X0920500Y0010000D02*
X0919500Y0011000D01*
X0923500Y0015000D01*
X0923500Y0011000D01*
X0922500Y0010000D01*
X0920500Y0010000D01*
X0919500Y0011000D02*
X0919500Y0015000D01*
X0920500Y0016000D01*
X0922500Y0016000D01*
X0923500Y0015000D01*
X0929000Y0015000D02*
X0928000Y0014000D01*
X0929000Y0015000D02*
X0929000Y0017000D01*
X0927000Y0017000D02*
X0927000Y0015000D01*
X0926000Y0014000D01*
X0885000Y0024000D02*
X0889000Y0024000D01*
X0885000Y0024000D02*
X0881000Y0028000D01*
X0881000Y0020000D01*
X0885000Y0024000D01*
X0896500Y0020500D02*
X0895500Y0021500D01*
X0899500Y0025500D01*
X0899500Y0021500D01*
X0898500Y0020500D01*
X0896500Y0020500D01*
X0895500Y0021500D02*
X0895500Y0025500D01*
X0896500Y0026500D01*
X0898500Y0026500D01*
X0899500Y0025500D01*
X0903000Y0021500D02*
X0904000Y0021500D01*
X0904000Y0020500D01*
X0903000Y0020500D01*
X0903000Y0021500D01*
X0908500Y0020500D02*
X0907500Y0021500D01*
X0911500Y0025500D01*
X0911500Y0021500D01*
X0910500Y0020500D01*
X0908500Y0020500D01*
X0907500Y0021500D02*
X0907500Y0025500D01*
X0908500Y0026500D01*
X0910500Y0026500D01*
X0911500Y0025500D01*
X0913500Y0023500D02*
X0917500Y0023500D01*
X0916500Y0020500D02*
X0916500Y0026500D01*
X0913500Y0023500D01*
X0920500Y0020500D02*
X0919500Y0021500D01*
X0923500Y0025500D01*
X0923500Y0021500D01*
X0922500Y0020500D01*
X0920500Y0020500D01*
X0919500Y0021500D02*
X0919500Y0025500D01*
X0920500Y0026500D01*
X0922500Y0026500D01*
X0923500Y0025500D01*
X0929000Y0025500D02*
X0928000Y0024500D01*
X0929000Y0025500D02*
X0929000Y0027500D01*
X0927000Y0027500D02*
X0927000Y0025500D01*
X0926000Y0024500D01*
X0885000Y0034500D02*
X0881000Y0034500D01*
X0885000Y0034500D02*
X0889000Y0038500D01*
X0889000Y0030500D01*
X0885000Y0034500D01*
X0896500Y0031000D02*
X0895500Y0032000D01*
X0899500Y0036000D01*
X0899500Y0032000D01*
X0898500Y0031000D01*
X0896500Y0031000D01*
X0895500Y0032000D02*
X0895500Y0036000D01*
X0896500Y0037000D01*
X0898500Y0037000D01*
X0899500Y0036000D01*
X0903000Y0032000D02*
X0904000Y0032000D01*
X0904000Y0031000D01*
X0903000Y0031000D01*
X0903000Y0032000D01*
X0908500Y0031000D02*
X0907500Y0032000D01*
X0911500Y0036000D01*
X0911500Y0032000D01*
X0910500Y0031000D01*
X0908500Y0031000D01*
X0907500Y0032000D02*
X0907500Y0036000D01*
X0908500Y0037000D01*
X0910500Y0037000D01*
X0911500Y0036000D01*
X0913500Y0032000D02*
X0914500Y0031000D01*
X0916500Y0031000D01*
X0917500Y0032000D01*
X0917500Y0033000D01*
X0916500Y0034000D01*
X0915500Y0034000D01*
X0916500Y0034000D02*
X0917500Y0035000D01*
X0917500Y0036000D01*
X0916500Y0037000D01*
X0914500Y0037000D01*
X0913500Y0036000D01*
X0919500Y0031000D02*
X0923500Y0035000D01*
X0923500Y0036000D01*
X0922500Y0037000D01*
X0920500Y0037000D01*
X0919500Y0036000D01*
X0919500Y0031000D02*
X0923500Y0031000D01*
X0929000Y0036000D02*
X0928000Y0035000D01*
X0929000Y0036000D02*
X0929000Y0038000D01*
X0927000Y0038000D02*
X0927000Y0036000D01*
X0926000Y0035000D01*
X0881000Y0041000D02*
X0889000Y0049000D01*
X0889000Y0041000D02*
X0881000Y0049000D01*
X0881000Y0045000D02*
X0889000Y0045000D01*
X0896500Y0041500D02*
X0895500Y0042500D01*
X0899500Y0046500D01*
X0899500Y0042500D01*
X0898500Y0041500D01*
X0896500Y0041500D01*
X0895500Y0042500D02*
X0895500Y0046500D01*
X0896500Y0047500D01*
X0898500Y0047500D01*
X0899500Y0046500D01*
X0903000Y0042500D02*
X0904000Y0042500D01*
X0904000Y0041500D01*
X0903000Y0041500D01*
X0903000Y0042500D01*
X0908500Y0041500D02*
X0907500Y0042500D01*
X0911500Y0046500D01*
X0911500Y0042500D01*
X0910500Y0041500D01*
X0908500Y0041500D01*
X0907500Y0042500D02*
X0907500Y0046500D01*
X0908500Y0047500D01*
X0910500Y0047500D01*
X0911500Y0046500D01*
X0913500Y0041500D02*
X0917500Y0045500D01*
X0917500Y0046500D01*
X0916500Y0047500D01*
X0914500Y0047500D01*
X0913500Y0046500D01*
X0913500Y0041500D02*
X0917500Y0041500D01*
X0919500Y0041500D02*
X0923500Y0045500D01*
X0923500Y0046500D01*
X0922500Y0047500D01*
X0920500Y0047500D01*
X0919500Y0046500D01*
X0919500Y0041500D02*
X0923500Y0041500D01*
X0929000Y0046500D02*
X0928000Y0045500D01*
X0929000Y0046500D02*
X0929000Y0048500D01*
X0927000Y0048500D02*
X0927000Y0046500D01*
X0926000Y0045500D01*
X0010000Y0262500D02*
X0010000Y0277500D01*
X0017500Y0273750D02*
X0010000Y0270000D01*
X0017500Y0266250D01*
X0010000Y0270000D02*
X0022500Y0270000D01*
X0835000Y0277500D02*
X0835000Y0262500D01*
X0827500Y0266250D02*
X0835000Y0270000D01*
X0827500Y0273750D01*
X0835000Y0270000D02*
X0822500Y0270000D01*
X0847500Y0250000D02*
X0862500Y0250000D01*
X0858750Y0242500D02*
X0855000Y0250000D01*
X0851250Y0242500D01*
X0855000Y0250000D02*
X0855000Y0237500D01*
X0862500Y0010000D02*
X0847500Y0010000D01*
X0851250Y0017500D02*
X0855000Y0010000D01*
X0858750Y0017500D01*
X0855000Y0010000D02*
X0855000Y0022500D01*
X0415500Y0267500D02*
X0415500Y0268500D01*
X0416500Y0269500D01*
X0418500Y0269500D01*
X0419500Y0268500D01*
X0419500Y0267500D01*
X0418500Y0266500D01*
X0416500Y0266500D01*
X0415500Y0267500D01*
X0416500Y0269500D02*
X0415500Y0270500D01*
X0415500Y0271500D01*
X0416500Y0272500D01*
X0418500Y0272500D01*
X0419500Y0271500D01*
X0419500Y0270500D01*
X0418500Y0269500D01*
X0423000Y0267500D02*
X0424000Y0267500D01*
X0424000Y0266500D01*
X0423000Y0266500D01*
X0423000Y0267500D01*
X0427500Y0266500D02*
X0431500Y0270500D01*
X0431500Y0271500D01*
X0430500Y0272500D01*
X0428500Y0272500D01*
X0427500Y0271500D01*
X0427500Y0266500D02*
X0431500Y0266500D01*
X0433500Y0269500D02*
X0435500Y0270500D01*
X0436500Y0270500D01*
X0437500Y0269500D01*
X0437500Y0267500D01*
X0436500Y0266500D01*
X0434500Y0266500D01*
X0433500Y0267500D01*
X0433500Y0269500D02*
X0433500Y0272500D01*
X0437500Y0272500D01*
X0440500Y0266500D02*
X0439500Y0267500D01*
X0443500Y0271500D01*
X0443500Y0267500D01*
X0442500Y0266500D01*
X0440500Y0266500D01*
X0439500Y0267500D02*
X0439500Y0271500D01*
X0440500Y0272500D01*
X0442500Y0272500D01*
X0443500Y0271500D01*
X0449000Y0271500D02*
X0448000Y0270500D01*
X0449000Y0271500D02*
X0449000Y0273500D01*
X0447000Y0273500D02*
X0447000Y0271500D01*
X0446000Y0270500D01*
X0010000Y0270000D02*
X0405000Y0270000D01*
X0460000Y0270000D02*
X0835000Y0270000D01*
X0851500Y0157000D02*
X0855500Y0153000D01*
X0856500Y0153000D01*
X0857500Y0154000D01*
X0857500Y0156000D01*
X0856500Y0157000D01*
X0851500Y0157000D02*
X0851500Y0153000D01*
X0852500Y0149500D02*
X0852500Y0148500D01*
X0851500Y0148500D01*
X0851500Y0149500D01*
X0852500Y0149500D01*
X0854500Y0145000D02*
X0854500Y0141000D01*
X0851500Y0142000D02*
X0857500Y0142000D01*
X0854500Y0145000D01*
X0851500Y0138000D02*
X0852500Y0139000D01*
X0856500Y0135000D01*
X0852500Y0135000D01*
X0851500Y0136000D01*
X0851500Y0138000D01*
X0852500Y0139000D02*
X0856500Y0139000D01*
X0857500Y0138000D01*
X0857500Y0136000D01*
X0856500Y0135000D01*
X0851500Y0132000D02*
X0852500Y0133000D01*
X0856500Y0129000D01*
X0852500Y0129000D01*
X0851500Y0130000D01*
X0851500Y0132000D01*
X0852500Y0133000D02*
X0856500Y0133000D01*
X0857500Y0132000D01*
X0857500Y0130000D01*
X0856500Y0129000D01*
X0856500Y0123500D02*
X0855500Y0124500D01*
X0856500Y0123500D02*
X0858500Y0123500D01*
X0858500Y0125500D02*
X0856500Y0125500D01*
X0855500Y0126500D01*
X0855000Y0250000D02*
X0855000Y0167500D01*
X0855000Y0112500D02*
X0855000Y0010000D01*
M02*
