%
T01C0.021650
X21700Y22000
X21700Y22600
X23400Y18900
X17000Y21100
X15600Y6800
X16400Y5200
X19600Y7400
X19600Y8000
X19600Y8600
X19600Y9200
X19600Y18900
X19600Y19500
X19600Y20100
X19600Y20700
X48950Y22000
X48950Y22600
X50650Y18900
X44250Y21100
X42850Y6800
X43650Y5200
X46850Y7400
X46850Y8000
X46850Y8600
X46850Y9200
X46850Y18900
X46850Y19500
X46850Y20100
X46850Y20700
X76200Y22000
X76200Y22600
X77900Y18900
X71500Y21100
X70100Y6800
X70900Y5200
X74100Y7400
X74100Y8000
X74100Y8600
X74100Y9200
X74100Y18900
X74100Y19500
X74100Y20100
X74100Y20700
T02C0.032000
X3700Y11600
X3700Y12600
X30950Y11600
X30950Y12600
X58200Y11600
X58200Y12600
T03C0.039700
X3000Y6600
X3000Y7600
X4700Y9600
X4700Y10600
X4700Y11600
X4700Y12600
X4700Y13600
X4700Y14600
X4700Y15600
X4700Y16600
X4700Y17600
X4700Y18600
X4700Y19600
X4700Y20600
X4700Y21600
X4700Y22600
X7700Y22600
X7700Y21600
X7700Y20600
X7700Y19600
X7700Y18600
X7700Y17600
X7700Y16600
X7700Y15600
X7700Y14600
X7700Y13600
X7700Y12600
X7700Y11600
X7700Y10600
X7700Y9600
X10700Y9600
X10700Y10600
X10700Y11600
X10700Y12600
X10700Y13600
X10700Y14600
X10700Y15600
X10700Y16600
X10700Y17600
X10700Y18600
X10700Y19600
X10700Y20600
X10700Y21600
X10700Y22600
X26600Y8400
X25600Y8400
X10400Y4200
X9400Y4200
X8400Y4200
X7400Y4200
X6400Y4200
X5400Y4200
X4400Y4200
X3400Y4200
X30250Y6600
X30250Y7600
X31950Y9600
X31950Y10600
X31950Y11600
X31950Y12600
X31950Y13600
X31950Y14600
X31950Y15600
X31950Y16600
X31950Y17600
X31950Y18600
X31950Y19600
X31950Y20600
X31950Y21600
X31950Y22600
X34950Y22600
X34950Y21600
X34950Y20600
X34950Y19600
X34950Y18600
X34950Y17600
X34950Y16600
X34950Y15600
X34950Y14600
X34950Y13600
X34950Y12600
X34950Y11600
X34950Y10600
X34950Y9600
X37950Y9600
X37950Y10600
X37950Y11600
X37950Y12600
X37950Y13600
X37950Y14600
X37950Y15600
X37950Y16600
X37950Y17600
X37950Y18600
X37950Y19600
X37950Y20600
X37950Y21600
X37950Y22600
X53850Y8400
X52850Y8400
X37650Y4200
X36650Y4200
X35650Y4200
X34650Y4200
X33650Y4200
X32650Y4200
X31650Y4200
X30650Y4200
X57500Y6600
X57500Y7600
X59200Y9600
X59200Y10600
X59200Y11600
X59200Y12600
X59200Y13600
X59200Y14600
X59200Y15600
X59200Y16600
X59200Y17600
X59200Y18600
X59200Y19600
X59200Y20600
X59200Y21600
X59200Y22600
X62200Y22600
X62200Y21600
X62200Y20600
X62200Y19600
X62200Y18600
X62200Y17600
X62200Y16600
X62200Y15600
X62200Y14600
X62200Y13600
X62200Y12600
X62200Y11600
X62200Y10600
X62200Y9600
X65200Y9600
X65200Y10600
X65200Y11600
X65200Y12600
X65200Y13600
X65200Y14600
X65200Y15600
X65200Y16600
X65200Y17600
X65200Y18600
X65200Y19600
X65200Y20600
X65200Y21600
X65200Y22600
X81100Y8400
X80100Y8400
X64900Y4200
X63900Y4200
X62900Y4200
X61900Y4200
X60900Y4200
X59900Y4200
X58900Y4200
X57900Y4200
T04C0.110200
X26000Y22000
X14000Y9000
X53250Y22000
X41250Y9000
X80500Y22000
X68500Y9000
M30
