G04 This is an RS-274x file exported by *
G04 gerbv version 2.4.0 *
G04 More information is available about gerbv at *
G04 http://gerbv.gpleda.org/ *
G04 --End of header info--*
%MOIN*%
%FSLAX23Y23*%
%IPPOS*%
G04 --Define apertures--*
%ADD10C,0.0000*%
G04 --Start main section--*
G54D10*
G01X02800Y00200D02*
G01X00200Y00200D01*
G01X00200Y00200D02*
G01X00200Y02400D01*
G01X00200Y02400D02*
G01X02800Y02400D01*
G01X02800Y02400D02*
G01X02800Y00200D01*
G01X01400Y00845D02*
G01X01395Y00845D01*
G01X01395Y00845D02*
G01X01391Y00846D01*
G01X01391Y00846D02*
G01X01386Y00847D01*
G01X01386Y00847D02*
G01X01382Y00848D01*
G01X01382Y00848D02*
G01X01377Y00850D01*
G01X01377Y00850D02*
G01X01373Y00852D01*
G01X01373Y00852D02*
G01X01369Y00854D01*
G01X01369Y00854D02*
G01X01365Y00857D01*
G01X01365Y00857D02*
G01X01362Y00860D01*
G01X01362Y00860D02*
G01X01359Y00864D01*
G01X01359Y00864D02*
G01X01356Y00867D01*
G01X01356Y00867D02*
G01X01353Y00871D01*
G01X01353Y00871D02*
G01X01351Y00875D01*
G01X01351Y00875D02*
G01X01349Y00880D01*
G01X01349Y00880D02*
G01X01347Y00884D01*
G01X01347Y00884D02*
G01X01346Y00888D01*
G01X01346Y00888D02*
G01X01345Y00893D01*
G01X01345Y00893D02*
G01X01345Y00898D01*
G01X01345Y00898D02*
G01X01345Y00902D01*
G01X01345Y00902D02*
G01X01345Y00907D01*
G01X01345Y00907D02*
G01X01346Y00912D01*
G01X01346Y00912D02*
G01X01347Y00916D01*
G01X01347Y00916D02*
G01X01349Y00921D01*
G01X01349Y00921D02*
G01X01351Y00925D01*
G01X01351Y00925D02*
G01X01353Y00929D01*
G01X01353Y00929D02*
G01X01356Y00933D01*
G01X01356Y00933D02*
G01X01359Y00936D01*
G01X01359Y00936D02*
G01X01362Y00940D01*
G01X01362Y00940D02*
G01X01365Y00943D01*
G01X01365Y00943D02*
G01X01369Y00946D01*
G01X01369Y00946D02*
G01X01373Y00948D01*
G01X01373Y00948D02*
G01X01377Y00950D01*
G01X01377Y00950D02*
G01X01382Y00952D01*
G01X01382Y00952D02*
G01X01386Y00953D01*
G01X01386Y00953D02*
G01X01391Y00954D01*
G01X01391Y00954D02*
G01X01395Y00955D01*
G01X01395Y00955D02*
G01X01400Y00955D01*
G01X01400Y00955D02*
G01X01405Y00955D01*
G01X01405Y00955D02*
G01X01409Y00954D01*
G01X01409Y00954D02*
G01X01414Y00953D01*
G01X01414Y00953D02*
G01X01418Y00952D01*
G01X01418Y00952D02*
G01X01423Y00950D01*
G01X01423Y00950D02*
G01X01427Y00948D01*
G01X01427Y00948D02*
G01X01431Y00946D01*
G01X01431Y00946D02*
G01X01435Y00943D01*
G01X01435Y00943D02*
G01X01438Y00940D01*
G01X01438Y00940D02*
G01X01441Y00936D01*
G01X01441Y00936D02*
G01X01444Y00933D01*
G01X01444Y00933D02*
G01X01447Y00929D01*
G01X01447Y00929D02*
G01X01449Y00925D01*
G01X01449Y00925D02*
G01X01451Y00921D01*
G01X01451Y00921D02*
G01X01453Y00916D01*
G01X01453Y00916D02*
G01X01454Y00912D01*
G01X01454Y00912D02*
G01X01455Y00907D01*
G01X01455Y00907D02*
G01X01455Y00902D01*
G01X01455Y00902D02*
G01X01455Y00898D01*
G01X01455Y00898D02*
G01X01455Y00893D01*
G01X01455Y00893D02*
G01X01454Y00888D01*
G01X01454Y00888D02*
G01X01453Y00884D01*
G01X01453Y00884D02*
G01X01451Y00880D01*
G01X01451Y00880D02*
G01X01449Y00875D01*
G01X01449Y00875D02*
G01X01447Y00871D01*
G01X01447Y00871D02*
G01X01444Y00867D01*
G01X01444Y00867D02*
G01X01441Y00864D01*
G01X01441Y00864D02*
G01X01438Y00860D01*
G01X01438Y00860D02*
G01X01435Y00857D01*
G01X01435Y00857D02*
G01X01431Y00854D01*
G01X01431Y00854D02*
G01X01427Y00852D01*
G01X01427Y00852D02*
G01X01423Y00850D01*
G01X01423Y00850D02*
G01X01418Y00848D01*
G01X01418Y00848D02*
G01X01414Y00847D01*
G01X01414Y00847D02*
G01X01409Y00846D01*
G01X01409Y00846D02*
G01X01405Y00845D01*
G01X01405Y00845D02*
G01X01400Y00845D01*
G01X02600Y02145D02*
G01X02595Y02145D01*
G01X02595Y02145D02*
G01X02591Y02146D01*
G01X02591Y02146D02*
G01X02586Y02147D01*
G01X02586Y02147D02*
G01X02582Y02148D01*
G01X02582Y02148D02*
G01X02577Y02150D01*
G01X02577Y02150D02*
G01X02573Y02152D01*
G01X02573Y02152D02*
G01X02569Y02154D01*
G01X02569Y02154D02*
G01X02565Y02157D01*
G01X02565Y02157D02*
G01X02562Y02160D01*
G01X02562Y02160D02*
G01X02559Y02164D01*
G01X02559Y02164D02*
G01X02556Y02167D01*
G01X02556Y02167D02*
G01X02553Y02171D01*
G01X02553Y02171D02*
G01X02551Y02175D01*
G01X02551Y02175D02*
G01X02549Y02180D01*
G01X02549Y02180D02*
G01X02547Y02184D01*
G01X02547Y02184D02*
G01X02546Y02188D01*
G01X02546Y02188D02*
G01X02545Y02193D01*
G01X02545Y02193D02*
G01X02545Y02198D01*
G01X02545Y02198D02*
G01X02545Y02202D01*
G01X02545Y02202D02*
G01X02545Y02207D01*
G01X02545Y02207D02*
G01X02546Y02212D01*
G01X02546Y02212D02*
G01X02547Y02216D01*
G01X02547Y02216D02*
G01X02549Y02221D01*
G01X02549Y02221D02*
G01X02551Y02225D01*
G01X02551Y02225D02*
G01X02553Y02229D01*
G01X02553Y02229D02*
G01X02556Y02233D01*
G01X02556Y02233D02*
G01X02559Y02236D01*
G01X02559Y02236D02*
G01X02562Y02240D01*
G01X02562Y02240D02*
G01X02565Y02243D01*
G01X02565Y02243D02*
G01X02569Y02246D01*
G01X02569Y02246D02*
G01X02573Y02248D01*
G01X02573Y02248D02*
G01X02577Y02250D01*
G01X02577Y02250D02*
G01X02582Y02252D01*
G01X02582Y02252D02*
G01X02586Y02253D01*
G01X02586Y02253D02*
G01X02591Y02254D01*
G01X02591Y02254D02*
G01X02595Y02255D01*
G01X02595Y02255D02*
G01X02600Y02255D01*
G01X02600Y02255D02*
G01X02605Y02255D01*
G01X02605Y02255D02*
G01X02609Y02254D01*
G01X02609Y02254D02*
G01X02614Y02253D01*
G01X02614Y02253D02*
G01X02618Y02252D01*
G01X02618Y02252D02*
G01X02623Y02250D01*
G01X02623Y02250D02*
G01X02627Y02248D01*
G01X02627Y02248D02*
G01X02631Y02246D01*
G01X02631Y02246D02*
G01X02635Y02243D01*
G01X02635Y02243D02*
G01X02638Y02240D01*
G01X02638Y02240D02*
G01X02641Y02236D01*
G01X02641Y02236D02*
G01X02644Y02233D01*
G01X02644Y02233D02*
G01X02647Y02229D01*
G01X02647Y02229D02*
G01X02649Y02225D01*
G01X02649Y02225D02*
G01X02651Y02221D01*
G01X02651Y02221D02*
G01X02653Y02216D01*
G01X02653Y02216D02*
G01X02654Y02212D01*
G01X02654Y02212D02*
G01X02655Y02207D01*
G01X02655Y02207D02*
G01X02655Y02202D01*
G01X02655Y02202D02*
G01X02655Y02198D01*
G01X02655Y02198D02*
G01X02655Y02193D01*
G01X02655Y02193D02*
G01X02654Y02188D01*
G01X02654Y02188D02*
G01X02653Y02184D01*
G01X02653Y02184D02*
G01X02651Y02180D01*
G01X02651Y02180D02*
G01X02649Y02175D01*
G01X02649Y02175D02*
G01X02647Y02171D01*
G01X02647Y02171D02*
G01X02644Y02167D01*
G01X02644Y02167D02*
G01X02641Y02164D01*
G01X02641Y02164D02*
G01X02638Y02160D01*
G01X02638Y02160D02*
G01X02635Y02157D01*
G01X02635Y02157D02*
G01X02631Y02154D01*
G01X02631Y02154D02*
G01X02627Y02152D01*
G01X02627Y02152D02*
G01X02623Y02150D01*
G01X02623Y02150D02*
G01X02618Y02148D01*
G01X02618Y02148D02*
G01X02614Y02147D01*
G01X02614Y02147D02*
G01X02609Y02146D01*
G01X02609Y02146D02*
G01X02605Y02145D01*
G01X02605Y02145D02*
G01X02600Y02145D01*
G01X05525Y00200D02*
G01X02925Y00200D01*
G01X02925Y00200D02*
G01X02925Y02400D01*
G01X02925Y02400D02*
G01X05525Y02400D01*
G01X05525Y02400D02*
G01X05525Y00200D01*
G01X04125Y00845D02*
G01X04120Y00845D01*
G01X04120Y00845D02*
G01X04116Y00846D01*
G01X04116Y00846D02*
G01X04111Y00847D01*
G01X04111Y00847D02*
G01X04107Y00848D01*
G01X04107Y00848D02*
G01X04102Y00850D01*
G01X04102Y00850D02*
G01X04098Y00852D01*
G01X04098Y00852D02*
G01X04094Y00854D01*
G01X04094Y00854D02*
G01X04090Y00857D01*
G01X04090Y00857D02*
G01X04087Y00860D01*
G01X04087Y00860D02*
G01X04084Y00864D01*
G01X04084Y00864D02*
G01X04081Y00867D01*
G01X04081Y00867D02*
G01X04078Y00871D01*
G01X04078Y00871D02*
G01X04076Y00875D01*
G01X04076Y00875D02*
G01X04074Y00880D01*
G01X04074Y00880D02*
G01X04072Y00884D01*
G01X04072Y00884D02*
G01X04071Y00888D01*
G01X04071Y00888D02*
G01X04070Y00893D01*
G01X04070Y00893D02*
G01X04070Y00898D01*
G01X04070Y00898D02*
G01X04070Y00902D01*
G01X04070Y00902D02*
G01X04070Y00907D01*
G01X04070Y00907D02*
G01X04071Y00912D01*
G01X04071Y00912D02*
G01X04072Y00916D01*
G01X04072Y00916D02*
G01X04074Y00921D01*
G01X04074Y00921D02*
G01X04076Y00925D01*
G01X04076Y00925D02*
G01X04078Y00929D01*
G01X04078Y00929D02*
G01X04081Y00933D01*
G01X04081Y00933D02*
G01X04084Y00936D01*
G01X04084Y00936D02*
G01X04087Y00940D01*
G01X04087Y00940D02*
G01X04090Y00943D01*
G01X04090Y00943D02*
G01X04094Y00946D01*
G01X04094Y00946D02*
G01X04098Y00948D01*
G01X04098Y00948D02*
G01X04102Y00950D01*
G01X04102Y00950D02*
G01X04107Y00952D01*
G01X04107Y00952D02*
G01X04111Y00953D01*
G01X04111Y00953D02*
G01X04116Y00954D01*
G01X04116Y00954D02*
G01X04120Y00955D01*
G01X04120Y00955D02*
G01X04125Y00955D01*
G01X04125Y00955D02*
G01X04130Y00955D01*
G01X04130Y00955D02*
G01X04134Y00954D01*
G01X04134Y00954D02*
G01X04139Y00953D01*
G01X04139Y00953D02*
G01X04143Y00952D01*
G01X04143Y00952D02*
G01X04148Y00950D01*
G01X04148Y00950D02*
G01X04152Y00948D01*
G01X04152Y00948D02*
G01X04156Y00946D01*
G01X04156Y00946D02*
G01X04160Y00943D01*
G01X04160Y00943D02*
G01X04163Y00940D01*
G01X04163Y00940D02*
G01X04166Y00936D01*
G01X04166Y00936D02*
G01X04169Y00933D01*
G01X04169Y00933D02*
G01X04172Y00929D01*
G01X04172Y00929D02*
G01X04174Y00925D01*
G01X04174Y00925D02*
G01X04176Y00921D01*
G01X04176Y00921D02*
G01X04178Y00916D01*
G01X04178Y00916D02*
G01X04179Y00912D01*
G01X04179Y00912D02*
G01X04180Y00907D01*
G01X04180Y00907D02*
G01X04180Y00902D01*
G01X04180Y00902D02*
G01X04180Y00898D01*
G01X04180Y00898D02*
G01X04180Y00893D01*
G01X04180Y00893D02*
G01X04179Y00888D01*
G01X04179Y00888D02*
G01X04178Y00884D01*
G01X04178Y00884D02*
G01X04176Y00880D01*
G01X04176Y00880D02*
G01X04174Y00875D01*
G01X04174Y00875D02*
G01X04172Y00871D01*
G01X04172Y00871D02*
G01X04169Y00867D01*
G01X04169Y00867D02*
G01X04166Y00864D01*
G01X04166Y00864D02*
G01X04163Y00860D01*
G01X04163Y00860D02*
G01X04160Y00857D01*
G01X04160Y00857D02*
G01X04156Y00854D01*
G01X04156Y00854D02*
G01X04152Y00852D01*
G01X04152Y00852D02*
G01X04148Y00850D01*
G01X04148Y00850D02*
G01X04143Y00848D01*
G01X04143Y00848D02*
G01X04139Y00847D01*
G01X04139Y00847D02*
G01X04134Y00846D01*
G01X04134Y00846D02*
G01X04130Y00845D01*
G01X04130Y00845D02*
G01X04125Y00845D01*
G01X05325Y02145D02*
G01X05320Y02145D01*
G01X05320Y02145D02*
G01X05316Y02146D01*
G01X05316Y02146D02*
G01X05311Y02147D01*
G01X05311Y02147D02*
G01X05307Y02148D01*
G01X05307Y02148D02*
G01X05302Y02150D01*
G01X05302Y02150D02*
G01X05298Y02152D01*
G01X05298Y02152D02*
G01X05294Y02154D01*
G01X05294Y02154D02*
G01X05290Y02157D01*
G01X05290Y02157D02*
G01X05287Y02160D01*
G01X05287Y02160D02*
G01X05284Y02164D01*
G01X05284Y02164D02*
G01X05281Y02167D01*
G01X05281Y02167D02*
G01X05278Y02171D01*
G01X05278Y02171D02*
G01X05276Y02175D01*
G01X05276Y02175D02*
G01X05274Y02180D01*
G01X05274Y02180D02*
G01X05272Y02184D01*
G01X05272Y02184D02*
G01X05271Y02188D01*
G01X05271Y02188D02*
G01X05270Y02193D01*
G01X05270Y02193D02*
G01X05270Y02198D01*
G01X05270Y02198D02*
G01X05270Y02202D01*
G01X05270Y02202D02*
G01X05270Y02207D01*
G01X05270Y02207D02*
G01X05271Y02212D01*
G01X05271Y02212D02*
G01X05272Y02216D01*
G01X05272Y02216D02*
G01X05274Y02221D01*
G01X05274Y02221D02*
G01X05276Y02225D01*
G01X05276Y02225D02*
G01X05278Y02229D01*
G01X05278Y02229D02*
G01X05281Y02233D01*
G01X05281Y02233D02*
G01X05284Y02236D01*
G01X05284Y02236D02*
G01X05287Y02240D01*
G01X05287Y02240D02*
G01X05290Y02243D01*
G01X05290Y02243D02*
G01X05294Y02246D01*
G01X05294Y02246D02*
G01X05298Y02248D01*
G01X05298Y02248D02*
G01X05302Y02250D01*
G01X05302Y02250D02*
G01X05307Y02252D01*
G01X05307Y02252D02*
G01X05311Y02253D01*
G01X05311Y02253D02*
G01X05316Y02254D01*
G01X05316Y02254D02*
G01X05320Y02255D01*
G01X05320Y02255D02*
G01X05325Y02255D01*
G01X05325Y02255D02*
G01X05330Y02255D01*
G01X05330Y02255D02*
G01X05334Y02254D01*
G01X05334Y02254D02*
G01X05339Y02253D01*
G01X05339Y02253D02*
G01X05343Y02252D01*
G01X05343Y02252D02*
G01X05348Y02250D01*
G01X05348Y02250D02*
G01X05352Y02248D01*
G01X05352Y02248D02*
G01X05356Y02246D01*
G01X05356Y02246D02*
G01X05360Y02243D01*
G01X05360Y02243D02*
G01X05363Y02240D01*
G01X05363Y02240D02*
G01X05366Y02236D01*
G01X05366Y02236D02*
G01X05369Y02233D01*
G01X05369Y02233D02*
G01X05372Y02229D01*
G01X05372Y02229D02*
G01X05374Y02225D01*
G01X05374Y02225D02*
G01X05376Y02221D01*
G01X05376Y02221D02*
G01X05378Y02216D01*
G01X05378Y02216D02*
G01X05379Y02212D01*
G01X05379Y02212D02*
G01X05380Y02207D01*
G01X05380Y02207D02*
G01X05380Y02202D01*
G01X05380Y02202D02*
G01X05380Y02198D01*
G01X05380Y02198D02*
G01X05380Y02193D01*
G01X05380Y02193D02*
G01X05379Y02188D01*
G01X05379Y02188D02*
G01X05378Y02184D01*
G01X05378Y02184D02*
G01X05376Y02180D01*
G01X05376Y02180D02*
G01X05374Y02175D01*
G01X05374Y02175D02*
G01X05372Y02171D01*
G01X05372Y02171D02*
G01X05369Y02167D01*
G01X05369Y02167D02*
G01X05366Y02164D01*
G01X05366Y02164D02*
G01X05363Y02160D01*
G01X05363Y02160D02*
G01X05360Y02157D01*
G01X05360Y02157D02*
G01X05356Y02154D01*
G01X05356Y02154D02*
G01X05352Y02152D01*
G01X05352Y02152D02*
G01X05348Y02150D01*
G01X05348Y02150D02*
G01X05343Y02148D01*
G01X05343Y02148D02*
G01X05339Y02147D01*
G01X05339Y02147D02*
G01X05334Y02146D01*
G01X05334Y02146D02*
G01X05330Y02145D01*
G01X05330Y02145D02*
G01X05325Y02145D01*
G01X08250Y00200D02*
G01X05650Y00200D01*
G01X05650Y00200D02*
G01X05650Y02400D01*
G01X05650Y02400D02*
G01X08250Y02400D01*
G01X08250Y02400D02*
G01X08250Y00200D01*
G01X06850Y00845D02*
G01X06845Y00845D01*
G01X06845Y00845D02*
G01X06841Y00846D01*
G01X06841Y00846D02*
G01X06836Y00847D01*
G01X06836Y00847D02*
G01X06832Y00848D01*
G01X06832Y00848D02*
G01X06827Y00850D01*
G01X06827Y00850D02*
G01X06823Y00852D01*
G01X06823Y00852D02*
G01X06819Y00854D01*
G01X06819Y00854D02*
G01X06815Y00857D01*
G01X06815Y00857D02*
G01X06812Y00860D01*
G01X06812Y00860D02*
G01X06809Y00864D01*
G01X06809Y00864D02*
G01X06806Y00867D01*
G01X06806Y00867D02*
G01X06803Y00871D01*
G01X06803Y00871D02*
G01X06801Y00875D01*
G01X06801Y00875D02*
G01X06799Y00880D01*
G01X06799Y00880D02*
G01X06797Y00884D01*
G01X06797Y00884D02*
G01X06796Y00888D01*
G01X06796Y00888D02*
G01X06795Y00893D01*
G01X06795Y00893D02*
G01X06795Y00898D01*
G01X06795Y00898D02*
G01X06795Y00902D01*
G01X06795Y00902D02*
G01X06795Y00907D01*
G01X06795Y00907D02*
G01X06796Y00912D01*
G01X06796Y00912D02*
G01X06797Y00916D01*
G01X06797Y00916D02*
G01X06799Y00921D01*
G01X06799Y00921D02*
G01X06801Y00925D01*
G01X06801Y00925D02*
G01X06803Y00929D01*
G01X06803Y00929D02*
G01X06806Y00933D01*
G01X06806Y00933D02*
G01X06809Y00936D01*
G01X06809Y00936D02*
G01X06812Y00940D01*
G01X06812Y00940D02*
G01X06815Y00943D01*
G01X06815Y00943D02*
G01X06819Y00946D01*
G01X06819Y00946D02*
G01X06823Y00948D01*
G01X06823Y00948D02*
G01X06827Y00950D01*
G01X06827Y00950D02*
G01X06832Y00952D01*
G01X06832Y00952D02*
G01X06836Y00953D01*
G01X06836Y00953D02*
G01X06841Y00954D01*
G01X06841Y00954D02*
G01X06845Y00955D01*
G01X06845Y00955D02*
G01X06850Y00955D01*
G01X06850Y00955D02*
G01X06855Y00955D01*
G01X06855Y00955D02*
G01X06859Y00954D01*
G01X06859Y00954D02*
G01X06864Y00953D01*
G01X06864Y00953D02*
G01X06868Y00952D01*
G01X06868Y00952D02*
G01X06873Y00950D01*
G01X06873Y00950D02*
G01X06877Y00948D01*
G01X06877Y00948D02*
G01X06881Y00946D01*
G01X06881Y00946D02*
G01X06885Y00943D01*
G01X06885Y00943D02*
G01X06888Y00940D01*
G01X06888Y00940D02*
G01X06891Y00936D01*
G01X06891Y00936D02*
G01X06894Y00933D01*
G01X06894Y00933D02*
G01X06897Y00929D01*
G01X06897Y00929D02*
G01X06899Y00925D01*
G01X06899Y00925D02*
G01X06901Y00921D01*
G01X06901Y00921D02*
G01X06903Y00916D01*
G01X06903Y00916D02*
G01X06904Y00912D01*
G01X06904Y00912D02*
G01X06905Y00907D01*
G01X06905Y00907D02*
G01X06905Y00902D01*
G01X06905Y00902D02*
G01X06905Y00898D01*
G01X06905Y00898D02*
G01X06905Y00893D01*
G01X06905Y00893D02*
G01X06904Y00888D01*
G01X06904Y00888D02*
G01X06903Y00884D01*
G01X06903Y00884D02*
G01X06901Y00880D01*
G01X06901Y00880D02*
G01X06899Y00875D01*
G01X06899Y00875D02*
G01X06897Y00871D01*
G01X06897Y00871D02*
G01X06894Y00867D01*
G01X06894Y00867D02*
G01X06891Y00864D01*
G01X06891Y00864D02*
G01X06888Y00860D01*
G01X06888Y00860D02*
G01X06885Y00857D01*
G01X06885Y00857D02*
G01X06881Y00854D01*
G01X06881Y00854D02*
G01X06877Y00852D01*
G01X06877Y00852D02*
G01X06873Y00850D01*
G01X06873Y00850D02*
G01X06868Y00848D01*
G01X06868Y00848D02*
G01X06864Y00847D01*
G01X06864Y00847D02*
G01X06859Y00846D01*
G01X06859Y00846D02*
G01X06855Y00845D01*
G01X06855Y00845D02*
G01X06850Y00845D01*
G01X08050Y02145D02*
G01X08045Y02145D01*
G01X08045Y02145D02*
G01X08041Y02146D01*
G01X08041Y02146D02*
G01X08036Y02147D01*
G01X08036Y02147D02*
G01X08032Y02148D01*
G01X08032Y02148D02*
G01X08027Y02150D01*
G01X08027Y02150D02*
G01X08023Y02152D01*
G01X08023Y02152D02*
G01X08019Y02154D01*
G01X08019Y02154D02*
G01X08015Y02157D01*
G01X08015Y02157D02*
G01X08012Y02160D01*
G01X08012Y02160D02*
G01X08009Y02164D01*
G01X08009Y02164D02*
G01X08006Y02167D01*
G01X08006Y02167D02*
G01X08003Y02171D01*
G01X08003Y02171D02*
G01X08001Y02175D01*
G01X08001Y02175D02*
G01X07999Y02180D01*
G01X07999Y02180D02*
G01X07997Y02184D01*
G01X07997Y02184D02*
G01X07996Y02188D01*
G01X07996Y02188D02*
G01X07995Y02193D01*
G01X07995Y02193D02*
G01X07995Y02198D01*
G01X07995Y02198D02*
G01X07995Y02202D01*
G01X07995Y02202D02*
G01X07995Y02207D01*
G01X07995Y02207D02*
G01X07996Y02212D01*
G01X07996Y02212D02*
G01X07997Y02216D01*
G01X07997Y02216D02*
G01X07999Y02221D01*
G01X07999Y02221D02*
G01X08001Y02225D01*
G01X08001Y02225D02*
G01X08003Y02229D01*
G01X08003Y02229D02*
G01X08006Y02233D01*
G01X08006Y02233D02*
G01X08009Y02236D01*
G01X08009Y02236D02*
G01X08012Y02240D01*
G01X08012Y02240D02*
G01X08015Y02243D01*
G01X08015Y02243D02*
G01X08019Y02246D01*
G01X08019Y02246D02*
G01X08023Y02248D01*
G01X08023Y02248D02*
G01X08027Y02250D01*
G01X08027Y02250D02*
G01X08032Y02252D01*
G01X08032Y02252D02*
G01X08036Y02253D01*
G01X08036Y02253D02*
G01X08041Y02254D01*
G01X08041Y02254D02*
G01X08045Y02255D01*
G01X08045Y02255D02*
G01X08050Y02255D01*
G01X08050Y02255D02*
G01X08055Y02255D01*
G01X08055Y02255D02*
G01X08059Y02254D01*
G01X08059Y02254D02*
G01X08064Y02253D01*
G01X08064Y02253D02*
G01X08068Y02252D01*
G01X08068Y02252D02*
G01X08073Y02250D01*
G01X08073Y02250D02*
G01X08077Y02248D01*
G01X08077Y02248D02*
G01X08081Y02246D01*
G01X08081Y02246D02*
G01X08085Y02243D01*
G01X08085Y02243D02*
G01X08088Y02240D01*
G01X08088Y02240D02*
G01X08091Y02236D01*
G01X08091Y02236D02*
G01X08094Y02233D01*
G01X08094Y02233D02*
G01X08097Y02229D01*
G01X08097Y02229D02*
G01X08099Y02225D01*
G01X08099Y02225D02*
G01X08101Y02221D01*
G01X08101Y02221D02*
G01X08103Y02216D01*
G01X08103Y02216D02*
G01X08104Y02212D01*
G01X08104Y02212D02*
G01X08105Y02207D01*
G01X08105Y02207D02*
G01X08105Y02202D01*
G01X08105Y02202D02*
G01X08105Y02198D01*
G01X08105Y02198D02*
G01X08105Y02193D01*
G01X08105Y02193D02*
G01X08104Y02188D01*
G01X08104Y02188D02*
G01X08103Y02184D01*
G01X08103Y02184D02*
G01X08101Y02180D01*
G01X08101Y02180D02*
G01X08099Y02175D01*
G01X08099Y02175D02*
G01X08097Y02171D01*
G01X08097Y02171D02*
G01X08094Y02167D01*
G01X08094Y02167D02*
G01X08091Y02164D01*
G01X08091Y02164D02*
G01X08088Y02160D01*
G01X08088Y02160D02*
G01X08085Y02157D01*
G01X08085Y02157D02*
G01X08081Y02154D01*
G01X08081Y02154D02*
G01X08077Y02152D01*
G01X08077Y02152D02*
G01X08073Y02150D01*
G01X08073Y02150D02*
G01X08068Y02148D01*
G01X08068Y02148D02*
G01X08064Y02147D01*
G01X08064Y02147D02*
G01X08059Y02146D01*
G01X08059Y02146D02*
G01X08055Y02145D01*
G01X08055Y02145D02*
G01X08050Y02145D01*
M02*
