G75*
G70*
%OFA0B0*%
%FSLAX25Y25*%
%IPPOS*%
%LPD*%
%AMOC8*
5,1,8,0,0,1.08239X$1,22.5*
%
%ADD10C,0.06710*%
%ADD15C,0.05600*%
%ADD21R,0.07890X0.07100*%
%ADD25R,0.07100X0.07900*%
%ADD28C,0.04560*%
%ADD37C,0.11820*%
%ADD38C,0.04170*%
%ADD48R,0.07900X0.07100*%
%ADD50C,0.06800*%
X0020000Y0020000D02*
G75*
%LPD*%
D37*
X0140000Y0090000D03*
X0260000Y0220000D03*
D50*
X0110000Y0216000D02*
X0104000Y0216000D01*
X0104000Y0206000D02*
X0110000Y0206000D01*
X0110000Y0196000D02*
X0104000Y0196000D01*
X0104000Y0186000D02*
X0110000Y0186000D01*
X0110000Y0176000D02*
X0104000Y0176000D01*
X0104000Y0166000D02*
X0110000Y0166000D01*
X0110000Y0156000D02*
X0104000Y0156000D01*
X0104000Y0146000D02*
X0110000Y0146000D01*
X0110000Y0136000D02*
X0104000Y0136000D01*
X0104000Y0126000D02*
X0110000Y0126000D01*
X0110000Y0116000D02*
X0104000Y0116000D01*
X0104000Y0106000D02*
X0110000Y0106000D01*
X0110000Y0096000D02*
X0104000Y0096000D01*
X0080000Y0096000D02*
X0074000Y0096000D01*
X0074000Y0106000D02*
X0080000Y0106000D01*
X0080000Y0116000D02*
X0074000Y0116000D01*
X0074000Y0126000D02*
X0080000Y0126000D01*
X0080000Y0136000D02*
X0074000Y0136000D01*
X0074000Y0146000D02*
X0080000Y0146000D01*
X0080000Y0156000D02*
X0074000Y0156000D01*
X0074000Y0166000D02*
X0080000Y0166000D01*
X0080000Y0176000D02*
X0074000Y0176000D01*
X0074000Y0186000D02*
X0080000Y0186000D01*
X0080000Y0196000D02*
X0074000Y0196000D01*
X0074000Y0206000D02*
X0080000Y0206000D01*
X0080000Y0216000D02*
X0074000Y0216000D01*
X0074000Y0226000D02*
X0080000Y0226000D01*
X0104000Y0226000D02*
X0110000Y0226000D01*
X0050000Y0226000D02*
X0044000Y0226000D01*
X0044000Y0216000D02*
X0050000Y0216000D01*
X0050000Y0206000D02*
X0044000Y0206000D01*
X0044000Y0196000D02*
X0050000Y0196000D01*
X0050000Y0186000D02*
X0044000Y0186000D01*
X0044000Y0176000D02*
X0050000Y0176000D01*
X0050000Y0166000D02*
X0044000Y0166000D01*
X0044000Y0156000D02*
X0050000Y0156000D01*
X0050000Y0146000D02*
X0044000Y0146000D01*
X0044000Y0136000D02*
X0050000Y0136000D01*
X0050000Y0126000D02*
X0044000Y0126000D01*
X0044000Y0116000D02*
X0050000Y0116000D01*
X0050000Y0106000D02*
X0044000Y0106000D01*
X0044000Y0096000D02*
X0050000Y0096000D01*
X0033000Y0076000D02*
X0027000Y0076000D01*
X0027000Y0066000D02*
X0033000Y0066000D01*
D10*
X0266000Y0081050D02*
X0266000Y0086960D01*
X0256000Y0086960D02*
X0256000Y0081050D01*
X0104000Y0044960D02*
X0104000Y0039050D01*
X0094000Y0039050D02*
X0094000Y0044960D01*
X0084000Y0044960D02*
X0084000Y0039050D01*
X0074000Y0039050D02*
X0074000Y0044960D01*
X0064000Y0044960D02*
X0064000Y0039050D01*
X0054000Y0039050D02*
X0054000Y0044960D01*
X0044000Y0044960D02*
X0044000Y0039050D01*
X0034000Y0039050D02*
X0034000Y0044960D01*
D15*
X0037000Y0116000D03*
X0037000Y0126000D03*
D21*
X0090000Y0116520D03*
X0090000Y0105490D03*
X0119000Y0135490D03*
X0119000Y0146520D03*
D25*
X0077600Y0058000D03*
X0066400Y0058000D03*
X0042600Y0056000D03*
X0031400Y0056000D03*
D48*
X0057000Y0068410D03*
X0057000Y0079600D03*
X0036000Y0145410D03*
X0036000Y0156600D03*
D28*
X0156000Y0068000D03*
X0164000Y0052000D03*
X0234000Y0189000D03*
X0217000Y0220000D03*
X0217000Y0226000D03*
X0170000Y0211000D03*
D38*
X0196000Y0207000D03*
X0196000Y0201000D03*
X0196000Y0195000D03*
X0196000Y0189000D03*
X0196000Y0092000D03*
X0196000Y0086000D03*
X0196000Y0080000D03*
X0196000Y0074000D03*
X0292500Y0020000D02*
G75*
%LPD*%
D37*
X0412500Y0090000D03*
X0532500Y0220000D03*
D50*
X0382500Y0216000D02*
X0376500Y0216000D01*
X0376500Y0206000D02*
X0382500Y0206000D01*
X0382500Y0196000D02*
X0376500Y0196000D01*
X0376500Y0186000D02*
X0382500Y0186000D01*
X0382500Y0176000D02*
X0376500Y0176000D01*
X0376500Y0166000D02*
X0382500Y0166000D01*
X0382500Y0156000D02*
X0376500Y0156000D01*
X0376500Y0146000D02*
X0382500Y0146000D01*
X0382500Y0136000D02*
X0376500Y0136000D01*
X0376500Y0126000D02*
X0382500Y0126000D01*
X0382500Y0116000D02*
X0376500Y0116000D01*
X0376500Y0106000D02*
X0382500Y0106000D01*
X0382500Y0096000D02*
X0376500Y0096000D01*
X0352500Y0096000D02*
X0346500Y0096000D01*
X0346500Y0106000D02*
X0352500Y0106000D01*
X0352500Y0116000D02*
X0346500Y0116000D01*
X0346500Y0126000D02*
X0352500Y0126000D01*
X0352500Y0136000D02*
X0346500Y0136000D01*
X0346500Y0146000D02*
X0352500Y0146000D01*
X0352500Y0156000D02*
X0346500Y0156000D01*
X0346500Y0166000D02*
X0352500Y0166000D01*
X0352500Y0176000D02*
X0346500Y0176000D01*
X0346500Y0186000D02*
X0352500Y0186000D01*
X0352500Y0196000D02*
X0346500Y0196000D01*
X0346500Y0206000D02*
X0352500Y0206000D01*
X0352500Y0216000D02*
X0346500Y0216000D01*
X0346500Y0226000D02*
X0352500Y0226000D01*
X0376500Y0226000D02*
X0382500Y0226000D01*
X0322500Y0226000D02*
X0316500Y0226000D01*
X0316500Y0216000D02*
X0322500Y0216000D01*
X0322500Y0206000D02*
X0316500Y0206000D01*
X0316500Y0196000D02*
X0322500Y0196000D01*
X0322500Y0186000D02*
X0316500Y0186000D01*
X0316500Y0176000D02*
X0322500Y0176000D01*
X0322500Y0166000D02*
X0316500Y0166000D01*
X0316500Y0156000D02*
X0322500Y0156000D01*
X0322500Y0146000D02*
X0316500Y0146000D01*
X0316500Y0136000D02*
X0322500Y0136000D01*
X0322500Y0126000D02*
X0316500Y0126000D01*
X0316500Y0116000D02*
X0322500Y0116000D01*
X0322500Y0106000D02*
X0316500Y0106000D01*
X0316500Y0096000D02*
X0322500Y0096000D01*
X0305500Y0076000D02*
X0299500Y0076000D01*
X0299500Y0066000D02*
X0305500Y0066000D01*
D10*
X0538500Y0081050D02*
X0538500Y0086960D01*
X0528500Y0086960D02*
X0528500Y0081050D01*
X0376500Y0044960D02*
X0376500Y0039050D01*
X0366500Y0039050D02*
X0366500Y0044960D01*
X0356500Y0044960D02*
X0356500Y0039050D01*
X0346500Y0039050D02*
X0346500Y0044960D01*
X0336500Y0044960D02*
X0336500Y0039050D01*
X0326500Y0039050D02*
X0326500Y0044960D01*
X0316500Y0044960D02*
X0316500Y0039050D01*
X0306500Y0039050D02*
X0306500Y0044960D01*
D15*
X0309500Y0116000D03*
X0309500Y0126000D03*
D21*
X0362500Y0116520D03*
X0362500Y0105490D03*
X0391500Y0135490D03*
X0391500Y0146520D03*
D25*
X0350100Y0058000D03*
X0338900Y0058000D03*
X0315100Y0056000D03*
X0303900Y0056000D03*
D48*
X0329500Y0068410D03*
X0329500Y0079600D03*
X0308500Y0145410D03*
X0308500Y0156600D03*
D28*
X0428500Y0068000D03*
X0436500Y0052000D03*
X0506500Y0189000D03*
X0489500Y0220000D03*
X0489500Y0226000D03*
X0442500Y0211000D03*
D38*
X0468500Y0207000D03*
X0468500Y0201000D03*
X0468500Y0195000D03*
X0468500Y0189000D03*
X0468500Y0092000D03*
X0468500Y0086000D03*
X0468500Y0080000D03*
X0468500Y0074000D03*
X0565000Y0020000D02*
G75*
%LPD*%
D37*
X0685000Y0090000D03*
X0805000Y0220000D03*
D50*
X0655000Y0216000D02*
X0649000Y0216000D01*
X0649000Y0206000D02*
X0655000Y0206000D01*
X0655000Y0196000D02*
X0649000Y0196000D01*
X0649000Y0186000D02*
X0655000Y0186000D01*
X0655000Y0176000D02*
X0649000Y0176000D01*
X0649000Y0166000D02*
X0655000Y0166000D01*
X0655000Y0156000D02*
X0649000Y0156000D01*
X0649000Y0146000D02*
X0655000Y0146000D01*
X0655000Y0136000D02*
X0649000Y0136000D01*
X0649000Y0126000D02*
X0655000Y0126000D01*
X0655000Y0116000D02*
X0649000Y0116000D01*
X0649000Y0106000D02*
X0655000Y0106000D01*
X0655000Y0096000D02*
X0649000Y0096000D01*
X0625000Y0096000D02*
X0619000Y0096000D01*
X0619000Y0106000D02*
X0625000Y0106000D01*
X0625000Y0116000D02*
X0619000Y0116000D01*
X0619000Y0126000D02*
X0625000Y0126000D01*
X0625000Y0136000D02*
X0619000Y0136000D01*
X0619000Y0146000D02*
X0625000Y0146000D01*
X0625000Y0156000D02*
X0619000Y0156000D01*
X0619000Y0166000D02*
X0625000Y0166000D01*
X0625000Y0176000D02*
X0619000Y0176000D01*
X0619000Y0186000D02*
X0625000Y0186000D01*
X0625000Y0196000D02*
X0619000Y0196000D01*
X0619000Y0206000D02*
X0625000Y0206000D01*
X0625000Y0216000D02*
X0619000Y0216000D01*
X0619000Y0226000D02*
X0625000Y0226000D01*
X0649000Y0226000D02*
X0655000Y0226000D01*
X0595000Y0226000D02*
X0589000Y0226000D01*
X0589000Y0216000D02*
X0595000Y0216000D01*
X0595000Y0206000D02*
X0589000Y0206000D01*
X0589000Y0196000D02*
X0595000Y0196000D01*
X0595000Y0186000D02*
X0589000Y0186000D01*
X0589000Y0176000D02*
X0595000Y0176000D01*
X0595000Y0166000D02*
X0589000Y0166000D01*
X0589000Y0156000D02*
X0595000Y0156000D01*
X0595000Y0146000D02*
X0589000Y0146000D01*
X0589000Y0136000D02*
X0595000Y0136000D01*
X0595000Y0126000D02*
X0589000Y0126000D01*
X0589000Y0116000D02*
X0595000Y0116000D01*
X0595000Y0106000D02*
X0589000Y0106000D01*
X0589000Y0096000D02*
X0595000Y0096000D01*
X0578000Y0076000D02*
X0572000Y0076000D01*
X0572000Y0066000D02*
X0578000Y0066000D01*
D10*
X0811000Y0081050D02*
X0811000Y0086960D01*
X0801000Y0086960D02*
X0801000Y0081050D01*
X0649000Y0044960D02*
X0649000Y0039050D01*
X0639000Y0039050D02*
X0639000Y0044960D01*
X0629000Y0044960D02*
X0629000Y0039050D01*
X0619000Y0039050D02*
X0619000Y0044960D01*
X0609000Y0044960D02*
X0609000Y0039050D01*
X0599000Y0039050D02*
X0599000Y0044960D01*
X0589000Y0044960D02*
X0589000Y0039050D01*
X0579000Y0039050D02*
X0579000Y0044960D01*
D15*
X0582000Y0116000D03*
X0582000Y0126000D03*
D21*
X0635000Y0116520D03*
X0635000Y0105490D03*
X0664000Y0135490D03*
X0664000Y0146520D03*
D25*
X0622600Y0058000D03*
X0611400Y0058000D03*
X0587600Y0056000D03*
X0576400Y0056000D03*
D48*
X0602000Y0068410D03*
X0602000Y0079600D03*
X0581000Y0145410D03*
X0581000Y0156600D03*
D28*
X0701000Y0068000D03*
X0709000Y0052000D03*
X0779000Y0189000D03*
X0762000Y0220000D03*
X0762000Y0226000D03*
X0715000Y0211000D03*
D38*
X0741000Y0207000D03*
X0741000Y0201000D03*
X0741000Y0195000D03*
X0741000Y0189000D03*
X0741000Y0092000D03*
X0741000Y0086000D03*
X0741000Y0080000D03*
X0741000Y0074000D03*
M02*
