  0
SECTION
  2
HEADER
  9
$ACADVER
  1
AC1015
  9
$ACADMAINTVER
 70
     6
  9
$DWGCODEPAGE
  3
ANSI_1252
  9
$INSBASE
 10
0.0
 20
0.0
 30
0.0
  9
$EXTMIN
 10
0.0
 20
0.0
 30
0.0
  9
$EXTMAX
 10
12.0
 20
24.0
 30
0.0
  9
$LIMMIN
 10
0.0
 20
0.0
  9
$LIMMAX
 10
12.0
 20
24.0
  9
$ORTHOMODE
 70
     0
  9
$REGENMODE
 70
     1
  9
$FILLMODE
 70
     1
  9
$QTEXTMODE
 70
     0
  9
$MIRRTEXT
 70
     1
  9
$LTSCALE
 40
1.0
  9
$ATTMODE
 70
     1
  9
$TEXTSIZE
 40
0.125
  9
$TRACEWID
 40
0.05
  9
$TEXTSTYLE
  7
Standard
  9
$CLAYER
  8
0
  9
$CELTYPE
  6
ByLayer
  9
$CECOLOR
 62
   256
  9
$CELTSCALE
 40
1.0
  9
$DISPSILH
 70
     0
  9
$DIMSCALE
 40
1.0
  9
$DIMASZ
 40
0.13
  9
$DIMEXO
 40
0.05
  9
$DIMDLI
 40
0.38
  9
$DIMRND
 40
0.0
  9
$DIMDLE
 40
0.0
  9
$DIMEXE
 40
0.125
  9
$DIMTP
 40
0.0
  9
$DIMTM
 40
0.0
  9
$DIMTXT
 40
0.125
  9
$DIMCEN
 40
0.09
  9
$DIMTSZ
 40
0.0
  9
$DIMTOL
 70
     0
  9
$DIMLIM
 70
     0
  9
$DIMTIH
 70
     1
  9
$DIMTOH
 70
     1
  9
$DIMSE1
 70
     0
  9
$DIMSE2
 70
     0
  9
$DIMTAD
 70
     0
  9
$DIMZIN
 70
     0
  9
$DIMBLK
  1

  9
$DIMASO
 70
     1
  9
$DIMSHO
 70
     1
  9
$DIMPOST
  1

  9
$DIMAPOST
  1

  9
$DIMALT
 70
     0
  9
$DIMALTD
 70
     2
  9
$DIMALTF
 40
25.4
  9
$DIMLFAC
 40
1.0
  9
$DIMTOFL
 70
     0
  9
$DIMTVP
 40
0.0
  9
$DIMTIX
 70
     0
  9
$DIMSOXD
 70
     0
  9
$DIMSAH
 70
     0
  9
$DIMBLK1
  1

  9
$DIMBLK2
  1

  9
$DIMSTYLE
  2
Standard
  9
$DIMCLRD
 70
     0
  9
$DIMCLRE
 70
     0
  9
$DIMCLRT
 70
     0
  9
$DIMTFAC
 40
1.0
  9
$DIMGAP
 40
0.06
  9
$DIMJUST
 70
     0
  9
$DIMSD1
 70
     0
  9
$DIMSD2
 70
     0
  9
$DIMTOLJ
 70
     1
  9
$DIMTZIN
 70
     0
  9
$DIMALTZ
 70
     0
  9
$DIMALTTZ
 70
     0
  9
$DIMUPT
 70
     0
  9
$DIMDEC
 70
     3
  9
$DIMTDEC
 70
     3
  9
$DIMALTU
 70
     2
  9
$DIMALTTD
 70
     2
  9
$DIMTXSTY
  7
Standard
  9
$DIMAUNIT
 70
     0
  9
$DIMADEC
 70
     2
  9
$DIMALTRND
 40
0.0
  9
$DIMAZIN
 70
     0
  9
$DIMDSEP
 70
    46
  9
$DIMATFIT
 70
     3
  9
$DIMFRAC
 70
     0
  9
$DIMLDRBLK
  1

  9
$DIMLUNIT
 70
     2
  9
$DIMLWD
 70
    -2
  9
$DIMLWE
 70
    -2
  9
$DIMTMOVE
 70
     0
  9
$LUNITS
 70
     2
  9
$LUPREC
 70
     2
  9
$SKETCHINC
 40
0.1
  9
$FILLETRAD
 40
0.5
  9
$AUNITS
 70
     0
  9
$AUPREC
 70
     2
  9
$MENU
  1
.
  9
$ELEVATION
 40
0.0
  9
$PELEVATION
 40
0.0
  9
$THICKNESS
 40
0.0
  9
$LIMCHECK
 70
     0
  9
$CHAMFERA
 40
0.5
  9
$CHAMFERB
 40
0.5
  9
$CHAMFERC
 40
1.0
  9
$CHAMFERD
 40
0.0
  9
$SKPOLY
 70
     0
  9
$TDCREATE
 40
2455882.550813507
  9
$TDUCREATE
 40
2455882.75914684
  9
$TDUPDATE
 40
2455882.550813518
  9
$TDUUPDATE
 40
2455882.759146852
  9
$TDINDWG
 40
0.0000000116
  9
$TDUSRTIMER
 40
0.0000000116
  9
$USRTIMER
 70
     1
  9
$ANGBASE
 50
0.0
  9
$ANGDIR
 70
     0
  9
$PDMODE
 70
     0
  9
$PDSIZE
 40
-1.0
  9
$PLINEWID
 40
0.0
  9
$SPLFRAME
 70
     0
  9
$SPLINETYPE
 70
     6
  9
$SPLINESEGS
 70
     8
  9
$HANDSEED
  5
218
  9
$SURFTAB1
 70
     6
  9
$SURFTAB2
 70
     6
  9
$SURFTYPE
 70
     6
  9
$SURFU
 70
     6
  9
$SURFV
 70
     6
  9
$UCSBASE
  2

  9
$UCSNAME
  2

  9
$UCSORG
 10
0.0
 20
0.0
 30
0.0
  9
$UCSXDIR
 10
1.0
 20
0.0
 30
0.0
  9
$UCSYDIR
 10
0.0
 20
1.0
 30
0.0
  9
$UCSORTHOREF
  2

  9
$UCSORTHOVIEW
 70
     0
  9
$UCSORGTOP
 10
0.0
 20
0.0
 30
0.0
  9
$UCSORGBOTTOM
 10
0.0
 20
0.0
 30
0.0
  9
$UCSORGLEFT
 10
0.0
 20
0.0
 30
0.0
  9
$UCSORGRIGHT
 10
0.0
 20
0.0
 30
0.0
  9
$UCSORGFRONT
 10
0.0
 20
0.0
 30
0.0
  9
$UCSORGBACK
 10
0.0
 20
0.0
 30
0.0
  9
$PUCSBASE
  2

  9
$PUCSNAME
  2

  9
$PUCSORG
 10
0.0
 20
0.0
 30
0.0
  9
$PUCSXDIR
 10
1.0
 20
0.0
 30
0.0
  9
$PUCSYDIR
 10
0.0
 20
1.0
 30
0.0
  9
$PUCSORTHOREF
  2

  9
$PUCSORTHOVIEW
 70
     0
  9
$PUCSORGTOP
 10
0.0
 20
0.0
 30
0.0
  9
$PUCSORGBOTTOM
 10
0.0
 20
0.0
 30
0.0
  9
$PUCSORGLEFT
 10
0.0
 20
0.0
 30
0.0
  9
$PUCSORGRIGHT
 10
0.0
 20
0.0
 30
0.0
  9
$PUCSORGFRONT
 10
0.0
 20
0.0
 30
0.0
  9
$PUCSORGBACK
 10
0.0
 20
0.0
 30
0.0
  9
$USERI1
 70
     0
  9
$USERI2
 70
     0
  9
$USERI3
 70
     0
  9
$USERI4
 70
     0
  9
$USERI5
 70
     0
  9
$USERR1
 40
0.0
  9
$USERR2
 40
0.0
  9
$USERR3
 40
0.0
  9
$USERR4
 40
0.0
  9
$USERR5
 40
0.0
  9
$WORLDVIEW
 70
     1
  9
$SHADEDGE
 70
     3
  9
$SHADEDIF
 70
    70
  9
$TILEMODE
 70
     1
  9
$MAXACTVP
 70
    64
  9
$PINSBASE
 10
0.0
 20
0.0
 30
0.0
  9
$PLIMCHECK
 70
     0
  9
$PEXTMIN
 10
1.0000000000E+20
 20
1.0000000000E+20
 30
1.0000000000E+20
  9
$PEXTMAX
 10
-1.0000000000E+20
 20
-1.0000000000E+20
 30
-1.0000000000E+20
  9
$PLIMMIN
 10
0.0
 20
0.0
  9
$PLIMMAX
 10
12.0
 20
9.0
  9
$UNITMODE
 70
     0
  9
$VISRETAIN
 70
     1
  9
$PLINEGEN
 70
     0
  9
$PSLTSCALE
 70
     1
  9
$TREEDEPTH
 70
  3020
  9
$CMLSTYLE
  2
Standard
  9
$CMLJUST
 70
     0
  9
$CMLSCALE
 40
1.0
  9
$PROXYGRAPHICS
 70
     1
  9
$MEASUREMENT
 70
     0
  9
$CELWEIGHT
370
    -1
  9
$ENDCAPS
280
     0
  9
$JOINSTYLE
280
     0
  9
$LWDISPLAY
290
     1
  9
$INSUNITS
 70
     1
  9
$HYPERLINKBASE
  1

  9
$STYLESHEET
  1

  9
$XEDIT
290
     1
  9
$CEPSNTYPE
380
     0
  9
$PSTYLEMODE
290
     1
  9
$FINGERPRINTGUID
  2
{43266122-DDFA-44A1-BA9B-E429EC610423}
  9
$VERSIONGUID
  2
{FAEB1C32-E019-11D5-929B-00C0DF256EC4}
  9
$EXTNAMES
290
     1
  9
$PSVPSCALE
 40
0.0
  9
$OLESTARTUP
290
     0
  0
ENDSEC
  0
SECTION
  2
CLASSES
  0
CLASS
  1
ACDBDICTIONARYWDFLT
  2
AcDbDictionaryWithDefault
  3
ObjectDBX Classes
 90
        0
280
     0
281
     0
  0
CLASS
  1
VISUALSTYLE
  2
AcDbVisualStyle
  3
ObjectDBX Classes
 90
     4095
280
     0
281
     0
  0
CLASS
  1
MATERIAL
  2
AcDbMaterial
  3
ObjectDBX Classes
 90
     1153
280
     0
281
     0
  0
CLASS
  1
ACDBPLACEHOLDER
  2
AcDbPlaceHolder
  3
ObjectDBX Classes
 90
        0
280
     0
281
     0
  0
CLASS
  1
LAYOUT
  2
AcDbLayout
  3
ObjectDBX Classes
 90
        0
280
     0
281
     0
  0
ENDSEC
  0
SECTION
  2
TABLES
  0
TABLE
  2
VPORT
  5
8
330
0
100
AcDbSymbolTable
 70
     1
  0
VPORT
  5
29
330
8
100
AcDbSymbolTableRecord
100
AcDbViewportTableRecord
  2
*Active
 70
     0
 10
0.0
 20
0.0
 11
1.0
 21
1.0
 12
6.0
 22
12.0
 13
0.0
 23
0.0
 14
0.5
 24
0.5
 15
0.5
 25
0.5
 16
0.0
 26
0.0
 36
1.0
 17
0.0
 27
0.0
 37
0.0
 40
24.0
 41
0.5
 42
50.0
 43
0.0
 44
0.0
 50
0.0
 51
0.0
 71
     0
 72
  2000
 73
     1
 74
     3
 75
     0
 76
     0
 77
     0
 78
     0
281
     0
 65
     1
110
0.0
120
0.0
130
0.0
111
1.0
121
0.0
131
0.0
112
0.0
122
1.0
132
0.0
 79
     0
146
0.0
  0
ENDTAB
  0
TABLE
  2
LTYPE
  5
5
330
0
100
AcDbSymbolTable
 70
     6
  0
LTYPE
  5
14
330
5
100
AcDbSymbolTableRecord
100
AcDbLinetypeTableRecord
  2
ByBlock
 70
     0
  3

 72
    65
 73
     0
 40
0.0
  0
LTYPE
  5
15
330
5
100
AcDbSymbolTableRecord
100
AcDbLinetypeTableRecord
  2
ByLayer
 70
     0
  3

 72
    65
 73
     0
 40
0.0
  0
LTYPE
  5
16
330
5
100
AcDbSymbolTableRecord
100
AcDbLinetypeTableRecord
  2
Continuous
 70
     0
  3
Solid line
 72
    65
 73
     0
 40
0.0
  0
LTYPE
  5
3F
330
5
100
AcDbSymbolTableRecord
100
AcDbLinetypeTableRecord
  2
HIDDEN
 70
     0
  3
Hidden __ __ __ __ __ __ __ __ __ __ __ __ __ __
 72
    65
 73
     2
 40
0.075
 49
0.05
 74
     0
 49
-0.025
 74
     0
  0
LTYPE
  5
40
330
5
100
AcDbSymbolTableRecord
100
AcDbLinetypeTableRecord
  2
PHANTOM
 70
     0
  3
Phantom ______  __  __  ______  __  __  ______
 72
    65
 73
     6
 40
0.5
 49
0.25
 74
     0
 49
-0.05
 74
     0
 49
0.05
 74
     0
 49
-0.05
 74
     0
 49
0.05
 74
     0
 49
-0.05
 74
     0
  0
LTYPE
  5
41
330
5
100
AcDbSymbolTableRecord
100
AcDbLinetypeTableRecord
  2
CENTER
 70
     0
  3
Center ____ _ ____ _ ____ _ ____ _ ____ _ ____
 72
    65
 73
     4
 40
0.4
 49
0.25
 74
     0
 49
-0.05
 74
     0
 49
0.05
 74
     0
 49
-0.05
 74
     0
  0
LTYPE
  5
42
330
5
100
AcDbSymbolTableRecord
100
AcDbLinetypeTableRecord
  2
CENTERX2
 70
     0
  3
Center (2x) ________  __  ________  __  _____
 72
    65
 73
     4
 40
0.8
 49
0.5
 74
     0
 49
-0.1
 74
     0
 49
0.1
 74
     0
 49
-0.1
 74
     0
  0
LTYPE
  5
43
330
5
100
AcDbSymbolTableRecord
100
AcDbLinetypeTableRecord
  2
DOT2
 70
     0
  3
Dot (.5x) ........................................
 72
    65
 73
     2
 40
0.025
 49
0.0
 74
     0
 49
-0.025
 74
     0
  0
ENDTAB
  0
TABLE
  2
LAYER
  5
2
330
0
100
AcDbSymbolTable
 70
     1
  0
LAYER
  5
10
330
2
100
AcDbSymbolTableRecord
100
AcDbLayerTableRecord
  2
0
 70
     0
 62
     7
  6
Continuous
370
    -3
390
F
  0
ENDTAB
  0
TABLE
  2
STYLE
  5
3
330
0
100
AcDbSymbolTable
 70
     1
  0
STYLE
  5
11
330
3
100
AcDbSymbolTableRecord
100
AcDbTextStyleTableRecord
  2
Standard
 70
     0
 40
0.0
 41
1.0
 50
0.0
 71
     0
 42
0.2
  3
txt
  4

  0
ENDTAB
  0
TABLE
  2
VIEW
  5
6
330
0
100
AcDbSymbolTable
 70
     0
  0
ENDTAB
  0
TABLE
  2
UCS
  5
7
330
0
100
AcDbSymbolTable
 70
     0
  0
ENDTAB
  0
TABLE
  2
APPID
  5
9
330
0
100
AcDbSymbolTable
 70
     1
  0
APPID
  5
12
330
9
100
AcDbSymbolTableRecord
100
AcDbRegAppTableRecord
  2
ACAD
 70
     0
  0
ENDTAB
  0
TABLE
  2
DIMSTYLE
  5
A
330
0
100
AcDbSymbolTable
 70
     1
100
AcDbDimStyleTable
  0
DIMSTYLE
105
27
330
A
100
AcDbSymbolTableRecord
100
AcDbDimStyleTableRecord
  2
Standard
 70
     0
178
     0
340
11
  0
ENDTAB
  0
TABLE
  2
BLOCK_RECORD
  5
1
330
0
100
AcDbSymbolTable
 70
     1
  0
BLOCK_RECORD
  5
1F
330
1
100
AcDbSymbolTableRecord
100
AcDbBlockTableRecord
  2
*Model_Space
340
22
  0
BLOCK_RECORD
  5
1B
330
1
100
AcDbSymbolTableRecord
100
AcDbBlockTableRecord
  2
*Paper_Space
340
1E
  0
BLOCK_RECORD
  5
23
330
1
100
AcDbSymbolTableRecord
100
AcDbBlockTableRecord
  2
*Paper_Space0
340
26
  0
ENDTAB
  0
ENDSEC
  0
SECTION
  2
BLOCKS
  0
BLOCK
  5
20
330
1F
100
AcDbEntity
  8
0
100
AcDbBlockBegin
  2
*Model_Space
 70
     0
 10
0.0
 20
0.0
 30
0.0
  3
*Model_Space
  1

  0
ENDBLK
  5
21
330
1F
100
AcDbEntity
  8
0
100
AcDbBlockEnd
  0
BLOCK
  5
1C
330
1B
100
AcDbEntity
 67
     1
  8
0
100
AcDbBlockBegin
  2
*Paper_Space
 70
     0
 10
0.0
 20
0.0
 30
0.0
  3
*Paper_Space
  1

  0
ENDBLK
  5
1D
330
1B
100
AcDbEntity
 67
     1
  8
0
100
AcDbBlockEnd
  0
BLOCK
  5
24
330
23
100
AcDbEntity
  8
0
100
AcDbBlockBegin
  2
*Paper_Space0
 70
     0
 10
0.0
 20
0.0
 30
0.0
  3
*Paper_Space0
  1

  0
ENDBLK
  5
25
330
23
100
AcDbEntity
  8
0
100
AcDbBlockEnd
  0
ENDSEC
  0
SECTION
  2
ENTITIES
  0
LINE
  5
44
330
1F
100
AcDbEntity
  8
0
  6
Continuous
 62
     7
370
    15
100
AcDbLine
 10
2.7968643691
 20
22.2876328554
 30
0.0
 11
2.4995310572
 21
22.6896192516
 31
0.0
  0
LINE
  5
45
330
1F
100
AcDbEntity
  8
0
  6
Continuous
 62
     7
370
    15
100
AcDbLine
 10
2.2722719226
 20
21.8996136579
 30
0.0
 11
2.7968643691
 21
22.2876328554
 31
0.0
  0
LINE
  5
46
330
1F
100
AcDbEntity
  8
0
  6
Continuous
 62
     7
370
    15
100
AcDbLine
 10
3.1642706848
 20
20.6936538825
 30
0.0
 11
2.2722719226
 21
21.8996136579
 31
0.0
  0
LINE
  5
47
330
1F
100
AcDbEntity
  8
0
  6
Continuous
 62
     7
370
    15
100
AcDbLine
 10
3.6888631313
 20
21.0816730801
 30
0.0
 11
3.1642706848
 21
20.6936538825
 31
0.0
  0
LINE
  5
48
330
1F
100
AcDbEntity
  8
0
  6
Continuous
 62
     7
370
    15
100
AcDbLine
 10
3.9861958565
 20
20.6796866839
 30
0.0
 11
3.6888631313
 21
21.0816730801
 31
0.0
  0
LINE
  5
49
330
1F
100
AcDbEntity
  8
0
  6
Continuous
 62
     7
370
    15
100
AcDbLine
 10
3.46160341
 20
20.2916674863
 30
0.0
 11
3.9861958565
 21
20.6796866839
 31
0.0
  0
LINE
  5
4A
330
1F
100
AcDbEntity
  8
0
  6
Continuous
 62
     7
370
    15
100
AcDbLine
 10
4.6509351907
 20
18.6837213148
 30
0.0
 11
3.46160341
 21
20.2916674863
 31
0.0
  0
LINE
  5
4B
330
1F
100
AcDbEntity
  8
0
  6
Continuous
 62
     7
370
    15
100
AcDbLine
 10
4.3213059586
 20
18.439908398
 30
0.0
 11
4.6509351907
 21
18.6837213148
 31
0.0
  0
LINE
  5
4C
330
1F
100
AcDbEntity
  8
0
  6
Continuous
 62
     7
370
    15
100
AcDbLine
 10
3.8753065775
 20
19.0428879923
 30
0.0
 11
4.3213059586
 21
18.439908398
 31
0.0
  0
LINE
  5
4D
330
1F
100
AcDbEntity
  8
0
  6
Continuous
 62
     7
370
    15
100
AcDbLine
 10
3.9758031765
 20
19.1172213203
 30
0.0
 11
3.8753065775
 21
19.0428879923
 31
0.0
  0
LINE
  5
4E
330
1F
100
AcDbEntity
  8
0
  6
Continuous
 62
     7
370
    15
100
AcDbLine
 10
2.1918062388
 20
21.5291402843
 30
0.0
 11
3.9758031765
 21
19.1172213203
 31
0.0
  0
LINE
  5
4F
330
1F
100
AcDbEntity
  8
0
  6
Continuous
 62
     7
370
    15
100
AcDbLine
 10
2.0913096397
 20
21.4548069563
 30
0.0
 11
2.1918062388
 21
21.5291402843
 31
0.0
  0
LINE
  5
50
330
1F
100
AcDbEntity
  8
0
  6
Continuous
 62
     7
370
    15
100
AcDbLine
 10
1.6453102586
 20
22.0577865506
 30
0.0
 11
2.0913096397
 21
21.4548069563
 31
0.0
  0
LINE
  5
51
330
1F
100
AcDbEntity
  8
0
  6
Continuous
 62
     7
370
    15
100
AcDbLine
 10
2.4995310572
 20
22.6896192516
 30
0.0
 11
1.6453102586
 21
22.0577865506
 31
0.0
  0
LINE
  5
52
330
1F
100
AcDbEntity
  8
0
  6
Continuous
 62
     7
370
    15
100
AcDbLine
 10
0.0417223834
 20
23.9523330913
 30
0.0
 11
0.7917218793
 21
23.9523330913
 31
0.0
  0
LINE
  5
53
330
1F
100
AcDbEntity
  8
0
  6
Continuous
 62
     7
370
    15
100
AcDbLine
 10
0.7917218793
 20
23.8273334687
 30
0.0
 11
3.7917222097
 21
23.8273334687
 31
0.0
  0
LINE
  5
54
330
1F
100
AcDbEntity
  8
0
  6
Continuous
 62
     7
370
    15
100
AcDbLine
 10
4.5417222923
 20
23.542332921
 30
0.0
 11
2.5417218765
 21
23.542332921
 31
0.0
  0
LINE
  5
55
330
1F
100
AcDbEntity
  8
0
  6
Continuous
 62
     7
370
    15
100
AcDbLine
 10
2.5417218765
 20
23.542332921
 30
0.0
 11
2.5417218765
 21
22.8898333654
 31
0.0
  0
LINE
  5
56
330
1F
100
AcDbEntity
  8
0
  6
Continuous
 62
     7
370
    15
100
AcDbLine
 10
2.5417218765
 20
22.8898333654
 30
0.0
 11
2.0417222125
 21
22.8898333654
 31
0.0
  0
LINE
  5
57
330
1F
100
AcDbEntity
  8
0
  6
Continuous
 62
     7
370
    15
100
AcDbLine
 10
2.0417222125
 20
22.8898333654
 30
0.0
 11
2.0417222125
 21
23.542332921
 31
0.0
  0
LINE
  5
58
330
1F
100
AcDbEntity
  8
0
  6
Continuous
 62
     7
370
    15
100
AcDbLine
 10
2.0417222125
 20
23.542332921
 30
0.0
 11
0.5417220473
 21
23.542332921
 31
0.0
  0
LINE
  5
59
330
1F
100
AcDbEntity
  8
0
  6
Continuous
 62
     7
370
    15
100
AcDbLine
 10
0.5417220473
 20
23.542332921
 30
0.0
 11
0.5417220473
 21
22.8898333654
 31
0.0
  0
LINE
  5
5A
330
1F
100
AcDbEntity
  8
0
  6
Continuous
 62
     7
370
    15
100
AcDbLine
 10
0.5417220473
 20
22.8898333654
 30
0.0
 11
0.0417223834
 21
22.8898333654
 31
0.0
  0
LINE
  5
5B
330
1F
100
AcDbEntity
  8
0
  6
Continuous
 62
     7
370
    15
100
AcDbLine
 10
0.0417223834
 20
22.8898333654
 30
0.0
 11
0.0417223834
 21
23.9523330913
 31
0.0
  0
LINE
  5
5C
330
1F
100
AcDbEntity
  8
0
  6
Continuous
 62
     7
370
    15
100
AcDbLine
 10
3.7917222097
 20
23.9523330913
 30
0.0
 11
4.5417222923
 21
23.9523330913
 31
0.0
  0
LINE
  5
5D
330
1F
100
AcDbEntity
  8
0
  6
Continuous
 62
     7
370
    15
100
AcDbLine
 10
0.7917218793
 20
23.9523330913
 30
0.0
 11
0.7917218793
 21
23.8273334687
 31
0.0
  0
LINE
  5
5E
330
1F
100
AcDbEntity
  8
0
  6
Continuous
 62
     7
370
    15
100
AcDbLine
 10
4.5417222923
 20
23.9523330913
 30
0.0
 11
4.5417222923
 21
23.542332921
 31
0.0
  0
LINE
  5
5F
330
1F
100
AcDbEntity
  8
0
  6
Continuous
 62
     7
370
    15
100
AcDbLine
 10
3.7917222097
 20
23.8273334687
 30
0.0
 11
3.7917222097
 21
23.9523330913
 31
0.0
  0
CIRCLE
  5
60
330
1F
100
AcDbEntity
  8
0
  6
Continuous
 62
     7
370
    15
100
AcDbCircle
 10
10.0586185494
 20
23.0236747982
 30
0.0
 40
0.0549999999999992
  0
CIRCLE
  5
61
330
1F
100
AcDbEntity
  8
0
  6
Continuous
 62
     7
370
    15
100
AcDbCircle
 10
5.6012336183
 20
22.1914008241
 30
0.0
 40
0.1397637795275594
  0
CIRCLE
  5
62
330
1F
100
AcDbEntity
  8
0
  6
Continuous
 62
     7
370
    15
100
AcDbCircle
 10
7.35121977
 20
22.1844388786
 30
0.0
 40
0.1574803149606301
  0
CIRCLE
  5
63
330
1F
100
AcDbEntity
  8
0
  6
Continuous
 62
     7
370
    15
100
AcDbCircle
 10
11.5374931568
 20
21.8677823116
 30
0.0
 40
0.0559999999999986
  0
LINE
  5
64
330
1F
100
AcDbEntity
  8
0
  6
Continuous
 62
     7
370
    15
100
AcDbLine
 10
7.6963799561
 20
14.6830065181
 30
0.0
 11
8.7025271864
 21
14.6790037376
 31
0.0
  0
LINE
  5
65
330
1F
100
AcDbEntity
  8
0
  6
Continuous
 62
     7
370
    15
100
AcDbLine
 10
8.7025271864
 20
14.6790037376
 30
0.0
 11
8.703024454
 21
14.8040027736
 31
0.0
  0
LINE
  5
66
330
1F
100
AcDbEntity
  8
0
  6
Continuous
 62
     7
370
    15
100
AcDbLine
 10
8.703024454
 20
14.8040027736
 30
0.0
 11
7.6968771504
 21
14.8080052607
 31
0.0
  0
LINE
  5
67
330
1F
100
AcDbEntity
  8
0
  6
Continuous
 62
     7
370
    15
100
AcDbLine
 10
7.6968771504
 20
14.8080052607
 30
0.0
 11
7.6963799561
 21
14.6830065181
 31
0.0
  0
LINE
  5
68
330
1F
100
AcDbEntity
  8
0
  6
Continuous
 62
     7
370
    15
100
AcDbLine
 10
4.9702711817
 20
20.6938991064
 30
0.0
 11
4.8452721457
 21
20.694396594
 31
0.0
  0
LINE
  5
69
330
1F
100
AcDbEntity
  8
0
  6
Continuous
 62
     7
370
    15
100
AcDbLine
 10
4.8452721457
 20
20.694396594
 30
0.0
 11
4.8422883935
 21
19.944402378
 31
0.0
  0
LINE
  5
6A
330
1F
100
AcDbEntity
  8
0
  6
Continuous
 62
     7
370
    15
100
AcDbLine
 10
4.8422883935
 20
19.944402378
 30
0.0
 11
4.9672874295
 21
19.9439048904
 31
0.0
  0
LINE
  5
6B
330
1F
100
AcDbEntity
  8
0
  6
Continuous
 62
     7
370
    15
100
AcDbLine
 10
4.9672874295
 20
19.9439048904
 30
0.0
 11
4.9702711817
 21
20.6938991064
 31
0.0
  0
LINE
  5
6C
330
1F
100
AcDbEntity
  8
0
  6
Continuous
 62
     7
370
    15
100
AcDbLine
 10
4.9828028236
 20
23.8438737576
 30
0.0
 11
4.8578037876
 21
23.8443712452
 31
0.0
  0
LINE
  5
6D
330
1F
100
AcDbEntity
  8
0
  6
Continuous
 62
     7
370
    15
100
AcDbLine
 10
4.8578037876
 20
23.8443712452
 30
0.0
 11
4.8548200354
 21
23.0943770292
 31
0.0
  0
LINE
  5
6E
330
1F
100
AcDbEntity
  8
0
  6
Continuous
 62
     7
370
    15
100
AcDbLine
 10
4.8548200354
 20
23.0943770292
 30
0.0
 11
4.9798190714
 21
23.0938795416
 31
0.0
  0
LINE
  5
6F
330
1F
100
AcDbEntity
  8
0
  6
Continuous
 62
     7
370
    15
100
AcDbLine
 10
4.9798190714
 20
23.0938795416
 30
0.0
 11
4.9828028236
 21
23.8438737576
 31
0.0
  0
LINE
  5
70
330
1F
100
AcDbEntity
  8
0
  6
Continuous
 62
     7
370
    15
100
AcDbLine
 10
11.6047665128
 20
23.0675244327
 30
0.0
 11
11.607750265
 21
23.8175186487
 31
0.0
  0
LINE
  5
71
330
1F
100
AcDbEntity
  8
0
  6
Continuous
 62
     7
370
    15
100
AcDbLine
 10
11.607750265
 20
23.8175186487
 30
0.0
 11
11.482751229
 21
23.818014963
 31
0.0
  0
LINE
  5
72
330
1F
100
AcDbEntity
  8
0
  6
Continuous
 62
     7
370
    15
100
AcDbLine
 10
11.482751229
 20
23.818014963
 30
0.0
 11
11.4797676234
 21
23.0680219203
 31
0.0
  0
LINE
  5
73
330
1F
100
AcDbEntity
  8
0
  6
Continuous
 62
     7
370
    15
100
AcDbLine
 10
11.4797676234
 20
23.0680219203
 30
0.0
 11
11.6047665128
 21
23.0675244327
 31
0.0
  0
LINE
  5
74
330
1F
100
AcDbEntity
  8
0
  6
Continuous
 62
     7
370
    15
100
AcDbLine
 10
9.5446623627
 20
15.5146218445
 30
0.0
 11
9.5342347972
 21
15.5328499539
 31
0.0
  0
LINE
  5
75
330
1F
100
AcDbEntity
  8
0
  6
Continuous
 62
     7
370
    15
100
AcDbLine
 10
9.5342347972
 20
15.5328499539
 30
0.0
 11
9.5160066327
 21
15.5224223677
 31
0.0
  0
LINE
  5
76
330
1F
100
AcDbEntity
  8
0
  6
Continuous
 62
     7
370
    15
100
AcDbLine
 10
9.5160066327
 20
15.5224223677
 30
0.0
 11
9.5264342006
 21
15.5041942583
 31
0.0
  0
LINE
  5
77
330
1F
100
AcDbEntity
  8
0
  6
Continuous
 62
     7
370
    15
100
AcDbLine
 10
9.5264342006
 20
15.5041942583
 30
0.0
 11
9.5446623627
 21
15.5146218445
 31
0.0
  0
LINE
  5
78
330
1F
100
AcDbEntity
  8
0
  6
Continuous
 62
     7
370
    15
100
AcDbLine
 10
10.5739432676
 20
16.5060324716
 30
0.0
 11
10.5557986105
 21
16.5166049628
 31
0.0
  0
LINE
  5
79
330
1F
100
AcDbEntity
  8
0
  6
Continuous
 62
     7
370
    15
100
AcDbLine
 10
10.5557986105
 20
16.5166049628
 30
0.0
 11
10.5452263393
 21
16.4984601591
 31
0.0
  0
LINE
  5
7A
330
1F
100
AcDbEntity
  8
0
  6
Continuous
 62
     7
370
    15
100
AcDbLine
 10
10.5452263393
 20
16.4984601591
 30
0.0
 11
10.5633709964
 21
16.4878879612
 31
0.0
  0
LINE
  5
7B
330
1F
100
AcDbEntity
  8
0
  6
Continuous
 62
     7
370
    15
100
AcDbLine
 10
10.5633709964
 20
16.4878879612
 30
0.0
 11
10.5739432676
 21
16.5060324716
 31
0.0
  0
LINE
  5
7C
330
1F
100
AcDbEntity
  8
0
  6
Continuous
 62
     7
370
    15
100
AcDbLine
 10
10.9696212367
 20
17.8792598347
 30
0.0
 11
10.9486214526
 21
17.8793431404
 31
0.0
  0
LINE
  5
7D
330
1F
100
AcDbEntity
  8
0
  6
Continuous
 62
     7
370
    15
100
AcDbLine
 10
10.9486214526
 20
17.8793431404
 30
0.0
 11
10.9485380003
 21
17.8583436496
 31
0.0
  0
LINE
  5
7E
330
1F
100
AcDbEntity
  8
0
  6
Continuous
 62
     7
370
    15
100
AcDbLine
 10
10.9485380003
 20
17.8583436496
 30
0.0
 11
10.9695377843
 21
17.8582603439
 31
0.0
  0
LINE
  5
7F
330
1F
100
AcDbEntity
  8
0
  6
Continuous
 62
     7
370
    15
100
AcDbLine
 10
10.9695377843
 20
17.8582603439
 30
0.0
 11
10.9696212367
 21
17.8792598347
 31
0.0
  0
LINE
  5
80
330
1F
100
AcDbEntity
  8
0
  6
Continuous
 62
     7
370
    15
100
AcDbLine
 10
10.6256749367
 20
19.2663485042
 30
0.0
 11
10.6074467539
 21
19.2559212114
 31
0.0
  0
LINE
  5
81
330
1F
100
AcDbEntity
  8
0
  6
Continuous
 62
     7
370
    15
100
AcDbLine
 10
10.6074467539
 20
19.2559212114
 30
0.0
 11
10.6178743401
 21
19.2376931019
 31
0.0
  0
LINE
  5
82
330
1F
100
AcDbEntity
  8
0
  6
Continuous
 62
     7
370
    15
100
AcDbLine
 10
10.6178743401
 20
19.2376931019
 30
0.0
 11
10.6361024495
 21
19.2481203948
 31
0.0
  0
LINE
  5
83
330
1F
100
AcDbEntity
  8
0
  6
Continuous
 62
     7
370
    15
100
AcDbLine
 10
10.6361024495
 20
19.2481203948
 30
0.0
 11
10.6256749367
 21
19.2663485042
 31
0.0
  0
LINE
  5
84
330
1F
100
AcDbEntity
  8
0
  6
Continuous
 62
     7
370
    15
100
AcDbLine
 10
9.6342642087
 20
20.2956297872
 30
0.0
 11
9.6236919375
 21
20.2774849835
 31
0.0
  0
LINE
  5
85
330
1F
100
AcDbEntity
  8
0
  6
Continuous
 62
     7
370
    15
100
AcDbLine
 10
9.6236919375
 20
20.2774849835
 30
0.0
 11
9.6418365579
 21
20.2669127856
 31
0.0
  0
LINE
  5
86
330
1F
100
AcDbEntity
  8
0
  6
Continuous
 62
     7
370
    15
100
AcDbLine
 10
9.6418365579
 20
20.2669127856
 30
0.0
 11
9.6524088291
 21
20.2850570027
 31
0.0
  0
LINE
  5
87
330
1F
100
AcDbEntity
  8
0
  6
Continuous
 62
     7
370
    15
100
AcDbLine
 10
9.6524088291
 20
20.2850570027
 30
0.0
 11
9.6342642087
 21
20.2956297872
 31
0.0
  0
LINE
  5
88
330
1F
100
AcDbEntity
  8
0
  6
Continuous
 62
     7
370
    15
100
AcDbLine
 10
8.2610368732
 20
20.6913078296
 30
0.0
 11
8.2609534208
 21
20.6703077522
 31
0.0
  0
LINE
  5
89
330
1F
100
AcDbEntity
  8
0
  6
Continuous
 62
     7
370
    15
100
AcDbLine
 10
8.2609534208
 20
20.6703077522
 30
0.0
 11
8.2819532049
 21
20.6702244465
 31
0.0
  0
LINE
  5
8A
330
1F
100
AcDbEntity
  8
0
  6
Continuous
 62
     7
370
    15
100
AcDbLine
 10
8.2819532049
 20
20.6702244465
 30
0.0
 11
8.2820368039
 21
20.6912239373
 31
0.0
  0
LINE
  5
8B
330
1F
100
AcDbEntity
  8
0
  6
Continuous
 62
     7
370
    15
100
AcDbLine
 10
8.2820368039
 20
20.6912239373
 30
0.0
 11
8.2610368732
 21
20.6913078296
 31
0.0
  0
LINE
  5
8C
330
1F
100
AcDbEntity
  8
0
  6
Continuous
 62
     7
370
    15
100
AcDbLine
 10
6.8739482036
 20
20.3473614563
 30
0.0
 11
6.8843757898
 21
20.3291327602
 31
0.0
  0
LINE
  5
8D
330
1F
100
AcDbEntity
  8
0
  6
Continuous
 62
     7
370
    15
100
AcDbLine
 10
6.8843757898
 20
20.3291327602
 30
0.0
 11
6.9026038992
 21
20.3395606397
 31
0.0
  0
LINE
  5
8E
330
1F
100
AcDbEntity
  8
0
  6
Continuous
 62
     7
370
    15
100
AcDbLine
 10
6.9026038992
 20
20.3395606397
 30
0.0
 11
6.892176313
 21
20.3577887491
 31
0.0
  0
LINE
  5
8F
330
1F
100
AcDbEntity
  8
0
  6
Continuous
 62
     7
370
    15
100
AcDbLine
 10
6.892176313
 20
20.3577887491
 30
0.0
 11
6.8739482036
 21
20.3473614563
 31
0.0
  0
LINE
  5
90
330
1F
100
AcDbEntity
  8
0
  6
Continuous
 62
     7
370
    15
100
AcDbLine
 10
5.8446672139
 20
19.3559502425
 30
0.0
 11
5.8628120177
 21
19.3453780446
 31
0.0
  0
LINE
  5
91
330
1F
100
AcDbEntity
  8
0
  6
Continuous
 62
     7
370
    15
100
AcDbLine
 10
5.8628120177
 20
19.3453780446
 30
0.0
 11
5.8733842155
 21
19.3635228483
 31
0.0
  0
LINE
  5
92
330
1F
100
AcDbEntity
  8
0
  6
Continuous
 62
     7
370
    15
100
AcDbLine
 10
5.8733842155
 20
19.3635228483
 30
0.0
 11
5.8552394118
 21
19.3740950462
 31
0.0
  0
LINE
  5
93
330
1F
100
AcDbEntity
  8
0
  6
Continuous
 62
     7
370
    15
100
AcDbLine
 10
5.8552394118
 20
19.3740950462
 30
0.0
 11
5.8446672139
 21
19.3559502425
 31
0.0
  0
LINE
  5
94
330
1F
100
AcDbEntity
  8
0
  6
Continuous
 62
     7
370
    15
100
AcDbLine
 10
5.4489891715
 20
17.9827231728
 30
0.0
 11
5.4699889556
 21
17.9826398671
 31
0.0
  0
LINE
  5
95
330
1F
100
AcDbEntity
  8
0
  6
Continuous
 62
     7
370
    15
100
AcDbLine
 10
5.4699889556
 20
17.9826398671
 30
0.0
 11
5.4700725546
 21
18.0036393578
 31
0.0
  0
LINE
  5
96
330
1F
100
AcDbEntity
  8
0
  6
Continuous
 62
     7
370
    15
100
AcDbLine
 10
5.4700725546
 20
18.0036393578
 30
0.0
 11
5.4490727705
 21
18.0037232502
 31
0.0
  0
LINE
  5
97
330
1F
100
AcDbEntity
  8
0
  6
Continuous
 62
     7
370
    15
100
AcDbLine
 10
5.4490727705
 20
18.0037232502
 30
0.0
 11
5.4489891715
 21
17.9827231728
 31
0.0
  0
LINE
  5
98
330
1F
100
AcDbEntity
  8
0
  6
Continuous
 62
     7
370
    15
100
AcDbLine
 10
5.7929355449
 20
16.5956345032
 30
0.0
 11
5.8111636543
 21
16.6060620894
 31
0.0
  0
LINE
  5
99
330
1F
100
AcDbEntity
  8
0
  6
Continuous
 62
     7
370
    15
100
AcDbLine
 10
5.8111636543
 20
16.6060620894
 30
0.0
 11
5.8007363614
 21
16.6242901988
 31
0.0
  0
LINE
  5
9A
330
1F
100
AcDbEntity
  8
0
  6
Continuous
 62
     7
370
    15
100
AcDbLine
 10
5.8007363614
 20
16.6242901988
 30
0.0
 11
5.7825079587
 21
16.6138626126
 31
0.0
  0
LINE
  5
9B
330
1F
100
AcDbEntity
  8
0
  6
Continuous
 62
     7
370
    15
100
AcDbLine
 10
5.7825079587
 20
16.6138626126
 30
0.0
 11
5.7929355449
 21
16.5956345032
 31
0.0
  0
LINE
  5
9C
330
1F
100
AcDbEntity
  8
0
  6
Continuous
 62
     7
370
    15
100
AcDbLine
 10
6.7843464653
 20
15.5663535136
 30
0.0
 11
6.7949186632
 21
15.5844980239
 31
0.0
  0
LINE
  5
9D
330
1F
100
AcDbEntity
  8
0
  6
Continuous
 62
     7
370
    15
100
AcDbLine
 10
6.7949186632
 20
15.5844980239
 30
0.0
 11
6.7767738595
 21
15.5950705151
 31
0.0
  0
LINE
  5
9E
330
1F
100
AcDbEntity
  8
0
  6
Continuous
 62
     7
370
    15
100
AcDbLine
 10
6.7767738595
 20
15.5950705151
 30
0.0
 11
6.7662016616
 21
15.5769257114
 31
0.0
  0
LINE
  5
9F
330
1F
100
AcDbEntity
  8
0
  6
Continuous
 62
     7
370
    15
100
AcDbLine
 10
6.7662016616
 20
15.5769257114
 30
0.0
 11
6.7843464653
 21
15.5663535136
 31
0.0
  0
LINE
  5
A0
330
1F
100
AcDbEntity
  8
0
  6
Continuous
 62
     7
370
    15
100
AcDbLine
 10
11.3293100415
 20
16.6691693871
 30
0.0
 11
11.3322937937
 21
17.4191636031
 31
0.0
  0
LINE
  5
A1
330
1F
100
AcDbEntity
  8
0
  6
Continuous
 62
     7
370
    15
100
AcDbLine
 10
11.3322937937
 20
17.4191636031
 30
0.0
 11
11.2072947577
 21
17.419660504
 31
0.0
  0
LINE
  5
A2
330
1F
100
AcDbEntity
  8
0
  6
Continuous
 62
     7
370
    15
100
AcDbLine
 10
11.2072947577
 20
17.419660504
 30
0.0
 11
11.2043111522
 21
16.6696665813
 31
0.0
  0
LINE
  5
A3
330
1F
100
AcDbEntity
  8
0
  6
Continuous
 62
     7
370
    15
100
AcDbLine
 10
11.2043111522
 20
16.6696665813
 30
0.0
 11
11.3293100415
 21
16.6691693871
 31
0.0
  0
LINE
  5
A4
330
1F
100
AcDbEntity
  8
0
  6
Continuous
 62
     7
370
    15
100
AcDbLine
 10
8.2600728443
 20
15.1702677425
 30
0.0
 11
8.2601562967
 21
15.1912675266
 31
0.0
  0
LINE
  5
A5
330
1F
100
AcDbEntity
  8
0
  6
Continuous
 62
     7
370
    15
100
AcDbLine
 10
8.2601562967
 20
15.1912675266
 30
0.0
 11
8.2391565126
 21
15.1913511256
 31
0.0
  0
LINE
  5
A6
330
1F
100
AcDbEntity
  8
0
  6
Continuous
 62
     7
370
    15
100
AcDbLine
 10
8.2391565126
 20
15.1913511256
 30
0.0
 11
8.2390729136
 21
15.1703513415
 31
0.0
  0
LINE
  5
A7
330
1F
100
AcDbEntity
  8
0
  6
Continuous
 62
     7
370
    15
100
AcDbLine
 10
8.2390729136
 20
15.1703513415
 30
0.0
 11
8.2600728443
 21
15.1702677425
 31
0.0
  0
LINE
  5
A8
330
1F
100
AcDbEntity
  8
0
  6
Continuous
 62
     7
370
    15
100
AcDbLine
 10
4.733202507
 20
23.9448684309
 30
0.0
 11
4.7093330761
 21
17.9449152895
 31
0.0
  0
LINE
  5
A9
330
1F
100
AcDbEntity
  8
0
  6
Continuous
 62
     7
370
    15
100
AcDbLine
 10
11.7331470564
 20
23.9170196859
 30
0.0
 11
4.733202507
 21
23.9448684309
 31
0.0
  0
LINE
  5
AA
330
1F
100
AcDbEntity
  8
0
  6
Continuous
 62
     7
370
    15
100
AcDbLine
 10
11.7092776255
 20
17.9170677179
 30
0.0
 11
11.7331470564
 21
23.9170196859
 31
0.0
  0
CIRCLE
  5
AB
330
1F
100
AcDbEntity
  8
0
  6
Continuous
 62
     7
370
    15
100
AcDbCircle
 10
8.209305264
 20
17.9309915373
 30
0.0
 40
2.5
  0
LINE
  5
AC
330
1F
100
AcDbEntity
  8
0
  6
Continuous
 62
     7
370
    15
100
AcDbLine
 10
8.1575736817
 20
15.1706754711
 30
0.0
 11
8.1576571341
 21
15.1916752552
 31
0.0
  0
LINE
  5
AD
330
1F
100
AcDbEntity
  8
0
  6
Continuous
 62
     7
370
    15
100
AcDbLine
 10
8.1576571341
 20
15.1916752552
 30
0.0
 11
8.13665735
 21
15.1917588542
 31
0.0
  0
LINE
  5
AE
330
1F
100
AcDbEntity
  8
0
  6
Continuous
 62
     7
370
    15
100
AcDbLine
 10
8.13665735
 20
15.1917588542
 30
0.0
 11
8.136573751
 21
15.1707590702
 31
0.0
  0
LINE
  5
AF
330
1F
100
AcDbEntity
  8
0
  6
Continuous
 62
     7
370
    15
100
AcDbLine
 10
8.136573751
 20
15.1707590702
 30
0.0
 11
8.1575736817
 21
15.1706754711
 31
0.0
  0
LINE
  5
B0
330
1F
100
AcDbEntity
  8
0
  6
Continuous
 62
     7
370
    15
100
AcDbLine
 10
6.8729092289
 20
15.5147509097
 30
0.0
 11
6.8834817201
 21
15.5328954201
 31
0.0
  0
LINE
  5
B1
330
1F
100
AcDbEntity
  8
0
  6
Continuous
 62
     7
370
    15
100
AcDbLine
 10
6.8834817201
 20
15.5328954201
 30
0.0
 11
6.8653369164
 21
15.5434676179
 31
0.0
  0
LINE
  5
B2
330
1F
100
AcDbEntity
  8
0
  6
Continuous
 62
     7
370
    15
100
AcDbLine
 10
6.8653369164
 20
15.5434676179
 30
0.0
 11
6.8547647185
 21
15.5253231075
 31
0.0
  0
LINE
  5
B3
330
1F
100
AcDbEntity
  8
0
  6
Continuous
 62
     7
370
    15
100
AcDbLine
 10
6.8547647185
 20
15.5253231075
 30
0.0
 11
6.8729092289
 21
15.5147509097
 31
0.0
  0
LINE
  5
B4
330
1F
100
AcDbEntity
  8
0
  6
Continuous
 62
     7
370
    15
100
AcDbLine
 10
5.8438321036
 20
16.5066637177
 30
0.0
 11
5.862060213
 21
16.5170913039
 31
0.0
  0
LINE
  5
B5
330
1F
100
AcDbEntity
  8
0
  6
Continuous
 62
     7
370
    15
100
AcDbLine
 10
5.862060213
 20
16.5170913039
 30
0.0
 11
5.8516326268
 21
16.5353194133
 31
0.0
  0
LINE
  5
B6
330
1F
100
AcDbEntity
  8
0
  6
Continuous
 62
     7
370
    15
100
AcDbLine
 10
5.8516326268
 20
16.5353194133
 30
0.0
 11
5.8334045174
 21
16.5248918271
 31
0.0
  0
LINE
  5
B7
330
1F
100
AcDbEntity
  8
0
  6
Continuous
 62
     7
370
    15
100
AcDbLine
 10
5.8334045174
 20
16.5248918271
 30
0.0
 11
5.8438321036
 21
16.5066637177
 31
0.0
  0
LINE
  5
B8
330
1F
100
AcDbEntity
  8
0
  6
Continuous
 62
     7
370
    15
100
AcDbLine
 10
5.4485814429
 20
17.8802237169
 30
0.0
 11
5.469581227
 21
17.8801404112
 31
0.0
  0
LINE
  5
B9
330
1F
100
AcDbEntity
  8
0
  6
Continuous
 62
     7
370
    15
100
AcDbLine
 10
5.469581227
 20
17.8801404112
 30
0.0
 11
5.469664826
 21
17.9011404886
 31
0.0
  0
LINE
  5
BA
330
1F
100
AcDbEntity
  8
0
  6
Continuous
 62
     7
370
    15
100
AcDbLine
 10
5.469664826
 20
17.9011404886
 30
0.0
 11
5.4486650419
 21
17.9012237943
 31
0.0
  0
LINE
  5
BB
330
1F
100
AcDbEntity
  8
0
  6
Continuous
 62
     7
370
    15
100
AcDbLine
 10
5.4486650419
 20
17.9012237943
 30
0.0
 11
5.4485814429
 21
17.8802237169
 31
0.0
  0
LINE
  5
BC
330
1F
100
AcDbEntity
  8
0
  6
Continuous
 62
     7
370
    15
100
AcDbLine
 10
5.7930646101
 20
19.2673874789
 30
0.0
 11
5.8112091204
 21
19.256815281
 31
0.0
  0
LINE
  5
BD
330
1F
100
AcDbEntity
  8
0
  6
Continuous
 62
     7
370
    15
100
AcDbLine
 10
5.8112091204
 20
19.256815281
 30
0.0
 11
5.8217813183
 21
19.2749600847
 31
0.0
  0
LINE
  5
BE
330
1F
100
AcDbEntity
  8
0
  6
Continuous
 62
     7
370
    15
100
AcDbLine
 10
5.8217813183
 20
19.2749600847
 30
0.0
 11
5.8036368079
 21
19.2855322826
 31
0.0
  0
LINE
  5
BF
330
1F
100
AcDbEntity
  8
0
  6
Continuous
 62
     7
370
    15
100
AcDbLine
 10
5.8036368079
 20
19.2855322826
 30
0.0
 11
5.7930646101
 21
19.2673874789
 31
0.0
  0
LINE
  5
C0
330
1F
100
AcDbEntity
  8
0
  6
Continuous
 62
     7
370
    15
100
AcDbLine
 10
6.7849774181
 20
20.2964646042
 30
0.0
 11
6.7954050043
 21
20.2782364948
 31
0.0
  0
LINE
  5
C1
330
1F
100
AcDbEntity
  8
0
  6
Continuous
 62
     7
370
    15
100
AcDbLine
 10
6.7954050043
 20
20.2782364948
 30
0.0
 11
6.8136331137
 21
20.2886643743
 31
0.0
  0
LINE
  5
C2
330
1F
100
AcDbEntity
  8
0
  6
Continuous
 62
     7
370
    15
100
AcDbLine
 10
6.8136331137
 20
20.2886643743
 30
0.0
 11
6.8032055275
 21
20.3068924838
 31
0.0
  0
LINE
  5
C3
330
1F
100
AcDbEntity
  8
0
  6
Continuous
 62
     7
370
    15
100
AcDbLine
 10
6.8032055275
 20
20.3068924838
 30
0.0
 11
6.7849774181
 21
20.2964646042
 31
0.0
  0
LINE
  5
C4
330
1F
100
AcDbEntity
  8
0
  6
Continuous
 62
     7
370
    15
100
AcDbLine
 10
8.1585377106
 20
20.6917155583
 30
0.0
 11
8.1584541115
 21
20.6707154809
 31
0.0
  0
LINE
  5
C5
330
1F
100
AcDbEntity
  8
0
  6
Continuous
 62
     7
370
    15
100
AcDbLine
 10
8.1584541115
 20
20.6707154809
 30
0.0
 11
8.1794540423
 21
20.6706321752
 31
0.0
  0
LINE
  5
C6
330
1F
100
AcDbEntity
  8
0
  6
Continuous
 62
     7
370
    15
100
AcDbLine
 10
8.1794540423
 20
20.6706321752
 30
0.0
 11
8.1795374947
 21
20.6916316659
 31
0.0
  0
LINE
  5
C7
330
1F
100
AcDbEntity
  8
0
  6
Continuous
 62
     7
370
    15
100
AcDbLine
 10
8.1795374947
 20
20.6916316659
 30
0.0
 11
8.1585377106
 21
20.6917155583
 31
0.0
  0
LINE
  5
C8
330
1F
100
AcDbEntity
  8
0
  6
Continuous
 62
     7
370
    15
100
AcDbLine
 10
9.5457011907
 20
20.3472323911
 30
0.0
 11
9.5351289241
 21
20.3290875874
 31
0.0
  0
LINE
  5
C9
330
1F
100
AcDbEntity
  8
0
  6
Continuous
 62
     7
370
    15
100
AcDbLine
 10
9.5351289241
 20
20.3290875874
 30
0.0
 11
9.5532735411
 21
20.3185153895
 31
0.0
  0
LINE
  5
CA
330
1F
100
AcDbEntity
  8
0
  6
Continuous
 62
     7
370
    15
100
AcDbLine
 10
9.5532735411
 20
20.3185153895
 30
0.0
 11
9.5638458094
 21
20.3366601932
 31
0.0
  0
LINE
  5
CB
330
1F
100
AcDbEntity
  8
0
  6
Continuous
 62
     7
370
    15
100
AcDbLine
 10
9.5638458094
 20
20.3366601932
 30
0.0
 11
9.5457011907
 21
20.3472323911
 31
0.0
  0
LINE
  5
CC
330
1F
100
AcDbEntity
  8
0
  6
Continuous
 62
     7
370
    15
100
AcDbLine
 10
10.5747784513
 20
19.3553195831
 30
0.0
 11
10.5565502685
 21
19.3448917036
 31
0.0
  0
LINE
  5
CD
330
1F
100
AcDbEntity
  8
0
  6
Continuous
 62
     7
370
    15
100
AcDbLine
 10
10.5565502685
 20
19.3448917036
 30
0.0
 11
10.5669778547
 21
19.3266635941
 31
0.0
  0
LINE
  5
CE
330
1F
100
AcDbEntity
  8
0
  6
Continuous
 62
     7
370
    15
100
AcDbLine
 10
10.5669778547
 20
19.3266635941
 30
0.0
 11
10.5852060375
 21
19.3370914737
 31
0.0
  0
LINE
  5
CF
330
1F
100
AcDbEntity
  8
0
  6
Continuous
 62
     7
370
    15
100
AcDbLine
 10
10.5852060375
 20
19.3370914737
 30
0.0
 11
10.5747784513
 21
19.3553195831
 31
0.0
  0
LINE
  5
D0
330
1F
100
AcDbEntity
  8
0
  6
Continuous
 62
     7
370
    15
100
AcDbLine
 10
10.970029112
 20
17.9817592906
 30
0.0
 11
10.9490291812
 21
17.9818425963
 31
0.0
  0
LINE
  5
D1
330
1F
100
AcDbEntity
  8
0
  6
Continuous
 62
     7
370
    15
100
AcDbLine
 10
10.9490291812
 20
17.9818425963
 30
0.0
 11
10.9489457289
 21
17.9608425189
 31
0.0
  0
LINE
  5
D2
330
1F
100
AcDbEntity
  8
0
  6
Continuous
 62
     7
370
    15
100
AcDbLine
 10
10.9489457289
 20
17.9608425189
 30
0.0
 11
10.969945513
 21
17.9607592132
 31
0.0
  0
LINE
  5
D3
330
1F
100
AcDbEntity
  8
0
  6
Continuous
 62
     7
370
    15
100
AcDbLine
 10
10.969945513
 20
17.9607592132
 30
0.0
 11
10.970029112
 21
17.9817592906
 31
0.0
  0
LINE
  5
D4
330
1F
100
AcDbEntity
  8
0
  6
Continuous
 62
     7
370
    15
100
AcDbLine
 10
10.6255460182
 20
16.5945955285
 30
0.0
 11
10.6074013611
 21
16.6051680197
 31
0.0
  0
LINE
  5
D5
330
1F
100
AcDbEntity
  8
0
  6
Continuous
 62
     7
370
    15
100
AcDbLine
 10
10.6074013611
 20
16.6051680197
 30
0.0
 11
10.5968290899
 21
16.587023216
 31
0.0
  0
LINE
  5
D6
330
1F
100
AcDbEntity
  8
0
  6
Continuous
 62
     7
370
    15
100
AcDbLine
 10
10.5968290899
 20
16.587023216
 30
0.0
 11
10.6149737469
 21
16.5764510182
 31
0.0
  0
LINE
  5
D7
330
1F
100
AcDbEntity
  8
0
  6
Continuous
 62
     7
370
    15
100
AcDbLine
 10
10.6149737469
 20
16.5764510182
 30
0.0
 11
10.6255460182
 21
16.5945955285
 31
0.0
  0
LINE
  5
D8
330
1F
100
AcDbEntity
  8
0
  6
Continuous
 62
     7
370
    15
100
AcDbLine
 10
9.6336331506
 20
15.5655184032
 30
0.0
 11
9.6232055827
 21
15.5837465126
 31
0.0
  0
LINE
  5
D9
330
1F
100
AcDbEntity
  8
0
  6
Continuous
 62
     7
370
    15
100
AcDbLine
 10
9.6232055827
 20
15.5837465126
 30
0.0
 11
9.6049774228
 21
15.5733189264
 31
0.0
  0
LINE
  5
DA
330
1F
100
AcDbEntity
  8
0
  6
Continuous
 62
     7
370
    15
100
AcDbLine
 10
9.6049774228
 20
15.5733189264
 30
0.0
 11
9.6154049861
 21
15.555090817
 31
0.0
  0
LINE
  5
DB
330
1F
100
AcDbEntity
  8
0
  6
Continuous
 62
     7
370
    15
100
AcDbLine
 10
9.6154049861
 20
15.555090817
 30
0.0
 11
9.6336331506
 21
15.5655184032
 31
0.0
  0
LINE
  5
DC
330
1F
100
AcDbEntity
  8
0
  6
Continuous
 62
     7
370
    15
100
AcDbLine
 10
11.3442285092
 20
20.4191398804
 30
0.0
 11
11.3472122614
 21
21.1691335098
 31
0.0
  0
LINE
  5
DD
330
1F
100
AcDbEntity
  8
0
  6
Continuous
 62
     7
370
    15
100
AcDbLine
 10
11.3472122614
 20
21.1691335098
 30
0.0
 11
11.2222132254
 21
21.1696309973
 31
0.0
  0
LINE
  5
DE
330
1F
100
AcDbEntity
  8
0
  6
Continuous
 62
     7
370
    15
100
AcDbLine
 10
11.2222132254
 20
21.1696309973
 30
0.0
 11
11.2192296199
 21
20.4196367813
 31
0.0
  0
LINE
  5
DF
330
1F
100
AcDbEntity
  8
0
  6
Continuous
 62
     7
370
    15
100
AcDbLine
 10
11.2192296199
 20
20.4196367813
 30
0.0
 11
11.3442285092
 21
20.4191398804
 31
0.0
  0
LINE
  5
E0
330
1F
100
AcDbEntity
  8
0
  6
Continuous
 62
     7
370
    15
100
AcDbLine
 10
11.5922350175
 20
19.9175491948
 30
0.0
 11
11.5952187697
 21
20.6675434108
 31
0.0
  0
LINE
  5
E1
330
1F
100
AcDbEntity
  8
0
  6
Continuous
 62
     7
370
    15
100
AcDbLine
 10
11.5952187697
 20
20.6675434108
 30
0.0
 11
11.4702197337
 21
20.6680403118
 31
0.0
  0
LINE
  5
E2
330
1F
100
AcDbEntity
  8
0
  6
Continuous
 62
     7
370
    15
100
AcDbLine
 10
11.4702197337
 20
20.6680403118
 30
0.0
 11
11.4672361282
 21
19.9180460958
 31
0.0
  0
LINE
  5
E3
330
1F
100
AcDbEntity
  8
0
  6
Continuous
 62
     7
370
    15
100
AcDbLine
 10
11.4672361282
 20
19.9180460958
 30
0.0
 11
11.5922350175
 21
19.9175491948
 31
0.0
  0
LINE
  5
E4
330
1F
100
AcDbEntity
  8
0
  6
Continuous
 62
     7
370
    15
100
AcDbLine
 10
5.207342203
 20
17.4435305216
 30
0.0
 11
5.082343167
 21
17.4440274225
 31
0.0
  0
LINE
  5
E5
330
1F
100
AcDbEntity
  8
0
  6
Continuous
 62
     7
370
    15
100
AcDbLine
 10
5.082343167
 20
17.4440274225
 30
0.0
 11
5.0793597082
 21
16.6940334998
 31
0.0
  0
LINE
  5
E6
330
1F
100
AcDbEntity
  8
0
  6
Continuous
 62
     7
370
    15
100
AcDbLine
 10
5.0793597082
 20
16.6940334998
 30
0.0
 11
5.2043584508
 21
16.6935363056
 31
0.0
  0
LINE
  5
E7
330
1F
100
AcDbEntity
  8
0
  6
Continuous
 62
     7
370
    15
100
AcDbLine
 10
5.2043584508
 20
16.6935363056
 30
0.0
 11
5.207342203
 21
17.4435305216
 31
0.0
  0
LINE
  5
E8
330
1F
100
AcDbEntity
  8
0
  6
Continuous
 62
     7
370
    15
100
AcDbLine
 10
5.2222606707
 20
21.1935004283
 30
0.0
 11
5.0972616347
 21
21.1939979159
 31
0.0
  0
LINE
  5
E9
330
1F
100
AcDbEntity
  8
0
  6
Continuous
 62
     7
370
    15
100
AcDbLine
 10
5.0972616347
 20
21.1939979159
 30
0.0
 11
5.0942778825
 21
20.4440036999
 31
0.0
  0
LINE
  5
EA
330
1F
100
AcDbEntity
  8
0
  6
Continuous
 62
     7
370
    15
100
AcDbLine
 10
5.0942778825
 20
20.4440036999
 30
0.0
 11
5.2192769185
 21
20.4435067989
 31
0.0
  0
LINE
  5
EB
330
1F
100
AcDbEntity
  8
0
  6
Continuous
 62
     7
370
    15
100
AcDbLine
 10
5.2192769185
 20
20.4435067989
 30
0.0
 11
5.2222606707
 21
21.1935004283
 31
0.0
  0
LINE
  5
EC
330
1F
100
AcDbEntity
  8
0
  6
Continuous
 62
     7
370
    15
100
AcDbLine
 10
7.7217412632
 20
21.0579561808
 30
0.0
 11
8.7217333312
 21
21.0539774534
 31
0.0
  0
LINE
  5
ED
330
1F
100
AcDbEntity
  8
0
  6
Continuous
 62
     7
370
    15
100
AcDbLine
 10
8.7217333312
 20
21.0539774534
 30
0.0
 11
8.7222305987
 21
21.1789764894
 31
0.0
  0
LINE
  5
EE
330
1F
100
AcDbEntity
  8
0
  6
Continuous
 62
     7
370
    15
100
AcDbLine
 10
8.7222305987
 20
21.1789764894
 30
0.0
 11
7.7222386041
 21
21.1829552168
 31
0.0
  0
LINE
  5
EF
330
1F
100
AcDbEntity
  8
0
  6
Continuous
 62
     7
370
    15
100
AcDbLine
 10
7.7222386041
 20
21.1829552168
 30
0.0
 11
7.7217412632
 21
21.0579561808
 31
0.0
  0
CIRCLE
  5
F0
330
1F
100
AcDbEntity
  8
0
  6
Continuous
 62
     7
370
    15
100
AcDbCircle
 10
4.9125455823
 20
21.8941382481
 30
0.0
 40
0.0559999999999995
  0
CIRCLE
  5
F1
330
1F
100
AcDbEntity
  8
0
  6
Continuous
 62
     7
370
    15
100
AcDbCircle
 10
6.4762266941
 20
22.1879198513
 30
0.0
 40
0.1397637795275594
  0
CIRCLE
  5
F2
330
1F
100
AcDbEntity
  8
0
  6
Continuous
 62
     7
370
    15
100
AcDbCircle
 10
8.8534563145
 20
21.7284589909
 30
0.0
 40
0.0549999999999992
  0
ARC
  5
F3
330
1F
100
AcDbEntity
  8
0
  6
Continuous
 62
     7
370
    15
100
AcDbCircle
 10
8.209305264
 20
17.9309915373
 30
0.0
 40
3.5
100
AcDbArc
 50
179.7720622026
 51
359.7720622026
  0
LINE
  5
F4
330
1F
100
AcDbEntity
  8
0
  6
Continuous
 62
     7
370
    15
100
AcDbLine
 10
11.2507512957
 20
23.3520157596
 30
0.0
 11
11.2132512623
 21
23.15201519
 31
0.0
  0
LINE
  5
F5
330
1F
100
AcDbEntity
  8
0
  6
Continuous
 62
     7
370
    15
100
AcDbLine
 10
11.3007512915
 20
23.3520157596
 30
0.0
 11
11.2507512957
 21
23.3520157596
 31
0.0
  0
LINE
  5
F6
330
1F
100
AcDbEntity
  8
0
  6
Continuous
 62
     7
370
    15
100
AcDbLine
 10
11.3382511783
 20
23.15201519
 30
0.0
 11
11.3007512915
 21
23.3520157596
 31
0.0
  0
LINE
  5
F7
330
1F
100
AcDbEntity
  8
0
  6
Continuous
 62
     7
370
    15
100
AcDbLine
 10
11.3382511783
 20
23.0270155673
 30
0.0
 11
11.3382511783
 21
23.15201519
 31
0.0
  0
LINE
  5
F8
330
1F
100
AcDbEntity
  8
0
  6
Continuous
 62
     7
370
    15
100
AcDbLine
 10
11.2132512623
 20
23.0270155673
 30
0.0
 11
11.3382511783
 21
23.0270155673
 31
0.0
  0
LINE
  5
F9
330
1F
100
AcDbEntity
  8
0
  6
Continuous
 62
     7
370
    15
100
AcDbLine
 10
11.2132512623
 20
23.15201519
 30
0.0
 11
11.2132512623
 21
23.0270155673
 31
0.0
  0
LINE
  5
FA
330
1F
100
AcDbEntity
  8
0
  6
Continuous
 62
     7
370
    15
100
AcDbLine
 10
4.572044982
 20
22.0935774972
 30
0.0
 11
4.1970449407
 21
22.0935774972
 31
0.0
  0
LINE
  5
FB
330
1F
100
AcDbEntity
  8
0
  6
Continuous
 62
     7
370
    15
100
AcDbLine
 10
4.572044982
 20
21.6910777735
 30
0.0
 11
4.572044982
 21
22.0935774972
 31
0.0
  0
LINE
  5
FC
330
1F
100
AcDbEntity
  8
0
  6
Continuous
 62
     7
370
    15
100
AcDbLine
 10
4.1970449407
 20
21.6910777735
 30
0.0
 11
4.572044982
 21
21.6910777735
 31
0.0
  0
LINE
  5
FD
330
1F
100
AcDbEntity
  8
0
  6
Continuous
 62
     7
370
    15
100
AcDbLine
 10
4.1970449407
 20
21.1560773939
 30
0.0
 11
4.1970449407
 21
21.6910777735
 31
0.0
  0
LINE
  5
FE
330
1F
100
AcDbEntity
  8
0
  6
Continuous
 62
     7
370
    15
100
AcDbLine
 10
3.1970450262
 20
21.1560773939
 30
0.0
 11
4.1970449407
 21
21.1560773939
 31
0.0
  0
LINE
  5
FF
330
1F
100
AcDbEntity
  8
0
  6
Continuous
 62
     7
370
    15
100
AcDbLine
 10
3.1970450262
 20
21.6910777735
 30
0.0
 11
3.1970450262
 21
21.1560773939
 31
0.0
  0
LINE
  5
100
330
1F
100
AcDbEntity
  8
0
  6
Continuous
 62
     7
370
    15
100
AcDbLine
 10
2.8220449849
 20
21.6910777735
 30
0.0
 11
3.1970450262
 21
21.6910777735
 31
0.0
  0
LINE
  5
101
330
1F
100
AcDbEntity
  8
0
  6
Continuous
 62
     7
370
    15
100
AcDbLine
 10
2.8220449849
 20
22.0935774972
 30
0.0
 11
2.8220449849
 21
21.6910777735
 31
0.0
  0
LINE
  5
102
330
1F
100
AcDbEntity
  8
0
  6
Continuous
 62
     7
370
    15
100
AcDbLine
 10
3.1970450262
 20
22.0935774972
 30
0.0
 11
2.8220449849
 21
22.0935774972
 31
0.0
  0
LINE
  5
103
330
1F
100
AcDbEntity
  8
0
  6
Continuous
 62
     7
370
    15
100
AcDbLine
 10
3.1970450262
 20
22.2185771198
 30
0.0
 11
3.1970450262
 21
22.0935774972
 31
0.0
  0
LINE
  5
104
330
1F
100
AcDbEntity
  8
0
  6
Continuous
 62
     7
370
    15
100
AcDbLine
 10
4.1970449407
 20
22.2185771198
 30
0.0
 11
3.1970450262
 21
22.2185771198
 31
0.0
  0
LINE
  5
105
330
1F
100
AcDbEntity
  8
0
  6
Continuous
 62
     7
370
    15
100
AcDbLine
 10
4.1970449407
 20
22.0935774972
 30
0.0
 11
4.1970449407
 21
22.2185771198
 31
0.0
  0
LINE
  5
106
330
1F
100
AcDbEntity
  8
0
  6
Continuous
 62
     7
370
    15
100
AcDbLine
 10
4.1708722831
 20
22.3547690399
 30
0.0
 11
3.1708723685
 21
22.3547690399
 31
0.0
  0
LINE
  5
107
330
1F
100
AcDbEntity
  8
0
  6
Continuous
 62
     7
370
    15
100
AcDbLine
 10
3.1708723685
 20
22.3547690399
 30
0.0
 11
3.1708723685
 21
22.4797686625
 31
0.0
  0
LINE
  5
108
330
1F
100
AcDbEntity
  8
0
  6
Continuous
 62
     7
370
    15
100
AcDbLine
 10
3.1708723685
 20
22.4797686625
 30
0.0
 11
2.7958723272
 21
22.4797686625
 31
0.0
  0
LINE
  5
109
330
1F
100
AcDbEntity
  8
0
  6
Continuous
 62
     7
370
    15
100
AcDbLine
 10
2.7958723272
 20
22.8822689728
 30
0.0
 11
3.1708723685
 21
22.8822689728
 31
0.0
  0
LINE
  5
10A
330
1F
100
AcDbEntity
  8
0
  6
Continuous
 62
     7
370
    15
100
AcDbLine
 10
3.1708723685
 20
22.8822689728
 30
0.0
 11
3.1708723685
 21
23.4172687658
 31
0.0
  0
LINE
  5
10B
330
1F
100
AcDbEntity
  8
0
  6
Continuous
 62
     7
370
    15
100
AcDbLine
 10
4.1708722831
 20
23.4172687658
 30
0.0
 11
4.1708722831
 21
22.8822689728
 31
0.0
  0
LINE
  5
10C
330
1F
100
AcDbEntity
  8
0
  6
Continuous
 62
     7
370
    15
100
AcDbLine
 10
4.1708722831
 20
22.8822689728
 30
0.0
 11
4.5458723244
 21
22.8822689728
 31
0.0
  0
LINE
  5
10D
330
1F
100
AcDbEntity
  8
0
  6
Continuous
 62
     7
370
    15
100
AcDbLine
 10
4.1708722831
 20
22.4797686625
 30
0.0
 11
4.1708722831
 21
22.3547690399
 31
0.0
  0
LINE
  5
10E
330
1F
100
AcDbEntity
  8
0
  6
Continuous
 62
     7
370
    15
100
AcDbLine
 10
2.7958723272
 20
22.4797686625
 30
0.0
 11
2.7958723272
 21
22.8822689728
 31
0.0
  0
LINE
  5
10F
330
1F
100
AcDbEntity
  8
0
  6
Continuous
 62
     7
370
    15
100
AcDbLine
 10
4.5458723244
 20
22.4797686625
 30
0.0
 11
4.1708722831
 21
22.4797686625
 31
0.0
  0
LINE
  5
110
330
1F
100
AcDbEntity
  8
0
  6
Continuous
 62
     7
370
    15
100
AcDbLine
 10
4.5458723244
 20
22.8822689728
 30
0.0
 11
4.5458723244
 21
22.4797686625
 31
0.0
  0
LINE
  5
111
330
1F
100
AcDbEntity
  8
0
  6
Continuous
 62
     7
370
    15
100
AcDbLine
 10
3.1708723685
 20
23.4172687658
 30
0.0
 11
4.1708722831
 21
23.4172687658
 31
0.0
  0
LINE
  5
112
330
1F
100
AcDbEntity
  8
0
  6
Continuous
 62
     7
370
    15
100
AcDbLine
 10
0.9478637556
 20
17.7434175639
 30
0.0
 11
2.4837252665
 21
17.7821517831
 31
0.0
  0
LINE
  5
113
330
1F
100
AcDbEntity
  8
0
  6
Continuous
 62
     7
370
    15
100
AcDbLine
 10
1.000945329
 20
15.6386652115
 30
0.0
 11
0.9478637556
 21
17.7434175639
 31
0.0
  0
SPLINE
  5
114
330
1F
100
AcDbEntity
  8
0
  6
Continuous
 62
     7
370
    15
100
AcDbSpline
210
0.0
220
0.0
230
1.0
 70
     8
 71
     3
 72
    20
 73
    16
 74
     0
 42
0.00000001
 43
0.00000001
 40
0.0
 40
0.0
 40
0.0
 40
0.0
 40
0.0681224689139568
 40
0.1476535965653859
 40
0.2362645603818577
 40
0.3313390569946536
 40
0.4301240371105874
 40
0.5297933147696553
 40
0.6274789051825453
 40
0.722670490936214
 40
0.8095803531093991
 40
0.8850641748977106
 40
0.9343198152226893
 40
0.9731000214648368
 40
1.0
 40
1.0
 40
1.0
 40
1.0
 10
2.483725266492714
 20
17.78215178312753
 30
0.0
 10
2.464760801743108
 20
17.72557557578715
 30
0.0
 10
2.423655840753609
 20
17.60294818680648
 30
0.0
 10
2.332323930441898
 20
17.41694470874616
 30
0.0
 10
2.220895939873091
 20
17.2153816524737
 30
0.0
 10
2.09105036716546
 20
17.00491962242382
 30
0.0
 10
1.948940546222555
 20
16.79091753922409
 30
0.0
 10
1.799481179007153
 20
16.57916815284739
 30
0.0
 10
1.64675553845197
 20
16.37368494287309
 30
0.0
 10
1.496188237990075
 20
16.18057943815759
 30
0.0
 10
1.353293276525406
 20
16.00624442405065
 30
0.0
 10
1.232251932823594
 20
15.86595834786476
 30
0.0
 10
1.134772595471947
 20
15.76127589488777
 30
0.0
 10
1.064330739683677
 20
15.6892184454135
 30
0.0
 10
1.019362516090214
 20
15.6533538970751
 30
0.0
 10
1.000945329026416
 20
15.63866521153398
 30
0.0
  0
LINE
  5
115
330
1F
100
AcDbEntity
  8
0
  6
Continuous
 62
     7
370
    15
100
AcDbLine
 10
0.2825621079
 20
14.3755734162
 30
0.0
 11
0.2800406436
 21
14.4755415814
 31
0.0
  0
LINE
  5
116
330
1F
100
AcDbEntity
  8
0
  6
Continuous
 62
     7
370
    15
100
AcDbLine
 10
0.2800406436
 20
14.4755415814
 30
0.0
 11
0.1550803272
 21
14.4723900444
 31
0.0
  0
LINE
  5
117
330
1F
100
AcDbEntity
  8
0
  6
Continuous
 62
     7
370
    15
100
AcDbLine
 10
0.1550803272
 20
14.4723900444
 30
0.0
 11
0.1361716923
 21
15.2221516498
 31
0.0
  0
LINE
  5
118
330
1F
100
AcDbEntity
  8
0
  6
Continuous
 62
     7
370
    15
100
AcDbLine
 10
0.1361716923
 20
15.2221516498
 30
0.0
 11
0.2611320087
 21
15.2253031867
 31
0.0
  0
LINE
  5
119
330
1F
100
AcDbEntity
  8
0
  6
Continuous
 62
     7
370
    15
100
AcDbLine
 10
0.2611320087
 20
15.2253031867
 30
0.0
 11
0.2323903674
 21
16.3649407682
 31
0.0
  0
LINE
  5
11A
330
1F
100
AcDbEntity
  8
0
  6
Continuous
 62
     7
370
    15
100
AcDbLine
 10
0.2323903674
 20
16.3649407682
 30
0.0
 11
0.3773440529
 21
16.3685965393
 31
0.0
  0
LINE
  5
11B
330
1F
100
AcDbEntity
  8
0
  6
Continuous
 62
     7
370
    15
100
AcDbLine
 10
0.3773440529
 20
16.3685965393
 30
0.0
 11
0.3789831807
 21
16.30361721
 31
0.0
  0
LINE
  5
11C
330
1F
100
AcDbEntity
  8
0
  6
Continuous
 62
     7
370
    15
100
AcDbLine
 10
0.3789831807
 20
16.30361721
 30
0.0
 11
0.4889478837
 21
16.3063906446
 31
0.0
  0
LINE
  5
11D
330
1F
100
AcDbEntity
  8
0
  6
Continuous
 62
     7
370
    15
100
AcDbLine
 10
0.4889478837
 20
16.3063906446
 30
0.0
 11
0.4826453965
 21
16.5563109841
 31
0.0
  0
LINE
  5
11E
330
1F
100
AcDbEntity
  8
0
  6
Continuous
 62
     7
370
    15
100
AcDbLine
 10
0.4826453965
 20
16.5563109841
 30
0.0
 11
0.3726801068
 21
16.5535378428
 31
0.0
  0
LINE
  5
11F
330
1F
100
AcDbEntity
  8
0
  6
Continuous
 62
     7
370
    15
100
AcDbLine
 10
0.3726801068
 20
16.5535378428
 30
0.0
 11
0.3743186479
 21
16.4885585135
 31
0.0
  0
LINE
  5
120
330
1F
100
AcDbEntity
  8
0
  6
Continuous
 62
     7
370
    15
100
AcDbLine
 10
0.3743186479
 20
16.4885585135
 30
0.0
 11
0.2293649624
 21
16.4849027424
 31
0.0
  0
LINE
  5
121
330
1F
100
AcDbEntity
  8
0
  6
Continuous
 62
     7
370
    15
100
AcDbLine
 10
0.2293649624
 20
16.4849027424
 30
0.0
 11
0.2006233211
 21
17.6245403239
 31
0.0
  0
LINE
  5
122
330
1F
100
AcDbEntity
  8
0
  6
Continuous
 62
     7
370
    15
100
AcDbLine
 10
0.2006233211
 20
17.6245403239
 30
0.0
 11
0.0756630046
 21
17.6213887869
 31
0.0
  0
LINE
  5
123
330
1F
100
AcDbEntity
  8
0
  6
Continuous
 62
     7
370
    15
100
AcDbLine
 10
0.0756630046
 20
17.6213887869
 30
0.0
 11
0.0567543697
 21
18.3711506856
 31
0.0
  0
LINE
  5
124
330
1F
100
AcDbEntity
  8
0
  6
Continuous
 62
     7
370
    15
100
AcDbLine
 10
0.0567543697
 20
18.3711506856
 30
0.0
 11
0.1817146862
 21
18.3743016359
 31
0.0
  0
ARC
  5
125
330
1F
100
AcDbEntity
  8
0
  6
Continuous
 62
     7
370
    15
100
AcDbCircle
 10
0.2816829101
 20
18.3768230957
 30
0.0
 40
0.1000000000000004
100
AcDbArc
 50
91.4446823919
 51
181.4446823919
  0
LINE
  5
126
330
1F
100
AcDbEntity
  8
0
  6
Continuous
 62
     7
370
    15
100
AcDbLine
 10
0.2791618271
 20
18.4767911186
 30
0.0
 11
3.4281602763
 21
18.5562084412
 31
0.0
  0
SPLINE
  5
127
330
1F
100
AcDbEntity
  8
0
  6
Continuous
 62
     7
370
    15
100
AcDbSpline
210
0.0
220
0.0
230
1.0
 70
     8
 71
     3
 72
    24
 73
    20
 74
     0
 42
0.00000001
 43
0.00000001
 40
0.0
 40
0.0
 40
0.0
 40
0.0
 40
0.036454101076862
 40
0.0786311742371684
 40
0.1263105527864032
 40
0.1789555633465712
 40
0.2358633402478181
 40
0.296239126690813
 40
0.3960608834727023
 40
0.4989065817264193
 40
0.6012476386104872
 40
0.6755394879524201
 40
0.7460639292893854
 40
0.8113662244990679
 40
0.870057155910359
 40
0.9152383000336796
 40
0.953651159878175
 40
0.9788905749986044
 40
1.0
 40
1.0
 40
1.0
 40
1.0
 10
3.428160276298889
 20
18.55620844115896
 30
0.0
 10
3.425413622239594
 20
18.49035874788812
 30
0.0
 10
3.419489113678806
 20
18.34832154076768
 30
0.0
 10
3.364041737254623
 20
18.1260560758361
 30
0.0
 10
3.281323192194574
 20
17.88266731928197
 30
0.0
 10
3.168947445471178
 20
17.62189000810765
 30
0.0
 10
3.031801800412461
 20
17.34762632350067
 30
0.0
 10
2.840034519230668
 20
17.00598790439728
 30
0.0
 10
2.586454965042695
 20
16.60457609679073
 30
0.0
 10
2.268419732319517
 20
16.15531232693189
 30
0.0
 10
1.957193448986529
 20
15.75839629013803
 30
0.0
 10
1.666673722254187
 20
15.42003088506619
 30
0.0
 10
1.407843750614324
 20
15.14295072899033
 30
0.0
 10
1.155944247994831
 20
14.89838022722181
 30
0.0
 10
0.9241414005990143
 20
14.69959764350881
 30
0.0
 10
0.716565994751587
 20
14.54774098157523
 30
0.0
 10
0.5462068325347892
 20
14.45002714679977
 30
0.0
 10
0.4038739413684838
 20
14.3902460724955
 30
0.0
 10
0.320523698572716
 20
14.38016486748635
 30
0.0
 10
0.2825621078506888
 20
14.37557341621152
 30
0.0
  0
LINE
  5
128
330
1F
100
AcDbEntity
  8
0
  6
Continuous
 62
     7
370
    15
100
AcDbLine
 10
0.3537732319
 20
20.8556916907
 30
0.0
 11
0.4637731345
 21
20.8556916907
 31
0.0
  0
LINE
  5
129
330
1F
100
AcDbEntity
  8
0
  6
Continuous
 62
     7
370
    15
100
AcDbLine
 10
0.3537732319
 20
20.7906915349
 30
0.0
 11
0.3537732319
 21
20.8556916907
 31
0.0
  0
LINE
  5
12A
330
1F
100
AcDbEntity
  8
0
  6
Continuous
 62
     7
370
    15
100
AcDbLine
 10
0.2087732003
 20
21.9306913788
 30
0.0
 11
0.2087732003
 21
20.7906915349
 31
0.0
  0
LINE
  5
12B
330
1F
100
AcDbEntity
  8
0
  6
Continuous
 62
     7
370
    15
100
AcDbLine
 10
0.0837729909
 20
22.6806914614
 30
0.0
 11
0.0837729909
 21
21.9306913788
 31
0.0
  0
LINE
  5
12C
330
1F
100
AcDbEntity
  8
0
  6
Continuous
 62
     7
370
    15
100
AcDbLine
 10
0.2087732003
 20
22.6806914614
 30
0.0
 11
0.0837729909
 21
22.6806914614
 31
0.0
  0
LINE
  5
12D
330
1F
100
AcDbEntity
  8
0
  6
Continuous
 62
     7
370
    15
100
AcDbLine
 10
0.2087732003
 20
22.7806911596
 30
0.0
 11
0.2087732003
 21
22.6806914614
 31
0.0
  0
SPLINE
  5
12E
330
1F
100
AcDbEntity
  8
0
  6
Continuous
 62
     7
370
    15
100
AcDbSpline
210
0.0
220
0.0
230
1.0
 70
     8
 71
     3
 72
    24
 73
    20
 74
     0
 42
0.00000001
 43
0.00000001
 40
0.0
 40
0.0
 40
0.0
 40
0.0
 40
0.0364540948621768
 40
0.078631097894046
 40
0.1263105581360468
 40
0.1789555834510292
 40
0.2358633552939028
 40
0.2962390172945377
 40
0.3960608915967797
 40
0.4989065133342789
 40
0.6012475987617344
 40
0.6755395298769756
 40
0.7460638988036294
 40
0.8113662520432446
 40
0.8700571677362715
 40
0.9152382756352144
 40
0.9536510471634153
 40
0.9788906175473332
 40
1.0
 40
1.0
 40
1.0
 40
1.0
 10
3.458773362653903
 20
18.68069180311654
 30
0.0
 10
3.454367108143687
 20
18.74645126845316
 30
0.0
 10
3.444862863667205
 20
18.88829374118203
 30
0.0
 10
3.383830388002069
 20
19.10909084284864
 30
0.0
 10
3.295001260987087
 20
19.35031661401613
 30
0.0
 10
3.176086637686883
 20
19.60817800882834
 30
0.0
 10
3.032069855352991
 20
19.87889655304448
 30
0.0
 10
2.831750760679433
 20
20.21559186038952
 30
0.0
 10
2.568130637640979
 20
20.61048212319387
 30
0.0
 10
2.238869901159335
 20
21.05158502444474
 30
0.0
 10
1.917736459495652
 20
21.44052913486139
 30
0.0
 10
1.618777505586362
 20
21.77146182960871
 30
0.0
 10
1.353044054349221
 20
22.04192843250382
 30
0.0
 10
1.095058605854155
 20
22.28007022933705
 30
0.0
 10
0.8583185437561948
 20
22.47294652506018
 30
0.0
 10
0.6469796711289025
 20
22.61951977471643
 30
0.0
 10
0.4742115491406192
 20
22.71290836697125
 30
0.0
 10
0.3304164775181659
 20
22.76908150588391
 30
0.0
 10
0.2468383919331531
 20
22.77705821163908
 30
0.0
 10
0.2087732002664459
 20
22.78069115957411
 30
0.0
  0
LINE
  5
12F
330
1F
100
AcDbEntity
  8
0
  6
Continuous
 62
     7
370
    15
100
AcDbLine
 10
0.2087732003
 20
20.6706914278
 30
0.0
 11
0.2087732003
 21
19.5306915838
 31
0.0
  0
LINE
  5
130
330
1F
100
AcDbEntity
  8
0
  6
Continuous
 62
     7
370
    15
100
AcDbLine
 10
0.3537732319
 20
20.6706914278
 30
0.0
 11
0.2087732003
 21
20.6706914278
 31
0.0
  0
LINE
  5
131
330
1F
100
AcDbEntity
  8
0
  6
Continuous
 62
     7
370
    15
100
AcDbLine
 10
0.3537732319
 20
20.605691272
 30
0.0
 11
0.3537732319
 21
20.6706914278
 31
0.0
  0
LINE
  5
132
330
1F
100
AcDbEntity
  8
0
  6
Continuous
 62
     7
370
    15
100
AcDbLine
 10
0.4637731345
 20
20.605691272
 30
0.0
 11
0.3537732319
 21
20.605691272
 31
0.0
  0
LINE
  5
133
330
1F
100
AcDbEntity
  8
0
  6
Continuous
 62
     7
370
    15
100
AcDbLine
 10
0.4637731345
 20
20.8556916907
 30
0.0
 11
0.4637731345
 21
20.605691272
 31
0.0
  0
LINE
  5
134
330
1F
100
AcDbEntity
  8
0
  6
Continuous
 62
     7
370
    15
100
AcDbLine
 10
0.0837729909
 20
18.7806915012
 30
0.0
 11
0.2087732003
 21
18.7806915012
 31
0.0
  0
LINE
  5
135
330
1F
100
AcDbEntity
  8
0
  6
Continuous
 62
     7
370
    15
100
AcDbLine
 10
0.0837729909
 20
19.5306915838
 30
0.0
 11
0.0837729909
 21
18.7806915012
 31
0.0
  0
LINE
  5
136
330
1F
100
AcDbEntity
  8
0
  6
Continuous
 62
     7
370
    15
100
AcDbLine
 10
0.9587732829
 20
19.4306912991
 30
0.0
 11
2.4951228948
 21
19.4306912991
 31
0.0
  0
LINE
  5
137
330
1F
100
AcDbEntity
  8
0
  6
Continuous
 62
     7
370
    15
100
AcDbLine
 10
0.9587732829
 20
21.5361127371
 30
0.0
 11
0.9587732829
 21
19.4306912991
 31
0.0
  0
SPLINE
  5
138
330
1F
100
AcDbEntity
  8
0
  6
Continuous
 62
     7
370
    15
100
AcDbSpline
210
0.0
220
0.0
230
1.0
 70
     8
 71
     3
 72
    20
 73
    16
 74
     0
 42
0.00000001
 43
0.00000001
 40
0.0
 40
0.0
 40
0.0
 40
0.0
 40
0.0681225442458348
 40
0.1476537475234936
 40
0.2362643847710903
 40
0.3313390330826817
 40
0.4301240512580159
 40
0.5297932996404284
 40
0.6274789726853826
 40
0.7226705068298728
 40
0.8095804856039956
 40
0.885064105055713
 40
0.9343197701492046
 40
0.9731002064516181
 40
1.0
 40
1.0
 40
1.0
 40
1.0
 10
2.495122894826339
 20
19.43069129905837
 30
0.0
 10
2.474738082758064
 20
19.48677146314753
 30
0.0
 10
2.430554561314984
 20
19.60832368174371
 30
0.0
 10
2.334562327881617
 20
19.79196526177719
 30
0.0
 10
2.218088072875642
 20
19.99065488685644
 30
0.0
 10
2.082976730326598
 20
20.1977755978012
 30
0.0
 10
1.935517567284525
 20
20.40812754176302
 30
0.0
 10
1.780767057514076
 20
20.61604151358032
 30
0.0
 10
1.622909147854393
 20
20.81760871748899
 30
0.0
 10
1.467521034875418
 20
21.00685678663485
 30
0.0
 10
1.320276589609722
 20
21.17753389470019
 30
0.0
 10
1.195736900268771
 20
21.31472365968746
 30
0.0
 10
1.095649189315344
 20
21.41691512046642
 30
0.0
 10
1.023413081319683
 20
21.48717384150028
 30
0.0
 10
0.9775548425341974
 20
21.52189318796779
 30
0.0
 10
0.9587732828681583
 20
21.53611273705025
 30
0.0
  0
LINE
  5
139
330
1F
100
AcDbEntity
  8
0
  6
Continuous
 62
     7
370
    15
100
AcDbLine
 10
0.3087734851
 20
18.6806918031
 30
0.0
 11
3.4587733627
 21
18.6806918031
 31
0.0
  0
ARC
  5
13A
330
1F
100
AcDbEntity
  8
0
  6
Continuous
 62
     7
370
    15
100
AcDbCircle
 10
0.3087732126
 20
18.7806915383
 30
0.0
 40
0.1000000000000006
100
AcDbArc
 50
180.0
 51
270.0
  0
LINE
  5
13B
330
1F
100
AcDbEntity
  8
0
  6
Continuous
 62
     7
370
    15
100
AcDbLine
 10
0.2087732003
 20
20.7906915349
 30
0.0
 11
0.3537732319
 21
20.7906915349
 31
0.0
  0
LINE
  5
13C
330
1F
100
AcDbEntity
  8
0
  6
Continuous
 62
     7
370
    15
100
AcDbLine
 10
0.2087732003
 20
19.5306915838
 30
0.0
 11
0.0837729909
 21
19.5306915838
 31
0.0
  0
LINE
  5
13D
330
1F
100
AcDbEntity
  8
0
  6
Continuous
 62
     7
370
    15
100
AcDbLine
 10
0.0837729909
 20
21.9306913788
 30
0.0
 11
0.2087732003
 21
21.9306913788
 31
0.0
  0
LINE
  5
13E
330
1F
100
AcDbEntity
  8
0
  6
Continuous
 62
     7
370
    15
100
AcDbLine
 10
3.2641947038
 20
9.113080649
 30
0.0
 11
4.2641946184
 21
9.113080649
 31
0.0
  0
LINE
  5
13F
330
1F
100
AcDbEntity
  8
0
  6
Continuous
 62
     7
370
    15
100
AcDbLine
 10
4.2641946184
 20
9.113080649
 30
0.0
 11
4.2641946184
 21
9.238080565
 31
0.0
  0
LINE
  5
140
330
1F
100
AcDbEntity
  8
0
  6
Continuous
 62
     7
370
    15
100
AcDbLine
 10
4.2641946184
 20
9.238080565
 30
0.0
 11
3.2641947038
 21
9.238080565
 31
0.0
  0
LINE
  5
141
330
1F
100
AcDbEntity
  8
0
  6
Continuous
 62
     7
370
    15
100
AcDbLine
 10
3.2641947038
 20
9.238080565
 30
0.0
 11
3.2641947038
 21
9.113080649
 31
0.0
  0
LINE
  5
142
330
1F
100
AcDbEntity
  8
0
  6
Continuous
 62
     7
370
    15
100
AcDbLine
 10
0.764194624
 20
11.612480649
 30
0.0
 11
0.6391950013
 21
11.612480649
 31
0.0
  0
LINE
  5
143
330
1F
100
AcDbEntity
  8
0
  6
Continuous
 62
     7
370
    15
100
AcDbLine
 10
0.6391950013
 20
11.612480649
 30
0.0
 11
0.6391950013
 21
11.1124806917
 31
0.0
  0
LINE
  5
144
330
1F
100
AcDbEntity
  8
0
  6
Continuous
 62
     7
370
    15
100
AcDbLine
 10
0.6391950013
 20
11.1124806917
 30
0.0
 11
0.764194624
 21
11.1124806917
 31
0.0
  0
LINE
  5
145
330
1F
100
AcDbEntity
  8
0
  6
Continuous
 62
     7
370
    15
100
AcDbLine
 10
0.764194624
 20
11.1124806917
 30
0.0
 11
0.764194624
 21
11.612480649
 31
0.0
  0
LINE
  5
146
330
1F
100
AcDbEntity
  8
0
  6
Continuous
 62
     7
370
    15
100
AcDbLine
 10
3.0890861133
 20
15.0400659133
 30
0.0
 11
3.0945215172
 21
15.0197812676
 31
0.0
  0
LINE
  5
147
330
1F
100
AcDbEntity
  8
0
  6
Continuous
 62
     7
370
    15
100
AcDbLine
 10
3.0945215172
 20
15.0197812676
 30
0.0
 11
3.1148058695
 21
15.0252166715
 31
0.0
  0
LINE
  5
148
330
1F
100
AcDbEntity
  8
0
  6
Continuous
 62
     7
370
    15
100
AcDbLine
 10
3.1148058695
 20
15.0252166715
 30
0.0
 11
3.1093704657
 21
15.0455010238
 31
0.0
  0
LINE
  5
149
330
1F
100
AcDbEntity
  8
0
  6
Continuous
 62
     7
370
    15
100
AcDbLine
 10
3.1093704657
 20
15.0455010238
 30
0.0
 11
3.0890861133
 21
15.0400659133
 31
0.0
  0
LINE
  5
14A
330
1F
100
AcDbEntity
  8
0
  6
Continuous
 62
     7
370
    15
100
AcDbLine
 10
2.4192355048
 20
14.7741189055
 30
0.0
 11
2.4297355435
 21
14.7559321556
 31
0.0
  0
LINE
  5
14B
330
1F
100
AcDbEntity
  8
0
  6
Continuous
 62
     7
370
    15
100
AcDbLine
 10
2.4297355435
 20
14.7559321556
 30
0.0
 11
2.4479220001
 21
14.7664321943
 31
0.0
  0
LINE
  5
14C
330
1F
100
AcDbEntity
  8
0
  6
Continuous
 62
     7
370
    15
100
AcDbLine
 10
2.4479220001
 20
14.7664321943
 30
0.0
 11
2.4374219614
 21
14.7846186509
 31
0.0
  0
LINE
  5
14D
330
1F
100
AcDbEntity
  8
0
  6
Continuous
 62
     7
370
    15
100
AcDbLine
 10
2.4374219614
 20
14.7846186509
 30
0.0
 11
2.4192355048
 21
14.7741189055
 31
0.0
  0
LINE
  5
14E
330
1F
100
AcDbEntity
  8
0
  6
Continuous
 62
     7
370
    15
100
AcDbLine
 10
1.8410411175
 20
14.3438635692
 30
0.0
 11
1.855890066
 21
14.3290143274
 31
0.0
  0
LINE
  5
14F
330
1F
100
AcDbEntity
  8
0
  6
Continuous
 62
     7
370
    15
100
AcDbLine
 10
1.855890066
 20
14.3290143274
 30
0.0
 11
1.8707396011
 21
14.3438635692
 31
0.0
  0
LINE
  5
150
330
1F
100
AcDbEntity
  8
0
  6
Continuous
 62
     7
370
    15
100
AcDbLine
 10
1.8707396011
 20
14.3438635692
 30
0.0
 11
1.855890066
 21
14.358712811
 31
0.0
  0
LINE
  5
151
330
1F
100
AcDbEntity
  8
0
  6
Continuous
 62
     7
370
    15
100
AcDbLine
 10
1.855890066
 20
14.358712811
 30
0.0
 11
1.8410411175
 21
14.3438635692
 31
0.0
  0
LINE
  5
152
330
1F
100
AcDbEntity
  8
0
  6
Continuous
 62
     7
370
    15
100
AcDbLine
 10
1.3939065495
 20
13.7786211656
 30
0.0
 11
1.4120930061
 21
13.7681211269
 31
0.0
  0
LINE
  5
153
330
1F
100
AcDbEntity
  8
0
  6
Continuous
 62
     7
370
    15
100
AcDbLine
 10
1.4120930061
 20
13.7681211269
 30
0.0
 11
1.4225930448
 21
13.7863077301
 31
0.0
  0
LINE
  5
154
330
1F
100
AcDbEntity
  8
0
  6
Continuous
 62
     7
370
    15
100
AcDbLine
 10
1.4225930448
 20
13.7863077301
 30
0.0
 11
1.4044065882
 21
13.7968077688
 31
0.0
  0
LINE
  5
155
330
1F
100
AcDbEntity
  8
0
  6
Continuous
 62
     7
370
    15
100
AcDbLine
 10
1.4044065882
 20
13.7968077688
 30
0.0
 11
1.3939065495
 21
13.7786211656
 31
0.0
  0
LINE
  5
156
330
1F
100
AcDbEntity
  8
0
  6
Continuous
 62
     7
370
    15
100
AcDbLine
 10
1.1083035021
 20
13.1169120764
 30
0.0
 11
1.1285878545
 21
13.1114768925
 31
0.0
  0
LINE
  5
157
330
1F
100
AcDbEntity
  8
0
  6
Continuous
 62
     7
370
    15
100
AcDbLine
 10
1.1285878545
 20
13.1114768925
 30
0.0
 11
1.1340232584
 21
13.1317613182
 31
0.0
  0
LINE
  5
158
330
1F
100
AcDbEntity
  8
0
  6
Continuous
 62
     7
370
    15
100
AcDbLine
 10
1.1340232584
 20
13.1317613182
 30
0.0
 11
1.1137383194
 21
13.1371965754
 31
0.0
  0
LINE
  5
159
330
1F
100
AcDbEntity
  8
0
  6
Continuous
 62
     7
370
    15
100
AcDbLine
 10
1.1137383194
 20
13.1371965754
 30
0.0
 11
1.1083035021
 21
13.1169120764
 31
0.0
  0
LINE
  5
15A
330
1F
100
AcDbEntity
  8
0
  6
Continuous
 62
     7
370
    15
100
AcDbLine
 10
1.0036950039
 20
12.4038306473
 30
0.0
 11
1.0246944947
 21
12.4038306473
 31
0.0
  0
LINE
  5
15B
330
1F
100
AcDbEntity
  8
0
  6
Continuous
 62
     7
370
    15
100
AcDbLine
 10
1.0246944947
 20
12.4038306473
 30
0.0
 11
1.0246944947
 21
12.4248306514
 31
0.0
  0
LINE
  5
15C
330
1F
100
AcDbEntity
  8
0
  6
Continuous
 62
     7
370
    15
100
AcDbLine
 10
1.0246944947
 20
12.4248306514
 30
0.0
 11
1.0036950039
 21
12.4248306514
 31
0.0
  0
LINE
  5
15D
330
1F
100
AcDbEntity
  8
0
  6
Continuous
 62
     7
370
    15
100
AcDbLine
 10
1.0036950039
 20
12.4248306514
 30
0.0
 11
1.0036950039
 21
12.4038306473
 31
0.0
  0
LINE
  5
15E
330
1F
100
AcDbEntity
  8
0
  6
Continuous
 62
     7
370
    15
100
AcDbLine
 10
1.0872095592
 20
11.6879721536
 30
0.0
 11
1.1074939115
 21
11.6934073558
 31
0.0
  0
LINE
  5
15F
330
1F
100
AcDbEntity
  8
0
  6
Continuous
 62
     7
370
    15
100
AcDbLine
 10
1.1074939115
 20
11.6934073558
 30
0.0
 11
1.1020590943
 21
11.7136917998
 31
0.0
  0
LINE
  5
160
330
1F
100
AcDbEntity
  8
0
  6
Continuous
 62
     7
370
    15
100
AcDbLine
 10
1.1020590943
 20
11.7136917998
 30
0.0
 11
1.0817741553
 21
11.7082565976
 31
0.0
  0
LINE
  5
161
330
1F
100
AcDbEntity
  8
0
  6
Continuous
 62
     7
370
    15
100
AcDbLine
 10
1.0817741553
 20
11.7082565976
 30
0.0
 11
1.0872095592
 21
11.6879721536
 31
0.0
  0
LINE
  5
162
330
1F
100
AcDbEntity
  8
0
  6
Continuous
 62
     7
370
    15
100
AcDbLine
 10
1.3531565669
 20
11.0181212151
 30
0.0
 11
1.3713430235
 21
11.0286211805
 31
0.0
  0
LINE
  5
163
330
1F
100
AcDbEntity
  8
0
  6
Continuous
 62
     7
370
    15
100
AcDbLine
 10
1.3713430235
 20
11.0286211805
 30
0.0
 11
1.3608429848
 21
11.0468077104
 31
0.0
  0
LINE
  5
164
330
1F
100
AcDbEntity
  8
0
  6
Continuous
 62
     7
370
    15
100
AcDbLine
 10
1.3608429848
 20
11.0468077104
 30
0.0
 11
1.3426565282
 21
11.036307745
 31
0.0
  0
LINE
  5
165
330
1F
100
AcDbEntity
  8
0
  6
Continuous
 62
     7
370
    15
100
AcDbLine
 10
1.3426565282
 20
11.036307745
 30
0.0
 11
1.3531565669
 21
11.0181212151
 31
0.0
  0
LINE
  5
166
330
1F
100
AcDbEntity
  8
0
  6
Continuous
 62
     7
370
    15
100
AcDbLine
 10
1.7834117566
 20
10.4399269745
 30
0.0
 11
1.7982612917
 21
10.4547762163
 31
0.0
  0
LINE
  5
167
330
1F
100
AcDbEntity
  8
0
  6
Continuous
 62
     7
370
    15
100
AcDbLine
 10
1.7982612917
 20
10.4547762163
 30
0.0
 11
1.7834117566
 21
10.4696254581
 31
0.0
  0
LINE
  5
168
330
1F
100
AcDbEntity
  8
0
  6
Continuous
 62
     7
370
    15
100
AcDbLine
 10
1.7834117566
 20
10.4696254581
 30
0.0
 11
1.7685628081
 21
10.4547762163
 31
0.0
  0
LINE
  5
169
330
1F
100
AcDbEntity
  8
0
  6
Continuous
 62
     7
370
    15
100
AcDbLine
 10
1.7685628081
 20
10.4547762163
 30
0.0
 11
1.7834117566
 21
10.4399269745
 31
0.0
  0
LINE
  5
16A
330
1F
100
AcDbEntity
  8
0
  6
Continuous
 62
     7
370
    15
100
AcDbLine
 10
2.3486544535
 20
9.9927925531
 30
0.0
 11
2.3591544922
 21
10.0109790097
 31
0.0
  0
LINE
  5
16B
330
1F
100
AcDbEntity
  8
0
  6
Continuous
 62
     7
370
    15
100
AcDbLine
 10
2.3591544922
 20
10.0109790097
 30
0.0
 11
2.340967449
 21
10.0214790484
 31
0.0
  0
LINE
  5
16C
330
1F
100
AcDbEntity
  8
0
  6
Continuous
 62
     7
370
    15
100
AcDbLine
 10
2.340967449
 20
10.0214790484
 30
0.0
 11
2.3304674103
 21
10.0032925918
 31
0.0
  0
LINE
  5
16D
330
1F
100
AcDbEntity
  8
0
  6
Continuous
 62
     7
370
    15
100
AcDbLine
 10
2.3304674103
 20
10.0032925918
 30
0.0
 11
2.3486544535
 21
9.9927925531
 31
0.0
  0
LINE
  5
16E
330
1F
100
AcDbEntity
  8
0
  6
Continuous
 62
     7
370
    15
100
AcDbLine
 10
3.0103633961
 20
9.7071893591
 30
0.0
 11
3.0157987999
 21
9.7274737115
 31
0.0
  0
LINE
  5
16F
330
1F
100
AcDbEntity
  8
0
  6
Continuous
 62
     7
370
    15
100
AcDbLine
 10
3.0157987999
 20
9.7274737115
 30
0.0
 11
2.9955138609
 21
9.7329089687
 31
0.0
  0
LINE
  5
170
330
1F
100
AcDbEntity
  8
0
  6
Continuous
 62
     7
370
    15
100
AcDbLine
 10
2.9955138609
 20
9.7329089687
 30
0.0
 11
2.9900790437
 21
9.7126244697
 31
0.0
  0
LINE
  5
171
330
1F
100
AcDbEntity
  8
0
  6
Continuous
 62
     7
370
    15
100
AcDbLine
 10
2.9900790437
 20
9.7126244697
 30
0.0
 11
3.0103633961
 21
9.7071893591
 31
0.0
  0
LINE
  5
172
330
1F
100
AcDbEntity
  8
0
  6
Continuous
 62
     7
370
    15
100
AcDbLine
 10
3.7234449718
 20
9.6025807142
 30
0.0
 11
3.7234449718
 21
9.623580645
 31
0.0
  0
LINE
  5
173
330
1F
100
AcDbEntity
  8
0
  6
Continuous
 62
     7
370
    15
100
AcDbLine
 10
3.7234449718
 20
9.623580645
 30
0.0
 11
3.7024448944
 21
9.623580645
 31
0.0
  0
LINE
  5
174
330
1F
100
AcDbEntity
  8
0
  6
Continuous
 62
     7
370
    15
100
AcDbLine
 10
3.7024448944
 20
9.623580645
 30
0.0
 11
3.7024448944
 21
9.6025807142
 31
0.0
  0
LINE
  5
175
330
1F
100
AcDbEntity
  8
0
  6
Continuous
 62
     7
370
    15
100
AcDbLine
 10
3.7024448944
 20
9.6025807142
 30
0.0
 11
3.7234449718
 21
9.6025807142
 31
0.0
  0
LINE
  5
176
330
1F
100
AcDbEntity
  8
0
  6
Continuous
 62
     7
370
    15
100
AcDbLine
 10
4.4393032088
 20
9.6860955628
 30
0.0
 11
4.4338678049
 21
9.7063799151
 31
0.0
  0
LINE
  5
177
330
1F
100
AcDbEntity
  8
0
  6
Continuous
 62
     7
370
    15
100
AcDbLine
 10
4.4338678049
 20
9.7063799151
 30
0.0
 11
4.4135834526
 21
9.7009448046
 31
0.0
  0
LINE
  5
178
330
1F
100
AcDbEntity
  8
0
  6
Continuous
 62
     7
370
    15
100
AcDbLine
 10
4.4135834526
 20
9.7009448046
 30
0.0
 11
4.4190188565
 21
9.6806603056
 31
0.0
  0
LINE
  5
179
330
1F
100
AcDbEntity
  8
0
  6
Continuous
 62
     7
370
    15
100
AcDbLine
 10
4.4190188565
 20
9.6806603056
 30
0.0
 11
4.4393032088
 21
9.6860955628
 31
0.0
  0
LINE
  5
17A
330
1F
100
AcDbEntity
  8
0
  6
Continuous
 62
     7
370
    15
100
AcDbLine
 10
5.0986543653
 20
9.9702290271
 30
0.0
 11
5.0804676154
 21
9.9597291351
 31
0.0
  0
LINE
  5
17B
330
1F
100
AcDbEntity
  8
0
  6
Continuous
 62
     7
370
    15
100
AcDbLine
 10
5.0804676154
 20
9.9597291351
 30
0.0
 11
5.0909676541
 21
9.9415425318
 31
0.0
  0
LINE
  5
17C
330
1F
100
AcDbEntity
  8
0
  6
Continuous
 62
     7
370
    15
100
AcDbLine
 10
5.0909676541
 20
9.9415425318
 30
0.0
 11
5.1091541106
 21
9.9520425706
 31
0.0
  0
LINE
  5
17D
330
1F
100
AcDbEntity
  8
0
  6
Continuous
 62
     7
370
    15
100
AcDbLine
 10
5.687348498
 20
10.3822977602
 30
0.0
 11
5.6724992562
 21
10.397147002
 31
0.0
  0
LINE
  5
17E
330
1F
100
AcDbEntity
  8
0
  6
Continuous
 62
     7
370
    15
100
AcDbLine
 10
5.6724992562
 20
10.397147002
 30
0.0
 11
5.6576500144
 21
10.3822977602
 31
0.0
  0
LINE
  5
17F
330
1F
100
AcDbEntity
  8
0
  6
Continuous
 62
     7
370
    15
100
AcDbLine
 10
5.6576500144
 20
10.3822977602
 30
0.0
 11
5.6724992562
 21
10.3674485184
 31
0.0
  0
LINE
  5
180
330
1F
100
AcDbEntity
  8
0
  6
Continuous
 62
     7
370
    15
100
AcDbLine
 10
5.6724992562
 20
10.3674485184
 30
0.0
 11
5.687348498
 21
10.3822977602
 31
0.0
  0
LINE
  5
181
330
1F
100
AcDbEntity
  8
0
  6
Continuous
 62
     7
370
    15
100
AcDbLine
 10
6.1344827726
 20
10.9475400905
 30
0.0
 11
6.1162963161
 21
10.9580401292
 31
0.0
  0
LINE
  5
182
330
1F
100
AcDbEntity
  8
0
  6
Continuous
 62
     7
370
    15
100
AcDbLine
 10
6.1162963161
 20
10.9580401292
 30
0.0
 11
6.1057962774
 21
10.9398535993
 31
0.0
  0
LINE
  5
183
330
1F
100
AcDbEntity
  8
0
  6
Continuous
 62
     7
370
    15
100
AcDbLine
 10
6.1057962774
 20
10.9398535993
 30
0.0
 11
6.1239830273
 21
10.9293535606
 31
0.0
  0
LINE
  5
184
330
1F
100
AcDbEntity
  8
0
  6
Continuous
 62
     7
370
    15
100
AcDbLine
 10
6.1239830273
 20
10.9293535606
 30
0.0
 11
6.1344827726
 21
10.9475400905
 31
0.0
  0
LINE
  5
185
330
1F
100
AcDbEntity
  8
0
  6
Continuous
 62
     7
370
    15
100
AcDbLine
 10
6.4200861133
 20
11.6092492164
 30
0.0
 11
6.399801761
 21
11.6146844002
 31
0.0
  0
LINE
  5
186
330
1F
100
AcDbEntity
  8
0
  6
Continuous
 62
     7
370
    15
100
AcDbLine
 10
6.399801761
 20
11.6146844002
 30
0.0
 11
6.3943663571
 21
11.5943999746
 31
0.0
  0
LINE
  5
187
330
1F
100
AcDbEntity
  8
0
  6
Continuous
 62
     7
370
    15
100
AcDbLine
 10
6.3943663571
 20
11.5943999746
 30
0.0
 11
6.4146510028
 21
11.588964754
 31
0.0
  0
LINE
  5
188
330
1F
100
AcDbEntity
  8
0
  6
Continuous
 62
     7
370
    15
100
AcDbLine
 10
6.4146510028
 20
11.588964754
 30
0.0
 11
6.4200861133
 21
11.6092492164
 31
0.0
  0
LINE
  5
189
330
1F
100
AcDbEntity
  8
0
  6
Continuous
 62
     7
370
    15
100
AcDbLine
 10
6.5246949049
 20
12.3223306454
 30
0.0
 11
6.5036948275
 21
12.3223306454
 31
0.0
  0
LINE
  5
18A
330
1F
100
AcDbEntity
  8
0
  6
Continuous
 62
     7
370
    15
100
AcDbLine
 10
6.5036948275
 20
12.3223306454
 30
0.0
 11
6.5036948275
 21
12.3013306414
 31
0.0
  0
LINE
  5
18B
330
1F
100
AcDbEntity
  8
0
  6
Continuous
 62
     7
370
    15
100
AcDbLine
 10
6.5036948275
 20
12.3013306414
 30
0.0
 11
6.5246949049
 21
12.3013306414
 31
0.0
  0
LINE
  5
18C
330
1F
100
AcDbEntity
  8
0
  6
Continuous
 62
     7
370
    15
100
AcDbLine
 10
6.5246949049
 20
12.3013306414
 30
0.0
 11
6.5246949049
 21
12.3223306454
 31
0.0
  0
LINE
  5
18D
330
1F
100
AcDbEntity
  8
0
  6
Continuous
 62
     7
370
    15
100
AcDbLine
 10
6.7641946981
 20
11.1124806917
 30
0.0
 11
6.8891946141
 21
11.1124806917
 31
0.0
  0
LINE
  5
18E
330
1F
100
AcDbEntity
  8
0
  6
Continuous
 62
     7
370
    15
100
AcDbLine
 10
3.804944937
 20
15.1235807618
 30
0.0
 11
3.804944937
 21
15.1025806844
 31
0.0
  0
LINE
  5
18F
330
1F
100
AcDbEntity
  8
0
  6
Continuous
 62
     7
370
    15
100
AcDbLine
 10
3.804944937
 20
15.1025806844
 30
0.0
 11
3.8259450144
 21
15.1025806844
 31
0.0
  0
LINE
  5
190
330
1F
100
AcDbEntity
  8
0
  6
Continuous
 62
     7
370
    15
100
AcDbLine
 10
3.8259450144
 20
15.1025806844
 30
0.0
 11
3.8259450144
 21
15.1235807618
 31
0.0
  0
LINE
  5
191
330
1F
100
AcDbEntity
  8
0
  6
Continuous
 62
     7
370
    15
100
AcDbLine
 10
3.8259450144
 20
15.1235807618
 30
0.0
 11
3.804944937
 21
15.1235807618
 31
0.0
  0
CIRCLE
  5
192
330
1F
100
AcDbEntity
  8
0
  6
Continuous
 62
     7
370
    15
100
AcDbCircle
 10
3.7641947601
 20
12.3630806558
 30
0.0
 40
2.5
  0
CIRCLE
  5
193
330
1F
100
AcDbEntity
  8
0
  6
Continuous
 62
     7
370
    15
100
AcDbCircle
 10
3.7641947601
 20
12.3630806558
 30
0.0
 40
3.499999999999999
  0
LINE
  5
194
330
1F
100
AcDbEntity
  8
0
  6
Continuous
 62
     7
370
    15
100
AcDbLine
 10
3.7024448944
 20
15.1235807618
 30
0.0
 11
3.7024448944
 21
15.1025806844
 31
0.0
  0
LINE
  5
195
330
1F
100
AcDbEntity
  8
0
  6
Continuous
 62
     7
370
    15
100
AcDbLine
 10
3.7024448944
 20
15.1025806844
 30
0.0
 11
3.7234449718
 21
15.1025806844
 31
0.0
  0
LINE
  5
196
330
1F
100
AcDbEntity
  8
0
  6
Continuous
 62
     7
370
    15
100
AcDbLine
 10
3.7234449718
 20
15.1025806844
 30
0.0
 11
3.7234449718
 21
15.1235807618
 31
0.0
  0
LINE
  5
197
330
1F
100
AcDbEntity
  8
0
  6
Continuous
 62
     7
370
    15
100
AcDbLine
 10
3.7234449718
 20
15.1235807618
 30
0.0
 11
3.7024448944
 21
15.1235807618
 31
0.0
  0
LINE
  5
198
330
1F
100
AcDbEntity
  8
0
  6
Continuous
 62
     7
370
    15
100
AcDbLine
 10
6.8891946141
 20
13.6124806982
 30
0.0
 11
6.7641946981
 21
13.6124806982
 31
0.0
  0
LINE
  5
199
330
1F
100
AcDbEntity
  8
0
  6
Continuous
 62
     7
370
    15
100
AcDbLine
 10
6.7641946981
 20
13.1124806676
 30
0.0
 11
6.8891946141
 21
13.1124806676
 31
0.0
  0
LINE
  5
19A
330
1F
100
AcDbEntity
  8
0
  6
Continuous
 62
     7
370
    15
100
AcDbLine
 10
6.5246949049
 20
12.4248306514
 30
0.0
 11
6.5036948275
 21
12.4248306514
 31
0.0
  0
LINE
  5
19B
330
1F
100
AcDbEntity
  8
0
  6
Continuous
 62
     7
370
    15
100
AcDbLine
 10
6.5036948275
 20
12.4248306514
 30
0.0
 11
6.5036948275
 21
12.4038306473
 31
0.0
  0
LINE
  5
19C
330
1F
100
AcDbEntity
  8
0
  6
Continuous
 62
     7
370
    15
100
AcDbLine
 10
6.5036948275
 20
12.4038306473
 30
0.0
 11
6.5246949049
 21
12.4038306473
 31
0.0
  0
LINE
  5
19D
330
1F
100
AcDbEntity
  8
0
  6
Continuous
 62
     7
370
    15
100
AcDbLine
 10
6.5246949049
 20
12.4038306473
 30
0.0
 11
6.5246949049
 21
12.4248306514
 31
0.0
  0
LINE
  5
19E
330
1F
100
AcDbEntity
  8
0
  6
Continuous
 62
     7
370
    15
100
AcDbLine
 10
6.4466151669
 20
11.7082565976
 30
0.0
 11
6.4263305212
 21
11.7136917998
 31
0.0
  0
LINE
  5
19F
330
1F
100
AcDbEntity
  8
0
  6
Continuous
 62
     7
370
    15
100
AcDbLine
 10
6.4263305212
 20
11.7136917998
 30
0.0
 11
6.4208954106
 21
11.6934073558
 31
0.0
  0
LINE
  5
1A0
330
1F
100
AcDbEntity
  8
0
  6
Continuous
 62
     7
370
    15
100
AcDbLine
 10
6.4208954106
 20
11.6934073558
 30
0.0
 11
6.441179763
 21
11.6879721536
 31
0.0
  0
LINE
  5
1A1
330
1F
100
AcDbEntity
  8
0
  6
Continuous
 62
     7
370
    15
100
AcDbLine
 10
6.441179763
 20
11.6879721536
 30
0.0
 11
6.4466151669
 21
11.7082565976
 31
0.0
  0
LINE
  5
1A2
330
1F
100
AcDbEntity
  8
0
  6
Continuous
 62
     7
370
    15
100
AcDbLine
 10
6.1857327939
 20
11.036307745
 30
0.0
 11
6.1675463373
 21
11.0468077104
 31
0.0
  0
LINE
  5
1A3
330
1F
100
AcDbEntity
  8
0
  6
Continuous
 62
     7
370
    15
100
AcDbLine
 10
6.1675463373
 20
11.0468077104
 30
0.0
 11
6.1570462986
 21
11.0286211805
 31
0.0
  0
LINE
  5
1A4
330
1F
100
AcDbEntity
  8
0
  6
Continuous
 62
     7
370
    15
100
AcDbLine
 10
6.1570462986
 20
11.0286211805
 30
0.0
 11
6.1752327552
 21
11.0181212151
 31
0.0
  0
LINE
  5
1A5
330
1F
100
AcDbEntity
  8
0
  6
Continuous
 62
     7
370
    15
100
AcDbLine
 10
6.1752327552
 20
11.0181212151
 30
0.0
 11
6.1857327939
 21
11.036307745
 31
0.0
  0
LINE
  5
1A6
330
1F
100
AcDbEntity
  8
0
  6
Continuous
 62
     7
370
    15
100
AcDbLine
 10
5.7598268074
 20
10.4547762163
 30
0.0
 11
5.7449775656
 21
10.4696254581
 31
0.0
  0
LINE
  5
1A7
330
1F
100
AcDbEntity
  8
0
  6
Continuous
 62
     7
370
    15
100
AcDbLine
 10
5.7449775656
 20
10.4696254581
 30
0.0
 11
5.7301283238
 21
10.4547762163
 31
0.0
  0
LINE
  5
1A8
330
1F
100
AcDbEntity
  8
0
  6
Continuous
 62
     7
370
    15
100
AcDbLine
 10
5.7301283238
 20
10.4547762163
 30
0.0
 11
5.7449775656
 21
10.4399269745
 31
0.0
  0
LINE
  5
1A9
330
1F
100
AcDbEntity
  8
0
  6
Continuous
 62
     7
370
    15
100
AcDbLine
 10
5.7449775656
 20
10.4399269745
 30
0.0
 11
5.7598268074
 21
10.4547762163
 31
0.0
  0
LINE
  5
1AA
330
1F
100
AcDbEntity
  8
0
  6
Continuous
 62
     7
370
    15
100
AcDbLine
 10
5.1979219119
 20
10.0032925918
 30
0.0
 11
5.1874218732
 21
10.0214790484
 31
0.0
  0
LINE
  5
1AB
330
1F
100
AcDbEntity
  8
0
  6
Continuous
 62
     7
370
    15
100
AcDbLine
 10
5.1874218732
 20
10.0214790484
 30
0.0
 11
5.1692354166
 21
10.0109790097
 31
0.0
  0
LINE
  5
1AC
330
1F
100
AcDbEntity
  8
0
  6
Continuous
 62
     7
370
    15
100
AcDbLine
 10
5.1692354166
 20
10.0109790097
 30
0.0
 11
5.179735162
 21
9.9927925531
 31
0.0
  0
LINE
  5
1AD
330
1F
100
AcDbEntity
  8
0
  6
Continuous
 62
     7
370
    15
100
AcDbLine
 10
5.179735162
 20
9.9927925531
 30
0.0
 11
5.1979219119
 21
10.0032925918
 31
0.0
  0
LINE
  5
1AE
330
1F
100
AcDbEntity
  8
0
  6
Continuous
 62
     7
370
    15
100
AcDbLine
 10
4.5383108651
 20
9.7126244697
 30
0.0
 11
4.5328754612
 21
9.7329089687
 31
0.0
  0
LINE
  5
1AF
330
1F
100
AcDbEntity
  8
0
  6
Continuous
 62
     7
370
    15
100
AcDbLine
 10
4.5328754612
 20
9.7329089687
 30
0.0
 11
4.5125911089
 21
9.7274737115
 31
0.0
  0
LINE
  5
1B0
330
1F
100
AcDbEntity
  8
0
  6
Continuous
 62
     7
370
    15
100
AcDbLine
 10
4.5125911089
 20
9.7274737115
 30
0.0
 11
4.5180259261
 21
9.7071893591
 31
0.0
  0
LINE
  5
1B1
330
1F
100
AcDbEntity
  8
0
  6
Continuous
 62
     7
370
    15
100
AcDbLine
 10
4.5180259261
 20
9.7071893591
 30
0.0
 11
4.5383108651
 21
9.7126244697
 31
0.0
  0
LINE
  5
1B2
330
1F
100
AcDbEntity
  8
0
  6
Continuous
 62
     7
370
    15
100
AcDbLine
 10
3.8259450144
 20
9.6025807142
 30
0.0
 11
3.8259450144
 21
9.623580645
 31
0.0
  0
LINE
  5
1B3
330
1F
100
AcDbEntity
  8
0
  6
Continuous
 62
     7
370
    15
100
AcDbLine
 10
3.8259450144
 20
9.623580645
 30
0.0
 11
3.804944937
 21
9.623580645
 31
0.0
  0
LINE
  5
1B4
330
1F
100
AcDbEntity
  8
0
  6
Continuous
 62
     7
370
    15
100
AcDbLine
 10
3.804944937
 20
9.623580645
 30
0.0
 11
3.804944937
 21
9.6025807142
 31
0.0
  0
LINE
  5
1B5
330
1F
100
AcDbEntity
  8
0
  6
Continuous
 62
     7
370
    15
100
AcDbLine
 10
3.804944937
 20
9.6025807142
 30
0.0
 11
3.8259450144
 21
9.6025807142
 31
0.0
  0
LINE
  5
1B6
330
1F
100
AcDbEntity
  8
0
  6
Continuous
 62
     7
370
    15
100
AcDbLine
 10
3.1093704657
 20
9.6806603056
 30
0.0
 11
3.1148058695
 21
9.7009448046
 31
0.0
  0
LINE
  5
1B7
330
1F
100
AcDbEntity
  8
0
  6
Continuous
 62
     7
370
    15
100
AcDbLine
 10
3.1148058695
 20
9.7009448046
 30
0.0
 11
3.0945215172
 21
9.7063799151
 31
0.0
  0
LINE
  5
1B8
330
1F
100
AcDbEntity
  8
0
  6
Continuous
 62
     7
370
    15
100
AcDbLine
 10
3.0945215172
 20
9.7063799151
 30
0.0
 11
3.0890861133
 21
9.6860955628
 31
0.0
  0
LINE
  5
1B9
330
1F
100
AcDbEntity
  8
0
  6
Continuous
 62
     7
370
    15
100
AcDbLine
 10
3.0890861133
 20
9.6860955628
 30
0.0
 11
3.1093704657
 21
9.6806603056
 31
0.0
  0
LINE
  5
1BA
330
1F
100
AcDbEntity
  8
0
  6
Continuous
 62
     7
370
    15
100
AcDbLine
 10
2.4374219614
 20
9.9415425318
 30
0.0
 11
2.4479220001
 21
9.9597291351
 31
0.0
  0
LINE
  5
1BB
330
1F
100
AcDbEntity
  8
0
  6
Continuous
 62
     7
370
    15
100
AcDbLine
 10
2.4479220001
 20
9.9597291351
 30
0.0
 11
2.4297355435
 21
9.9702290271
 31
0.0
  0
LINE
  5
1BC
330
1F
100
AcDbEntity
  8
0
  6
Continuous
 62
     7
370
    15
100
AcDbLine
 10
2.4297355435
 20
9.9702290271
 30
0.0
 11
2.4192355048
 21
9.9520425706
 31
0.0
  0
LINE
  5
1BD
330
1F
100
AcDbEntity
  8
0
  6
Continuous
 62
     7
370
    15
100
AcDbLine
 10
2.4192355048
 20
9.9520425706
 30
0.0
 11
2.4374219614
 21
9.9415425318
 31
0.0
  0
LINE
  5
1BE
330
1F
100
AcDbEntity
  8
0
  6
Continuous
 62
     7
370
    15
100
AcDbLine
 10
1.855890066
 20
10.3674485184
 30
0.0
 11
1.8707396011
 21
10.3822977602
 31
0.0
  0
LINE
  5
1BF
330
1F
100
AcDbEntity
  8
0
  6
Continuous
 62
     7
370
    15
100
AcDbLine
 10
1.8707396011
 20
10.3822977602
 30
0.0
 11
1.855890066
 21
10.397147002
 31
0.0
  0
LINE
  5
1C0
330
1F
100
AcDbEntity
  8
0
  6
Continuous
 62
     7
370
    15
100
AcDbLine
 10
1.855890066
 20
10.397147002
 30
0.0
 11
1.8410411175
 21
10.3822977602
 31
0.0
  0
LINE
  5
1C1
330
1F
100
AcDbEntity
  8
0
  6
Continuous
 62
     7
370
    15
100
AcDbLine
 10
1.8410411175
 20
10.3822977602
 30
0.0
 11
1.855890066
 21
10.3674485184
 31
0.0
  0
LINE
  5
1C2
330
1F
100
AcDbEntity
  8
0
  6
Continuous
 62
     7
370
    15
100
AcDbLine
 10
1.4044065882
 20
10.9293535606
 30
0.0
 11
1.4225930448
 21
10.9398535993
 31
0.0
  0
LINE
  5
1C3
330
1F
100
AcDbEntity
  8
0
  6
Continuous
 62
     7
370
    15
100
AcDbLine
 10
1.4225930448
 20
10.9398535993
 30
0.0
 11
1.4120930061
 21
10.9580401292
 31
0.0
  0
LINE
  5
1C4
330
1F
100
AcDbEntity
  8
0
  6
Continuous
 62
     7
370
    15
100
AcDbLine
 10
1.4120930061
 20
10.9580401292
 30
0.0
 11
1.3939065495
 21
10.9475400905
 31
0.0
  0
LINE
  5
1C5
330
1F
100
AcDbEntity
  8
0
  6
Continuous
 62
     7
370
    15
100
AcDbLine
 10
1.3939065495
 20
10.9475400905
 30
0.0
 11
1.4044065882
 21
10.9293535606
 31
0.0
  0
LINE
  5
1C6
330
1F
100
AcDbEntity
  8
0
  6
Continuous
 62
     7
370
    15
100
AcDbLine
 10
1.1137383194
 20
11.588964754
 30
0.0
 11
1.1340232584
 21
11.5943999746
 31
0.0
  0
LINE
  5
1C7
330
1F
100
AcDbEntity
  8
0
  6
Continuous
 62
     7
370
    15
100
AcDbLine
 10
1.1340232584
 20
11.5943999746
 30
0.0
 11
1.1285878545
 21
11.6146844002
 31
0.0
  0
LINE
  5
1C8
330
1F
100
AcDbEntity
  8
0
  6
Continuous
 62
     7
370
    15
100
AcDbLine
 10
1.1285878545
 20
11.6146844002
 30
0.0
 11
1.1083035021
 21
11.6092492164
 31
0.0
  0
LINE
  5
1C9
330
1F
100
AcDbEntity
  8
0
  6
Continuous
 62
     7
370
    15
100
AcDbLine
 10
1.1083035021
 20
11.6092492164
 30
0.0
 11
1.1137383194
 21
11.588964754
 31
0.0
  0
LINE
  5
1CA
330
1F
100
AcDbEntity
  8
0
  6
Continuous
 62
     7
370
    15
100
AcDbLine
 10
1.0036950039
 20
12.3013306414
 30
0.0
 11
1.0246944947
 21
12.3013306414
 31
0.0
  0
LINE
  5
1CB
330
1F
100
AcDbEntity
  8
0
  6
Continuous
 62
     7
370
    15
100
AcDbLine
 10
1.0246944947
 20
12.3013306414
 30
0.0
 11
1.0246944947
 21
12.3223306454
 31
0.0
  0
LINE
  5
1CC
330
1F
100
AcDbEntity
  8
0
  6
Continuous
 62
     7
370
    15
100
AcDbLine
 10
1.0246944947
 20
12.3223306454
 30
0.0
 11
1.0036950039
 21
12.3223306454
 31
0.0
  0
LINE
  5
1CD
330
1F
100
AcDbEntity
  8
0
  6
Continuous
 62
     7
370
    15
100
AcDbLine
 10
1.0036950039
 20
12.3223306454
 30
0.0
 11
1.0036950039
 21
12.3013306414
 31
0.0
  0
LINE
  5
1CE
330
1F
100
AcDbEntity
  8
0
  6
Continuous
 62
     7
370
    15
100
AcDbLine
 10
1.0817741553
 20
13.0179047134
 30
0.0
 11
1.1020590943
 21
13.0124695296
 31
0.0
  0
LINE
  5
1CF
330
1F
100
AcDbEntity
  8
0
  6
Continuous
 62
     7
370
    15
100
AcDbLine
 10
1.1020590943
 20
13.0124695296
 30
0.0
 11
1.1074939115
 21
13.0327539552
 31
0.0
  0
LINE
  5
1D0
330
1F
100
AcDbEntity
  8
0
  6
Continuous
 62
     7
370
    15
100
AcDbLine
 10
1.1074939115
 20
13.0327539552
 30
0.0
 11
1.0872095592
 21
13.0381891391
 31
0.0
  0
LINE
  5
1D1
330
1F
100
AcDbEntity
  8
0
  6
Continuous
 62
     7
370
    15
100
AcDbLine
 10
1.0872095592
 20
13.0381891391
 30
0.0
 11
1.0817741553
 21
13.0179047134
 31
0.0
  0
LINE
  5
1D2
330
1F
100
AcDbEntity
  8
0
  6
Continuous
 62
     7
370
    15
100
AcDbLine
 10
1.3426565282
 20
13.6898536577
 30
0.0
 11
1.3608429848
 21
13.679353619
 31
0.0
  0
LINE
  5
1D3
330
1F
100
AcDbEntity
  8
0
  6
Continuous
 62
     7
370
    15
100
AcDbLine
 10
1.3608429848
 20
13.679353619
 30
0.0
 11
1.3713430235
 21
13.6975400756
 31
0.0
  0
LINE
  5
1D4
330
1F
100
AcDbEntity
  8
0
  6
Continuous
 62
     7
370
    15
100
AcDbLine
 10
1.3713430235
 20
13.6975400756
 30
0.0
 11
1.3531565669
 21
13.7080401143
 31
0.0
  0
LINE
  5
1D5
330
1F
100
AcDbEntity
  8
0
  6
Continuous
 62
     7
370
    15
100
AcDbLine
 10
1.3531565669
 20
13.7080401143
 30
0.0
 11
1.3426565282
 21
13.6898536577
 31
0.0
  0
LINE
  5
1D6
330
1F
100
AcDbEntity
  8
0
  6
Continuous
 62
     7
370
    15
100
AcDbLine
 10
1.7685628081
 20
14.2713851131
 30
0.0
 11
1.7834117566
 21
14.2565358713
 31
0.0
  0
LINE
  5
1D7
330
1F
100
AcDbEntity
  8
0
  6
Continuous
 62
     7
370
    15
100
AcDbLine
 10
1.7834117566
 20
14.2565358713
 30
0.0
 11
1.7982612917
 21
14.2713851131
 31
0.0
  0
LINE
  5
1D8
330
1F
100
AcDbEntity
  8
0
  6
Continuous
 62
     7
370
    15
100
AcDbLine
 10
1.7982612917
 20
14.2713851131
 30
0.0
 11
1.7834117566
 21
14.2862343549
 31
0.0
  0
LINE
  5
1D9
330
1F
100
AcDbEntity
  8
0
  6
Continuous
 62
     7
370
    15
100
AcDbLine
 10
1.7834117566
 20
14.2862343549
 30
0.0
 11
1.7685628081
 21
14.2713851131
 31
0.0
  0
LINE
  5
1DA
330
1F
100
AcDbEntity
  8
0
  6
Continuous
 62
     7
370
    15
100
AcDbLine
 10
2.3304674103
 20
14.7228688842
 30
0.0
 11
2.340967449
 21
14.7046821343
 31
0.0
  0
LINE
  5
1DB
330
1F
100
AcDbEntity
  8
0
  6
Continuous
 62
     7
370
    15
100
AcDbLine
 10
2.340967449
 20
14.7046821343
 30
0.0
 11
2.3591544922
 21
14.715182173
 31
0.0
  0
LINE
  5
1DC
330
1F
100
AcDbEntity
  8
0
  6
Continuous
 62
     7
370
    15
100
AcDbLine
 10
2.3591544922
 20
14.715182173
 30
0.0
 11
2.3486544535
 21
14.7333689229
 31
0.0
  0
LINE
  5
1DD
330
1F
100
AcDbEntity
  8
0
  6
Continuous
 62
     7
370
    15
100
AcDbLine
 10
2.3486544535
 20
14.7333689229
 30
0.0
 11
2.3304674103
 21
14.7228688842
 31
0.0
  0
LINE
  5
1DE
330
1F
100
AcDbEntity
  8
0
  6
Continuous
 62
     7
370
    15
100
AcDbLine
 10
2.9900790437
 20
15.0135368597
 30
0.0
 11
2.9955138609
 21
14.9932525074
 31
0.0
  0
LINE
  5
1DF
330
1F
100
AcDbEntity
  8
0
  6
Continuous
 62
     7
370
    15
100
AcDbLine
 10
2.9955138609
 20
14.9932525074
 30
0.0
 11
3.0157987999
 21
14.9986876179
 31
0.0
  0
LINE
  5
1E0
330
1F
100
AcDbEntity
  8
0
  6
Continuous
 62
     7
370
    15
100
AcDbLine
 10
3.0157987999
 20
14.9986876179
 30
0.0
 11
3.0103633961
 21
15.0189719703
 31
0.0
  0
LINE
  5
1E1
330
1F
100
AcDbEntity
  8
0
  6
Continuous
 62
     7
370
    15
100
AcDbLine
 10
3.0103633961
 20
15.0189719703
 30
0.0
 11
2.9900790437
 21
15.0135368597
 31
0.0
  0
LINE
  5
1E2
330
1F
100
AcDbEntity
  8
0
  6
Continuous
 62
     7
370
    15
100
AcDbLine
 10
0.6391950013
 20
13.1124806676
 30
0.0
 11
0.764194624
 21
13.1124806676
 31
0.0
  0
LINE
  5
1E3
330
1F
100
AcDbEntity
  8
0
  6
Continuous
 62
     7
370
    15
100
AcDbLine
 10
0.764194624
 20
13.1124806676
 30
0.0
 11
0.764194624
 21
13.6124806982
 31
0.0
  0
LINE
  5
1E4
330
1F
100
AcDbEntity
  8
0
  6
Continuous
 62
     7
370
    15
100
AcDbLine
 10
0.764194624
 20
13.6124806982
 30
0.0
 11
0.6391950013
 21
13.6124806982
 31
0.0
  0
LINE
  5
1E5
330
1F
100
AcDbEntity
  8
0
  6
Continuous
 62
     7
370
    15
100
AcDbLine
 10
0.6391950013
 20
13.6124806982
 30
0.0
 11
0.6391950013
 21
13.1124806676
 31
0.0
  0
LINE
  5
1E6
330
1F
100
AcDbEntity
  8
0
  6
Continuous
 62
     7
370
    15
100
AcDbLine
 10
4.2641946184
 20
15.6130806804
 30
0.0
 11
3.2641947038
 21
15.6130806804
 31
0.0
  0
LINE
  5
1E7
330
1F
100
AcDbEntity
  8
0
  6
Continuous
 62
     7
370
    15
100
AcDbLine
 10
3.2641947038
 20
15.6130806804
 30
0.0
 11
3.2641947038
 21
15.4880807644
 31
0.0
  0
LINE
  5
1E8
330
1F
100
AcDbEntity
  8
0
  6
Continuous
 62
     7
370
    15
100
AcDbLine
 10
3.2641947038
 20
15.4880807644
 30
0.0
 11
4.2641946184
 21
15.4880807644
 31
0.0
  0
LINE
  5
1E9
330
1F
100
AcDbEntity
  8
0
  6
Continuous
 62
     7
370
    15
100
AcDbLine
 10
4.2641946184
 20
15.4880807644
 30
0.0
 11
4.2641946184
 21
15.6130806804
 31
0.0
  0
LINE
  5
1EA
330
1F
100
AcDbEntity
  8
0
  6
Continuous
 62
     7
370
    15
100
AcDbLine
 10
6.4208954106
 20
13.0327539552
 30
0.0
 11
6.4263305212
 21
13.0124695296
 31
0.0
  0
LINE
  5
1EB
330
1F
100
AcDbEntity
  8
0
  6
Continuous
 62
     7
370
    15
100
AcDbLine
 10
6.441179763
 20
13.0381891391
 30
0.0
 11
6.4208954106
 21
13.0327539552
 31
0.0
  0
LINE
  5
1EC
330
1F
100
AcDbEntity
  8
0
  6
Continuous
 62
     7
370
    15
100
AcDbLine
 10
6.4466151669
 20
13.0179047134
 30
0.0
 11
6.441179763
 21
13.0381891391
 31
0.0
  0
LINE
  5
1ED
330
1F
100
AcDbEntity
  8
0
  6
Continuous
 62
     7
370
    15
100
AcDbLine
 10
6.4263305212
 20
13.0124695296
 30
0.0
 11
6.4466151669
 21
13.0179047134
 31
0.0
  0
LINE
  5
1EE
330
1F
100
AcDbEntity
  8
0
  6
Continuous
 62
     7
370
    15
100
AcDbLine
 10
6.3943663571
 20
13.1317613182
 30
0.0
 11
6.399801761
 21
13.1114768925
 31
0.0
  0
LINE
  5
1EF
330
1F
100
AcDbEntity
  8
0
  6
Continuous
 62
     7
370
    15
100
AcDbLine
 10
6.4146510028
 20
13.1371965754
 30
0.0
 11
6.3943663571
 21
13.1317613182
 31
0.0
  0
LINE
  5
1F0
330
1F
100
AcDbEntity
  8
0
  6
Continuous
 62
     7
370
    15
100
AcDbLine
 10
6.4200861133
 20
13.1169120764
 30
0.0
 11
6.4146510028
 21
13.1371965754
 31
0.0
  0
LINE
  5
1F1
330
1F
100
AcDbEntity
  8
0
  6
Continuous
 62
     7
370
    15
100
AcDbLine
 10
6.399801761
 20
13.1114768925
 30
0.0
 11
6.4200861133
 21
13.1169120764
 31
0.0
  0
LINE
  5
1F2
330
1F
100
AcDbEntity
  8
0
  6
Continuous
 62
     7
370
    15
100
AcDbLine
 10
6.1570462986
 20
13.6975400756
 30
0.0
 11
6.1675463373
 21
13.679353619
 31
0.0
  0
LINE
  5
1F3
330
1F
100
AcDbEntity
  8
0
  6
Continuous
 62
     7
370
    15
100
AcDbLine
 10
6.1752327552
 20
13.7080401143
 30
0.0
 11
6.1570462986
 21
13.6975400756
 31
0.0
  0
LINE
  5
1F4
330
1F
100
AcDbEntity
  8
0
  6
Continuous
 62
     7
370
    15
100
AcDbLine
 10
6.1857327939
 20
13.6898536577
 30
0.0
 11
6.1752327552
 21
13.7080401143
 31
0.0
  0
LINE
  5
1F5
330
1F
100
AcDbEntity
  8
0
  6
Continuous
 62
     7
370
    15
100
AcDbLine
 10
6.1675463373
 20
13.679353619
 30
0.0
 11
6.1857327939
 21
13.6898536577
 31
0.0
  0
LINE
  5
1F6
330
1F
100
AcDbEntity
  8
0
  6
Continuous
 62
     7
370
    15
100
AcDbLine
 10
6.1057962774
 20
13.7863077301
 30
0.0
 11
6.1162963161
 21
13.7681211269
 31
0.0
  0
LINE
  5
1F7
330
1F
100
AcDbEntity
  8
0
  6
Continuous
 62
     7
370
    15
100
AcDbLine
 10
6.1239830273
 20
13.7968077688
 30
0.0
 11
6.1057962774
 21
13.7863077301
 31
0.0
  0
LINE
  5
1F8
330
1F
100
AcDbEntity
  8
0
  6
Continuous
 62
     7
370
    15
100
AcDbLine
 10
6.1344827726
 20
13.7786211656
 30
0.0
 11
6.1239830273
 21
13.7968077688
 31
0.0
  0
LINE
  5
1F9
330
1F
100
AcDbEntity
  8
0
  6
Continuous
 62
     7
370
    15
100
AcDbLine
 10
6.1162963161
 20
13.7681211269
 30
0.0
 11
6.1344827726
 21
13.7786211656
 31
0.0
  0
LINE
  5
1FA
330
1F
100
AcDbEntity
  8
0
  6
Continuous
 62
     7
370
    15
100
AcDbLine
 10
5.7301283238
 20
14.2713851131
 30
0.0
 11
5.7449775656
 21
14.2565358713
 31
0.0
  0
LINE
  5
1FB
330
1F
100
AcDbEntity
  8
0
  6
Continuous
 62
     7
370
    15
100
AcDbLine
 10
5.7449775656
 20
14.2862343549
 30
0.0
 11
5.7301283238
 21
14.2713851131
 31
0.0
  0
LINE
  5
1FC
330
1F
100
AcDbEntity
  8
0
  6
Continuous
 62
     7
370
    15
100
AcDbLine
 10
5.7598268074
 20
14.2713851131
 30
0.0
 11
5.7449775656
 21
14.2862343549
 31
0.0
  0
LINE
  5
1FD
330
1F
100
AcDbEntity
  8
0
  6
Continuous
 62
     7
370
    15
100
AcDbLine
 10
5.7449775656
 20
14.2565358713
 30
0.0
 11
5.7598268074
 21
14.2713851131
 31
0.0
  0
LINE
  5
1FE
330
1F
100
AcDbEntity
  8
0
  6
Continuous
 62
     7
370
    15
100
AcDbLine
 10
5.6576500144
 20
14.3438635692
 30
0.0
 11
5.6724992562
 21
14.3290143274
 31
0.0
  0
LINE
  5
1FF
330
1F
100
AcDbEntity
  8
0
  6
Continuous
 62
     7
370
    15
100
AcDbLine
 10
5.6724992562
 20
14.358712811
 30
0.0
 11
5.6576500144
 21
14.3438635692
 31
0.0
  0
LINE
  5
200
330
1F
100
AcDbEntity
  8
0
  6
Continuous
 62
     7
370
    15
100
AcDbLine
 10
5.687348498
 20
14.3438635692
 30
0.0
 11
5.6724992562
 21
14.358712811
 31
0.0
  0
LINE
  5
201
330
1F
100
AcDbEntity
  8
0
  6
Continuous
 62
     7
370
    15
100
AcDbLine
 10
5.6724992562
 20
14.3290143274
 30
0.0
 11
5.687348498
 21
14.3438635692
 31
0.0
  0
LINE
  5
202
330
1F
100
AcDbEntity
  8
0
  6
Continuous
 62
     7
370
    15
100
AcDbLine
 10
5.1692354166
 20
14.715182173
 30
0.0
 11
5.1874218732
 21
14.7046821343
 31
0.0
  0
LINE
  5
203
330
1F
100
AcDbEntity
  8
0
  6
Continuous
 62
     7
370
    15
100
AcDbLine
 10
5.179735162
 20
14.7333689229
 30
0.0
 11
5.1692354166
 21
14.715182173
 31
0.0
  0
LINE
  5
204
330
1F
100
AcDbEntity
  8
0
  6
Continuous
 62
     7
370
    15
100
AcDbLine
 10
5.1979219119
 20
14.7228688842
 30
0.0
 11
5.179735162
 21
14.7333689229
 31
0.0
  0
LINE
  5
205
330
1F
100
AcDbEntity
  8
0
  6
Continuous
 62
     7
370
    15
100
AcDbLine
 10
5.1874218732
 20
14.7046821343
 30
0.0
 11
5.1979219119
 21
14.7228688842
 31
0.0
  0
LINE
  5
206
330
1F
100
AcDbEntity
  8
0
  6
Continuous
 62
     7
370
    15
100
AcDbLine
 10
5.0804676154
 20
14.7664321943
 30
0.0
 11
5.0986543653
 21
14.7559321556
 31
0.0
  0
LINE
  5
207
330
1F
100
AcDbEntity
  8
0
  6
Continuous
 62
     7
370
    15
100
AcDbLine
 10
5.0909676541
 20
14.7846186509
 30
0.0
 11
5.0804676154
 21
14.7664321943
 31
0.0
  0
LINE
  5
208
330
1F
100
AcDbEntity
  8
0
  6
Continuous
 62
     7
370
    15
100
AcDbLine
 10
5.1091541106
 20
14.7741189055
 30
0.0
 11
5.0909676541
 21
14.7846186509
 31
0.0
  0
LINE
  5
209
330
1F
100
AcDbEntity
  8
0
  6
Continuous
 62
     7
370
    15
100
AcDbLine
 10
5.0986543653
 20
14.7559321556
 30
0.0
 11
5.1091541106
 21
14.7741189055
 31
0.0
  0
LINE
  5
20A
330
1F
100
AcDbEntity
  8
0
  6
Continuous
 62
     7
370
    15
100
AcDbLine
 10
4.5125911089
 20
14.9986876179
 30
0.0
 11
4.5328754612
 21
14.9932525074
 31
0.0
  0
LINE
  5
20B
330
1F
100
AcDbEntity
  8
0
  6
Continuous
 62
     7
370
    15
100
AcDbLine
 10
4.5180259261
 20
15.0189719703
 30
0.0
 11
4.5125911089
 21
14.9986876179
 31
0.0
  0
LINE
  5
20C
330
1F
100
AcDbEntity
  8
0
  6
Continuous
 62
     7
370
    15
100
AcDbLine
 10
4.5383108651
 20
15.0135368597
 30
0.0
 11
4.5180259261
 21
15.0189719703
 31
0.0
  0
LINE
  5
20D
330
1F
100
AcDbEntity
  8
0
  6
Continuous
 62
     7
370
    15
100
AcDbLine
 10
4.5328754612
 20
14.9932525074
 30
0.0
 11
4.5383108651
 21
15.0135368597
 31
0.0
  0
LINE
  5
20E
330
1F
100
AcDbEntity
  8
0
  6
Continuous
 62
     7
370
    15
100
AcDbLine
 10
4.4135834526
 20
15.0252166715
 30
0.0
 11
4.4338678049
 21
15.0197812676
 31
0.0
  0
LINE
  5
20F
330
1F
100
AcDbEntity
  8
0
  6
Continuous
 62
     7
370
    15
100
AcDbLine
 10
4.4190188565
 20
15.0455010238
 30
0.0
 11
4.4135834526
 21
15.0252166715
 31
0.0
  0
LINE
  5
210
330
1F
100
AcDbEntity
  8
0
  6
Continuous
 62
     7
370
    15
100
AcDbLine
 10
4.4393032088
 20
15.0400659133
 30
0.0
 11
4.4190188565
 21
15.0455010238
 31
0.0
  0
LINE
  5
211
330
1F
100
AcDbEntity
  8
0
  6
Continuous
 62
     7
370
    15
100
AcDbLine
 10
4.4338678049
 20
15.0197812676
 30
0.0
 11
4.4393032088
 21
15.0400659133
 31
0.0
  0
LINE
  5
212
330
1F
100
AcDbEntity
  8
0
  6
Continuous
 62
     7
370
    15
100
AcDbLine
 10
6.7641946981
 20
11.612480649
 30
0.0
 11
6.7641946981
 21
11.1124806917
 31
0.0
  0
LINE
  5
213
330
1F
100
AcDbEntity
  8
0
  6
Continuous
 62
     7
370
    15
100
AcDbLine
 10
6.8891946141
 20
11.612480649
 30
0.0
 11
6.7641946981
 21
11.612480649
 31
0.0
  0
LINE
  5
214
330
1F
100
AcDbEntity
  8
0
  6
Continuous
 62
     7
370
    15
100
AcDbLine
 10
6.8891946141
 20
11.1124806917
 30
0.0
 11
6.8891946141
 21
11.612480649
 31
0.0
  0
LINE
  5
215
330
1F
100
AcDbEntity
  8
0
  6
Continuous
 62
     7
370
    15
100
AcDbLine
 10
6.8891946141
 20
13.1124806676
 30
0.0
 11
6.8891946141
 21
13.6124806982
 31
0.0
  0
LINE
  5
216
330
1F
100
AcDbEntity
  8
0
  6
Continuous
 62
     7
370
    15
100
AcDbLine
 10
6.7641946981
 20
13.6124806982
 30
0.0
 11
6.7641946981
 21
13.1124806676
 31
0.0
  0
LINE
  5
217
330
1F
100
AcDbEntity
  8
0
  6
Continuous
 62
     7
370
    15
100
AcDbLine
 10
5.1091541106
 20
9.9520425706
 30
0.0
 11
5.0986543653
 21
9.9702290271
 31
0.0
  0
ENDSEC
  0
SECTION
  2
OBJECTS
  0
DICTIONARY
  5
C
330
0
100
AcDbDictionary
281
     1
  3
ACAD_GROUP
350
D
  3
ACAD_LAYOUT
350
1A
  3
ACAD_MLINESTYLE
350
17
  3
ACAD_PLOTSETTINGS
350
19
  3
ACAD_PLOTSTYLENAME
350
E
  0
DICTIONARY
  5
D
102
{ACAD_REACTORS
330
C
102
}
330
C
100
AcDbDictionary
281
     1
  0
DICTIONARY
  5
1A
102
{ACAD_REACTORS
330
C
102
}
330
C
100
AcDbDictionary
281
     1
  3
Layout1
350
1E
  3
Layout2
350
26
  3
Model
350
22
  0
DICTIONARY
  5
17
102
{ACAD_REACTORS
330
C
102
}
330
C
100
AcDbDictionary
281
     1
  3
Standard
350
18
  0
DICTIONARY
  5
19
102
{ACAD_REACTORS
330
C
102
}
330
C
100
AcDbDictionary
281
     1
  0
ACDBDICTIONARYWDFLT
  5
E
102
{ACAD_REACTORS
330
C
102
}
330
C
100
AcDbDictionary
281
     1
  3
Normal
350
F
100
AcDbDictionaryWithDefault
340
F
  0
LAYOUT
  5
1E
102
{ACAD_REACTORS
330
1A
102
}
330
1A
100
AcDbPlotSettings
  1

  2
none_device
  4

  6

 40
0.0
 41
0.0
 42
0.0
 43
0.0
 44
0.0
 45
0.0
 46
0.0
 47
0.0
 48
0.0
 49
0.0
140
0.0
141
0.0
142
1.0
143
1.0
 70
   688
 72
     0
 73
     0
 74
     5
  7

 75
    16
147
1.0
148
0.0
149
0.0
100
AcDbLayout
  1
Layout1
 70
     1
 71
     1
 10
0.0
 20
0.0
 11
12.0
 21
9.0
 12
0.0
 22
0.0
 32
0.0
 14
1.0000000000E+20
 24
1.0000000000E+20
 34
1.0000000000E+20
 15
-1.0000000000E+20
 25
-1.0000000000E+20
 35
-1.0000000000E+20
146
0.0
 13
0.0
 23
0.0
 33
0.0
 16
1.0
 26
0.0
 36
0.0
 17
0.0
 27
1.0
 37
0.0
 76
     0
330
1B
  0
LAYOUT
  5
26
102
{ACAD_REACTORS
330
1A
102
}
330
1A
100
AcDbPlotSettings
  1

  2
none_device
  4

  6

 40
0.0
 41
0.0
 42
0.0
 43
0.0
 44
0.0
 45
0.0
 46
0.0
 47
0.0
 48
0.0
 49
0.0
140
0.0
141
0.0
142
1.0
143
1.0
 70
   688
 72
     0
 73
     0
 74
     5
  7

 75
    16
147
1.0
148
0.0
149
0.0
100
AcDbLayout
  1
Layout2
 70
     1
 71
     2
 10
0.0
 20
0.0
 11
0.0
 21
0.0
 12
0.0
 22
0.0
 32
0.0
 14
0.0
 24
0.0
 34
0.0
 15
0.0
 25
0.0
 35
0.0
146
0.0
 13
0.0
 23
0.0
 33
0.0
 16
1.0
 26
0.0
 36
0.0
 17
0.0
 27
1.0
 37
0.0
 76
     0
330
23
  0
LAYOUT
  5
22
102
{ACAD_REACTORS
330
1A
102
}
330
1A
100
AcDbPlotSettings
  1

  2
none_device
  4

  6

 40
0.0
 41
0.0
 42
0.0
 43
0.0
 44
0.0
 45
0.0
 46
0.0
 47
0.0
 48
0.0
 49
0.0
140
0.0
141
0.0
142
1.0
143
1.0
 70
  1712
 72
     0
 73
     0
 74
     0
  7

 75
     0
147
1.0
148
0.0
149
0.0
100
AcDbLayout
  1
Model
 70
     1
 71
     0
 10
0.0
 20
0.0
 11
12.0
 21
24.0
 12
0.0
 22
0.0
 32
0.0
 14
0.0
 24
0.0
 34
0.0
 15
12.0
 25
24.0
 35
0.0
146
0.0
 13
0.0
 23
0.0
 33
0.0
 16
1.0
 26
0.0
 36
0.0
 17
0.0
 27
1.0
 37
0.0
 76
     0
330
1F
331
29
  0
MLINESTYLE
  5
18
102
{ACAD_REACTORS
330
17
102
}
330
17
100
AcDbMlineStyle
  2
Standard
 70
     0
  3

 62
   256
 51
90.0
 52
90.0
 71
     2
 49
0.5
 62
   256
  6
BYLAYER
 49
-0.5
 62
   256
  6
BYLAYER
  0
ACDBPLACEHOLDER
  5
F
102
{ACAD_REACTORS
330
E
102
}
330
E
  0
ENDSEC
  0
EOF
