999
DXF created by Inkscape
  0
SECTION
  2
HEADER
  9
$ACADVER
  1
AC1014
  9
$HANDSEED
  5
FFFF
  9
$MEASUREMENT
 70
     1
  0
ENDSEC
  0
SECTION
  2
TABLES
  0
TABLE
  2
VPORT
  5
8
330
0
100
AcDbSymbolTable
 70
     4
  0
VPORT
  5
2E
330
8
100
AcDbSymbolTableRecord
100
AcDbViewportTableRecord
  2
*ACTIVE
 70
     0
 10
0.0
 20
0.0
 11
1.0
 21
1.0
 12
210.0
 22
148.5
 13
0.0
 23
0.0
 14
10.0
 24
10.0
 15
10.0
 25
10.0
 16
0.0
 26
0.0
 36
1.0
 17
0.0
 27
0.0
 37
0.0
 40
341.0
 41
1.24
 42
50.0
 43
0.0
 44
0.0
 50
0.0
 51
0.0
 71
     0
 72
   100
 73
     1
 74
     3
 75
     0
 76
     0
 77
     0
 78
     0
  0
ENDTAB
  0
TABLE
  2
LTYPE
  5
5
330
0
100
AcDbSymbolTable
 70
     1
  0
LTYPE
  5
14
330
5
100
AcDbSymbolTableRecord
100
AcDbLinetypeTableRecord
  2
BYBLOCK
 70
     0
  3

 72
    65
 73
     0
 40
0.0
  0
LTYPE
  5
15
330
5
100
AcDbSymbolTableRecord
100
AcDbLinetypeTableRecord
  2
BYLAYER
 70
     0
  3

 72
    65
 73
     0
 40
0.0
  0
LTYPE
  5
16
330
5
100
AcDbSymbolTableRecord
100
AcDbLinetypeTableRecord
  2
CONTINUOUS
 70
     0
  3
Solid line
 72
    65
 73
     0
 40
0.0
  0
ENDTAB
  0
TABLE
  2
LAYER
  5
2
100
AcDbSymbolTable
 70
4
  0
LAYER
  5
50
100
AcDbSymbolTableRecord
100
AcDbLayerTableRecord
  2
0
 70
0
  6
CONTINUOUS
  0
LAYER
  5
51
100
AcDbSymbolTableRecord
100
AcDbLayerTableRecord
  2
circle
 70
0
  6
CONTINUOUS
  0
LAYER
  5
52
100
AcDbSymbolTableRecord
100
AcDbLayerTableRecord
  2
text
 70
0
  6
CONTINUOUS
  0
LAYER
  5
53
100
AcDbSymbolTableRecord
100
AcDbLayerTableRecord
  2
guides
 70
0
  6
CONTINUOUS
  0
ENDTAB
  0
TABLE
  2
STYLE
  5
3
330
0
100
AcDbSymbolTable
 70
     1
  0
STYLE
  5
11
330
3
100
AcDbSymbolTableRecord
100
AcDbTextStyleTableRecord
  2
STANDARD
 70
     0
 40
0.0
 41
1.0
 50
0.0
 71
     0
 42
2.5
  3
txt
  4

  0
ENDTAB
  0
TABLE
  2
VIEW
  5
6
330
0
100
AcDbSymbolTable
 70
     0
  0
ENDTAB
  0
TABLE
  2
UCS
  5
7
330
0
100
AcDbSymbolTable
 70
     0
  0
ENDTAB
  0
TABLE
  2
APPID
  5
9
330
0
100
AcDbSymbolTable
 70
     2
  0
APPID
  5
12
330
9
100
AcDbSymbolTableRecord
100
AcDbRegAppTableRecord
  2
ACAD
 70
     0
  0
ENDTAB
  0
TABLE
  2
DIMSTYLE
  5
A
330
0
100
AcDbSymbolTable
 70
     1
  0
DIMSTYLE
105
27
330
A
100
AcDbSymbolTableRecord
100
AcDbDimStyleTableRecord
  2
ISO-25
 70
     0
  3

  4

  5

  6

  7

 40
1.0
 41
2.5
 42
0.625
 43
3.75
 44
1.25
 45
0.0
 46
0.0
 47
0.0
 48
0.0
140
2.5
141
2.5
142
0.0
143
0.03937007874016
144
1.0
145
0.0
146
1.0
147
0.625
 71
     0
 72
     0
 73
     0
 74
     0
 75
     0
 76
     0
 77
     1
 78
     8
170
     0
171
     3
172
     1
173
     0
174
     0
175
     0
176
     0
177
     0
178
     0
270
     2
271
     2
272
     2
273
     2
274
     3
340
11
275
     0
280
     0
281
     0
282
     0
283
     0
284
     8
285
     0
286
     0
287
     3
288
     0
  0
ENDTAB
  0
TABLE
  2
BLOCK_RECORD
  5
1
330
0
100
AcDbSymbolTable
 70
     1
  0
BLOCK_RECORD
  5
1F
330
1
100
AcDbSymbolTableRecord
100
AcDbBlockTableRecord
  2
*MODEL_SPACE
  0
BLOCK_RECORD
  5
1B
330
1
100
AcDbSymbolTableRecord
100
AcDbBlockTableRecord
  2
*PAPER_SPACE
  0
ENDTAB
  0
ENDSEC
  0
SECTION
  2
BLOCKS
  0
BLOCK
  5
20
330
1F
100
AcDbEntity
  8
0
100
AcDbBlockBegin
  2
*MODEL_SPACE
 70
     0
 10
0.0
 20
0.0
 30
0.0
  3
*MODEL_SPACE
  1

  0
ENDBLK
  5
21
330
1F
100
AcDbEntity
  8
0
100
AcDbBlockEnd
  0
BLOCK
  5
1C
330
1B
100
AcDbEntity
 67
     1
  8
0
100
AcDbBlockBegin
  2
*PAPER_SPACE
  1

  0
ENDBLK
  5
1D
330
1B
100
AcDbEntity
 67
     1
  8
0
100
AcDbBlockEnd
  0
ENDSEC
  0
SECTION
  2
ENTITIES
  0
SPLINE
  5
100
100
AcDbEntity
  8
circle
 62
7
100
AcDbSpline
 70
8
 71
3
 72
8
 73
4
 74
0
 40
0
 40
0
 40
0
 40
0
 40
1
 40
1
 40
1
 40
1
 10
152.201833
 20
88.899996
 30
0.0
 10
152.201833
 20
66.284428
 30
0.0
 10
140.136571
 20
45.386781
 30
0.0
 10
120.550915
 20
34.078997
 30
0.0
  0
SPLINE
  5
101
100
AcDbEntity
  8
circle
 62
7
100
AcDbSpline
 70
8
 71
3
 72
8
 73
4
 74
0
 40
0
 40
0
 40
0
 40
0
 40
1
 40
1
 40
1
 40
1
 10
120.550915
 20
34.078997
 30
0.0
 10
100.965258
 20
22.771213
 30
0.0
 10
76.834734
 20
22.771214
 30
0.0
 10
57.249078
 20
34.078998
 30
0.0
  0
SPLINE
  5
102
100
AcDbEntity
  8
circle
 62
7
100
AcDbSpline
 70
8
 71
3
 72
8
 73
4
 74
0
 40
0
 40
0
 40
0
 40
0
 40
1
 40
1
 40
1
 40
1
 10
57.249078
 20
34.078998
 30
0.0
 10
37.663422
 20
45.386782
 30
0.0
 10
25.598160
 20
66.284429
 30
0.0
 10
25.598160
 20
88.899997
 30
0.0
  0
SPLINE
  5
103
100
AcDbEntity
  8
circle
 62
7
100
AcDbSpline
 70
8
 71
3
 72
8
 73
4
 74
0
 40
0
 40
0
 40
0
 40
0
 40
1
 40
1
 40
1
 40
1
 10
25.598160
 20
88.899997
 30
0.0
 10
25.598160
 20
111.515565
 30
0.0
 10
37.663422
 20
132.413212
 30
0.0
 10
57.249079
 20
143.720996
 30
0.0
  0
SPLINE
  5
104
100
AcDbEntity
  8
circle
 62
7
100
AcDbSpline
 70
8
 71
3
 72
8
 73
4
 74
0
 40
0
 40
0
 40
0
 40
0
 40
1
 40
1
 40
1
 40
1
 10
57.249079
 20
143.720996
 30
0.0
 10
76.834735
 20
155.028780
 30
0.0
 10
100.965259
 20
155.028780
 30
0.0
 10
120.550915
 20
143.720996
 30
0.0
  0
SPLINE
  5
105
100
AcDbEntity
  8
circle
 62
7
100
AcDbSpline
 70
8
 71
3
 72
8
 73
4
 74
0
 40
0
 40
0
 40
0
 40
0
 40
1
 40
1
 40
1
 40
1
 10
120.550915
 20
143.720996
 30
0.0
 10
140.136571
 20
132.413212
 30
0.0
 10
152.201833
 20
111.515565
 30
0.0
 10
152.201833
 20
88.899997
 30
0.0
  0
SPLINE
  5
106
100
AcDbEntity
  8
0
 62
1
100
AcDbSpline
 70
8
 71
3
 72
8
 73
4
 74
0
 40
0
 40
0
 40
0
 40
0
 40
1
 40
1
 40
1
 40
1
 10
93.415556
 20
183.731368
 30
0.0
 10
93.415556
 20
185.319414
 30
0.0
 10
92.568343
 20
186.786829
 30
0.0
 10
91.193056
 20
187.580851
 30
0.0
  0
SPLINE
  5
107
100
AcDbEntity
  8
0
 62
1
100
AcDbSpline
 70
8
 71
3
 72
8
 73
4
 74
0
 40
0
 40
0
 40
0
 40
0
 40
1
 40
1
 40
1
 40
1
 10
91.193056
 20
187.580851
 30
0.0
 10
89.817768
 20
188.374874
 30
0.0
 10
88.123343
 20
188.374874
 30
0.0
 10
86.748056
 20
187.580851
 30
0.0
  0
SPLINE
  5
108
100
AcDbEntity
  8
0
 62
1
100
AcDbSpline
 70
8
 71
3
 72
8
 73
4
 74
0
 40
0
 40
0
 40
0
 40
0
 40
1
 40
1
 40
1
 40
1
 10
86.748056
 20
187.580851
 30
0.0
 10
85.372768
 20
186.786829
 30
0.0
 10
84.525556
 20
185.319414
 30
0.0
 10
84.525556
 20
183.731368
 30
0.0
  0
SPLINE
  5
109
100
AcDbEntity
  8
0
 62
1
100
AcDbSpline
 70
8
 71
3
 72
8
 73
4
 74
0
 40
0
 40
0
 40
0
 40
0
 40
1
 40
1
 40
1
 40
1
 10
84.525556
 20
183.731368
 30
0.0
 10
84.525556
 20
182.143323
 30
0.0
 10
85.372768
 20
180.675908
 30
0.0
 10
86.748056
 20
179.881886
 30
0.0
  0
SPLINE
  5
10a
100
AcDbEntity
  8
0
 62
1
100
AcDbSpline
 70
8
 71
3
 72
8
 73
4
 74
0
 40
0
 40
0
 40
0
 40
0
 40
1
 40
1
 40
1
 40
1
 10
86.748056
 20
179.881886
 30
0.0
 10
88.123343
 20
179.087863
 30
0.0
 10
89.817768
 20
179.087863
 30
0.0
 10
91.193056
 20
179.881886
 30
0.0
  0
SPLINE
  5
10b
100
AcDbEntity
  8
0
 62
1
100
AcDbSpline
 70
8
 71
3
 72
8
 73
4
 74
0
 40
0
 40
0
 40
0
 40
0
 40
1
 40
1
 40
1
 40
1
 10
91.193056
 20
179.881886
 30
0.0
 10
92.568343
 20
180.675908
 30
0.0
 10
93.415556
 20
182.143323
 30
0.0
 10
93.415556
 20
183.731368
 30
0.0
  0
LWPOLYLINE
  5
10c
100
AcDbEntity
  8
circle
 62
7
100
AcDbPolyline
 90
2
 70
0
 10
152.201833
 20
88.899997
 30
0.0
 10
152.201833
 20
88.899997
 30
0.0
  0
LWPOLYLINE
  5
10d
100
AcDbEntity
  8
0
 62
1
100
AcDbPolyline
 90
2
 70
0
 10
93.415556
 20
183.731368
 30
0.0
 10
93.415556
 20
183.731368
 30
0.0
  0
LWPOLYLINE
  5
10e
100
AcDbEntity
  8
0
 62
1
100
AcDbPolyline
 90
5
 70
0
 10
76.270556
 20
171.520564
 30
0.0
 10
76.270556
 20
168.345564
 30
0.0
 10
101.670556
 20
168.345564
 30
0.0
 10
101.670556
 20
171.520564
 30
0.0
 10
76.270556
 20
171.520564
 30
0.0
  0
LWPOLYLINE
  5
10f
100
AcDbEntity
  8
0
 62
1
100
AcDbPolyline
 90
5
 70
0
 10
9.595556
 20
57.205324
 30
0.0
 10
12.770556
 20
57.205324
 30
0.0
 10
12.770556
 20
69.905324
 30
0.0
 10
9.595556
 20
69.905324
 30
0.0
 10
9.595556
 20
57.205324
 30
0.0
  0
SPLINE
  5
110
100
AcDbEntity
  8
0
 62
1
100
AcDbSpline
 70
8
 71
3
 72
8
 73
4
 74
0
 40
0
 40
0
 40
0
 40
0
 40
1
 40
1
 40
1
 40
1
 10
97.860556
 20
183.731368
 30
0.0
 10
97.860556
 20
186.907460
 30
0.0
 10
96.166131
 20
189.842289
 30
0.0
 10
93.415556
 20
191.430334
 30
0.0
  0
SPLINE
  5
111
100
AcDbEntity
  8
0
 62
1
100
AcDbSpline
 70
8
 71
3
 72
8
 73
4
 74
0
 40
0
 40
0
 40
0
 40
0
 40
1
 40
1
 40
1
 40
1
 10
93.415556
 20
191.430334
 30
0.0
 10
90.664980
 20
193.018380
 30
0.0
 10
87.276131
 20
193.018380
 30
0.0
 10
84.525556
 20
191.430334
 30
0.0
  0
SPLINE
  5
112
100
AcDbEntity
  8
0
 62
1
100
AcDbSpline
 70
8
 71
3
 72
8
 73
4
 74
0
 40
0
 40
0
 40
0
 40
0
 40
1
 40
1
 40
1
 40
1
 10
84.525556
 20
191.430334
 30
0.0
 10
81.774980
 20
189.842289
 30
0.0
 10
80.080556
 20
186.907460
 30
0.0
 10
80.080556
 20
183.731368
 30
0.0
  0
SPLINE
  5
113
100
AcDbEntity
  8
0
 62
1
100
AcDbSpline
 70
8
 71
3
 72
8
 73
4
 74
0
 40
0
 40
0
 40
0
 40
0
 40
1
 40
1
 40
1
 40
1
 10
111.979569
 20
174.841368
 30
0.0
 10
103.801395
 20
177.032703
 30
0.0
 10
97.860556
 20
179.498035
 30
0.0
 10
97.860556
 20
183.731368
 30
0.0
  0
SPLINE
  5
114
100
AcDbEntity
  8
0
 62
1
100
AcDbSpline
 70
8
 71
3
 72
8
 73
4
 74
0
 40
0
 40
0
 40
0
 40
0
 40
1
 40
1
 40
1
 40
1
 10
65.961542
 20
174.841368
 30
0.0
 10
22.868899
 20
163.294729
 30
0.0
 10
-4.992030
 20
121.597903
 30
0.0
 10
0.831107
 20
77.366784
 30
0.0
  0
SPLINE
  5
115
100
AcDbEntity
  8
0
 62
1
100
AcDbSpline
 70
8
 71
3
 72
8
 73
4
 74
0
 40
0
 40
0
 40
0
 40
0
 40
1
 40
1
 40
1
 40
1
 10
0.831107
 20
77.366784
 30
0.0
 10
6.654245
 20
33.135665
 30
0.0
 10
44.357768
 20
0.070563
 30
0.0
 10
88.970556
 20
0.070563
 30
0.0
  0
SPLINE
  5
116
100
AcDbEntity
  8
0
 62
1
100
AcDbSpline
 70
8
 71
3
 72
8
 73
4
 74
0
 40
0
 40
0
 40
0
 40
0
 40
1
 40
1
 40
1
 40
1
 10
88.970556
 20
0.070563
 30
0.0
 10
133.583343
 20
0.070563
 30
0.0
 10
171.286866
 20
33.135665
 30
0.0
 10
177.110004
 20
77.366784
 30
0.0
  0
SPLINE
  5
117
100
AcDbEntity
  8
0
 62
1
100
AcDbSpline
 70
8
 71
3
 72
8
 73
4
 74
0
 40
0
 40
0
 40
0
 40
0
 40
1
 40
1
 40
1
 40
1
 10
177.110004
 20
77.366784
 30
0.0
 10
182.933141
 20
121.597903
 30
0.0
 10
155.072213
 20
163.294729
 30
0.0
 10
111.979569
 20
174.841368
 30
0.0
  0
SPLINE
  5
118
100
AcDbEntity
  8
0
 62
1
100
AcDbSpline
 70
8
 71
3
 72
8
 73
4
 74
0
 40
0
 40
0
 40
0
 40
0
 40
1
 40
1
 40
1
 40
1
 10
80.080556
 20
183.731368
 30
0.0
 10
80.080556
 20
179.498035
 30
0.0
 10
74.139716
 20
177.032703
 30
0.0
 10
65.961542
 20
174.841368
 30
0.0
  0
LWPOLYLINE
  5
119
100
AcDbEntity
  8
0
 62
1
100
AcDbPolyline
 90
5
 70
0
 10
168.345556
 20
120.705324
 30
0.0
 10
165.170556
 20
120.705324
 30
0.0
 10
165.170556
 20
108.005324
 30
0.0
 10
168.345556
 20
108.005324
 30
0.0
 10
168.345556
 20
120.705324
 30
0.0
  0
LWPOLYLINE
  5
11a
100
AcDbEntity
  8
0
 62
1
100
AcDbPolyline
 90
5
 70
0
 10
168.345556
 20
69.905324
 30
0.0
 10
165.170556
 20
69.905324
 30
0.0
 10
165.170556
 20
57.205324
 30
0.0
 10
168.345556
 20
57.205324
 30
0.0
 10
168.345556
 20
69.905324
 30
0.0
  0
LWPOLYLINE
  5
11b
100
AcDbEntity
  8
0
 62
1
100
AcDbPolyline
 90
5
 70
0
 10
9.595556
 20
108.005324
 30
0.0
 10
12.770556
 20
108.005324
 30
0.0
 10
12.770556
 20
120.705324
 30
0.0
 10
9.595556
 20
120.705324
 30
0.0
 10
9.595556
 20
108.005324
 30
0.0
  0
LWPOLYLINE
  5
11c
100
AcDbEntity
  8
0
 62
1
100
AcDbPolyline
 90
5
 70
0
 10
76.270556
 20
9.595564
 30
0.0
 10
76.270556
 20
6.420564
 30
0.0
 10
101.670556
 20
6.420564
 30
0.0
 10
101.670556
 20
9.595564
 30
0.0
 10
76.270556
 20
9.595564
 30
0.0
  0
LWPOLYLINE
  5
11d
100
AcDbEntity
  8
0
 62
1
100
AcDbPolyline
 90
5
 70
0
 10
90.558056
 20
90.558064
 30
0.0
 10
87.383056
 20
90.558064
 30
0.0
 10
87.383056
 20
87.383064
 30
0.0
 10
90.558056
 20
87.383064
 30
0.0
 10
90.558056
 20
90.558064
 30
0.0
  0
LWPOLYLINE
  5
11e
100
AcDbEntity
  8
guides
 62
1
100
AcDbPolyline
 90
25
 70
0
 10
88.911199
 20
152.556264
 30
0.0
 10
97.143680
 20
119.664570
 30
0.0
 10
120.719065
 20
144.033373
 30
0.0
 10
111.402755
 20
111.432089
 30
0.0
 10
144.004038
 20
120.748397
 30
0.0
 10
119.635236
 20
97.173011
 30
0.0
 10
152.526929
 20
88.940530
 30
0.0
 10
119.635236
 20
80.708048
 30
0.0
 10
144.004038
 20
57.132663
 30
0.0
 10
111.402755
 20
66.448971
 30
0.0
 10
120.719063
 20
33.847687
 30
0.0
 10
97.143677
 20
58.216490
 30
0.0
 10
88.911196
 20
25.324796
 30
0.0
 10
80.678714
 20
58.216492
 30
0.0
 10
57.103329
 20
33.847690
 30
0.0
 10
66.419637
 20
66.448974
 30
0.0
 10
33.818353
 20
57.132666
 30
0.0
 10
58.187155
 20
80.708051
 30
0.0
 10
25.295463
 20
88.940533
 30
0.0
 10
58.187158
 20
97.173014
 30
0.0
 10
33.818356
 20
120.748400
 30
0.0
 10
66.419640
 20
111.432089
 30
0.0
 10
57.103332
 20
144.033373
 30
0.0
 10
80.678717
 20
119.664570
 30
0.0
 10
88.911199
 20
152.556264
 30
0.0
  0
ENDSEC
  0
SECTION
  2
OBJECTS
  0
DICTIONARY
  5
C
330
0
100
AcDbDictionary
  3
ACAD_GROUP
350
D
  3
ACAD_MLINESTYLE
350
17
  0
DICTIONARY
  5
D
330
C
100
AcDbDictionary
  0
DICTIONARY
  5
1A
330
C
100
AcDbDictionary
  0
DICTIONARY
  5
17
330
C
100
AcDbDictionary
  3
STANDARD
350
18
  0
DICTIONARY
  5
19
330
C
100
AcDbDictionary
  0
ENDSEC
  0
EOF
