G75*
G70*
%OFA0B0*%
%FSLAX24Y24*%
%IPPOS*%
%LPD*%
%AMOC8*
5,1,8,0,0,1.08239X$1,22.5*
%
%ADD10C,0.1182*%
%ADD11C,0.0680*%
%ADD12C,0.0671*%
%ADD13C,0.0560*%
%ADD14R,0.0710X0.0789*%
%ADD15R,0.0790X0.0710*%
%ADD16R,0.0710X0.0790*%
%ADD17C,0.0456*%
%ADD18C,0.0417*%
D10*
X007312Y014151D03*
X020312Y002151D03*
D11*
X019912Y017151D02*
X019912Y017751D01*
X018912Y017751D02*
X018912Y017151D01*
X017912Y017151D02*
X017912Y017751D01*
X016912Y017751D02*
X016912Y017151D01*
X015912Y017151D02*
X015912Y017751D01*
X014912Y017751D02*
X014912Y017151D01*
X013912Y017151D02*
X013912Y017751D01*
X012912Y017751D02*
X012912Y017151D01*
X011912Y017151D02*
X011912Y017751D01*
X010912Y017751D02*
X010912Y017151D01*
X009912Y017151D02*
X009912Y017751D01*
X008912Y017751D02*
X008912Y017151D01*
X007912Y017151D02*
X007912Y017751D01*
X007912Y020151D02*
X007912Y020751D01*
X008912Y020751D02*
X008912Y020151D01*
X009912Y020151D02*
X009912Y020751D01*
X010912Y020751D02*
X010912Y020151D01*
X011912Y020151D02*
X011912Y020751D01*
X012912Y020751D02*
X012912Y020151D01*
X013912Y020151D02*
X013912Y020751D01*
X014912Y020751D02*
X014912Y020151D01*
X015912Y020151D02*
X015912Y020751D01*
X016912Y020751D02*
X016912Y020151D01*
X017912Y020151D02*
X017912Y020751D01*
X018912Y020751D02*
X018912Y020151D01*
X019912Y020151D02*
X019912Y020751D01*
X020912Y020751D02*
X020912Y020151D01*
X020912Y017751D02*
X020912Y017151D01*
X020912Y023151D02*
X020912Y023751D01*
X019912Y023751D02*
X019912Y023151D01*
X018912Y023151D02*
X018912Y023751D01*
X017912Y023751D02*
X017912Y023151D01*
X016912Y023151D02*
X016912Y023751D01*
X015912Y023751D02*
X015912Y023151D01*
X014912Y023151D02*
X014912Y023751D01*
X013912Y023751D02*
X013912Y023151D01*
X012912Y023151D02*
X012912Y023751D01*
X011912Y023751D02*
X011912Y023151D01*
X010912Y023151D02*
X010912Y023751D01*
X009912Y023751D02*
X009912Y023151D01*
X008912Y023151D02*
X008912Y023751D01*
X007912Y023751D02*
X007912Y023151D01*
X005912Y024851D02*
X005912Y025451D01*
X004912Y025451D02*
X004912Y024851D01*
D12*
X006417Y001551D02*
X007008Y001551D01*
X007008Y002551D02*
X006417Y002551D01*
X002808Y017751D02*
X002217Y017751D01*
X002217Y018751D02*
X002808Y018751D01*
X002808Y019751D02*
X002217Y019751D01*
X002217Y020751D02*
X002808Y020751D01*
X002808Y021751D02*
X002217Y021751D01*
X002217Y022751D02*
X002808Y022751D01*
X002808Y023751D02*
X002217Y023751D01*
X002217Y024751D02*
X002808Y024751D01*
D13*
X009912Y024451D03*
X010912Y024451D03*
D14*
X009964Y019151D03*
X008861Y019151D03*
X011861Y016251D03*
X012964Y016251D03*
D15*
X004112Y020391D03*
X004112Y021511D03*
X003912Y023891D03*
X003912Y025011D03*
D16*
X005153Y022451D03*
X006272Y022451D03*
X012853Y024551D03*
X013972Y024551D03*
D17*
X005112Y012551D03*
X003512Y011751D03*
X017212Y004751D03*
X020312Y006451D03*
X020912Y006451D03*
X019412Y011151D03*
D18*
X019012Y008551D03*
X018412Y008551D03*
X017812Y008551D03*
X017212Y008551D03*
X007512Y008551D03*
X006912Y008551D03*
X006312Y008551D03*
X005712Y008551D03*
M02*
