%
M48
M72
T01C0.0197
T02C0.0236
T03C0.0320
T04C0.0394
T05C0.0400
T06C0.1102
%
T01
X5712Y8551
X6312Y8551
X6912Y8551
X7512Y8551
X17212Y8551
X17812Y8551
X18412Y8551
X19012Y8551
T02
X20312Y6451
X20912Y6451
X17212Y4751
X19412Y11151
X5112Y12551
X3512Y11751
T03
X9912Y24451
X10912Y24451
T04
X6712Y1551
X6712Y2551
X2512Y17751
X2512Y18751
X2512Y19751
X2512Y20751
X2512Y21751
X2512Y22751
X2512Y23751
X2512Y24751
T05
X4912Y25151
X5912Y25151
X7912Y23451
X8912Y23451
X9912Y23451
X10912Y23451
X11912Y23451
X12912Y23451
X13912Y23451
X14912Y23451
X15912Y23451
X16912Y23451
X17912Y23451
X18912Y23451
X19912Y23451
X20912Y23451
X20912Y20451
X19912Y20451
X18912Y20451
X17912Y20451
X16912Y20451
X15912Y20451
X14912Y20451
X13912Y20451
X12912Y20451
X11912Y20451
X10912Y20451
X9912Y20451
X8912Y20451
X7912Y20451
X7912Y17451
X8912Y17451
X9912Y17451
X10912Y17451
X11912Y17451
X12912Y17451
X13912Y17451
X14912Y17451
X15912Y17451
X16912Y17451
X17912Y17451
X18912Y17451
X19912Y17451
X20912Y17451
T06
X20312Y2151
X7312Y14151
M30
