G75*
G70*
%OFA0B0*%
%FSLAX24Y24*%
%IPPOS*%
%LPD*%
%AMOC8*
5,1,8,0,0,1.08239X$1,22.5*
%
%ADD10C,0.1182*%
%ADD11R,0.0126X0.0402*%
%ADD12R,0.0114X0.0390*%
%ADD13R,0.4921X0.2047*%
%ADD14R,0.0907X0.0395*%
%ADD15R,0.1084X0.1734*%
%ADD16R,0.0710X0.0789*%
%ADD17R,0.0710X0.0790*%
%ADD18C,0.0680*%
%ADD19R,0.0790X0.0710*%
%ADD20C,0.0671*%
%ADD21C,0.0560*%
%ADD22R,0.2206X0.2521*%
%ADD23R,0.0474X0.0710*%
%ADD24R,0.0789X0.0710*%
%ADD25C,0.0456*%
%ADD26C,0.0417*%
D10*
X007312Y014151D03*
X020312Y002151D03*
D11*
X020416Y006996D03*
X020160Y006996D03*
X019904Y006996D03*
X019648Y006996D03*
X019392Y006996D03*
X019136Y006996D03*
X018880Y006996D03*
X018624Y006996D03*
X018368Y006996D03*
X018112Y006996D03*
X017857Y006996D03*
X017601Y006996D03*
X017345Y006996D03*
X017089Y006996D03*
X016833Y006996D03*
X016577Y006996D03*
X016321Y006996D03*
X016065Y006996D03*
X015809Y006996D03*
X015809Y010106D03*
X016065Y010106D03*
X016321Y010106D03*
X016577Y010106D03*
X016833Y010106D03*
X017089Y010106D03*
X017345Y010106D03*
X017601Y010106D03*
X017857Y010106D03*
X018112Y010106D03*
X018368Y010106D03*
X018624Y010106D03*
X018880Y010106D03*
X019136Y010106D03*
X019392Y010106D03*
X019648Y010106D03*
X019904Y010106D03*
X020160Y010106D03*
X020416Y010106D03*
X008916Y010106D03*
X008660Y010106D03*
X008404Y010106D03*
X008148Y010106D03*
X007892Y010106D03*
X007636Y010106D03*
X007380Y010106D03*
X007124Y010106D03*
X006868Y010106D03*
X006612Y010106D03*
X006357Y010106D03*
X006101Y010106D03*
X005845Y010106D03*
X005589Y010106D03*
X005333Y010106D03*
X005077Y010106D03*
X004821Y010106D03*
X004565Y010106D03*
X004309Y010106D03*
X004309Y006996D03*
X004565Y006996D03*
X004821Y006996D03*
X005077Y006996D03*
X005333Y006996D03*
X005589Y006996D03*
X005845Y006996D03*
X006101Y006996D03*
X006357Y006996D03*
X006612Y006996D03*
X006868Y006996D03*
X007124Y006996D03*
X007380Y006996D03*
X007636Y006996D03*
X007892Y006996D03*
X008148Y006996D03*
X008404Y006996D03*
X008660Y006996D03*
X008916Y006996D03*
D12*
X008916Y006996D03*
X008660Y006996D03*
X008404Y006996D03*
X008148Y006996D03*
X007892Y006996D03*
X007636Y006996D03*
X007380Y006996D03*
X007124Y006996D03*
X006868Y006996D03*
X006612Y006996D03*
X006357Y006996D03*
X006101Y006996D03*
X005845Y006996D03*
X005589Y006996D03*
X005333Y006996D03*
X005077Y006996D03*
X004821Y006996D03*
X004565Y006996D03*
X004309Y006996D03*
X004309Y010106D03*
X004565Y010106D03*
X004821Y010106D03*
X005077Y010106D03*
X005333Y010106D03*
X005589Y010106D03*
X005845Y010106D03*
X006101Y010106D03*
X006357Y010106D03*
X006612Y010106D03*
X006868Y010106D03*
X007124Y010106D03*
X007380Y010106D03*
X007636Y010106D03*
X007892Y010106D03*
X008148Y010106D03*
X008404Y010106D03*
X008660Y010106D03*
X008916Y010106D03*
X015809Y010106D03*
X016065Y010106D03*
X016321Y010106D03*
X016577Y010106D03*
X016833Y010106D03*
X017089Y010106D03*
X017345Y010106D03*
X017601Y010106D03*
X017857Y010106D03*
X018112Y010106D03*
X018368Y010106D03*
X018624Y010106D03*
X018880Y010106D03*
X019136Y010106D03*
X019392Y010106D03*
X019648Y010106D03*
X019904Y010106D03*
X020160Y010106D03*
X020416Y010106D03*
X020416Y006996D03*
X020160Y006996D03*
X019904Y006996D03*
X019648Y006996D03*
X019392Y006996D03*
X019136Y006996D03*
X018880Y006996D03*
X018624Y006996D03*
X018368Y006996D03*
X018112Y006996D03*
X017857Y006996D03*
X017601Y006996D03*
X017345Y006996D03*
X017089Y006996D03*
X016833Y006996D03*
X016577Y006996D03*
X016321Y006996D03*
X016065Y006996D03*
X015809Y006996D03*
D13*
X018112Y008551D03*
X006612Y008551D03*
D14*
X011199Y008305D03*
X011199Y007813D03*
X011199Y007321D03*
X011199Y006829D03*
X011199Y006337D03*
X011199Y005844D03*
X011199Y005352D03*
X011199Y004860D03*
X011199Y004368D03*
X011199Y003876D03*
X013483Y003876D03*
X013483Y004368D03*
X013483Y004860D03*
X013483Y005352D03*
X013483Y005844D03*
X013483Y006337D03*
X013483Y006829D03*
X013483Y007321D03*
X013483Y007813D03*
X013483Y008305D03*
X013483Y008797D03*
X013483Y009289D03*
X013483Y009781D03*
X013483Y010274D03*
X013483Y010766D03*
X013483Y011258D03*
X013483Y011750D03*
X013483Y012242D03*
X013483Y012734D03*
X013483Y013226D03*
X011199Y013226D03*
X011199Y012734D03*
X011199Y012242D03*
X011199Y011750D03*
X011199Y011258D03*
X011199Y010766D03*
X011199Y010274D03*
X011199Y009781D03*
X011199Y009289D03*
X011199Y008797D03*
D15*
X011110Y014358D03*
X013945Y014358D03*
X013945Y002744D03*
X011110Y002744D03*
D16*
X015161Y004751D03*
X016264Y004751D03*
X018861Y005451D03*
X019964Y005451D03*
X012064Y021951D03*
X010961Y021951D03*
X009864Y021951D03*
X008761Y021951D03*
X005364Y011751D03*
X004261Y011751D03*
X002464Y006351D03*
X001361Y006351D03*
D17*
X004253Y013351D03*
X005372Y013351D03*
X018253Y004251D03*
X019372Y004251D03*
X020053Y015851D03*
X021172Y015851D03*
D18*
X020912Y017151D02*
X020912Y017751D01*
X019912Y017751D02*
X019912Y017151D01*
X018912Y017151D02*
X018912Y017751D01*
X017912Y017751D02*
X017912Y017151D01*
X016912Y017151D02*
X016912Y017751D01*
X015912Y017751D02*
X015912Y017151D01*
X014912Y017151D02*
X014912Y017751D01*
X013912Y017751D02*
X013912Y017151D01*
X012912Y017151D02*
X012912Y017751D01*
X011912Y017751D02*
X011912Y017151D01*
X010912Y017151D02*
X010912Y017751D01*
X009912Y017751D02*
X009912Y017151D01*
X008912Y017151D02*
X008912Y017751D01*
X007912Y017751D02*
X007912Y017151D01*
X007912Y020151D02*
X007912Y020751D01*
X008912Y020751D02*
X008912Y020151D01*
X009912Y020151D02*
X009912Y020751D01*
X010912Y020751D02*
X010912Y020151D01*
X011912Y020151D02*
X011912Y020751D01*
X012912Y020751D02*
X012912Y020151D01*
X013912Y020151D02*
X013912Y020751D01*
X014912Y020751D02*
X014912Y020151D01*
X015912Y020151D02*
X015912Y020751D01*
X016912Y020751D02*
X016912Y020151D01*
X017912Y020151D02*
X017912Y020751D01*
X018912Y020751D02*
X018912Y020151D01*
X019912Y020151D02*
X019912Y020751D01*
X020912Y020751D02*
X020912Y020151D01*
X020912Y023151D02*
X020912Y023751D01*
X019912Y023751D02*
X019912Y023151D01*
X018912Y023151D02*
X018912Y023751D01*
X017912Y023751D02*
X017912Y023151D01*
X016912Y023151D02*
X016912Y023751D01*
X015912Y023751D02*
X015912Y023151D01*
X014912Y023151D02*
X014912Y023751D01*
X013912Y023751D02*
X013912Y023151D01*
X012912Y023151D02*
X012912Y023751D01*
X011912Y023751D02*
X011912Y023151D01*
X010912Y023151D02*
X010912Y023751D01*
X009912Y023751D02*
X009912Y023151D01*
X008912Y023151D02*
X008912Y023751D01*
X007912Y023751D02*
X007912Y023151D01*
X005912Y024851D02*
X005912Y025451D01*
X004912Y025451D02*
X004912Y024851D01*
D19*
X005012Y021511D03*
X005012Y020391D03*
X005012Y019311D03*
X005012Y018191D03*
X003112Y013911D03*
X003112Y012791D03*
D20*
X002808Y017751D02*
X002217Y017751D01*
X002217Y018751D02*
X002808Y018751D01*
X002808Y019751D02*
X002217Y019751D01*
X002217Y020751D02*
X002808Y020751D01*
X002808Y021751D02*
X002217Y021751D01*
X002217Y022751D02*
X002808Y022751D01*
X002808Y023751D02*
X002217Y023751D01*
X002217Y024751D02*
X002808Y024751D01*
X006417Y002551D02*
X007008Y002551D01*
X007008Y001551D02*
X006417Y001551D01*
D21*
X009912Y024451D03*
X010912Y024451D03*
D22*
X002312Y002667D03*
D23*
X001415Y005541D03*
X003210Y005541D03*
D24*
X004512Y002902D03*
X004512Y001800D03*
D25*
X003512Y011751D03*
X005112Y012551D03*
X017212Y004751D03*
X020312Y006451D03*
X020912Y006451D03*
X019412Y011151D03*
D26*
X019012Y008551D03*
X018412Y008551D03*
X017812Y008551D03*
X017212Y008551D03*
X007512Y008551D03*
X006912Y008551D03*
X006312Y008551D03*
X005712Y008551D03*
M02*
