G75*
G70*
%OFA0B0*%
%FSLAX24Y24*%
%IPPOS*%
%LPD*%
%AMOC8*
5,1,8,0,0,1.08239X$1,22.5*
%
%ADD10C,0.0000*%
D10*
X000312Y000151D02*
X000312Y026151D01*
X022312Y026151D01*
X022312Y000151D01*
X000312Y000151D01*
X006761Y014151D02*
X006763Y014198D01*
X006769Y014244D01*
X006779Y014290D01*
X006792Y014335D01*
X006810Y014378D01*
X006831Y014420D01*
X006855Y014460D01*
X006883Y014497D01*
X006914Y014532D01*
X006948Y014565D01*
X006984Y014594D01*
X007023Y014620D01*
X007064Y014643D01*
X007107Y014662D01*
X007151Y014678D01*
X007196Y014690D01*
X007242Y014698D01*
X007289Y014702D01*
X007335Y014702D01*
X007382Y014698D01*
X007428Y014690D01*
X007473Y014678D01*
X007517Y014662D01*
X007560Y014643D01*
X007601Y014620D01*
X007640Y014594D01*
X007676Y014565D01*
X007710Y014532D01*
X007741Y014497D01*
X007769Y014460D01*
X007793Y014420D01*
X007814Y014378D01*
X007832Y014335D01*
X007845Y014290D01*
X007855Y014244D01*
X007861Y014198D01*
X007863Y014151D01*
X007861Y014104D01*
X007855Y014058D01*
X007845Y014012D01*
X007832Y013967D01*
X007814Y013924D01*
X007793Y013882D01*
X007769Y013842D01*
X007741Y013805D01*
X007710Y013770D01*
X007676Y013737D01*
X007640Y013708D01*
X007601Y013682D01*
X007560Y013659D01*
X007517Y013640D01*
X007473Y013624D01*
X007428Y013612D01*
X007382Y013604D01*
X007335Y013600D01*
X007289Y013600D01*
X007242Y013604D01*
X007196Y013612D01*
X007151Y013624D01*
X007107Y013640D01*
X007064Y013659D01*
X007023Y013682D01*
X006984Y013708D01*
X006948Y013737D01*
X006914Y013770D01*
X006883Y013805D01*
X006855Y013842D01*
X006831Y013882D01*
X006810Y013924D01*
X006792Y013967D01*
X006779Y014012D01*
X006769Y014058D01*
X006763Y014104D01*
X006761Y014151D01*
X019761Y002151D02*
X019763Y002198D01*
X019769Y002244D01*
X019779Y002290D01*
X019792Y002335D01*
X019810Y002378D01*
X019831Y002420D01*
X019855Y002460D01*
X019883Y002497D01*
X019914Y002532D01*
X019948Y002565D01*
X019984Y002594D01*
X020023Y002620D01*
X020064Y002643D01*
X020107Y002662D01*
X020151Y002678D01*
X020196Y002690D01*
X020242Y002698D01*
X020289Y002702D01*
X020335Y002702D01*
X020382Y002698D01*
X020428Y002690D01*
X020473Y002678D01*
X020517Y002662D01*
X020560Y002643D01*
X020601Y002620D01*
X020640Y002594D01*
X020676Y002565D01*
X020710Y002532D01*
X020741Y002497D01*
X020769Y002460D01*
X020793Y002420D01*
X020814Y002378D01*
X020832Y002335D01*
X020845Y002290D01*
X020855Y002244D01*
X020861Y002198D01*
X020863Y002151D01*
X020861Y002104D01*
X020855Y002058D01*
X020845Y002012D01*
X020832Y001967D01*
X020814Y001924D01*
X020793Y001882D01*
X020769Y001842D01*
X020741Y001805D01*
X020710Y001770D01*
X020676Y001737D01*
X020640Y001708D01*
X020601Y001682D01*
X020560Y001659D01*
X020517Y001640D01*
X020473Y001624D01*
X020428Y001612D01*
X020382Y001604D01*
X020335Y001600D01*
X020289Y001600D01*
X020242Y001604D01*
X020196Y001612D01*
X020151Y001624D01*
X020107Y001640D01*
X020064Y001659D01*
X020023Y001682D01*
X019984Y001708D01*
X019948Y001737D01*
X019914Y001770D01*
X019883Y001805D01*
X019855Y001842D01*
X019831Y001882D01*
X019810Y001924D01*
X019792Y001967D01*
X019779Y002012D01*
X019769Y002058D01*
X019763Y002104D01*
X019761Y002151D01*
M02*
