G75*
G70*
%OFA0B0*%
%FSLAX24Y24*%
%IPPOS*%
%LPD*%
%AMOC8*
5,1,8,0,0,1.08239X$1,22.5*
%
%ADD10C,0.0600*%
%ADD11C,0.0591*%
%ADD12C,0.0480*%
%ADD13R,0.0630X0.0709*%
%ADD14R,0.0710X0.0630*%
%ADD15R,0.0630X0.0710*%
%ADD16C,0.0376*%
%ADD17C,0.0300*%
%ADD18C,0.0100*%
%ADD19C,0.0337*%
%ADD20C,0.0200*%
D10*
X007912Y017151D02*
X007912Y017751D01*
X008912Y017751D02*
X008912Y017151D01*
X009912Y017151D02*
X009912Y017751D01*
X010912Y017751D02*
X010912Y017151D01*
X011912Y017151D02*
X011912Y017751D01*
X012912Y017751D02*
X012912Y017151D01*
X013912Y017151D02*
X013912Y017751D01*
X014912Y017751D02*
X014912Y017151D01*
X015912Y017151D02*
X015912Y017751D01*
X016912Y017751D02*
X016912Y017151D01*
X017912Y017151D02*
X017912Y017751D01*
X018912Y017751D02*
X018912Y017151D01*
X019912Y017151D02*
X019912Y017751D01*
X020912Y017751D02*
X020912Y017151D01*
X020912Y020151D02*
X020912Y020751D01*
X019912Y020751D02*
X019912Y020151D01*
X018912Y020151D02*
X018912Y020751D01*
X017912Y020751D02*
X017912Y020151D01*
X016912Y020151D02*
X016912Y020751D01*
X015912Y020751D02*
X015912Y020151D01*
X014912Y020151D02*
X014912Y020751D01*
X013912Y020751D02*
X013912Y020151D01*
X012912Y020151D02*
X012912Y020751D01*
X011912Y020751D02*
X011912Y020151D01*
X010912Y020151D02*
X010912Y020751D01*
X009912Y020751D02*
X009912Y020151D01*
X008912Y020151D02*
X008912Y020751D01*
X007912Y020751D02*
X007912Y020151D01*
X007912Y023151D02*
X007912Y023751D01*
X008912Y023751D02*
X008912Y023151D01*
X009912Y023151D02*
X009912Y023751D01*
X010912Y023751D02*
X010912Y023151D01*
X011912Y023151D02*
X011912Y023751D01*
X012912Y023751D02*
X012912Y023151D01*
X013912Y023151D02*
X013912Y023751D01*
X014912Y023751D02*
X014912Y023151D01*
X015912Y023151D02*
X015912Y023751D01*
X016912Y023751D02*
X016912Y023151D01*
X017912Y023151D02*
X017912Y023751D01*
X018912Y023751D02*
X018912Y023151D01*
X019912Y023151D02*
X019912Y023751D01*
X020912Y023751D02*
X020912Y023151D01*
X005912Y024851D02*
X005912Y025451D01*
X004912Y025451D02*
X004912Y024851D01*
D11*
X002808Y024751D02*
X002217Y024751D01*
X002217Y023751D02*
X002808Y023751D01*
X002808Y022751D02*
X002217Y022751D01*
X002217Y021751D02*
X002808Y021751D01*
X002808Y020751D02*
X002217Y020751D01*
X002217Y019751D02*
X002808Y019751D01*
X002808Y018751D02*
X002217Y018751D01*
X002217Y017751D02*
X002808Y017751D01*
X006417Y002551D02*
X007008Y002551D01*
X007008Y001551D02*
X006417Y001551D01*
D12*
X009912Y024451D03*
X010912Y024451D03*
D13*
X009964Y019151D03*
X008861Y019151D03*
X011861Y016251D03*
X012964Y016251D03*
D14*
X004112Y020391D03*
X004112Y021511D03*
X003912Y023891D03*
X003912Y025011D03*
D15*
X005153Y022451D03*
X006272Y022451D03*
X012853Y024551D03*
X013972Y024551D03*
D16*
X005112Y012551D03*
X003512Y011751D03*
X017212Y004751D03*
X020312Y006451D03*
X020912Y006451D03*
X019412Y011151D03*
D17*
X006712Y001551D02*
X005912Y001551D01*
X003512Y003951D01*
X003512Y011751D01*
D18*
X000512Y000351D02*
X000512Y025951D01*
X022112Y025951D01*
X022112Y000351D01*
X000512Y000351D01*
X000512Y000447D02*
X022112Y000447D01*
X022112Y000545D02*
X000512Y000545D01*
X000512Y000644D02*
X022112Y000644D01*
X022112Y000742D02*
X000512Y000742D01*
X000512Y000841D02*
X022112Y000841D01*
X022112Y000940D02*
X000512Y000940D01*
X000512Y001038D02*
X022112Y001038D01*
X022112Y001137D02*
X007170Y001137D01*
X007096Y001106D02*
X007260Y001174D01*
X007385Y001299D01*
X007453Y001463D01*
X007453Y001640D01*
X007385Y001803D01*
X007260Y001929D01*
X007096Y001996D01*
X006329Y001996D01*
X006165Y001929D01*
X006087Y001851D01*
X006037Y001851D01*
X003812Y004075D01*
X003812Y011592D01*
X003851Y011684D01*
X003851Y011818D01*
X003799Y011943D01*
X003704Y012038D01*
X003580Y012089D01*
X003445Y012089D01*
X003321Y012038D01*
X003226Y011943D01*
X003174Y011818D01*
X003174Y011684D01*
X003212Y011592D01*
X003212Y003891D01*
X003258Y003781D01*
X003342Y003697D01*
X005742Y001297D01*
X005853Y001251D01*
X005972Y001251D01*
X006087Y001251D01*
X006165Y001174D01*
X006329Y001106D01*
X007096Y001106D01*
X007321Y001235D02*
X022112Y001235D01*
X022112Y001334D02*
X007400Y001334D01*
X007440Y001432D02*
X020085Y001432D01*
X020163Y001400D02*
X020462Y001400D01*
X020738Y001514D01*
X020949Y001726D01*
X021064Y002002D01*
X021064Y002301D01*
X020949Y002577D01*
X020738Y002788D01*
X020462Y002902D01*
X020163Y002902D01*
X019887Y002788D01*
X019676Y002577D01*
X019561Y002301D01*
X019561Y002002D01*
X019676Y001726D01*
X019887Y001514D01*
X020163Y001400D01*
X019871Y001531D02*
X007453Y001531D01*
X007453Y001629D02*
X019772Y001629D01*
X019675Y001728D02*
X007416Y001728D01*
X007362Y001826D02*
X019634Y001826D01*
X019593Y001925D02*
X007264Y001925D01*
X007179Y002139D02*
X007241Y002170D01*
X007298Y002212D01*
X007347Y002261D01*
X007389Y002318D01*
X007420Y002380D01*
X007442Y002447D01*
X007451Y002503D01*
X006761Y002503D01*
X006761Y002600D01*
X006664Y002600D01*
X006664Y002996D01*
X006382Y002996D01*
X006313Y002985D01*
X006246Y002964D01*
X006184Y002932D01*
X006127Y002891D01*
X006078Y002841D01*
X006036Y002785D01*
X006005Y002722D01*
X005983Y002655D01*
X005974Y002600D01*
X006664Y002600D01*
X006664Y002503D01*
X005974Y002503D01*
X005983Y002447D01*
X006005Y002380D01*
X006036Y002318D01*
X006078Y002261D01*
X006127Y002212D01*
X006184Y002170D01*
X006246Y002139D01*
X006313Y002117D01*
X006382Y002106D01*
X006664Y002106D01*
X006664Y002502D01*
X006761Y002502D01*
X006761Y002106D01*
X007043Y002106D01*
X007112Y002117D01*
X007179Y002139D01*
X007128Y002122D02*
X019561Y002122D01*
X019561Y002024D02*
X005864Y002024D01*
X005766Y002122D02*
X006297Y002122D01*
X006118Y002221D02*
X005667Y002221D01*
X005569Y002319D02*
X006036Y002319D01*
X005992Y002418D02*
X005470Y002418D01*
X005372Y002516D02*
X006664Y002516D01*
X006761Y002516D02*
X019651Y002516D01*
X019610Y002418D02*
X007432Y002418D01*
X007389Y002319D02*
X019569Y002319D01*
X019561Y002221D02*
X007307Y002221D01*
X007451Y002600D02*
X007442Y002655D01*
X007420Y002722D01*
X007389Y002785D01*
X007347Y002841D01*
X007298Y002891D01*
X007241Y002932D01*
X007179Y002964D01*
X007112Y002985D01*
X007043Y002996D01*
X006761Y002996D01*
X006761Y002600D01*
X007451Y002600D01*
X007448Y002615D02*
X019714Y002615D01*
X019812Y002713D02*
X007423Y002713D01*
X007369Y002812D02*
X019945Y002812D01*
X020680Y002812D02*
X022112Y002812D01*
X022112Y002910D02*
X007271Y002910D01*
X006761Y002910D02*
X006664Y002910D01*
X006664Y002812D02*
X006761Y002812D01*
X006761Y002713D02*
X006664Y002713D01*
X006664Y002615D02*
X006761Y002615D01*
X006761Y002418D02*
X006664Y002418D01*
X006664Y002319D02*
X006761Y002319D01*
X006761Y002221D02*
X006664Y002221D01*
X006664Y002122D02*
X006761Y002122D01*
X006161Y001925D02*
X005963Y001925D01*
X005509Y001531D02*
X000512Y001531D01*
X000512Y001629D02*
X005410Y001629D01*
X005311Y001728D02*
X000512Y001728D01*
X000512Y001826D02*
X005213Y001826D01*
X005114Y001925D02*
X000512Y001925D01*
X000512Y002024D02*
X005016Y002024D01*
X004917Y002122D02*
X000512Y002122D01*
X000512Y002221D02*
X004819Y002221D01*
X004720Y002319D02*
X000512Y002319D01*
X000512Y002418D02*
X004622Y002418D01*
X004523Y002516D02*
X000512Y002516D01*
X000512Y002615D02*
X004425Y002615D01*
X004326Y002713D02*
X000512Y002713D01*
X000512Y002812D02*
X004227Y002812D01*
X004129Y002910D02*
X000512Y002910D01*
X000512Y003009D02*
X004030Y003009D01*
X003932Y003107D02*
X000512Y003107D01*
X000512Y003206D02*
X003833Y003206D01*
X003735Y003305D02*
X000512Y003305D01*
X000512Y003403D02*
X003636Y003403D01*
X003538Y003502D02*
X000512Y003502D01*
X000512Y003600D02*
X003439Y003600D01*
X003341Y003699D02*
X000512Y003699D01*
X000512Y003797D02*
X003251Y003797D01*
X003212Y003896D02*
X000512Y003896D01*
X000512Y003994D02*
X003212Y003994D01*
X003212Y004093D02*
X000512Y004093D01*
X000512Y004191D02*
X003212Y004191D01*
X003212Y004290D02*
X000512Y004290D01*
X000512Y004389D02*
X003212Y004389D01*
X003212Y004487D02*
X000512Y004487D01*
X000512Y004586D02*
X003212Y004586D01*
X003212Y004684D02*
X000512Y004684D01*
X000512Y004783D02*
X003212Y004783D01*
X003212Y004881D02*
X000512Y004881D01*
X000512Y004980D02*
X003212Y004980D01*
X003212Y005078D02*
X000512Y005078D01*
X000512Y005177D02*
X003212Y005177D01*
X003212Y005275D02*
X000512Y005275D01*
X000512Y005374D02*
X003212Y005374D01*
X003212Y005473D02*
X000512Y005473D01*
X000512Y005571D02*
X003212Y005571D01*
X003212Y005670D02*
X000512Y005670D01*
X000512Y005768D02*
X003212Y005768D01*
X003212Y005867D02*
X000512Y005867D01*
X000512Y005965D02*
X003212Y005965D01*
X003212Y006064D02*
X000512Y006064D01*
X000512Y006162D02*
X003212Y006162D01*
X003212Y006261D02*
X000512Y006261D01*
X000512Y006359D02*
X003212Y006359D01*
X003212Y006458D02*
X000512Y006458D01*
X000512Y006556D02*
X003212Y006556D01*
X003212Y006655D02*
X000512Y006655D01*
X000512Y006754D02*
X003212Y006754D01*
X003212Y006852D02*
X000512Y006852D01*
X000512Y006951D02*
X003212Y006951D01*
X003212Y007049D02*
X000512Y007049D01*
X000512Y007148D02*
X003212Y007148D01*
X003212Y007246D02*
X000512Y007246D01*
X000512Y007345D02*
X003212Y007345D01*
X003212Y007443D02*
X000512Y007443D01*
X000512Y007542D02*
X003212Y007542D01*
X003212Y007640D02*
X000512Y007640D01*
X000512Y007739D02*
X003212Y007739D01*
X003212Y007838D02*
X000512Y007838D01*
X000512Y007936D02*
X003212Y007936D01*
X003212Y008035D02*
X000512Y008035D01*
X000512Y008133D02*
X003212Y008133D01*
X003212Y008232D02*
X000512Y008232D01*
X000512Y008330D02*
X003212Y008330D01*
X003212Y008429D02*
X000512Y008429D01*
X000512Y008527D02*
X003212Y008527D01*
X003212Y008626D02*
X000512Y008626D01*
X000512Y008724D02*
X003212Y008724D01*
X003212Y008823D02*
X000512Y008823D01*
X000512Y008922D02*
X003212Y008922D01*
X003212Y009020D02*
X000512Y009020D01*
X000512Y009119D02*
X003212Y009119D01*
X003212Y009217D02*
X000512Y009217D01*
X000512Y009316D02*
X003212Y009316D01*
X003212Y009414D02*
X000512Y009414D01*
X000512Y009513D02*
X003212Y009513D01*
X003212Y009611D02*
X000512Y009611D01*
X000512Y009710D02*
X003212Y009710D01*
X003212Y009808D02*
X000512Y009808D01*
X000512Y009907D02*
X003212Y009907D01*
X003212Y010006D02*
X000512Y010006D01*
X000512Y010104D02*
X003212Y010104D01*
X003212Y010203D02*
X000512Y010203D01*
X000512Y010301D02*
X003212Y010301D01*
X003212Y010400D02*
X000512Y010400D01*
X000512Y010498D02*
X003212Y010498D01*
X003212Y010597D02*
X000512Y010597D01*
X000512Y010695D02*
X003212Y010695D01*
X003212Y010794D02*
X000512Y010794D01*
X000512Y010892D02*
X003212Y010892D01*
X003212Y010991D02*
X000512Y010991D01*
X000512Y011089D02*
X003212Y011089D01*
X003212Y011188D02*
X000512Y011188D01*
X000512Y011287D02*
X003212Y011287D01*
X003212Y011385D02*
X000512Y011385D01*
X000512Y011484D02*
X003212Y011484D01*
X003212Y011582D02*
X000512Y011582D01*
X000512Y011681D02*
X003176Y011681D01*
X003174Y011779D02*
X000512Y011779D01*
X000512Y011878D02*
X003199Y011878D01*
X003259Y011976D02*
X000512Y011976D01*
X000512Y012075D02*
X003411Y012075D01*
X003614Y012075D02*
X019206Y012075D01*
X019212Y012068D02*
X019212Y011429D01*
X019126Y011343D01*
X019074Y011218D01*
X019074Y011084D01*
X019126Y010960D01*
X019221Y010865D01*
X019345Y010813D01*
X019480Y010813D01*
X019604Y010865D01*
X019699Y010960D01*
X019751Y011084D01*
X019751Y011218D01*
X019699Y011343D01*
X019612Y011429D01*
X019612Y012234D01*
X019495Y012351D01*
X016395Y015451D01*
X016230Y015451D01*
X011112Y015451D01*
X011112Y016747D01*
X011167Y016770D01*
X011294Y016896D01*
X011362Y017062D01*
X011362Y017841D01*
X011294Y018006D01*
X011167Y018133D01*
X011002Y018201D01*
X010823Y018201D01*
X010658Y018133D01*
X010531Y018006D01*
X010462Y017841D01*
X010462Y017062D01*
X010531Y016896D01*
X010658Y016770D01*
X010712Y016747D01*
X010712Y015168D01*
X010830Y015051D01*
X010995Y015051D01*
X016230Y015051D01*
X019212Y012068D01*
X019212Y011976D02*
X003765Y011976D01*
X003826Y011878D02*
X019212Y011878D01*
X019212Y011779D02*
X003851Y011779D01*
X003849Y011681D02*
X019212Y011681D01*
X019212Y011582D02*
X003812Y011582D01*
X003812Y011484D02*
X019212Y011484D01*
X019168Y011385D02*
X003812Y011385D01*
X003812Y011287D02*
X019103Y011287D01*
X019074Y011188D02*
X003812Y011188D01*
X003812Y011089D02*
X019074Y011089D01*
X019113Y010991D02*
X003812Y010991D01*
X003812Y010892D02*
X019193Y010892D01*
X019412Y011151D02*
X019412Y012151D01*
X016312Y015251D01*
X010912Y015251D01*
X010912Y017451D01*
X010462Y017495D02*
X010362Y017495D01*
X010362Y017593D02*
X010462Y017593D01*
X010462Y017692D02*
X010362Y017692D01*
X010362Y017790D02*
X010462Y017790D01*
X010482Y017889D02*
X010342Y017889D01*
X010362Y017841D02*
X010294Y018006D01*
X010199Y018101D01*
X010462Y018101D01*
X010554Y018139D01*
X010624Y018210D01*
X011016Y018601D01*
X020309Y018601D01*
X020662Y018248D01*
X020662Y018135D01*
X020658Y018133D01*
X020531Y018006D01*
X020462Y017841D01*
X020462Y017062D01*
X020531Y016896D01*
X020658Y016770D01*
X020823Y016701D01*
X021002Y016701D01*
X021167Y016770D01*
X021294Y016896D01*
X021362Y017062D01*
X021362Y017841D01*
X021294Y018006D01*
X021167Y018133D01*
X021162Y018135D01*
X021162Y018301D01*
X021162Y018401D01*
X021124Y018493D01*
X020554Y019063D01*
X020462Y019101D01*
X020363Y019101D01*
X010962Y019101D01*
X010863Y019101D01*
X010771Y019063D01*
X010309Y018601D01*
X009111Y018601D01*
X009111Y018647D01*
X009238Y018647D01*
X009326Y018735D01*
X009326Y019568D01*
X009238Y019655D01*
X009131Y019655D01*
X009135Y019756D01*
X009167Y019770D01*
X009294Y019896D01*
X009362Y020062D01*
X009362Y020841D01*
X009294Y021006D01*
X009167Y021133D01*
X009002Y021201D01*
X008823Y021201D01*
X008658Y021133D01*
X008531Y021006D01*
X008462Y020841D01*
X008462Y020062D01*
X008531Y019896D01*
X008636Y019791D01*
X008631Y019655D01*
X008484Y019655D01*
X008396Y019568D01*
X008396Y018735D01*
X008484Y018647D01*
X008611Y018647D01*
X008611Y018301D01*
X008649Y018210D01*
X008706Y018153D01*
X008658Y018133D01*
X008531Y018006D01*
X008462Y017841D01*
X008462Y017062D01*
X008531Y016896D01*
X008658Y016770D01*
X008823Y016701D01*
X009002Y016701D01*
X009167Y016770D01*
X009294Y016896D01*
X009362Y017062D01*
X009362Y017841D01*
X009294Y018006D01*
X009199Y018101D01*
X009626Y018101D01*
X009531Y018006D01*
X009462Y017841D01*
X009462Y017062D01*
X009531Y016896D01*
X009658Y016770D01*
X009823Y016701D01*
X010002Y016701D01*
X010167Y016770D01*
X010294Y016896D01*
X010362Y017062D01*
X010362Y017841D01*
X010302Y017988D02*
X010523Y017988D01*
X010611Y018086D02*
X010214Y018086D01*
X010599Y018185D02*
X010783Y018185D01*
X010698Y018283D02*
X020627Y018283D01*
X020662Y018185D02*
X020035Y018185D01*
X020018Y018190D02*
X020085Y018168D01*
X020148Y018136D01*
X020206Y018094D01*
X020256Y018044D01*
X020297Y017987D01*
X020329Y017924D01*
X020351Y017857D01*
X020362Y017787D01*
X020362Y017501D01*
X019963Y017501D01*
X019963Y017401D01*
X020362Y017401D01*
X020362Y017116D01*
X020351Y017046D01*
X020329Y016978D01*
X020297Y016915D01*
X020256Y016858D01*
X020206Y016808D01*
X020148Y016766D01*
X020085Y016734D01*
X020018Y016712D01*
X019962Y016703D01*
X019962Y017401D01*
X019862Y017401D01*
X019462Y017401D01*
X019462Y017116D01*
X019474Y017046D01*
X019495Y016978D01*
X019528Y016915D01*
X019569Y016858D01*
X019619Y016808D01*
X019677Y016766D01*
X019740Y016734D01*
X019807Y016712D01*
X019862Y016703D01*
X019862Y017401D01*
X019862Y017501D01*
X019462Y017501D01*
X019462Y017787D01*
X019474Y017857D01*
X019495Y017924D01*
X019528Y017987D01*
X019569Y018044D01*
X019619Y018094D01*
X019677Y018136D01*
X019740Y018168D01*
X019807Y018190D01*
X019862Y018199D01*
X019862Y017501D01*
X019962Y017501D01*
X019962Y018199D01*
X020018Y018190D01*
X019962Y018185D02*
X019862Y018185D01*
X019790Y018185D02*
X019042Y018185D01*
X019002Y018201D02*
X018823Y018201D01*
X018658Y018133D01*
X018531Y018006D01*
X018462Y017841D01*
X018462Y017062D01*
X018531Y016896D01*
X018658Y016770D01*
X018823Y016701D01*
X019002Y016701D01*
X019167Y016770D01*
X019294Y016896D01*
X019362Y017062D01*
X019362Y017841D01*
X019294Y018006D01*
X019167Y018133D01*
X019002Y018201D01*
X018783Y018185D02*
X018042Y018185D01*
X018002Y018201D02*
X017823Y018201D01*
X017658Y018133D01*
X017531Y018006D01*
X017462Y017841D01*
X017462Y017062D01*
X017531Y016896D01*
X017658Y016770D01*
X017823Y016701D01*
X018002Y016701D01*
X018167Y016770D01*
X018294Y016896D01*
X018362Y017062D01*
X018362Y017841D01*
X018294Y018006D01*
X018167Y018133D01*
X018002Y018201D01*
X017783Y018185D02*
X017042Y018185D01*
X017002Y018201D02*
X016823Y018201D01*
X016658Y018133D01*
X016531Y018006D01*
X016462Y017841D01*
X016462Y017184D01*
X016362Y017284D01*
X016362Y017841D01*
X016294Y018006D01*
X016167Y018133D01*
X016002Y018201D01*
X015823Y018201D01*
X015658Y018133D01*
X015531Y018006D01*
X015462Y017841D01*
X015462Y017062D01*
X015531Y016896D01*
X015658Y016770D01*
X015823Y016701D01*
X016002Y016701D01*
X016167Y016770D01*
X016239Y016842D01*
X020712Y012368D01*
X020712Y006729D01*
X020626Y006643D01*
X020612Y006610D01*
X020599Y006643D01*
X020504Y006738D01*
X020380Y006789D01*
X020257Y006789D01*
X020212Y006834D01*
X020212Y012634D01*
X020095Y012751D01*
X016195Y016651D01*
X016030Y016651D01*
X015595Y016651D01*
X015310Y016936D01*
X015362Y017062D01*
X015362Y017841D01*
X015294Y018006D01*
X015167Y018133D01*
X015002Y018201D01*
X014823Y018201D01*
X014658Y018133D01*
X014531Y018006D01*
X014462Y017841D01*
X014462Y017062D01*
X014531Y016896D01*
X014658Y016770D01*
X014823Y016701D01*
X014980Y016701D01*
X015430Y016251D01*
X015595Y016251D01*
X016030Y016251D01*
X019812Y012468D01*
X019812Y006668D01*
X019930Y006551D01*
X019974Y006506D01*
X019974Y006384D01*
X020026Y006260D01*
X020121Y006165D01*
X020245Y006113D01*
X020380Y006113D01*
X020504Y006165D01*
X020599Y006260D01*
X020612Y006292D01*
X020626Y006260D01*
X020721Y006165D01*
X020845Y006113D01*
X020980Y006113D01*
X021104Y006165D01*
X021199Y006260D01*
X021251Y006384D01*
X021251Y006518D01*
X021199Y006643D01*
X021112Y006729D01*
X021112Y012368D01*
X021112Y012534D01*
X016945Y016701D01*
X017002Y016701D01*
X017167Y016770D01*
X017294Y016896D01*
X017362Y017062D01*
X017362Y017841D01*
X017294Y018006D01*
X017167Y018133D01*
X017002Y018201D01*
X016783Y018185D02*
X016042Y018185D01*
X016214Y018086D02*
X016611Y018086D01*
X016523Y017988D02*
X016302Y017988D01*
X016342Y017889D02*
X016482Y017889D01*
X016462Y017790D02*
X016362Y017790D01*
X016362Y017692D02*
X016462Y017692D01*
X016462Y017593D02*
X016362Y017593D01*
X016362Y017495D02*
X016462Y017495D01*
X016462Y017396D02*
X016362Y017396D01*
X016362Y017298D02*
X016462Y017298D01*
X016462Y017199D02*
X016447Y017199D01*
X016276Y016805D02*
X016203Y016805D01*
X016374Y016706D02*
X016015Y016706D01*
X015810Y016706D02*
X015540Y016706D01*
X015622Y016805D02*
X015441Y016805D01*
X015528Y016904D02*
X015343Y016904D01*
X015338Y017002D02*
X015487Y017002D01*
X015462Y017101D02*
X015362Y017101D01*
X015362Y017199D02*
X015462Y017199D01*
X015462Y017298D02*
X015362Y017298D01*
X015362Y017396D02*
X015462Y017396D01*
X015462Y017495D02*
X015362Y017495D01*
X015362Y017593D02*
X015462Y017593D01*
X015462Y017692D02*
X015362Y017692D01*
X015362Y017790D02*
X015462Y017790D01*
X015482Y017889D02*
X015342Y017889D01*
X015302Y017988D02*
X015523Y017988D01*
X015611Y018086D02*
X015214Y018086D01*
X015042Y018185D02*
X015783Y018185D01*
X015912Y017451D02*
X020912Y012451D01*
X020912Y006451D01*
X021251Y006458D02*
X022112Y006458D01*
X022112Y006556D02*
X021235Y006556D01*
X021187Y006655D02*
X022112Y006655D01*
X022112Y006754D02*
X021112Y006754D01*
X021112Y006852D02*
X022112Y006852D01*
X022112Y006951D02*
X021112Y006951D01*
X021112Y007049D02*
X022112Y007049D01*
X022112Y007148D02*
X021112Y007148D01*
X021112Y007246D02*
X022112Y007246D01*
X022112Y007345D02*
X021112Y007345D01*
X021112Y007443D02*
X022112Y007443D01*
X022112Y007542D02*
X021112Y007542D01*
X021112Y007640D02*
X022112Y007640D01*
X022112Y007739D02*
X021112Y007739D01*
X021112Y007838D02*
X022112Y007838D01*
X022112Y007936D02*
X021112Y007936D01*
X021112Y008035D02*
X022112Y008035D01*
X022112Y008133D02*
X021112Y008133D01*
X021112Y008232D02*
X022112Y008232D01*
X022112Y008330D02*
X021112Y008330D01*
X021112Y008429D02*
X022112Y008429D01*
X022112Y008527D02*
X021112Y008527D01*
X021112Y008626D02*
X022112Y008626D01*
X022112Y008724D02*
X021112Y008724D01*
X021112Y008823D02*
X022112Y008823D01*
X022112Y008922D02*
X021112Y008922D01*
X021112Y009020D02*
X022112Y009020D01*
X022112Y009119D02*
X021112Y009119D01*
X021112Y009217D02*
X022112Y009217D01*
X022112Y009316D02*
X021112Y009316D01*
X021112Y009414D02*
X022112Y009414D01*
X022112Y009513D02*
X021112Y009513D01*
X021112Y009611D02*
X022112Y009611D01*
X022112Y009710D02*
X021112Y009710D01*
X021112Y009808D02*
X022112Y009808D01*
X022112Y009907D02*
X021112Y009907D01*
X021112Y010006D02*
X022112Y010006D01*
X022112Y010104D02*
X021112Y010104D01*
X021112Y010203D02*
X022112Y010203D01*
X022112Y010301D02*
X021112Y010301D01*
X021112Y010400D02*
X022112Y010400D01*
X022112Y010498D02*
X021112Y010498D01*
X021112Y010597D02*
X022112Y010597D01*
X022112Y010695D02*
X021112Y010695D01*
X021112Y010794D02*
X022112Y010794D01*
X022112Y010892D02*
X021112Y010892D01*
X021112Y010991D02*
X022112Y010991D01*
X022112Y011089D02*
X021112Y011089D01*
X021112Y011188D02*
X022112Y011188D01*
X022112Y011287D02*
X021112Y011287D01*
X021112Y011385D02*
X022112Y011385D01*
X022112Y011484D02*
X021112Y011484D01*
X021112Y011582D02*
X022112Y011582D01*
X022112Y011681D02*
X021112Y011681D01*
X021112Y011779D02*
X022112Y011779D01*
X022112Y011878D02*
X021112Y011878D01*
X021112Y011976D02*
X022112Y011976D01*
X022112Y012075D02*
X021112Y012075D01*
X021112Y012173D02*
X022112Y012173D01*
X022112Y012272D02*
X021112Y012272D01*
X021112Y012371D02*
X022112Y012371D01*
X022112Y012469D02*
X021112Y012469D01*
X021079Y012568D02*
X022112Y012568D01*
X022112Y012666D02*
X020980Y012666D01*
X020882Y012765D02*
X022112Y012765D01*
X022112Y012863D02*
X020783Y012863D01*
X020685Y012962D02*
X022112Y012962D01*
X022112Y013060D02*
X020586Y013060D01*
X020488Y013159D02*
X022112Y013159D01*
X022112Y013257D02*
X020389Y013257D01*
X020290Y013356D02*
X022112Y013356D01*
X022112Y013455D02*
X020192Y013455D01*
X020093Y013553D02*
X022112Y013553D01*
X022112Y013652D02*
X019995Y013652D01*
X019896Y013750D02*
X022112Y013750D01*
X022112Y013849D02*
X019798Y013849D01*
X019699Y013947D02*
X022112Y013947D01*
X022112Y014046D02*
X019601Y014046D01*
X019502Y014144D02*
X022112Y014144D01*
X022112Y014243D02*
X019404Y014243D01*
X019305Y014341D02*
X022112Y014341D01*
X022112Y014440D02*
X019206Y014440D01*
X019108Y014539D02*
X022112Y014539D01*
X022112Y014637D02*
X019009Y014637D01*
X018911Y014736D02*
X022112Y014736D01*
X022112Y014834D02*
X018812Y014834D01*
X018714Y014933D02*
X022112Y014933D01*
X022112Y015031D02*
X018615Y015031D01*
X018517Y015130D02*
X022112Y015130D01*
X022112Y015228D02*
X018418Y015228D01*
X018320Y015327D02*
X022112Y015327D01*
X022112Y015425D02*
X018221Y015425D01*
X018122Y015524D02*
X022112Y015524D01*
X022112Y015622D02*
X018024Y015622D01*
X017925Y015721D02*
X022112Y015721D01*
X022112Y015820D02*
X017827Y015820D01*
X017728Y015918D02*
X022112Y015918D01*
X022112Y016017D02*
X017630Y016017D01*
X017531Y016115D02*
X022112Y016115D01*
X022112Y016214D02*
X017433Y016214D01*
X017334Y016312D02*
X022112Y016312D01*
X022112Y016411D02*
X017236Y016411D01*
X017137Y016509D02*
X022112Y016509D01*
X022112Y016608D02*
X017039Y016608D01*
X017015Y016706D02*
X017810Y016706D01*
X018015Y016706D02*
X018810Y016706D01*
X019015Y016706D02*
X019844Y016706D01*
X019862Y016706D02*
X019962Y016706D01*
X019981Y016706D02*
X020810Y016706D01*
X021015Y016706D02*
X022112Y016706D01*
X022112Y016805D02*
X021203Y016805D01*
X021297Y016904D02*
X022112Y016904D01*
X022112Y017002D02*
X021338Y017002D01*
X021362Y017101D02*
X022112Y017101D01*
X022112Y017199D02*
X021362Y017199D01*
X021362Y017298D02*
X022112Y017298D01*
X022112Y017396D02*
X021362Y017396D01*
X021362Y017495D02*
X022112Y017495D01*
X022112Y017593D02*
X021362Y017593D01*
X021362Y017692D02*
X022112Y017692D01*
X022112Y017790D02*
X021362Y017790D01*
X021342Y017889D02*
X022112Y017889D01*
X022112Y017988D02*
X021302Y017988D01*
X021214Y018086D02*
X022112Y018086D01*
X022112Y018185D02*
X021162Y018185D01*
X021162Y018283D02*
X022112Y018283D01*
X022112Y018382D02*
X021162Y018382D01*
X021130Y018480D02*
X022112Y018480D01*
X022112Y018579D02*
X021038Y018579D01*
X020940Y018677D02*
X022112Y018677D01*
X022112Y018776D02*
X020841Y018776D01*
X020743Y018874D02*
X022112Y018874D01*
X022112Y018973D02*
X020644Y018973D01*
X020534Y019071D02*
X022112Y019071D01*
X022112Y019170D02*
X010014Y019170D01*
X010014Y019201D02*
X010014Y019101D01*
X010429Y019101D01*
X010429Y018777D01*
X010418Y018739D01*
X010399Y018705D01*
X010371Y018677D01*
X010385Y018677D01*
X010371Y018677D02*
X010336Y018657D01*
X010298Y018647D01*
X010014Y018647D01*
X010014Y019101D01*
X009914Y019101D01*
X009914Y018647D01*
X009629Y018647D01*
X009591Y018657D01*
X009557Y018677D01*
X009529Y018705D01*
X009509Y018739D01*
X009499Y018777D01*
X009499Y019101D01*
X009913Y019101D01*
X009913Y019201D01*
X009499Y019201D01*
X009499Y019525D01*
X009509Y019563D01*
X009529Y019598D01*
X009557Y019626D01*
X009591Y019645D01*
X009629Y019655D01*
X009914Y019655D01*
X009914Y019201D01*
X010014Y019201D01*
X010429Y019201D01*
X010429Y019525D01*
X010418Y019563D01*
X010399Y019598D01*
X010371Y019626D01*
X010336Y019645D01*
X010298Y019655D01*
X010014Y019655D01*
X010014Y019201D01*
X010014Y019269D02*
X009914Y019269D01*
X009914Y019367D02*
X010014Y019367D01*
X010014Y019466D02*
X009914Y019466D01*
X009914Y019564D02*
X010014Y019564D01*
X010002Y019701D02*
X010167Y019770D01*
X010294Y019896D01*
X010362Y020062D01*
X010362Y020841D01*
X010294Y021006D01*
X010167Y021133D01*
X010002Y021201D01*
X009823Y021201D01*
X009658Y021133D01*
X009531Y021006D01*
X009462Y020841D01*
X009462Y020062D01*
X009531Y019896D01*
X009658Y019770D01*
X009823Y019701D01*
X010002Y019701D01*
X010147Y019761D02*
X010678Y019761D01*
X010658Y019770D02*
X010823Y019701D01*
X011002Y019701D01*
X011167Y019770D01*
X011294Y019896D01*
X011362Y020062D01*
X011362Y020841D01*
X011294Y021006D01*
X011167Y021133D01*
X011002Y021201D01*
X010823Y021201D01*
X010658Y021133D01*
X010531Y021006D01*
X010462Y020841D01*
X010462Y020062D01*
X010531Y019896D01*
X010658Y019770D01*
X010567Y019860D02*
X010257Y019860D01*
X010320Y019958D02*
X010505Y019958D01*
X010464Y020057D02*
X010360Y020057D01*
X010362Y020155D02*
X010462Y020155D01*
X010462Y020254D02*
X010362Y020254D01*
X010362Y020353D02*
X010462Y020353D01*
X010462Y020451D02*
X010362Y020451D01*
X010362Y020550D02*
X010462Y020550D01*
X010462Y020648D02*
X010362Y020648D01*
X010362Y020747D02*
X010462Y020747D01*
X010464Y020845D02*
X010361Y020845D01*
X010320Y020944D02*
X010505Y020944D01*
X010567Y021042D02*
X010258Y021042D01*
X010147Y021141D02*
X010678Y021141D01*
X011147Y021141D02*
X011662Y021141D01*
X011662Y021135D02*
X011658Y021133D01*
X011531Y021006D01*
X011462Y020841D01*
X011462Y020062D01*
X011531Y019896D01*
X011658Y019770D01*
X011823Y019701D01*
X012002Y019701D01*
X012167Y019770D01*
X012294Y019896D01*
X012362Y020062D01*
X012362Y020841D01*
X012294Y021006D01*
X012167Y021133D01*
X012162Y021135D01*
X012162Y022768D01*
X012167Y022770D01*
X012294Y022896D01*
X012362Y023062D01*
X012362Y023841D01*
X012294Y024006D01*
X012167Y024133D01*
X012112Y024155D01*
X012112Y024168D01*
X012112Y024334D01*
X011595Y024851D01*
X012270Y024851D01*
X012388Y024733D01*
X012388Y024134D01*
X012475Y024046D01*
X012571Y024046D01*
X012531Y024006D01*
X012462Y023841D01*
X012462Y023062D01*
X012531Y022896D01*
X012658Y022770D01*
X012662Y022768D01*
X012662Y021135D01*
X012658Y021133D01*
X012531Y021006D01*
X012462Y020841D01*
X012462Y020062D01*
X012531Y019896D01*
X012658Y019770D01*
X012823Y019701D01*
X013002Y019701D01*
X013167Y019770D01*
X013294Y019896D01*
X013362Y020062D01*
X013362Y020841D01*
X013294Y021006D01*
X013167Y021133D01*
X013162Y021135D01*
X013162Y022768D01*
X013167Y022770D01*
X013294Y022896D01*
X013362Y023062D01*
X013362Y023841D01*
X013294Y024006D01*
X013242Y024058D01*
X013318Y024134D01*
X013318Y024968D01*
X013235Y025051D01*
X013620Y025051D01*
X013599Y025046D01*
X013565Y025026D01*
X013537Y024998D01*
X013518Y024964D01*
X013507Y024926D01*
X013507Y024601D01*
X013922Y024601D01*
X013922Y024501D01*
X013507Y024501D01*
X013507Y024176D01*
X013518Y024138D01*
X013537Y024104D01*
X013565Y024076D01*
X013588Y024063D01*
X013569Y024044D01*
X013528Y023987D01*
X013495Y023924D01*
X013474Y023857D01*
X013462Y023787D01*
X013462Y023501D01*
X013862Y023501D01*
X013862Y023401D01*
X013462Y023401D01*
X013462Y023116D01*
X013474Y023046D01*
X013495Y022978D01*
X013528Y022915D01*
X013301Y022915D01*
X013342Y023013D02*
X013484Y023013D01*
X013463Y023112D02*
X013362Y023112D01*
X013362Y023210D02*
X013462Y023210D01*
X013462Y023309D02*
X013362Y023309D01*
X013362Y023407D02*
X013862Y023407D01*
X013862Y023401D02*
X013962Y023401D01*
X013962Y022703D01*
X014018Y022712D01*
X014085Y022734D01*
X014148Y022766D01*
X014206Y022808D01*
X014256Y022858D01*
X014297Y022915D01*
X014523Y022915D01*
X014531Y022896D02*
X014658Y022770D01*
X014823Y022701D01*
X015002Y022701D01*
X015167Y022770D01*
X015294Y022896D01*
X015362Y023062D01*
X015362Y023841D01*
X015294Y024006D01*
X015167Y024133D01*
X015002Y024201D01*
X014823Y024201D01*
X014658Y024133D01*
X014531Y024006D01*
X014462Y023841D01*
X014462Y023062D01*
X014531Y022896D01*
X014611Y022816D02*
X014214Y022816D01*
X014297Y022915D02*
X014329Y022978D01*
X014351Y023046D01*
X014362Y023116D01*
X014362Y023401D01*
X013963Y023401D01*
X013963Y023501D01*
X014362Y023501D01*
X014362Y023787D01*
X014351Y023857D01*
X014329Y023924D01*
X014297Y023987D01*
X014256Y024044D01*
X014254Y024046D01*
X014307Y024046D01*
X014345Y024056D01*
X014379Y024076D01*
X014407Y024104D01*
X014427Y024138D01*
X014437Y024176D01*
X014437Y024501D01*
X014022Y024501D01*
X014022Y024189D01*
X014018Y024190D01*
X013962Y024199D01*
X013962Y023501D01*
X013862Y023501D01*
X013862Y024046D01*
X013922Y024046D01*
X013922Y024501D01*
X014022Y024501D01*
X014022Y024601D01*
X014437Y024601D01*
X014437Y024926D01*
X014427Y024964D01*
X014407Y024998D01*
X014379Y025026D01*
X014345Y025046D01*
X014325Y025051D01*
X015830Y025051D01*
X016712Y024168D01*
X016712Y024155D01*
X016658Y024133D01*
X016531Y024006D01*
X016462Y023841D01*
X016462Y023062D01*
X016531Y022896D01*
X016658Y022770D01*
X016662Y022768D01*
X016662Y021135D01*
X016658Y021133D01*
X016531Y021006D01*
X016462Y020841D01*
X016462Y020062D01*
X016531Y019896D01*
X016658Y019770D01*
X016823Y019701D01*
X017002Y019701D01*
X017167Y019770D01*
X017294Y019896D01*
X017362Y020062D01*
X017362Y020841D01*
X017294Y021006D01*
X017167Y021133D01*
X017162Y021135D01*
X017162Y022768D01*
X017167Y022770D01*
X017294Y022896D01*
X017362Y023062D01*
X017362Y023841D01*
X017294Y024006D01*
X017167Y024133D01*
X017112Y024155D01*
X017112Y024334D01*
X016995Y024451D01*
X015995Y025451D01*
X015830Y025451D01*
X007130Y025451D01*
X007012Y025334D01*
X006307Y024629D01*
X006362Y024762D01*
X006362Y025541D01*
X006294Y025706D01*
X006167Y025833D01*
X006002Y025901D01*
X005823Y025901D01*
X005658Y025833D01*
X005531Y025706D01*
X005462Y025541D01*
X005462Y024762D01*
X005531Y024596D01*
X005658Y024470D01*
X005823Y024401D01*
X006002Y024401D01*
X006135Y024456D01*
X005770Y024091D01*
X004417Y024091D01*
X004417Y024268D01*
X004329Y024356D01*
X003495Y024356D01*
X003478Y024339D01*
X003224Y024593D01*
X003253Y024663D01*
X003253Y024840D01*
X003185Y025003D01*
X003060Y025129D01*
X002896Y025196D01*
X002129Y025196D01*
X001965Y025129D01*
X001840Y025003D01*
X001772Y024840D01*
X001772Y024663D01*
X001840Y024499D01*
X001965Y024374D01*
X002129Y024306D01*
X002804Y024306D01*
X002926Y024184D01*
X002896Y024196D01*
X002129Y024196D01*
X001965Y024129D01*
X001840Y024003D01*
X001772Y023840D01*
X001772Y023663D01*
X001840Y023499D01*
X001965Y023374D01*
X002129Y023306D01*
X002896Y023306D01*
X003023Y023358D01*
X003212Y023168D01*
X003330Y023051D01*
X004230Y023051D01*
X004395Y023051D01*
X004795Y023451D01*
X005730Y023451D01*
X005730Y023451D01*
X005430Y023451D01*
X005312Y023334D01*
X004953Y022974D01*
X004953Y022956D01*
X004775Y022956D01*
X004688Y022868D01*
X004688Y022701D01*
X004016Y022701D01*
X003754Y022963D01*
X003662Y023001D01*
X003563Y023001D01*
X003186Y023001D01*
X003185Y023003D01*
X003060Y023129D01*
X002896Y023196D01*
X002129Y023196D01*
X001965Y023129D01*
X001840Y023003D01*
X001772Y022840D01*
X001772Y022663D01*
X001840Y022499D01*
X001965Y022374D01*
X002129Y022306D01*
X002896Y022306D01*
X003060Y022374D01*
X003185Y022499D01*
X003186Y022501D01*
X003509Y022501D01*
X003701Y022310D01*
X003771Y022239D01*
X003863Y022201D01*
X004688Y022201D01*
X004688Y022034D01*
X004775Y021946D01*
X005530Y021946D01*
X005618Y022034D01*
X005618Y022868D01*
X005530Y022956D01*
X005500Y022956D01*
X005595Y023051D01*
X005895Y023051D01*
X006012Y023168D01*
X007495Y024651D01*
X009573Y024651D01*
X009522Y024529D01*
X009522Y024374D01*
X009582Y024230D01*
X009673Y024139D01*
X009658Y024133D01*
X009531Y024006D01*
X009462Y023841D01*
X009462Y023062D01*
X009531Y022896D01*
X009658Y022770D01*
X009823Y022701D01*
X010002Y022701D01*
X010167Y022770D01*
X010294Y022896D01*
X010362Y023062D01*
X010362Y023841D01*
X010294Y024006D01*
X010167Y024133D01*
X010152Y024139D01*
X010243Y024230D01*
X010302Y024374D01*
X010302Y024529D01*
X010252Y024651D01*
X010573Y024651D01*
X010522Y024529D01*
X010522Y024374D01*
X010582Y024230D01*
X010673Y024139D01*
X010658Y024133D01*
X010531Y024006D01*
X010462Y023841D01*
X010462Y023062D01*
X010531Y022896D01*
X010658Y022770D01*
X010823Y022701D01*
X011002Y022701D01*
X011167Y022770D01*
X011294Y022896D01*
X011362Y023062D01*
X011362Y023841D01*
X011294Y024006D01*
X011167Y024133D01*
X011152Y024139D01*
X011243Y024230D01*
X011302Y024374D01*
X011302Y024529D01*
X011267Y024614D01*
X011712Y024168D01*
X011712Y024155D01*
X011658Y024133D01*
X011531Y024006D01*
X011462Y023841D01*
X011462Y023062D01*
X011531Y022896D01*
X011658Y022770D01*
X011662Y022768D01*
X011662Y021135D01*
X011662Y021239D02*
X008162Y021239D01*
X008162Y021141D02*
X008678Y021141D01*
X008567Y021042D02*
X008258Y021042D01*
X008294Y021006D02*
X008167Y021133D01*
X008162Y021135D01*
X008162Y022768D01*
X008167Y022770D01*
X008294Y022896D01*
X008362Y023062D01*
X008362Y023841D01*
X008294Y024006D01*
X008167Y024133D01*
X008002Y024201D01*
X007823Y024201D01*
X007658Y024133D01*
X007531Y024006D01*
X007462Y023841D01*
X007462Y023062D01*
X007531Y022896D01*
X007658Y022770D01*
X007662Y022768D01*
X007662Y021135D01*
X007658Y021133D01*
X007531Y021006D01*
X007462Y020841D01*
X007462Y020701D01*
X007316Y020701D01*
X006294Y021723D01*
X006202Y021761D01*
X006103Y021761D01*
X004617Y021761D01*
X004617Y021888D01*
X004529Y021976D01*
X003983Y021976D01*
X003922Y022001D01*
X003186Y022001D01*
X003185Y022003D01*
X003060Y022129D01*
X002896Y022196D01*
X002129Y022196D01*
X001965Y022129D01*
X001840Y022003D01*
X001772Y021840D01*
X001772Y021663D01*
X001840Y021499D01*
X001965Y021374D01*
X002129Y021306D01*
X002896Y021306D01*
X003060Y021374D01*
X003185Y021499D01*
X003186Y021501D01*
X003608Y021501D01*
X003608Y021134D01*
X003695Y021046D01*
X004529Y021046D01*
X004617Y021134D01*
X004617Y021261D01*
X006049Y021261D01*
X007001Y020310D01*
X007071Y020239D01*
X007163Y020201D01*
X007462Y020201D01*
X007462Y020062D01*
X007531Y019896D01*
X007658Y019770D01*
X007823Y019701D01*
X008002Y019701D01*
X008167Y019770D01*
X008294Y019896D01*
X008362Y020062D01*
X008362Y020841D01*
X008294Y021006D01*
X008320Y020944D02*
X008505Y020944D01*
X008464Y020845D02*
X008361Y020845D01*
X008362Y020747D02*
X008462Y020747D01*
X008462Y020648D02*
X008362Y020648D01*
X008362Y020550D02*
X008462Y020550D01*
X008462Y020451D02*
X008362Y020451D01*
X008362Y020353D02*
X008462Y020353D01*
X008462Y020254D02*
X008362Y020254D01*
X008362Y020155D02*
X008462Y020155D01*
X008464Y020057D02*
X008360Y020057D01*
X008320Y019958D02*
X008505Y019958D01*
X008567Y019860D02*
X008257Y019860D01*
X008147Y019761D02*
X008635Y019761D01*
X008631Y019663D02*
X003253Y019663D01*
X003253Y019840D01*
X003185Y020003D01*
X003060Y020129D01*
X002896Y020196D01*
X002129Y020196D01*
X001965Y020129D01*
X001840Y020003D01*
X001772Y019840D01*
X001772Y019663D01*
X000512Y019663D01*
X000512Y019761D02*
X001772Y019761D01*
X001772Y019663D02*
X001840Y019499D01*
X001965Y019374D01*
X002129Y019306D01*
X002896Y019306D01*
X003060Y019374D01*
X003185Y019499D01*
X003253Y019663D01*
X003253Y019761D02*
X007678Y019761D01*
X007567Y019860D02*
X003245Y019860D01*
X003204Y019958D02*
X003663Y019958D01*
X003665Y019956D02*
X003700Y019937D01*
X003738Y019926D01*
X004062Y019926D01*
X004062Y020341D01*
X003608Y020341D01*
X003608Y020057D01*
X003132Y020057D01*
X002995Y020155D02*
X003608Y020155D01*
X003608Y020057D02*
X003618Y020018D01*
X003637Y019984D01*
X003665Y019956D01*
X003608Y020254D02*
X000512Y020254D01*
X000512Y020353D02*
X002016Y020353D01*
X001965Y020374D02*
X002129Y020306D01*
X002896Y020306D01*
X003060Y020374D01*
X003185Y020499D01*
X003253Y020663D01*
X003253Y020840D01*
X003185Y021003D01*
X003060Y021129D01*
X002896Y021196D01*
X002129Y021196D01*
X001965Y021129D01*
X001840Y021003D01*
X001772Y020840D01*
X001772Y020663D01*
X001840Y020499D01*
X001965Y020374D01*
X001888Y020451D02*
X000512Y020451D01*
X000512Y020550D02*
X001819Y020550D01*
X001778Y020648D02*
X000512Y020648D01*
X000512Y020747D02*
X001772Y020747D01*
X001774Y020845D02*
X000512Y020845D01*
X000512Y020944D02*
X001815Y020944D01*
X001879Y021042D02*
X000512Y021042D01*
X000512Y021141D02*
X001995Y021141D01*
X002051Y021338D02*
X000512Y021338D01*
X000512Y021437D02*
X001902Y021437D01*
X001825Y021535D02*
X000512Y021535D01*
X000512Y021634D02*
X001784Y021634D01*
X001772Y021732D02*
X000512Y021732D01*
X000512Y021831D02*
X001772Y021831D01*
X001809Y021929D02*
X000512Y021929D01*
X000512Y022028D02*
X001864Y022028D01*
X001963Y022126D02*
X000512Y022126D01*
X000512Y022225D02*
X003805Y022225D01*
X003687Y022323D02*
X002939Y022323D01*
X003108Y022422D02*
X003588Y022422D01*
X003802Y022915D02*
X004734Y022915D01*
X004688Y022816D02*
X003901Y022816D01*
X003999Y022718D02*
X004688Y022718D01*
X004456Y023112D02*
X005090Y023112D01*
X004992Y023013D02*
X003175Y023013D01*
X003269Y023112D02*
X003077Y023112D01*
X003170Y023210D02*
X000512Y023210D01*
X000512Y023112D02*
X001948Y023112D01*
X001850Y023013D02*
X000512Y023013D01*
X000512Y022915D02*
X001803Y022915D01*
X001772Y022816D02*
X000512Y022816D01*
X000512Y022718D02*
X001772Y022718D01*
X001790Y022619D02*
X000512Y022619D01*
X000512Y022521D02*
X001831Y022521D01*
X001917Y022422D02*
X000512Y022422D01*
X000512Y022323D02*
X002086Y022323D01*
X002121Y023309D02*
X000512Y023309D01*
X000512Y023407D02*
X001931Y023407D01*
X001837Y023506D02*
X000512Y023506D01*
X000512Y023604D02*
X001796Y023604D01*
X001772Y023703D02*
X000512Y023703D01*
X000512Y023802D02*
X001772Y023802D01*
X001797Y023900D02*
X000512Y023900D01*
X000512Y023999D02*
X001838Y023999D01*
X001934Y024097D02*
X000512Y024097D01*
X000512Y024196D02*
X002127Y024196D01*
X001946Y024393D02*
X000512Y024393D01*
X000512Y024491D02*
X001847Y024491D01*
X001802Y024590D02*
X000512Y024590D01*
X000512Y024688D02*
X001772Y024688D01*
X001772Y024787D02*
X000512Y024787D01*
X000512Y024886D02*
X001791Y024886D01*
X001832Y024984D02*
X000512Y024984D01*
X000512Y025083D02*
X001919Y025083D01*
X002092Y025181D02*
X000512Y025181D01*
X000512Y025280D02*
X003408Y025280D01*
X003408Y025346D02*
X003408Y025061D01*
X003862Y025061D01*
X003862Y024961D01*
X003408Y024961D01*
X003408Y024676D01*
X003418Y024638D01*
X003437Y024604D01*
X003465Y024576D01*
X003500Y024556D01*
X003538Y024546D01*
X003862Y024546D01*
X003862Y024961D01*
X003962Y024961D01*
X003962Y024546D01*
X004287Y024546D01*
X004325Y024556D01*
X004359Y024576D01*
X004387Y024604D01*
X004407Y024638D01*
X004417Y024676D01*
X004417Y024961D01*
X003963Y024961D01*
X003963Y025061D01*
X004417Y025061D01*
X004417Y025346D01*
X004407Y025384D01*
X004387Y025418D01*
X004359Y025446D01*
X004325Y025466D01*
X004287Y025476D01*
X003962Y025476D01*
X003962Y025061D01*
X003862Y025061D01*
X003862Y025476D01*
X003538Y025476D01*
X003500Y025466D01*
X003465Y025446D01*
X003437Y025418D01*
X003418Y025384D01*
X003408Y025346D01*
X003416Y025378D02*
X000512Y025378D01*
X000512Y025477D02*
X004462Y025477D01*
X004462Y025541D02*
X004531Y025706D01*
X004658Y025833D01*
X004823Y025901D01*
X005002Y025901D01*
X005167Y025833D01*
X005294Y025706D01*
X005362Y025541D01*
X005362Y024762D01*
X005294Y024596D01*
X005167Y024470D01*
X005002Y024401D01*
X004823Y024401D01*
X004658Y024470D01*
X004531Y024596D01*
X004462Y024762D01*
X004462Y025541D01*
X004477Y025575D02*
X000512Y025575D01*
X000512Y025674D02*
X004518Y025674D01*
X004597Y025772D02*
X000512Y025772D01*
X000512Y025871D02*
X004750Y025871D01*
X005075Y025871D02*
X005750Y025871D01*
X005597Y025772D02*
X005228Y025772D01*
X005307Y025674D02*
X005518Y025674D01*
X005477Y025575D02*
X005348Y025575D01*
X005362Y025477D02*
X005462Y025477D01*
X005462Y025378D02*
X005362Y025378D01*
X005362Y025280D02*
X005462Y025280D01*
X005462Y025181D02*
X005362Y025181D01*
X005362Y025083D02*
X005462Y025083D01*
X005462Y024984D02*
X005362Y024984D01*
X005362Y024886D02*
X005462Y024886D01*
X005462Y024787D02*
X005362Y024787D01*
X005332Y024688D02*
X005493Y024688D01*
X005537Y024590D02*
X005288Y024590D01*
X005189Y024491D02*
X005636Y024491D01*
X005874Y024196D02*
X004417Y024196D01*
X004417Y024097D02*
X005776Y024097D01*
X005853Y023891D02*
X007212Y025251D01*
X015912Y025251D01*
X016912Y024251D01*
X016912Y023451D01*
X016462Y023407D02*
X016362Y023407D01*
X016362Y023309D02*
X016462Y023309D01*
X016462Y023210D02*
X016362Y023210D01*
X016362Y023112D02*
X016462Y023112D01*
X016482Y023013D02*
X016342Y023013D01*
X016362Y023062D02*
X016294Y022896D01*
X016167Y022770D01*
X016002Y022701D01*
X015823Y022701D01*
X015658Y022770D01*
X015531Y022896D01*
X015462Y023062D01*
X015462Y023841D01*
X015531Y024006D01*
X015658Y024133D01*
X015823Y024201D01*
X016002Y024201D01*
X016167Y024133D01*
X016294Y024006D01*
X016362Y023841D01*
X016362Y023062D01*
X016301Y022915D02*
X016523Y022915D01*
X016611Y022816D02*
X016214Y022816D01*
X016042Y022718D02*
X016662Y022718D01*
X016662Y022619D02*
X013162Y022619D01*
X013162Y022521D02*
X016662Y022521D01*
X016662Y022422D02*
X013162Y022422D01*
X013162Y022323D02*
X016662Y022323D01*
X016662Y022225D02*
X013162Y022225D01*
X013162Y022126D02*
X016662Y022126D01*
X016662Y022028D02*
X013162Y022028D01*
X013162Y021929D02*
X016662Y021929D01*
X016662Y021831D02*
X013162Y021831D01*
X013162Y021732D02*
X016662Y021732D01*
X016662Y021634D02*
X013162Y021634D01*
X013162Y021535D02*
X016662Y021535D01*
X016662Y021437D02*
X013162Y021437D01*
X013162Y021338D02*
X016662Y021338D01*
X016662Y021239D02*
X013162Y021239D01*
X013162Y021141D02*
X013686Y021141D01*
X013677Y021136D02*
X013619Y021094D01*
X013569Y021044D01*
X013528Y020987D01*
X013495Y020924D01*
X013474Y020857D01*
X013462Y020787D01*
X013462Y020501D01*
X013862Y020501D01*
X013862Y020401D01*
X013462Y020401D01*
X013462Y020116D01*
X013474Y020046D01*
X013495Y019978D01*
X013528Y019915D01*
X013569Y019858D01*
X013619Y019808D01*
X013677Y019766D01*
X013740Y019734D01*
X013807Y019712D01*
X013862Y019703D01*
X013862Y020401D01*
X013962Y020401D01*
X013962Y019703D01*
X014018Y019712D01*
X014085Y019734D01*
X014148Y019766D01*
X014206Y019808D01*
X014256Y019858D01*
X014297Y019915D01*
X014329Y019978D01*
X014351Y020046D01*
X014362Y020116D01*
X014362Y020401D01*
X013963Y020401D01*
X013963Y020501D01*
X014362Y020501D01*
X014362Y020787D01*
X014351Y020857D01*
X014329Y020924D01*
X014297Y020987D01*
X014256Y021044D01*
X014206Y021094D01*
X014148Y021136D01*
X014085Y021168D01*
X014018Y021190D01*
X013962Y021199D01*
X013962Y020501D01*
X013862Y020501D01*
X013862Y021199D01*
X013807Y021190D01*
X013740Y021168D01*
X013677Y021136D01*
X013568Y021042D02*
X013258Y021042D01*
X013320Y020944D02*
X013506Y020944D01*
X013472Y020845D02*
X013361Y020845D01*
X013362Y020747D02*
X013462Y020747D01*
X013462Y020648D02*
X013362Y020648D01*
X013362Y020550D02*
X013462Y020550D01*
X013362Y020451D02*
X013862Y020451D01*
X013862Y020353D02*
X013962Y020353D01*
X013963Y020451D02*
X014462Y020451D01*
X014462Y020353D02*
X014362Y020353D01*
X014362Y020254D02*
X014462Y020254D01*
X014462Y020155D02*
X014362Y020155D01*
X014353Y020057D02*
X014464Y020057D01*
X014462Y020062D02*
X014531Y019896D01*
X014658Y019770D01*
X014823Y019701D01*
X015002Y019701D01*
X015167Y019770D01*
X015294Y019896D01*
X015362Y020062D01*
X015362Y020841D01*
X015294Y021006D01*
X015167Y021133D01*
X015002Y021201D01*
X014823Y021201D01*
X014658Y021133D01*
X014531Y021006D01*
X014462Y020841D01*
X014462Y020062D01*
X014505Y019958D02*
X014319Y019958D01*
X014257Y019860D02*
X014567Y019860D01*
X014678Y019761D02*
X014138Y019761D01*
X013962Y019761D02*
X013862Y019761D01*
X013862Y019860D02*
X013962Y019860D01*
X013962Y019958D02*
X013862Y019958D01*
X013862Y020057D02*
X013962Y020057D01*
X013962Y020155D02*
X013862Y020155D01*
X013862Y020254D02*
X013962Y020254D01*
X013962Y020550D02*
X013862Y020550D01*
X013862Y020648D02*
X013962Y020648D01*
X013962Y020747D02*
X013862Y020747D01*
X013862Y020845D02*
X013962Y020845D01*
X013962Y020944D02*
X013862Y020944D01*
X013862Y021042D02*
X013962Y021042D01*
X013962Y021141D02*
X013862Y021141D01*
X014139Y021141D02*
X014678Y021141D01*
X014567Y021042D02*
X014257Y021042D01*
X014319Y020944D02*
X014505Y020944D01*
X014464Y020845D02*
X014353Y020845D01*
X014362Y020747D02*
X014462Y020747D01*
X014462Y020648D02*
X014362Y020648D01*
X014362Y020550D02*
X014462Y020550D01*
X015147Y021141D02*
X015678Y021141D01*
X015658Y021133D02*
X015531Y021006D01*
X015462Y020841D01*
X015462Y020062D01*
X015531Y019896D01*
X015658Y019770D01*
X015823Y019701D01*
X016002Y019701D01*
X016167Y019770D01*
X016294Y019896D01*
X016362Y020062D01*
X016362Y020841D01*
X016294Y021006D01*
X016167Y021133D01*
X016002Y021201D01*
X015823Y021201D01*
X015658Y021133D01*
X015567Y021042D02*
X015258Y021042D01*
X015320Y020944D02*
X015505Y020944D01*
X015464Y020845D02*
X015361Y020845D01*
X015362Y020747D02*
X015462Y020747D01*
X015462Y020648D02*
X015362Y020648D01*
X015362Y020550D02*
X015462Y020550D01*
X015462Y020451D02*
X015362Y020451D01*
X015362Y020353D02*
X015462Y020353D01*
X015462Y020254D02*
X015362Y020254D01*
X015362Y020155D02*
X015462Y020155D01*
X015464Y020057D02*
X015360Y020057D01*
X015320Y019958D02*
X015505Y019958D01*
X015567Y019860D02*
X015257Y019860D01*
X015147Y019761D02*
X015678Y019761D01*
X016147Y019761D02*
X016678Y019761D01*
X016567Y019860D02*
X016257Y019860D01*
X016320Y019958D02*
X016505Y019958D01*
X016464Y020057D02*
X016360Y020057D01*
X016362Y020155D02*
X016462Y020155D01*
X016462Y020254D02*
X016362Y020254D01*
X016362Y020353D02*
X016462Y020353D01*
X016462Y020451D02*
X016362Y020451D01*
X016362Y020550D02*
X016462Y020550D01*
X016462Y020648D02*
X016362Y020648D01*
X016362Y020747D02*
X016462Y020747D01*
X016464Y020845D02*
X016361Y020845D01*
X016320Y020944D02*
X016505Y020944D01*
X016567Y021042D02*
X016258Y021042D01*
X016147Y021141D02*
X016662Y021141D01*
X017162Y021141D02*
X017678Y021141D01*
X017658Y021133D02*
X017531Y021006D01*
X017462Y020841D01*
X017462Y020062D01*
X017531Y019896D01*
X017658Y019770D01*
X017823Y019701D01*
X018002Y019701D01*
X018167Y019770D01*
X018294Y019896D01*
X018362Y020062D01*
X018362Y020841D01*
X018294Y021006D01*
X018167Y021133D01*
X018002Y021201D01*
X017823Y021201D01*
X017658Y021133D01*
X017567Y021042D02*
X017258Y021042D01*
X017320Y020944D02*
X017505Y020944D01*
X017464Y020845D02*
X017361Y020845D01*
X017362Y020747D02*
X017462Y020747D01*
X017462Y020648D02*
X017362Y020648D01*
X017362Y020550D02*
X017462Y020550D01*
X017462Y020451D02*
X017362Y020451D01*
X017362Y020353D02*
X017462Y020353D01*
X017462Y020254D02*
X017362Y020254D01*
X017362Y020155D02*
X017462Y020155D01*
X017464Y020057D02*
X017360Y020057D01*
X017320Y019958D02*
X017505Y019958D01*
X017567Y019860D02*
X017257Y019860D01*
X017147Y019761D02*
X017678Y019761D01*
X018147Y019761D02*
X018678Y019761D01*
X018658Y019770D02*
X018823Y019701D01*
X019002Y019701D01*
X019167Y019770D01*
X019294Y019896D01*
X019362Y020062D01*
X019362Y020841D01*
X019294Y021006D01*
X019167Y021133D01*
X019002Y021201D01*
X018823Y021201D01*
X018658Y021133D01*
X018531Y021006D01*
X018462Y020841D01*
X018462Y020062D01*
X018531Y019896D01*
X018658Y019770D01*
X018567Y019860D02*
X018257Y019860D01*
X018320Y019958D02*
X018505Y019958D01*
X018464Y020057D02*
X018360Y020057D01*
X018362Y020155D02*
X018462Y020155D01*
X018462Y020254D02*
X018362Y020254D01*
X018362Y020353D02*
X018462Y020353D01*
X018462Y020451D02*
X018362Y020451D01*
X018362Y020550D02*
X018462Y020550D01*
X018462Y020648D02*
X018362Y020648D01*
X018362Y020747D02*
X018462Y020747D01*
X018464Y020845D02*
X018361Y020845D01*
X018320Y020944D02*
X018505Y020944D01*
X018567Y021042D02*
X018258Y021042D01*
X018147Y021141D02*
X018678Y021141D01*
X019147Y021141D02*
X019678Y021141D01*
X019658Y021133D02*
X019531Y021006D01*
X019462Y020841D01*
X019462Y020062D01*
X019531Y019896D01*
X019658Y019770D01*
X019823Y019701D01*
X020002Y019701D01*
X020167Y019770D01*
X020294Y019896D01*
X020362Y020062D01*
X020362Y020841D01*
X020294Y021006D01*
X020167Y021133D01*
X020002Y021201D01*
X019823Y021201D01*
X019658Y021133D01*
X019567Y021042D02*
X019258Y021042D01*
X019320Y020944D02*
X019505Y020944D01*
X019464Y020845D02*
X019361Y020845D01*
X019362Y020747D02*
X019462Y020747D01*
X019462Y020648D02*
X019362Y020648D01*
X019362Y020550D02*
X019462Y020550D01*
X019462Y020451D02*
X019362Y020451D01*
X019362Y020353D02*
X019462Y020353D01*
X019462Y020254D02*
X019362Y020254D01*
X019362Y020155D02*
X019462Y020155D01*
X019464Y020057D02*
X019360Y020057D01*
X019320Y019958D02*
X019505Y019958D01*
X019567Y019860D02*
X019257Y019860D01*
X019147Y019761D02*
X019678Y019761D01*
X020147Y019761D02*
X020678Y019761D01*
X020658Y019770D02*
X020823Y019701D01*
X021002Y019701D01*
X021167Y019770D01*
X021294Y019896D01*
X021362Y020062D01*
X021362Y020841D01*
X021294Y021006D01*
X021167Y021133D01*
X021002Y021201D01*
X020823Y021201D01*
X020658Y021133D01*
X020531Y021006D01*
X020462Y020841D01*
X020462Y020062D01*
X020531Y019896D01*
X020658Y019770D01*
X020567Y019860D02*
X020257Y019860D01*
X020320Y019958D02*
X020505Y019958D01*
X020464Y020057D02*
X020360Y020057D01*
X020362Y020155D02*
X020462Y020155D01*
X020462Y020254D02*
X020362Y020254D01*
X020362Y020353D02*
X020462Y020353D01*
X020462Y020451D02*
X020362Y020451D01*
X020362Y020550D02*
X020462Y020550D01*
X020462Y020648D02*
X020362Y020648D01*
X020362Y020747D02*
X020462Y020747D01*
X020464Y020845D02*
X020361Y020845D01*
X020320Y020944D02*
X020505Y020944D01*
X020567Y021042D02*
X020258Y021042D01*
X020147Y021141D02*
X020678Y021141D01*
X021147Y021141D02*
X022112Y021141D01*
X022112Y021239D02*
X017162Y021239D01*
X017162Y021338D02*
X022112Y021338D01*
X022112Y021437D02*
X017162Y021437D01*
X017162Y021535D02*
X022112Y021535D01*
X022112Y021634D02*
X017162Y021634D01*
X017162Y021732D02*
X022112Y021732D01*
X022112Y021831D02*
X017162Y021831D01*
X017162Y021929D02*
X022112Y021929D01*
X022112Y022028D02*
X017162Y022028D01*
X017162Y022126D02*
X022112Y022126D01*
X022112Y022225D02*
X017162Y022225D01*
X017162Y022323D02*
X022112Y022323D01*
X022112Y022422D02*
X017162Y022422D01*
X017162Y022521D02*
X022112Y022521D01*
X022112Y022619D02*
X017162Y022619D01*
X017162Y022718D02*
X017783Y022718D01*
X017823Y022701D02*
X018002Y022701D01*
X018167Y022770D01*
X018294Y022896D01*
X018362Y023062D01*
X018362Y023841D01*
X018294Y024006D01*
X018167Y024133D01*
X018002Y024201D01*
X017823Y024201D01*
X017658Y024133D01*
X017531Y024006D01*
X017462Y023841D01*
X017462Y023062D01*
X017531Y022896D01*
X017658Y022770D01*
X017823Y022701D01*
X018042Y022718D02*
X018783Y022718D01*
X018823Y022701D02*
X019002Y022701D01*
X019167Y022770D01*
X019294Y022896D01*
X019362Y023062D01*
X019362Y023841D01*
X019294Y024006D01*
X019167Y024133D01*
X019002Y024201D01*
X018823Y024201D01*
X018658Y024133D01*
X018531Y024006D01*
X018462Y023841D01*
X018462Y023062D01*
X018531Y022896D01*
X018658Y022770D01*
X018823Y022701D01*
X019042Y022718D02*
X019783Y022718D01*
X019823Y022701D02*
X020002Y022701D01*
X020167Y022770D01*
X020294Y022896D01*
X020362Y023062D01*
X020362Y023841D01*
X020294Y024006D01*
X020167Y024133D01*
X020002Y024201D01*
X019823Y024201D01*
X019658Y024133D01*
X019531Y024006D01*
X019462Y023841D01*
X019462Y023062D01*
X019531Y022896D01*
X019658Y022770D01*
X019823Y022701D01*
X020042Y022718D02*
X020783Y022718D01*
X020823Y022701D02*
X021002Y022701D01*
X021167Y022770D01*
X021294Y022896D01*
X021362Y023062D01*
X021362Y023841D01*
X021294Y024006D01*
X021167Y024133D01*
X021002Y024201D01*
X020823Y024201D01*
X020658Y024133D01*
X020531Y024006D01*
X020462Y023841D01*
X020462Y023062D01*
X020531Y022896D01*
X020658Y022770D01*
X020823Y022701D01*
X021042Y022718D02*
X022112Y022718D01*
X022112Y022816D02*
X021214Y022816D01*
X021301Y022915D02*
X022112Y022915D01*
X022112Y023013D02*
X021342Y023013D01*
X021362Y023112D02*
X022112Y023112D01*
X022112Y023210D02*
X021362Y023210D01*
X021362Y023309D02*
X022112Y023309D01*
X022112Y023407D02*
X021362Y023407D01*
X021362Y023506D02*
X022112Y023506D01*
X022112Y023604D02*
X021362Y023604D01*
X021362Y023703D02*
X022112Y023703D01*
X022112Y023802D02*
X021362Y023802D01*
X021338Y023900D02*
X022112Y023900D01*
X022112Y023999D02*
X021297Y023999D01*
X021203Y024097D02*
X022112Y024097D01*
X022112Y024196D02*
X021015Y024196D01*
X020810Y024196D02*
X020015Y024196D01*
X019810Y024196D02*
X019015Y024196D01*
X018810Y024196D02*
X018015Y024196D01*
X017810Y024196D02*
X017112Y024196D01*
X017112Y024294D02*
X022112Y024294D01*
X022112Y024393D02*
X017054Y024393D01*
X016955Y024491D02*
X022112Y024491D01*
X022112Y024590D02*
X016856Y024590D01*
X016758Y024688D02*
X022112Y024688D01*
X022112Y024787D02*
X016659Y024787D01*
X016561Y024886D02*
X022112Y024886D01*
X022112Y024984D02*
X016462Y024984D01*
X016364Y025083D02*
X022112Y025083D01*
X022112Y025181D02*
X016265Y025181D01*
X016167Y025280D02*
X022112Y025280D01*
X022112Y025378D02*
X016068Y025378D01*
X015897Y024984D02*
X014415Y024984D01*
X014437Y024886D02*
X015995Y024886D01*
X016094Y024787D02*
X014437Y024787D01*
X014437Y024688D02*
X016192Y024688D01*
X016291Y024590D02*
X014022Y024590D01*
X014022Y024491D02*
X013922Y024491D01*
X013922Y024393D02*
X014022Y024393D01*
X014022Y024294D02*
X013922Y024294D01*
X013922Y024196D02*
X013962Y024196D01*
X013982Y024196D02*
X014022Y024196D01*
X013962Y024097D02*
X013922Y024097D01*
X013962Y023999D02*
X013862Y023999D01*
X013862Y023900D02*
X013962Y023900D01*
X013962Y023802D02*
X013862Y023802D01*
X013862Y023703D02*
X013962Y023703D01*
X013962Y023604D02*
X013862Y023604D01*
X013862Y023506D02*
X013962Y023506D01*
X013963Y023407D02*
X014462Y023407D01*
X014462Y023309D02*
X014362Y023309D01*
X014362Y023210D02*
X014462Y023210D01*
X014462Y023112D02*
X014362Y023112D01*
X014341Y023013D02*
X014482Y023013D01*
X014783Y022718D02*
X014034Y022718D01*
X013962Y022718D02*
X013862Y022718D01*
X013862Y022703D02*
X013862Y023401D01*
X013862Y023309D02*
X013962Y023309D01*
X013962Y023210D02*
X013862Y023210D01*
X013862Y023112D02*
X013962Y023112D01*
X013962Y023013D02*
X013862Y023013D01*
X013862Y022915D02*
X013962Y022915D01*
X013962Y022816D02*
X013862Y022816D01*
X013862Y022703D02*
X013807Y022712D01*
X013740Y022734D01*
X013677Y022766D01*
X013619Y022808D01*
X013569Y022858D01*
X013528Y022915D01*
X013611Y022816D02*
X013214Y022816D01*
X013162Y022718D02*
X013791Y022718D01*
X013462Y023506D02*
X013362Y023506D01*
X013362Y023604D02*
X013462Y023604D01*
X013462Y023703D02*
X013362Y023703D01*
X013362Y023802D02*
X013465Y023802D01*
X013488Y023900D02*
X013338Y023900D01*
X013297Y023999D02*
X013536Y023999D01*
X013544Y024097D02*
X013281Y024097D01*
X013318Y024196D02*
X013507Y024196D01*
X013507Y024294D02*
X013318Y024294D01*
X013318Y024393D02*
X013507Y024393D01*
X013507Y024491D02*
X013318Y024491D01*
X013318Y024590D02*
X013922Y024590D01*
X013507Y024688D02*
X013318Y024688D01*
X013318Y024787D02*
X013507Y024787D01*
X013507Y024886D02*
X013318Y024886D01*
X013302Y024984D02*
X013529Y024984D01*
X012853Y024551D02*
X012853Y023511D01*
X012912Y023451D01*
X012462Y023407D02*
X012362Y023407D01*
X012362Y023309D02*
X012462Y023309D01*
X012462Y023210D02*
X012362Y023210D01*
X012362Y023112D02*
X012462Y023112D01*
X012482Y023013D02*
X012342Y023013D01*
X012301Y022915D02*
X012523Y022915D01*
X012611Y022816D02*
X012214Y022816D01*
X012162Y022718D02*
X012662Y022718D01*
X012662Y022619D02*
X012162Y022619D01*
X012162Y022521D02*
X012662Y022521D01*
X012662Y022422D02*
X012162Y022422D01*
X012162Y022323D02*
X012662Y022323D01*
X012662Y022225D02*
X012162Y022225D01*
X012162Y022126D02*
X012662Y022126D01*
X012662Y022028D02*
X012162Y022028D01*
X012162Y021929D02*
X012662Y021929D01*
X012662Y021831D02*
X012162Y021831D01*
X012162Y021732D02*
X012662Y021732D01*
X012662Y021634D02*
X012162Y021634D01*
X012162Y021535D02*
X012662Y021535D01*
X012662Y021437D02*
X012162Y021437D01*
X012162Y021338D02*
X012662Y021338D01*
X012662Y021239D02*
X012162Y021239D01*
X012162Y021141D02*
X012662Y021141D01*
X012567Y021042D02*
X012258Y021042D01*
X012320Y020944D02*
X012505Y020944D01*
X012464Y020845D02*
X012361Y020845D01*
X012362Y020747D02*
X012462Y020747D01*
X012462Y020648D02*
X012362Y020648D01*
X012362Y020550D02*
X012462Y020550D01*
X012462Y020451D02*
X012362Y020451D01*
X012362Y020353D02*
X012462Y020353D01*
X012462Y020254D02*
X012362Y020254D01*
X012362Y020155D02*
X012462Y020155D01*
X012464Y020057D02*
X012360Y020057D01*
X012320Y019958D02*
X012505Y019958D01*
X012567Y019860D02*
X012257Y019860D01*
X012147Y019761D02*
X012678Y019761D01*
X013147Y019761D02*
X013686Y019761D01*
X013568Y019860D02*
X013257Y019860D01*
X013320Y019958D02*
X013506Y019958D01*
X013472Y020057D02*
X013360Y020057D01*
X013362Y020155D02*
X013462Y020155D01*
X013462Y020254D02*
X013362Y020254D01*
X013362Y020353D02*
X013462Y020353D01*
X011678Y019761D02*
X011147Y019761D01*
X011257Y019860D02*
X011567Y019860D01*
X011505Y019958D02*
X011320Y019958D01*
X011360Y020057D02*
X011464Y020057D01*
X011462Y020155D02*
X011362Y020155D01*
X011362Y020254D02*
X011462Y020254D01*
X011462Y020353D02*
X011362Y020353D01*
X011362Y020451D02*
X011462Y020451D01*
X011462Y020550D02*
X011362Y020550D01*
X011362Y020648D02*
X011462Y020648D01*
X011462Y020747D02*
X011362Y020747D01*
X011361Y020845D02*
X011464Y020845D01*
X011505Y020944D02*
X011320Y020944D01*
X011258Y021042D02*
X011567Y021042D01*
X011662Y021338D02*
X008162Y021338D01*
X008162Y021437D02*
X011662Y021437D01*
X011662Y021535D02*
X008162Y021535D01*
X008162Y021634D02*
X011662Y021634D01*
X011662Y021732D02*
X008162Y021732D01*
X008162Y021831D02*
X011662Y021831D01*
X011662Y021929D02*
X008162Y021929D01*
X008162Y022028D02*
X011662Y022028D01*
X011662Y022126D02*
X008162Y022126D01*
X008162Y022225D02*
X011662Y022225D01*
X011662Y022323D02*
X008162Y022323D01*
X008162Y022422D02*
X011662Y022422D01*
X011662Y022521D02*
X008162Y022521D01*
X008162Y022619D02*
X011662Y022619D01*
X011662Y022718D02*
X011042Y022718D01*
X011214Y022816D02*
X011611Y022816D01*
X011523Y022915D02*
X011301Y022915D01*
X011342Y023013D02*
X011482Y023013D01*
X011462Y023112D02*
X011362Y023112D01*
X011362Y023210D02*
X011462Y023210D01*
X011462Y023309D02*
X011362Y023309D01*
X011362Y023407D02*
X011462Y023407D01*
X011462Y023506D02*
X011362Y023506D01*
X011362Y023604D02*
X011462Y023604D01*
X011462Y023703D02*
X011362Y023703D01*
X011362Y023802D02*
X011462Y023802D01*
X011487Y023900D02*
X011338Y023900D01*
X011297Y023999D02*
X011528Y023999D01*
X011622Y024097D02*
X011203Y024097D01*
X011209Y024196D02*
X011685Y024196D01*
X011586Y024294D02*
X011270Y024294D01*
X011302Y024393D02*
X011488Y024393D01*
X011389Y024491D02*
X011302Y024491D01*
X011291Y024590D02*
X011277Y024590D01*
X011312Y024851D02*
X007412Y024851D01*
X005812Y023251D01*
X005512Y023251D01*
X005153Y022891D01*
X005153Y022451D01*
X004688Y022126D02*
X003062Y022126D01*
X003161Y022028D02*
X004694Y022028D01*
X004576Y021929D02*
X007662Y021929D01*
X007662Y021831D02*
X004617Y021831D01*
X004617Y021239D02*
X006071Y021239D01*
X006169Y021141D02*
X004617Y021141D01*
X004525Y020846D02*
X004487Y020856D01*
X004162Y020856D01*
X004162Y020441D01*
X004062Y020441D01*
X004062Y020341D01*
X004162Y020341D01*
X004162Y019926D01*
X004487Y019926D01*
X004525Y019937D01*
X004559Y019956D01*
X004587Y019984D01*
X004607Y020018D01*
X004617Y020057D01*
X007464Y020057D01*
X007462Y020155D02*
X004617Y020155D01*
X004617Y020057D02*
X004617Y020341D01*
X004163Y020341D01*
X004163Y020441D01*
X004617Y020441D01*
X004617Y020726D01*
X004607Y020764D01*
X004587Y020798D01*
X004559Y020826D01*
X004525Y020846D01*
X004527Y020845D02*
X006465Y020845D01*
X006563Y020747D02*
X004612Y020747D01*
X004617Y020648D02*
X006662Y020648D01*
X006760Y020550D02*
X004617Y020550D01*
X004617Y020451D02*
X006859Y020451D01*
X006958Y020353D02*
X004163Y020353D01*
X004162Y020451D02*
X004062Y020451D01*
X004062Y020441D02*
X004062Y020856D01*
X003738Y020856D01*
X003700Y020846D01*
X003665Y020826D01*
X003637Y020798D01*
X003618Y020764D01*
X003608Y020726D01*
X003608Y020441D01*
X004062Y020441D01*
X004062Y020353D02*
X003009Y020353D01*
X003137Y020451D02*
X003608Y020451D01*
X003608Y020550D02*
X003206Y020550D01*
X003247Y020648D02*
X003608Y020648D01*
X003613Y020747D02*
X003253Y020747D01*
X003251Y020845D02*
X003698Y020845D01*
X003608Y021141D02*
X003030Y021141D01*
X003146Y021042D02*
X006268Y021042D01*
X006366Y020944D02*
X003210Y020944D01*
X002974Y021338D02*
X003608Y021338D01*
X003608Y021437D02*
X003123Y021437D01*
X003608Y021239D02*
X000512Y021239D01*
X000512Y020155D02*
X002030Y020155D01*
X001893Y020057D02*
X000512Y020057D01*
X000512Y019958D02*
X001821Y019958D01*
X001780Y019860D02*
X000512Y019860D01*
X000512Y019564D02*
X001813Y019564D01*
X001873Y019466D02*
X000512Y019466D01*
X000512Y019367D02*
X001981Y019367D01*
X002065Y019170D02*
X000512Y019170D01*
X000512Y019071D02*
X001908Y019071D01*
X001965Y019129D02*
X001840Y019003D01*
X001772Y018840D01*
X001772Y018663D01*
X001840Y018499D01*
X001965Y018374D01*
X002129Y018306D01*
X002896Y018306D01*
X003060Y018374D01*
X003185Y018499D01*
X003253Y018663D01*
X003253Y018840D01*
X003185Y019003D01*
X003060Y019129D01*
X002896Y019196D01*
X002129Y019196D01*
X001965Y019129D01*
X001827Y018973D02*
X000512Y018973D01*
X000512Y018874D02*
X001786Y018874D01*
X001772Y018776D02*
X000512Y018776D01*
X000512Y018677D02*
X001772Y018677D01*
X001807Y018579D02*
X000512Y018579D01*
X000512Y018480D02*
X001858Y018480D01*
X001957Y018382D02*
X000512Y018382D01*
X000512Y018283D02*
X008619Y018283D01*
X008611Y018382D02*
X003068Y018382D01*
X003166Y018480D02*
X008611Y018480D01*
X008611Y018579D02*
X003218Y018579D01*
X003253Y018677D02*
X008454Y018677D01*
X008396Y018776D02*
X003253Y018776D01*
X003239Y018874D02*
X008396Y018874D01*
X008396Y018973D02*
X003198Y018973D01*
X003117Y019071D02*
X008396Y019071D01*
X008396Y019170D02*
X002960Y019170D01*
X003044Y019367D02*
X008396Y019367D01*
X008396Y019269D02*
X000512Y019269D01*
X000512Y018185D02*
X002110Y018185D01*
X002113Y018185D02*
X002046Y018164D01*
X001984Y018132D01*
X001927Y018091D01*
X001878Y018041D01*
X001836Y017985D01*
X001805Y017922D01*
X001783Y017855D01*
X001774Y017800D01*
X002464Y017800D01*
X002464Y018196D01*
X002182Y018196D01*
X002113Y018185D01*
X001922Y018086D02*
X000512Y018086D01*
X000512Y017988D02*
X001839Y017988D01*
X001794Y017889D02*
X000512Y017889D01*
X000512Y017790D02*
X002464Y017790D01*
X002464Y017800D02*
X002464Y017703D01*
X001774Y017703D01*
X001783Y017647D01*
X001805Y017580D01*
X001836Y017518D01*
X001878Y017461D01*
X001927Y017412D01*
X001984Y017370D01*
X002046Y017339D01*
X002113Y017317D01*
X002182Y017306D01*
X002464Y017306D01*
X002464Y017702D01*
X002561Y017702D01*
X002561Y017306D01*
X002843Y017306D01*
X002912Y017317D01*
X002979Y017339D01*
X003041Y017370D01*
X003098Y017412D01*
X003147Y017461D01*
X003189Y017518D01*
X003220Y017580D01*
X003242Y017647D01*
X003251Y017703D01*
X002561Y017703D01*
X002561Y017800D01*
X002464Y017800D01*
X002464Y017889D02*
X002561Y017889D01*
X002561Y017800D02*
X002561Y018196D01*
X002843Y018196D01*
X002912Y018185D01*
X002979Y018164D01*
X003041Y018132D01*
X003098Y018091D01*
X003147Y018041D01*
X003189Y017985D01*
X003220Y017922D01*
X003242Y017855D01*
X003251Y017800D01*
X002561Y017800D01*
X002561Y017790D02*
X007462Y017790D01*
X007462Y017841D02*
X007531Y018006D01*
X007658Y018133D01*
X007823Y018201D01*
X008002Y018201D01*
X008167Y018133D01*
X008294Y018006D01*
X008362Y017841D01*
X008362Y017062D01*
X008294Y016896D01*
X008167Y016770D01*
X008002Y016701D01*
X007823Y016701D01*
X007658Y016770D01*
X007531Y016896D01*
X007462Y017062D01*
X007462Y017841D01*
X007482Y017889D02*
X003231Y017889D01*
X003186Y017988D02*
X007523Y017988D01*
X007611Y018086D02*
X003102Y018086D01*
X002915Y018185D02*
X007783Y018185D01*
X008042Y018185D02*
X008674Y018185D01*
X008611Y018086D02*
X008214Y018086D01*
X008302Y017988D02*
X008523Y017988D01*
X008482Y017889D02*
X008342Y017889D01*
X008362Y017790D02*
X008462Y017790D01*
X008462Y017692D02*
X008362Y017692D01*
X008362Y017593D02*
X008462Y017593D01*
X008462Y017495D02*
X008362Y017495D01*
X008362Y017396D02*
X008462Y017396D01*
X008462Y017298D02*
X008362Y017298D01*
X008362Y017199D02*
X008462Y017199D01*
X008462Y017101D02*
X008362Y017101D01*
X008338Y017002D02*
X008487Y017002D01*
X008528Y016904D02*
X008297Y016904D01*
X008203Y016805D02*
X008622Y016805D01*
X008810Y016706D02*
X008015Y016706D01*
X007810Y016706D02*
X000512Y016706D01*
X000512Y016608D02*
X010712Y016608D01*
X010712Y016706D02*
X010015Y016706D01*
X009810Y016706D02*
X009015Y016706D01*
X009203Y016805D02*
X009622Y016805D01*
X009528Y016904D02*
X009297Y016904D01*
X009338Y017002D02*
X009487Y017002D01*
X009462Y017101D02*
X009362Y017101D01*
X009362Y017199D02*
X009462Y017199D01*
X009462Y017298D02*
X009362Y017298D01*
X009362Y017396D02*
X009462Y017396D01*
X009462Y017495D02*
X009362Y017495D01*
X009362Y017593D02*
X009462Y017593D01*
X009462Y017692D02*
X009362Y017692D01*
X009362Y017790D02*
X009462Y017790D01*
X009482Y017889D02*
X009342Y017889D01*
X009302Y017988D02*
X009523Y017988D01*
X009611Y018086D02*
X009214Y018086D01*
X009269Y018677D02*
X009556Y018677D01*
X009499Y018776D02*
X009326Y018776D01*
X009326Y018874D02*
X009499Y018874D01*
X009499Y018973D02*
X009326Y018973D01*
X009326Y019071D02*
X009499Y019071D01*
X009499Y019269D02*
X009326Y019269D01*
X009326Y019367D02*
X009499Y019367D01*
X009499Y019466D02*
X009326Y019466D01*
X009326Y019564D02*
X009509Y019564D01*
X009678Y019761D02*
X009147Y019761D01*
X009132Y019663D02*
X022112Y019663D01*
X022112Y019761D02*
X021147Y019761D01*
X021257Y019860D02*
X022112Y019860D01*
X022112Y019958D02*
X021320Y019958D01*
X021360Y020057D02*
X022112Y020057D01*
X022112Y020155D02*
X021362Y020155D01*
X021362Y020254D02*
X022112Y020254D01*
X022112Y020353D02*
X021362Y020353D01*
X021362Y020451D02*
X022112Y020451D01*
X022112Y020550D02*
X021362Y020550D01*
X021362Y020648D02*
X022112Y020648D01*
X022112Y020747D02*
X021362Y020747D01*
X021361Y020845D02*
X022112Y020845D01*
X022112Y020944D02*
X021320Y020944D01*
X021258Y021042D02*
X022112Y021042D01*
X022112Y019564D02*
X010418Y019564D01*
X010429Y019466D02*
X022112Y019466D01*
X022112Y019367D02*
X010429Y019367D01*
X010429Y019269D02*
X022112Y019269D01*
X020528Y018382D02*
X010796Y018382D01*
X010895Y018480D02*
X020430Y018480D01*
X020331Y018579D02*
X010994Y018579D01*
X011042Y018185D02*
X011790Y018185D01*
X011807Y018190D02*
X011740Y018168D01*
X011677Y018136D01*
X011619Y018094D01*
X011569Y018044D01*
X011528Y017987D01*
X011495Y017924D01*
X011474Y017857D01*
X011462Y017787D01*
X011462Y017501D01*
X011862Y017501D01*
X011862Y017401D01*
X011462Y017401D01*
X011462Y017116D01*
X011474Y017046D01*
X011495Y016978D01*
X011528Y016915D01*
X011569Y016858D01*
X011619Y016808D01*
X011677Y016766D01*
X011698Y016755D01*
X011527Y016755D01*
X011488Y016745D01*
X011454Y016726D01*
X011426Y016698D01*
X011407Y016663D01*
X011396Y016625D01*
X011396Y016301D01*
X011811Y016301D01*
X011811Y016201D01*
X011396Y016201D01*
X011396Y015877D01*
X011407Y015839D01*
X011426Y015805D01*
X011454Y015777D01*
X011488Y015757D01*
X011527Y015747D01*
X011811Y015747D01*
X011811Y016201D01*
X011911Y016201D01*
X011911Y015747D01*
X012196Y015747D01*
X012234Y015757D01*
X012268Y015777D01*
X012296Y015805D01*
X012316Y015839D01*
X012326Y015877D01*
X012326Y016201D01*
X011911Y016201D01*
X011911Y016301D01*
X011811Y016301D01*
X011811Y016712D01*
X011862Y016703D01*
X011862Y017401D01*
X011962Y017401D01*
X011962Y016755D01*
X011911Y016755D01*
X011911Y016301D01*
X012326Y016301D01*
X012326Y016625D01*
X012316Y016663D01*
X012296Y016698D01*
X012268Y016726D01*
X012234Y016745D01*
X012196Y016755D01*
X012127Y016755D01*
X012148Y016766D01*
X012206Y016808D01*
X012256Y016858D01*
X012297Y016915D01*
X012329Y016978D01*
X012351Y017046D01*
X012362Y017116D01*
X012362Y017401D01*
X011963Y017401D01*
X011963Y017501D01*
X012362Y017501D01*
X012362Y017787D01*
X012351Y017857D01*
X012329Y017924D01*
X012297Y017987D01*
X012256Y018044D01*
X012206Y018094D01*
X012148Y018136D01*
X012085Y018168D01*
X012018Y018190D01*
X011962Y018199D01*
X011962Y017501D01*
X011862Y017501D01*
X011862Y018199D01*
X011807Y018190D01*
X011862Y018185D02*
X011962Y018185D01*
X012035Y018185D02*
X012783Y018185D01*
X012823Y018201D02*
X012658Y018133D01*
X012531Y018006D01*
X012462Y017841D01*
X012462Y017062D01*
X012531Y016896D01*
X012658Y016770D01*
X012662Y016768D01*
X012662Y016755D01*
X012586Y016755D01*
X012499Y016668D01*
X012499Y015835D01*
X012586Y015747D01*
X013341Y015747D01*
X013429Y015835D01*
X013429Y016668D01*
X013341Y016755D01*
X013162Y016755D01*
X013162Y016768D01*
X013167Y016770D01*
X013294Y016896D01*
X013362Y017062D01*
X013362Y017841D01*
X013294Y018006D01*
X013167Y018133D01*
X013002Y018201D01*
X012823Y018201D01*
X013042Y018185D02*
X013783Y018185D01*
X013823Y018201D02*
X013658Y018133D01*
X013531Y018006D01*
X013462Y017841D01*
X013462Y017062D01*
X013531Y016896D01*
X013658Y016770D01*
X013823Y016701D01*
X014002Y016701D01*
X014167Y016770D01*
X014294Y016896D01*
X014362Y017062D01*
X014362Y017841D01*
X014294Y018006D01*
X014167Y018133D01*
X014002Y018201D01*
X013823Y018201D01*
X014042Y018185D02*
X014783Y018185D01*
X014611Y018086D02*
X014214Y018086D01*
X014302Y017988D02*
X014523Y017988D01*
X014482Y017889D02*
X014342Y017889D01*
X014362Y017790D02*
X014462Y017790D01*
X014462Y017692D02*
X014362Y017692D01*
X014362Y017593D02*
X014462Y017593D01*
X014462Y017495D02*
X014362Y017495D01*
X014362Y017396D02*
X014462Y017396D01*
X014462Y017298D02*
X014362Y017298D01*
X014362Y017199D02*
X014462Y017199D01*
X014462Y017101D02*
X014362Y017101D01*
X014338Y017002D02*
X014487Y017002D01*
X014528Y016904D02*
X014297Y016904D01*
X014203Y016805D02*
X014622Y016805D01*
X014810Y016706D02*
X014015Y016706D01*
X013810Y016706D02*
X013390Y016706D01*
X013429Y016608D02*
X015073Y016608D01*
X015171Y016509D02*
X013429Y016509D01*
X013429Y016411D02*
X015270Y016411D01*
X015368Y016312D02*
X013429Y016312D01*
X013429Y016214D02*
X016067Y016214D01*
X016166Y016115D02*
X013429Y016115D01*
X013429Y016017D02*
X016264Y016017D01*
X016363Y015918D02*
X013429Y015918D01*
X013413Y015820D02*
X016461Y015820D01*
X016560Y015721D02*
X011112Y015721D01*
X011112Y015622D02*
X016658Y015622D01*
X016757Y015524D02*
X011112Y015524D01*
X011112Y015820D02*
X011418Y015820D01*
X011396Y015918D02*
X011112Y015918D01*
X011112Y016017D02*
X011396Y016017D01*
X011396Y016115D02*
X011112Y016115D01*
X011112Y016214D02*
X011811Y016214D01*
X011811Y016312D02*
X011911Y016312D01*
X011911Y016214D02*
X012499Y016214D01*
X012499Y016312D02*
X012326Y016312D01*
X012326Y016411D02*
X012499Y016411D01*
X012499Y016509D02*
X012326Y016509D01*
X012326Y016608D02*
X012499Y016608D01*
X012537Y016706D02*
X012287Y016706D01*
X012202Y016805D02*
X012622Y016805D01*
X012528Y016904D02*
X012289Y016904D01*
X012337Y017002D02*
X012487Y017002D01*
X012462Y017101D02*
X012360Y017101D01*
X012362Y017199D02*
X012462Y017199D01*
X012462Y017298D02*
X012362Y017298D01*
X012362Y017396D02*
X012462Y017396D01*
X012462Y017495D02*
X011963Y017495D01*
X011962Y017593D02*
X011862Y017593D01*
X011862Y017495D02*
X011362Y017495D01*
X011362Y017593D02*
X011462Y017593D01*
X011462Y017692D02*
X011362Y017692D01*
X011362Y017790D02*
X011463Y017790D01*
X011484Y017889D02*
X011342Y017889D01*
X011302Y017988D02*
X011528Y017988D01*
X011611Y018086D02*
X011214Y018086D01*
X010624Y018210D02*
X010624Y018210D01*
X010484Y018776D02*
X010428Y018776D01*
X010429Y018874D02*
X010582Y018874D01*
X010681Y018973D02*
X010429Y018973D01*
X010429Y019071D02*
X010791Y019071D01*
X010014Y019071D02*
X009914Y019071D01*
X009914Y018973D02*
X010014Y018973D01*
X010014Y018874D02*
X009914Y018874D01*
X009914Y018776D02*
X010014Y018776D01*
X010014Y018677D02*
X009914Y018677D01*
X009913Y019170D02*
X009326Y019170D01*
X009257Y019860D02*
X009567Y019860D01*
X009505Y019958D02*
X009320Y019958D01*
X009360Y020057D02*
X009464Y020057D01*
X009462Y020155D02*
X009362Y020155D01*
X009362Y020254D02*
X009462Y020254D01*
X009462Y020353D02*
X009362Y020353D01*
X009362Y020451D02*
X009462Y020451D01*
X009462Y020550D02*
X009362Y020550D01*
X009362Y020648D02*
X009462Y020648D01*
X009462Y020747D02*
X009362Y020747D01*
X009361Y020845D02*
X009464Y020845D01*
X009505Y020944D02*
X009320Y020944D01*
X009258Y021042D02*
X009567Y021042D01*
X009678Y021141D02*
X009147Y021141D01*
X007662Y021141D02*
X006876Y021141D01*
X006778Y021239D02*
X007662Y021239D01*
X007662Y021338D02*
X006679Y021338D01*
X006581Y021437D02*
X007662Y021437D01*
X007662Y021535D02*
X006482Y021535D01*
X006383Y021634D02*
X007662Y021634D01*
X007662Y021732D02*
X006272Y021732D01*
X006222Y021946D02*
X005938Y021946D01*
X005899Y021956D01*
X005865Y021976D01*
X005837Y022004D01*
X005818Y022038D01*
X005807Y022076D01*
X005807Y022401D01*
X006222Y022401D01*
X006222Y022501D01*
X005807Y022501D01*
X005807Y022826D01*
X005818Y022864D01*
X005837Y022898D01*
X005865Y022926D01*
X005899Y022946D01*
X005938Y022956D01*
X006222Y022956D01*
X006222Y022501D01*
X006322Y022501D01*
X006322Y022956D01*
X006607Y022956D01*
X006645Y022946D01*
X006679Y022926D01*
X006707Y022898D01*
X006727Y022864D01*
X006737Y022826D01*
X006737Y022501D01*
X006322Y022501D01*
X006322Y022401D01*
X006322Y021946D01*
X006607Y021946D01*
X006645Y021956D01*
X006679Y021976D01*
X006707Y022004D01*
X006727Y022038D01*
X006737Y022076D01*
X006737Y022401D01*
X006322Y022401D01*
X006222Y022401D01*
X006222Y021946D01*
X006222Y022028D02*
X006322Y022028D01*
X006322Y022126D02*
X006222Y022126D01*
X006222Y022225D02*
X006322Y022225D01*
X006322Y022323D02*
X006222Y022323D01*
X006222Y022422D02*
X005618Y022422D01*
X005618Y022521D02*
X005807Y022521D01*
X005807Y022619D02*
X005618Y022619D01*
X005618Y022718D02*
X005807Y022718D01*
X005807Y022816D02*
X005618Y022816D01*
X005571Y022915D02*
X005854Y022915D01*
X005956Y023112D02*
X007462Y023112D01*
X007462Y023210D02*
X006054Y023210D01*
X006153Y023309D02*
X007462Y023309D01*
X007462Y023407D02*
X006251Y023407D01*
X006350Y023506D02*
X007462Y023506D01*
X007462Y023604D02*
X006449Y023604D01*
X006547Y023703D02*
X007462Y023703D01*
X007462Y023802D02*
X006646Y023802D01*
X006744Y023900D02*
X007487Y023900D01*
X007528Y023999D02*
X006843Y023999D01*
X006941Y024097D02*
X007622Y024097D01*
X007810Y024196D02*
X007040Y024196D01*
X007138Y024294D02*
X009555Y024294D01*
X009522Y024393D02*
X007237Y024393D01*
X007335Y024491D02*
X009522Y024491D01*
X009548Y024590D02*
X007434Y024590D01*
X007312Y025051D02*
X012353Y025051D01*
X012853Y024551D01*
X012388Y024590D02*
X011856Y024590D01*
X011758Y024688D02*
X012388Y024688D01*
X012334Y024787D02*
X011659Y024787D01*
X011312Y024851D02*
X011912Y024251D01*
X011912Y023451D01*
X012338Y023900D02*
X012487Y023900D01*
X012462Y023802D02*
X012362Y023802D01*
X012362Y023703D02*
X012462Y023703D01*
X012462Y023604D02*
X012362Y023604D01*
X012362Y023506D02*
X012462Y023506D01*
X012528Y023999D02*
X012297Y023999D01*
X012203Y024097D02*
X012425Y024097D01*
X012388Y024196D02*
X012112Y024196D01*
X012112Y024294D02*
X012388Y024294D01*
X012388Y024393D02*
X012054Y024393D01*
X011955Y024491D02*
X012388Y024491D01*
X010783Y022718D02*
X010042Y022718D01*
X010214Y022816D02*
X010611Y022816D01*
X010523Y022915D02*
X010301Y022915D01*
X010342Y023013D02*
X010482Y023013D01*
X010462Y023112D02*
X010362Y023112D01*
X010362Y023210D02*
X010462Y023210D01*
X010462Y023309D02*
X010362Y023309D01*
X010362Y023407D02*
X010462Y023407D01*
X010462Y023506D02*
X010362Y023506D01*
X010362Y023604D02*
X010462Y023604D01*
X010462Y023703D02*
X010362Y023703D01*
X010362Y023802D02*
X010462Y023802D01*
X010487Y023900D02*
X010338Y023900D01*
X010297Y023999D02*
X010528Y023999D01*
X010622Y024097D02*
X010203Y024097D01*
X010209Y024196D02*
X010616Y024196D01*
X010555Y024294D02*
X010270Y024294D01*
X010302Y024393D02*
X010522Y024393D01*
X010522Y024491D02*
X010302Y024491D01*
X010277Y024590D02*
X010548Y024590D01*
X009616Y024196D02*
X009015Y024196D01*
X009002Y024201D02*
X008823Y024201D01*
X008658Y024133D01*
X008531Y024006D01*
X008462Y023841D01*
X008462Y023062D01*
X008531Y022896D01*
X008658Y022770D01*
X008823Y022701D01*
X009002Y022701D01*
X009167Y022770D01*
X009294Y022896D01*
X009362Y023062D01*
X009362Y023841D01*
X009294Y024006D01*
X009167Y024133D01*
X009002Y024201D01*
X008810Y024196D02*
X008015Y024196D01*
X008203Y024097D02*
X008622Y024097D01*
X008528Y023999D02*
X008297Y023999D01*
X008338Y023900D02*
X008487Y023900D01*
X008462Y023802D02*
X008362Y023802D01*
X008362Y023703D02*
X008462Y023703D01*
X008462Y023604D02*
X008362Y023604D01*
X008362Y023506D02*
X008462Y023506D01*
X008462Y023407D02*
X008362Y023407D01*
X008362Y023309D02*
X008462Y023309D01*
X008462Y023210D02*
X008362Y023210D01*
X008362Y023112D02*
X008462Y023112D01*
X008482Y023013D02*
X008342Y023013D01*
X008301Y022915D02*
X008523Y022915D01*
X008611Y022816D02*
X008214Y022816D01*
X008162Y022718D02*
X008783Y022718D01*
X009042Y022718D02*
X009783Y022718D01*
X009611Y022816D02*
X009214Y022816D01*
X009301Y022915D02*
X009523Y022915D01*
X009482Y023013D02*
X009342Y023013D01*
X009362Y023112D02*
X009462Y023112D01*
X009462Y023210D02*
X009362Y023210D01*
X009362Y023309D02*
X009462Y023309D01*
X009462Y023407D02*
X009362Y023407D01*
X009362Y023506D02*
X009462Y023506D01*
X009462Y023604D02*
X009362Y023604D01*
X009362Y023703D02*
X009462Y023703D01*
X009462Y023802D02*
X009362Y023802D01*
X009338Y023900D02*
X009487Y023900D01*
X009528Y023999D02*
X009297Y023999D01*
X009203Y024097D02*
X009622Y024097D01*
X007662Y022718D02*
X006737Y022718D01*
X006737Y022816D02*
X007611Y022816D01*
X007523Y022915D02*
X006691Y022915D01*
X006737Y022619D02*
X007662Y022619D01*
X007662Y022521D02*
X006737Y022521D01*
X006737Y022323D02*
X007662Y022323D01*
X007662Y022225D02*
X006737Y022225D01*
X006737Y022126D02*
X007662Y022126D01*
X007662Y022028D02*
X006721Y022028D01*
X006322Y022422D02*
X007662Y022422D01*
X007482Y023013D02*
X005557Y023013D01*
X005287Y023309D02*
X004653Y023309D01*
X004751Y023407D02*
X005386Y023407D01*
X005312Y023334D02*
X005312Y023334D01*
X005189Y023210D02*
X004554Y023210D01*
X004312Y023251D02*
X004712Y023651D01*
X005912Y023651D01*
X007312Y025051D01*
X007057Y025378D02*
X006362Y025378D01*
X006362Y025280D02*
X006958Y025280D01*
X006860Y025181D02*
X006362Y025181D01*
X006362Y025083D02*
X006761Y025083D01*
X006663Y024984D02*
X006362Y024984D01*
X006362Y024886D02*
X006564Y024886D01*
X006465Y024787D02*
X006362Y024787D01*
X006367Y024688D02*
X006332Y024688D01*
X006071Y024393D02*
X003424Y024393D01*
X003326Y024491D02*
X004636Y024491D01*
X004537Y024590D02*
X004373Y024590D01*
X004417Y024688D02*
X004493Y024688D01*
X004462Y024787D02*
X004417Y024787D01*
X004417Y024886D02*
X004462Y024886D01*
X004462Y024984D02*
X003963Y024984D01*
X003962Y024886D02*
X003862Y024886D01*
X003862Y024984D02*
X003193Y024984D01*
X003234Y024886D02*
X003408Y024886D01*
X003408Y024787D02*
X003253Y024787D01*
X003253Y024688D02*
X003408Y024688D01*
X003451Y024590D02*
X003227Y024590D01*
X002914Y024196D02*
X002898Y024196D01*
X002816Y024294D02*
X000512Y024294D01*
X002512Y023751D02*
X002912Y023751D01*
X003412Y023251D01*
X004312Y023251D01*
X004417Y023639D02*
X004470Y023691D01*
X004417Y023691D01*
X004417Y023639D01*
X003912Y023891D02*
X005853Y023891D01*
X005973Y024294D02*
X004391Y024294D01*
X003962Y024590D02*
X003862Y024590D01*
X003862Y024688D02*
X003962Y024688D01*
X003962Y024787D02*
X003862Y024787D01*
X003862Y025083D02*
X003962Y025083D01*
X003962Y025181D02*
X003862Y025181D01*
X003862Y025280D02*
X003962Y025280D01*
X003962Y025378D02*
X003862Y025378D01*
X003408Y025181D02*
X002933Y025181D01*
X003106Y025083D02*
X003408Y025083D01*
X004417Y025083D02*
X004462Y025083D01*
X004462Y025181D02*
X004417Y025181D01*
X004417Y025280D02*
X004462Y025280D01*
X004462Y025378D02*
X004409Y025378D01*
X003753Y024051D02*
X003912Y023891D01*
X003408Y023801D02*
X003408Y023539D01*
X003253Y023693D01*
X003253Y023840D01*
X003241Y023869D01*
X003271Y023839D01*
X003363Y023801D01*
X003408Y023801D01*
X003362Y023802D02*
X003253Y023802D01*
X003253Y023703D02*
X003408Y023703D01*
X003408Y023604D02*
X003342Y023604D01*
X003072Y023309D02*
X002903Y023309D01*
X003872Y021751D02*
X004112Y021511D01*
X004062Y020845D02*
X004162Y020845D01*
X004162Y020747D02*
X004062Y020747D01*
X004062Y020648D02*
X004162Y020648D01*
X004162Y020550D02*
X004062Y020550D01*
X004062Y020254D02*
X004162Y020254D01*
X004162Y020155D02*
X004062Y020155D01*
X004062Y020057D02*
X004162Y020057D01*
X004162Y019958D02*
X004062Y019958D01*
X004561Y019958D02*
X007505Y019958D01*
X007056Y020254D02*
X004617Y020254D01*
X003212Y019564D02*
X008396Y019564D01*
X008396Y019466D02*
X003152Y019466D01*
X002561Y018185D02*
X002464Y018185D01*
X002464Y018086D02*
X002561Y018086D01*
X002561Y017988D02*
X002464Y017988D01*
X002464Y017692D02*
X002561Y017692D01*
X002561Y017593D02*
X002464Y017593D01*
X002464Y017495D02*
X002561Y017495D01*
X002561Y017396D02*
X002464Y017396D01*
X001948Y017396D02*
X000512Y017396D01*
X000512Y017298D02*
X007462Y017298D01*
X007462Y017396D02*
X003077Y017396D01*
X003172Y017495D02*
X007462Y017495D01*
X007462Y017593D02*
X003225Y017593D01*
X003249Y017692D02*
X007462Y017692D01*
X007462Y017199D02*
X000512Y017199D01*
X000512Y017101D02*
X007462Y017101D01*
X007487Y017002D02*
X000512Y017002D01*
X000512Y016904D02*
X007528Y016904D01*
X007622Y016805D02*
X000512Y016805D01*
X000512Y016509D02*
X010712Y016509D01*
X010712Y016411D02*
X000512Y016411D01*
X000512Y016312D02*
X010712Y016312D01*
X010712Y016214D02*
X000512Y016214D01*
X000512Y016115D02*
X010712Y016115D01*
X010712Y016017D02*
X000512Y016017D01*
X000512Y015918D02*
X010712Y015918D01*
X010712Y015820D02*
X000512Y015820D01*
X000512Y015721D02*
X010712Y015721D01*
X010712Y015622D02*
X000512Y015622D01*
X000512Y015524D02*
X010712Y015524D01*
X010712Y015425D02*
X000512Y015425D01*
X000512Y015327D02*
X010712Y015327D01*
X010712Y015228D02*
X000512Y015228D01*
X000512Y015130D02*
X010751Y015130D01*
X011112Y016312D02*
X011396Y016312D01*
X011396Y016411D02*
X011112Y016411D01*
X011112Y016509D02*
X011396Y016509D01*
X011396Y016608D02*
X011112Y016608D01*
X011112Y016706D02*
X011435Y016706D01*
X011623Y016805D02*
X011203Y016805D01*
X011297Y016904D02*
X011536Y016904D01*
X011488Y017002D02*
X011338Y017002D01*
X011362Y017101D02*
X011465Y017101D01*
X011462Y017199D02*
X011362Y017199D01*
X011362Y017298D02*
X011462Y017298D01*
X011462Y017396D02*
X011362Y017396D01*
X011862Y017396D02*
X011962Y017396D01*
X011962Y017298D02*
X011862Y017298D01*
X011862Y017199D02*
X011962Y017199D01*
X011962Y017101D02*
X011862Y017101D01*
X011862Y017002D02*
X011962Y017002D01*
X011962Y016904D02*
X011862Y016904D01*
X011862Y016805D02*
X011962Y016805D01*
X011911Y016706D02*
X011862Y016706D01*
X011844Y016706D02*
X011811Y016706D01*
X011811Y016608D02*
X011911Y016608D01*
X011911Y016509D02*
X011811Y016509D01*
X011811Y016411D02*
X011911Y016411D01*
X011911Y016115D02*
X011811Y016115D01*
X011811Y016017D02*
X011911Y016017D01*
X011911Y015918D02*
X011811Y015918D01*
X011811Y015820D02*
X011911Y015820D01*
X012305Y015820D02*
X012514Y015820D01*
X012499Y015918D02*
X012326Y015918D01*
X012326Y016017D02*
X012499Y016017D01*
X012499Y016115D02*
X012326Y016115D01*
X013203Y016805D02*
X013622Y016805D01*
X013528Y016904D02*
X013297Y016904D01*
X013338Y017002D02*
X013487Y017002D01*
X013462Y017101D02*
X013362Y017101D01*
X013362Y017199D02*
X013462Y017199D01*
X013462Y017298D02*
X013362Y017298D01*
X013362Y017396D02*
X013462Y017396D01*
X013462Y017495D02*
X013362Y017495D01*
X013362Y017593D02*
X013462Y017593D01*
X013462Y017692D02*
X013362Y017692D01*
X013362Y017790D02*
X013462Y017790D01*
X013482Y017889D02*
X013342Y017889D01*
X013302Y017988D02*
X013523Y017988D01*
X013611Y018086D02*
X013214Y018086D01*
X012611Y018086D02*
X012214Y018086D01*
X012297Y017988D02*
X012523Y017988D01*
X012482Y017889D02*
X012341Y017889D01*
X012362Y017790D02*
X012462Y017790D01*
X012462Y017692D02*
X012362Y017692D01*
X012362Y017593D02*
X012462Y017593D01*
X011962Y017692D02*
X011862Y017692D01*
X011862Y017790D02*
X011962Y017790D01*
X011962Y017889D02*
X011862Y017889D01*
X011862Y017988D02*
X011962Y017988D01*
X011962Y018086D02*
X011862Y018086D01*
X010622Y016805D02*
X010203Y016805D01*
X010297Y016904D02*
X010528Y016904D01*
X010487Y017002D02*
X010338Y017002D01*
X010362Y017101D02*
X010462Y017101D01*
X010462Y017199D02*
X010362Y017199D01*
X010362Y017298D02*
X010462Y017298D01*
X010462Y017396D02*
X010362Y017396D01*
X007738Y014788D02*
X007949Y014577D01*
X008064Y014301D01*
X008064Y014002D01*
X007949Y013726D01*
X007738Y013514D01*
X007462Y013400D01*
X007163Y013400D01*
X006887Y013514D01*
X006676Y013726D01*
X006561Y014002D01*
X006561Y014301D01*
X006676Y014577D01*
X006887Y014788D01*
X007163Y014902D01*
X007462Y014902D01*
X007738Y014788D01*
X007790Y014736D02*
X016545Y014736D01*
X016447Y014834D02*
X007626Y014834D01*
X007889Y014637D02*
X016644Y014637D01*
X016742Y014539D02*
X007965Y014539D01*
X008006Y014440D02*
X016841Y014440D01*
X016939Y014341D02*
X008047Y014341D01*
X008064Y014243D02*
X017038Y014243D01*
X017136Y014144D02*
X008064Y014144D01*
X008064Y014046D02*
X017235Y014046D01*
X017334Y013947D02*
X008041Y013947D01*
X008000Y013849D02*
X017432Y013849D01*
X017531Y013750D02*
X007959Y013750D01*
X007875Y013652D02*
X017629Y013652D01*
X017728Y013553D02*
X007777Y013553D01*
X007593Y013455D02*
X017826Y013455D01*
X017925Y013356D02*
X000512Y013356D01*
X000512Y013455D02*
X007031Y013455D01*
X006848Y013553D02*
X000512Y013553D01*
X000512Y013652D02*
X006750Y013652D01*
X006665Y013750D02*
X000512Y013750D01*
X000512Y013849D02*
X006625Y013849D01*
X006584Y013947D02*
X000512Y013947D01*
X000512Y014046D02*
X006561Y014046D01*
X006561Y014144D02*
X000512Y014144D01*
X000512Y014243D02*
X006561Y014243D01*
X006578Y014341D02*
X000512Y014341D01*
X000512Y014440D02*
X006619Y014440D01*
X006660Y014539D02*
X000512Y014539D01*
X000512Y014637D02*
X006736Y014637D01*
X006835Y014736D02*
X000512Y014736D01*
X000512Y014834D02*
X006998Y014834D01*
X003812Y010794D02*
X019812Y010794D01*
X019812Y010892D02*
X019632Y010892D01*
X019712Y010991D02*
X019812Y010991D01*
X019812Y011089D02*
X019751Y011089D01*
X019751Y011188D02*
X019812Y011188D01*
X019812Y011287D02*
X019722Y011287D01*
X019657Y011385D02*
X019812Y011385D01*
X019812Y011484D02*
X019612Y011484D01*
X019612Y011582D02*
X019812Y011582D01*
X019812Y011681D02*
X019612Y011681D01*
X019612Y011779D02*
X019812Y011779D01*
X019812Y011878D02*
X019612Y011878D01*
X019612Y011976D02*
X019812Y011976D01*
X019812Y012075D02*
X019612Y012075D01*
X019612Y012173D02*
X019812Y012173D01*
X019812Y012272D02*
X019574Y012272D01*
X019476Y012371D02*
X019812Y012371D01*
X019812Y012469D02*
X019377Y012469D01*
X019279Y012568D02*
X019713Y012568D01*
X019615Y012666D02*
X019180Y012666D01*
X019082Y012765D02*
X019516Y012765D01*
X019417Y012863D02*
X018983Y012863D01*
X018885Y012962D02*
X019319Y012962D01*
X019220Y013060D02*
X018786Y013060D01*
X018688Y013159D02*
X019122Y013159D01*
X019023Y013257D02*
X018589Y013257D01*
X018490Y013356D02*
X018925Y013356D01*
X018826Y013455D02*
X018392Y013455D01*
X018293Y013553D02*
X018728Y013553D01*
X018629Y013652D02*
X018195Y013652D01*
X018096Y013750D02*
X018531Y013750D01*
X018432Y013849D02*
X017998Y013849D01*
X017899Y013947D02*
X018334Y013947D01*
X018235Y014046D02*
X017801Y014046D01*
X017702Y014144D02*
X018136Y014144D01*
X018038Y014243D02*
X017604Y014243D01*
X017505Y014341D02*
X017939Y014341D01*
X017841Y014440D02*
X017406Y014440D01*
X017308Y014539D02*
X017742Y014539D01*
X017644Y014637D02*
X017209Y014637D01*
X017111Y014736D02*
X017545Y014736D01*
X017447Y014834D02*
X017012Y014834D01*
X016914Y014933D02*
X017348Y014933D01*
X017250Y015031D02*
X016815Y015031D01*
X016717Y015130D02*
X017151Y015130D01*
X017052Y015228D02*
X016618Y015228D01*
X016520Y015327D02*
X016954Y015327D01*
X016855Y015425D02*
X016421Y015425D01*
X016250Y015031D02*
X000512Y015031D01*
X000512Y014933D02*
X016348Y014933D01*
X017027Y015820D02*
X017261Y015820D01*
X017163Y015918D02*
X016928Y015918D01*
X016830Y016017D02*
X017064Y016017D01*
X016966Y016115D02*
X016731Y016115D01*
X016633Y016214D02*
X016867Y016214D01*
X016768Y016312D02*
X016534Y016312D01*
X016436Y016411D02*
X016670Y016411D01*
X016571Y016509D02*
X016337Y016509D01*
X016239Y016608D02*
X016473Y016608D01*
X016112Y016451D02*
X020012Y012551D01*
X020012Y006751D01*
X020312Y006451D01*
X020466Y006754D02*
X020712Y006754D01*
X020712Y006852D02*
X020212Y006852D01*
X020212Y006951D02*
X020712Y006951D01*
X020712Y007049D02*
X020212Y007049D01*
X020212Y007148D02*
X020712Y007148D01*
X020712Y007246D02*
X020212Y007246D01*
X020212Y007345D02*
X020712Y007345D01*
X020712Y007443D02*
X020212Y007443D01*
X020212Y007542D02*
X020712Y007542D01*
X020712Y007640D02*
X020212Y007640D01*
X020212Y007739D02*
X020712Y007739D01*
X020712Y007838D02*
X020212Y007838D01*
X020212Y007936D02*
X020712Y007936D01*
X020712Y008035D02*
X020212Y008035D01*
X020212Y008133D02*
X020712Y008133D01*
X020712Y008232D02*
X020212Y008232D01*
X020212Y008330D02*
X020712Y008330D01*
X020712Y008429D02*
X020212Y008429D01*
X020212Y008527D02*
X020712Y008527D01*
X020712Y008626D02*
X020212Y008626D01*
X020212Y008724D02*
X020712Y008724D01*
X020712Y008823D02*
X020212Y008823D01*
X020212Y008922D02*
X020712Y008922D01*
X020712Y009020D02*
X020212Y009020D01*
X020212Y009119D02*
X020712Y009119D01*
X020712Y009217D02*
X020212Y009217D01*
X020212Y009316D02*
X020712Y009316D01*
X020712Y009414D02*
X020212Y009414D01*
X020212Y009513D02*
X020712Y009513D01*
X020712Y009611D02*
X020212Y009611D01*
X020212Y009710D02*
X020712Y009710D01*
X020712Y009808D02*
X020212Y009808D01*
X020212Y009907D02*
X020712Y009907D01*
X020712Y010006D02*
X020212Y010006D01*
X020212Y010104D02*
X020712Y010104D01*
X020712Y010203D02*
X020212Y010203D01*
X020212Y010301D02*
X020712Y010301D01*
X020712Y010400D02*
X020212Y010400D01*
X020212Y010498D02*
X020712Y010498D01*
X020712Y010597D02*
X020212Y010597D01*
X020212Y010695D02*
X020712Y010695D01*
X020712Y010794D02*
X020212Y010794D01*
X020212Y010892D02*
X020712Y010892D01*
X020712Y010991D02*
X020212Y010991D01*
X020212Y011089D02*
X020712Y011089D01*
X020712Y011188D02*
X020212Y011188D01*
X020212Y011287D02*
X020712Y011287D01*
X020712Y011385D02*
X020212Y011385D01*
X020212Y011484D02*
X020712Y011484D01*
X020712Y011582D02*
X020212Y011582D01*
X020212Y011681D02*
X020712Y011681D01*
X020712Y011779D02*
X020212Y011779D01*
X020212Y011878D02*
X020712Y011878D01*
X020712Y011976D02*
X020212Y011976D01*
X020212Y012075D02*
X020712Y012075D01*
X020712Y012173D02*
X020212Y012173D01*
X020212Y012272D02*
X020712Y012272D01*
X020710Y012371D02*
X020212Y012371D01*
X020212Y012469D02*
X020612Y012469D01*
X020513Y012568D02*
X020212Y012568D01*
X020180Y012666D02*
X020415Y012666D01*
X020316Y012765D02*
X020082Y012765D01*
X019983Y012863D02*
X020217Y012863D01*
X020119Y012962D02*
X019885Y012962D01*
X019786Y013060D02*
X020020Y013060D01*
X019922Y013159D02*
X019688Y013159D01*
X019589Y013257D02*
X019823Y013257D01*
X019725Y013356D02*
X019490Y013356D01*
X019392Y013455D02*
X019626Y013455D01*
X019528Y013553D02*
X019293Y013553D01*
X019195Y013652D02*
X019429Y013652D01*
X019331Y013750D02*
X019096Y013750D01*
X018998Y013849D02*
X019232Y013849D01*
X019134Y013947D02*
X018899Y013947D01*
X018801Y014046D02*
X019035Y014046D01*
X018936Y014144D02*
X018702Y014144D01*
X018604Y014243D02*
X018838Y014243D01*
X018739Y014341D02*
X018505Y014341D01*
X018406Y014440D02*
X018641Y014440D01*
X018542Y014539D02*
X018308Y014539D01*
X018209Y014637D02*
X018444Y014637D01*
X018345Y014736D02*
X018111Y014736D01*
X018012Y014834D02*
X018247Y014834D01*
X018148Y014933D02*
X017914Y014933D01*
X017815Y015031D02*
X018050Y015031D01*
X017951Y015130D02*
X017717Y015130D01*
X017618Y015228D02*
X017852Y015228D01*
X017754Y015327D02*
X017520Y015327D01*
X017421Y015425D02*
X017655Y015425D01*
X017557Y015524D02*
X017322Y015524D01*
X017224Y015622D02*
X017458Y015622D01*
X017360Y015721D02*
X017125Y015721D01*
X017203Y016805D02*
X017622Y016805D01*
X017528Y016904D02*
X017297Y016904D01*
X017338Y017002D02*
X017487Y017002D01*
X017462Y017101D02*
X017362Y017101D01*
X017362Y017199D02*
X017462Y017199D01*
X017462Y017298D02*
X017362Y017298D01*
X017362Y017396D02*
X017462Y017396D01*
X017462Y017495D02*
X017362Y017495D01*
X017362Y017593D02*
X017462Y017593D01*
X017462Y017692D02*
X017362Y017692D01*
X017362Y017790D02*
X017462Y017790D01*
X017482Y017889D02*
X017342Y017889D01*
X017302Y017988D02*
X017523Y017988D01*
X017611Y018086D02*
X017214Y018086D01*
X018214Y018086D02*
X018611Y018086D01*
X018523Y017988D02*
X018302Y017988D01*
X018342Y017889D02*
X018482Y017889D01*
X018462Y017790D02*
X018362Y017790D01*
X018362Y017692D02*
X018462Y017692D01*
X018462Y017593D02*
X018362Y017593D01*
X018362Y017495D02*
X018462Y017495D01*
X018462Y017396D02*
X018362Y017396D01*
X018362Y017298D02*
X018462Y017298D01*
X018462Y017199D02*
X018362Y017199D01*
X018362Y017101D02*
X018462Y017101D01*
X018487Y017002D02*
X018338Y017002D01*
X018297Y016904D02*
X018528Y016904D01*
X018622Y016805D02*
X018203Y016805D01*
X019203Y016805D02*
X019623Y016805D01*
X019536Y016904D02*
X019297Y016904D01*
X019338Y017002D02*
X019488Y017002D01*
X019465Y017101D02*
X019362Y017101D01*
X019362Y017199D02*
X019462Y017199D01*
X019462Y017298D02*
X019362Y017298D01*
X019362Y017396D02*
X019462Y017396D01*
X019362Y017495D02*
X019862Y017495D01*
X019862Y017593D02*
X019962Y017593D01*
X019963Y017495D02*
X020462Y017495D01*
X020462Y017593D02*
X020362Y017593D01*
X020362Y017692D02*
X020462Y017692D01*
X020462Y017790D02*
X020362Y017790D01*
X020341Y017889D02*
X020482Y017889D01*
X020523Y017988D02*
X020297Y017988D01*
X020214Y018086D02*
X020611Y018086D01*
X020462Y017396D02*
X020362Y017396D01*
X020362Y017298D02*
X020462Y017298D01*
X020462Y017199D02*
X020362Y017199D01*
X020360Y017101D02*
X020462Y017101D01*
X020487Y017002D02*
X020337Y017002D01*
X020289Y016904D02*
X020528Y016904D01*
X020622Y016805D02*
X020202Y016805D01*
X019962Y016805D02*
X019862Y016805D01*
X019862Y016904D02*
X019962Y016904D01*
X019962Y017002D02*
X019862Y017002D01*
X019862Y017101D02*
X019962Y017101D01*
X019962Y017199D02*
X019862Y017199D01*
X019862Y017298D02*
X019962Y017298D01*
X019962Y017396D02*
X019862Y017396D01*
X019862Y017692D02*
X019962Y017692D01*
X019962Y017790D02*
X019862Y017790D01*
X019862Y017889D02*
X019962Y017889D01*
X019962Y017988D02*
X019862Y017988D01*
X019862Y018086D02*
X019962Y018086D01*
X019611Y018086D02*
X019214Y018086D01*
X019302Y017988D02*
X019528Y017988D01*
X019484Y017889D02*
X019342Y017889D01*
X019362Y017790D02*
X019463Y017790D01*
X019462Y017692D02*
X019362Y017692D01*
X019362Y017593D02*
X019462Y017593D01*
X016112Y016451D02*
X015512Y016451D01*
X014912Y017051D01*
X014912Y017451D01*
X018023Y013257D02*
X000512Y013257D01*
X000512Y013159D02*
X018122Y013159D01*
X018220Y013060D02*
X000512Y013060D01*
X000512Y012962D02*
X018319Y012962D01*
X018417Y012863D02*
X000512Y012863D01*
X000512Y012765D02*
X018516Y012765D01*
X018615Y012666D02*
X000512Y012666D01*
X000512Y012568D02*
X018713Y012568D01*
X018812Y012469D02*
X000512Y012469D01*
X000512Y012371D02*
X018910Y012371D01*
X019009Y012272D02*
X000512Y012272D01*
X000512Y012173D02*
X019107Y012173D01*
X019812Y010695D02*
X003812Y010695D01*
X003812Y010597D02*
X019812Y010597D01*
X019812Y010498D02*
X003812Y010498D01*
X003812Y010400D02*
X019812Y010400D01*
X019812Y010301D02*
X003812Y010301D01*
X003812Y010203D02*
X019812Y010203D01*
X019812Y010104D02*
X003812Y010104D01*
X003812Y010006D02*
X019812Y010006D01*
X019812Y009907D02*
X003812Y009907D01*
X003812Y009808D02*
X019812Y009808D01*
X019812Y009710D02*
X003812Y009710D01*
X003812Y009611D02*
X019812Y009611D01*
X019812Y009513D02*
X003812Y009513D01*
X003812Y009414D02*
X019812Y009414D01*
X019812Y009316D02*
X003812Y009316D01*
X003812Y009217D02*
X019812Y009217D01*
X019812Y009119D02*
X003812Y009119D01*
X003812Y009020D02*
X019812Y009020D01*
X019812Y008922D02*
X003812Y008922D01*
X003812Y008823D02*
X019812Y008823D01*
X019812Y008724D02*
X003812Y008724D01*
X003812Y008626D02*
X019812Y008626D01*
X019812Y008527D02*
X003812Y008527D01*
X003812Y008429D02*
X019812Y008429D01*
X019812Y008330D02*
X003812Y008330D01*
X003812Y008232D02*
X019812Y008232D01*
X019812Y008133D02*
X003812Y008133D01*
X003812Y008035D02*
X019812Y008035D01*
X019812Y007936D02*
X003812Y007936D01*
X003812Y007838D02*
X019812Y007838D01*
X019812Y007739D02*
X003812Y007739D01*
X003812Y007640D02*
X019812Y007640D01*
X019812Y007542D02*
X003812Y007542D01*
X003812Y007443D02*
X019812Y007443D01*
X019812Y007345D02*
X003812Y007345D01*
X003812Y007246D02*
X019812Y007246D01*
X019812Y007148D02*
X003812Y007148D01*
X003812Y007049D02*
X019812Y007049D01*
X019812Y006951D02*
X003812Y006951D01*
X003812Y006852D02*
X019812Y006852D01*
X019812Y006754D02*
X003812Y006754D01*
X003812Y006655D02*
X019826Y006655D01*
X019924Y006556D02*
X003812Y006556D01*
X003812Y006458D02*
X019974Y006458D01*
X019984Y006359D02*
X003812Y006359D01*
X003812Y006261D02*
X020025Y006261D01*
X020126Y006162D02*
X003812Y006162D01*
X003812Y006064D02*
X022112Y006064D01*
X022112Y006162D02*
X021099Y006162D01*
X021200Y006261D02*
X022112Y006261D01*
X022112Y006359D02*
X021240Y006359D01*
X020726Y006162D02*
X020499Y006162D01*
X020600Y006261D02*
X020625Y006261D01*
X020638Y006655D02*
X020587Y006655D01*
X022112Y005965D02*
X003812Y005965D01*
X003812Y005867D02*
X022112Y005867D01*
X022112Y005768D02*
X003812Y005768D01*
X003812Y005670D02*
X022112Y005670D01*
X022112Y005571D02*
X003812Y005571D01*
X003812Y005473D02*
X022112Y005473D01*
X022112Y005374D02*
X003812Y005374D01*
X003812Y005275D02*
X022112Y005275D01*
X022112Y005177D02*
X003812Y005177D01*
X003812Y005078D02*
X022112Y005078D01*
X022112Y004980D02*
X003812Y004980D01*
X003812Y004881D02*
X022112Y004881D01*
X022112Y004783D02*
X003812Y004783D01*
X003812Y004684D02*
X022112Y004684D01*
X022112Y004586D02*
X003812Y004586D01*
X003812Y004487D02*
X022112Y004487D01*
X022112Y004389D02*
X003812Y004389D01*
X003812Y004290D02*
X022112Y004290D01*
X022112Y004191D02*
X003812Y004191D01*
X003812Y004093D02*
X022112Y004093D01*
X022112Y003994D02*
X003893Y003994D01*
X003992Y003896D02*
X022112Y003896D01*
X022112Y003797D02*
X004091Y003797D01*
X004189Y003699D02*
X022112Y003699D01*
X022112Y003600D02*
X004288Y003600D01*
X004386Y003502D02*
X022112Y003502D01*
X022112Y003403D02*
X004485Y003403D01*
X004583Y003305D02*
X022112Y003305D01*
X022112Y003206D02*
X004682Y003206D01*
X004780Y003107D02*
X022112Y003107D01*
X022112Y003009D02*
X004879Y003009D01*
X004977Y002910D02*
X006154Y002910D01*
X006056Y002812D02*
X005076Y002812D01*
X005175Y002713D02*
X006002Y002713D01*
X005976Y002615D02*
X005273Y002615D01*
X005607Y001432D02*
X000512Y001432D01*
X000512Y001334D02*
X005706Y001334D01*
X006103Y001235D02*
X000512Y001235D01*
X000512Y001137D02*
X006254Y001137D01*
X001853Y017495D02*
X000512Y017495D01*
X000512Y017593D02*
X001800Y017593D01*
X001776Y017692D02*
X000512Y017692D01*
X005611Y022028D02*
X005824Y022028D01*
X005807Y022126D02*
X005618Y022126D01*
X005618Y022225D02*
X005807Y022225D01*
X005807Y022323D02*
X005618Y022323D01*
X006222Y022521D02*
X006322Y022521D01*
X006322Y022619D02*
X006222Y022619D01*
X006222Y022718D02*
X006322Y022718D01*
X006322Y022816D02*
X006222Y022816D01*
X006222Y022915D02*
X006322Y022915D01*
X006975Y021042D02*
X007567Y021042D01*
X007505Y020944D02*
X007073Y020944D01*
X007172Y020845D02*
X007464Y020845D01*
X007462Y020747D02*
X007270Y020747D01*
X006362Y025477D02*
X022112Y025477D01*
X022112Y025575D02*
X006348Y025575D01*
X006307Y025674D02*
X022112Y025674D01*
X022112Y025772D02*
X006228Y025772D01*
X006075Y025871D02*
X022112Y025871D01*
X020622Y024097D02*
X020203Y024097D01*
X020297Y023999D02*
X020528Y023999D01*
X020487Y023900D02*
X020338Y023900D01*
X020362Y023802D02*
X020462Y023802D01*
X020462Y023703D02*
X020362Y023703D01*
X020362Y023604D02*
X020462Y023604D01*
X020462Y023506D02*
X020362Y023506D01*
X020362Y023407D02*
X020462Y023407D01*
X020462Y023309D02*
X020362Y023309D01*
X020362Y023210D02*
X020462Y023210D01*
X020462Y023112D02*
X020362Y023112D01*
X020342Y023013D02*
X020482Y023013D01*
X020523Y022915D02*
X020301Y022915D01*
X020214Y022816D02*
X020611Y022816D01*
X019611Y022816D02*
X019214Y022816D01*
X019301Y022915D02*
X019523Y022915D01*
X019482Y023013D02*
X019342Y023013D01*
X019362Y023112D02*
X019462Y023112D01*
X019462Y023210D02*
X019362Y023210D01*
X019362Y023309D02*
X019462Y023309D01*
X019462Y023407D02*
X019362Y023407D01*
X019362Y023506D02*
X019462Y023506D01*
X019462Y023604D02*
X019362Y023604D01*
X019362Y023703D02*
X019462Y023703D01*
X019462Y023802D02*
X019362Y023802D01*
X019338Y023900D02*
X019487Y023900D01*
X019528Y023999D02*
X019297Y023999D01*
X019203Y024097D02*
X019622Y024097D01*
X018622Y024097D02*
X018203Y024097D01*
X018297Y023999D02*
X018528Y023999D01*
X018487Y023900D02*
X018338Y023900D01*
X018362Y023802D02*
X018462Y023802D01*
X018462Y023703D02*
X018362Y023703D01*
X018362Y023604D02*
X018462Y023604D01*
X018462Y023506D02*
X018362Y023506D01*
X018362Y023407D02*
X018462Y023407D01*
X018462Y023309D02*
X018362Y023309D01*
X018362Y023210D02*
X018462Y023210D01*
X018462Y023112D02*
X018362Y023112D01*
X018342Y023013D02*
X018482Y023013D01*
X018523Y022915D02*
X018301Y022915D01*
X018214Y022816D02*
X018611Y022816D01*
X017611Y022816D02*
X017214Y022816D01*
X017301Y022915D02*
X017523Y022915D01*
X017482Y023013D02*
X017342Y023013D01*
X017362Y023112D02*
X017462Y023112D01*
X017462Y023210D02*
X017362Y023210D01*
X017362Y023309D02*
X017462Y023309D01*
X017462Y023407D02*
X017362Y023407D01*
X017362Y023506D02*
X017462Y023506D01*
X017462Y023604D02*
X017362Y023604D01*
X017362Y023703D02*
X017462Y023703D01*
X017462Y023802D02*
X017362Y023802D01*
X017338Y023900D02*
X017487Y023900D01*
X017528Y023999D02*
X017297Y023999D01*
X017203Y024097D02*
X017622Y024097D01*
X016685Y024196D02*
X016015Y024196D01*
X015810Y024196D02*
X015015Y024196D01*
X014810Y024196D02*
X014437Y024196D01*
X014437Y024294D02*
X016586Y024294D01*
X016488Y024393D02*
X014437Y024393D01*
X014437Y024491D02*
X016389Y024491D01*
X016203Y024097D02*
X016622Y024097D01*
X016528Y023999D02*
X016297Y023999D01*
X016338Y023900D02*
X016487Y023900D01*
X016462Y023802D02*
X016362Y023802D01*
X016362Y023703D02*
X016462Y023703D01*
X016462Y023604D02*
X016362Y023604D01*
X016362Y023506D02*
X016462Y023506D01*
X015783Y022718D02*
X015042Y022718D01*
X015214Y022816D02*
X015611Y022816D01*
X015523Y022915D02*
X015301Y022915D01*
X015342Y023013D02*
X015482Y023013D01*
X015462Y023112D02*
X015362Y023112D01*
X015362Y023210D02*
X015462Y023210D01*
X015462Y023309D02*
X015362Y023309D01*
X015362Y023407D02*
X015462Y023407D01*
X015462Y023506D02*
X015362Y023506D01*
X015362Y023604D02*
X015462Y023604D01*
X015462Y023703D02*
X015362Y023703D01*
X015362Y023802D02*
X015462Y023802D01*
X015487Y023900D02*
X015338Y023900D01*
X015297Y023999D02*
X015528Y023999D01*
X015622Y024097D02*
X015203Y024097D01*
X014622Y024097D02*
X014400Y024097D01*
X014289Y023999D02*
X014528Y023999D01*
X014487Y023900D02*
X014337Y023900D01*
X014360Y023802D02*
X014462Y023802D01*
X014462Y023703D02*
X014362Y023703D01*
X014362Y023604D02*
X014462Y023604D01*
X014462Y023506D02*
X014362Y023506D01*
X020813Y002713D02*
X022112Y002713D01*
X022112Y002615D02*
X020911Y002615D01*
X020974Y002516D02*
X022112Y002516D01*
X022112Y002418D02*
X021015Y002418D01*
X021056Y002319D02*
X022112Y002319D01*
X022112Y002221D02*
X021064Y002221D01*
X021064Y002122D02*
X022112Y002122D01*
X022112Y002024D02*
X021064Y002024D01*
X021032Y001925D02*
X022112Y001925D01*
X022112Y001826D02*
X020991Y001826D01*
X020950Y001728D02*
X022112Y001728D01*
X022112Y001629D02*
X020853Y001629D01*
X020754Y001531D02*
X022112Y001531D01*
X022112Y001432D02*
X020540Y001432D01*
D19*
X019012Y008551D03*
X018412Y008551D03*
X017812Y008551D03*
X017212Y008551D03*
X007512Y008551D03*
X006912Y008551D03*
X006312Y008551D03*
X005712Y008551D03*
D20*
X012912Y016251D02*
X012912Y017451D01*
X012912Y016251D02*
X012964Y016251D01*
X010412Y018351D02*
X010912Y018851D01*
X020412Y018851D01*
X020912Y018351D01*
X020912Y017451D01*
X016912Y020451D02*
X016912Y023451D01*
X012912Y023451D02*
X012912Y020451D01*
X011912Y020451D02*
X011912Y023451D01*
X008912Y020451D02*
X008861Y019151D01*
X008861Y018351D01*
X010412Y018351D01*
X007912Y020451D02*
X007212Y020451D01*
X006153Y021511D01*
X004112Y021511D01*
X003872Y021751D02*
X002512Y021751D01*
X002512Y022751D02*
X003612Y022751D01*
X003912Y022451D01*
X005153Y022451D01*
X003753Y024051D02*
X003412Y024051D01*
X002712Y024751D01*
X002512Y024751D01*
X007912Y023451D02*
X007912Y020451D01*
M02*
