G75*
G70*
%OFA0B0*%
%FSLAX24Y24*%
%IPPOS*%
%LPD*%
%AMOC8*
5,1,8,0,0,1.08239X$1,22.5*
%
%ADD10R,0.0118X0.0394*%
%ADD11R,0.4921X0.2047*%
%ADD12R,0.0827X0.0315*%
%ADD13R,0.1004X0.1654*%
%ADD14R,0.0630X0.0709*%
%ADD15R,0.0630X0.0710*%
%ADD16C,0.0600*%
%ADD17R,0.0710X0.0630*%
%ADD18C,0.0591*%
%ADD19C,0.0480*%
%ADD20R,0.2126X0.2441*%
%ADD21R,0.0394X0.0630*%
%ADD22R,0.0709X0.0630*%
%ADD23C,0.0100*%
%ADD24C,0.0376*%
%ADD25C,0.0300*%
%ADD26C,0.0200*%
%ADD27C,0.0337*%
%ADD28C,0.0160*%
D10*
X004309Y006996D03*
X004565Y006996D03*
X004821Y006996D03*
X005077Y006996D03*
X005333Y006996D03*
X005589Y006996D03*
X005845Y006996D03*
X006101Y006996D03*
X006357Y006996D03*
X006612Y006996D03*
X006868Y006996D03*
X007124Y006996D03*
X007380Y006996D03*
X007636Y006996D03*
X007892Y006996D03*
X008148Y006996D03*
X008404Y006996D03*
X008660Y006996D03*
X008916Y006996D03*
X008916Y010106D03*
X008660Y010106D03*
X008404Y010106D03*
X008148Y010106D03*
X007892Y010106D03*
X007636Y010106D03*
X007380Y010106D03*
X007124Y010106D03*
X006868Y010106D03*
X006612Y010106D03*
X006357Y010106D03*
X006101Y010106D03*
X005845Y010106D03*
X005589Y010106D03*
X005333Y010106D03*
X005077Y010106D03*
X004821Y010106D03*
X004565Y010106D03*
X004309Y010106D03*
X015809Y010106D03*
X016065Y010106D03*
X016321Y010106D03*
X016577Y010106D03*
X016833Y010106D03*
X017089Y010106D03*
X017345Y010106D03*
X017601Y010106D03*
X017857Y010106D03*
X018112Y010106D03*
X018368Y010106D03*
X018624Y010106D03*
X018880Y010106D03*
X019136Y010106D03*
X019392Y010106D03*
X019648Y010106D03*
X019904Y010106D03*
X020160Y010106D03*
X020416Y010106D03*
X020416Y006996D03*
X020160Y006996D03*
X019904Y006996D03*
X019648Y006996D03*
X019392Y006996D03*
X019136Y006996D03*
X018880Y006996D03*
X018624Y006996D03*
X018368Y006996D03*
X018112Y006996D03*
X017857Y006996D03*
X017601Y006996D03*
X017345Y006996D03*
X017089Y006996D03*
X016833Y006996D03*
X016577Y006996D03*
X016321Y006996D03*
X016065Y006996D03*
X015809Y006996D03*
D11*
X018112Y008551D03*
X006612Y008551D03*
D12*
X011199Y008305D03*
X011199Y007813D03*
X011199Y007321D03*
X011199Y006829D03*
X011199Y006337D03*
X011199Y005844D03*
X011199Y005352D03*
X011199Y004860D03*
X011199Y004368D03*
X011199Y003876D03*
X013483Y003876D03*
X013483Y004368D03*
X013483Y004860D03*
X013483Y005352D03*
X013483Y005844D03*
X013483Y006337D03*
X013483Y006829D03*
X013483Y007321D03*
X013483Y007813D03*
X013483Y008305D03*
X013483Y008797D03*
X013483Y009289D03*
X013483Y009781D03*
X013483Y010274D03*
X013483Y010766D03*
X013483Y011258D03*
X013483Y011750D03*
X013483Y012242D03*
X013483Y012734D03*
X013483Y013226D03*
X011199Y013226D03*
X011199Y012734D03*
X011199Y012242D03*
X011199Y011750D03*
X011199Y011258D03*
X011199Y010766D03*
X011199Y010274D03*
X011199Y009781D03*
X011199Y009289D03*
X011199Y008797D03*
D13*
X011110Y014358D03*
X013945Y014358D03*
X013945Y002744D03*
X011110Y002744D03*
D14*
X015161Y004751D03*
X016264Y004751D03*
X018861Y005451D03*
X019964Y005451D03*
X012064Y021951D03*
X010961Y021951D03*
X009864Y021951D03*
X008761Y021951D03*
X005364Y011751D03*
X004261Y011751D03*
X002464Y006351D03*
X001361Y006351D03*
D15*
X004253Y013351D03*
X005372Y013351D03*
X018253Y004251D03*
X019372Y004251D03*
X020053Y015851D03*
X021172Y015851D03*
D16*
X020912Y017151D02*
X020912Y017751D01*
X019912Y017751D02*
X019912Y017151D01*
X018912Y017151D02*
X018912Y017751D01*
X017912Y017751D02*
X017912Y017151D01*
X016912Y017151D02*
X016912Y017751D01*
X015912Y017751D02*
X015912Y017151D01*
X014912Y017151D02*
X014912Y017751D01*
X013912Y017751D02*
X013912Y017151D01*
X012912Y017151D02*
X012912Y017751D01*
X011912Y017751D02*
X011912Y017151D01*
X010912Y017151D02*
X010912Y017751D01*
X009912Y017751D02*
X009912Y017151D01*
X008912Y017151D02*
X008912Y017751D01*
X007912Y017751D02*
X007912Y017151D01*
X007912Y020151D02*
X007912Y020751D01*
X008912Y020751D02*
X008912Y020151D01*
X009912Y020151D02*
X009912Y020751D01*
X010912Y020751D02*
X010912Y020151D01*
X011912Y020151D02*
X011912Y020751D01*
X012912Y020751D02*
X012912Y020151D01*
X013912Y020151D02*
X013912Y020751D01*
X014912Y020751D02*
X014912Y020151D01*
X015912Y020151D02*
X015912Y020751D01*
X016912Y020751D02*
X016912Y020151D01*
X017912Y020151D02*
X017912Y020751D01*
X018912Y020751D02*
X018912Y020151D01*
X019912Y020151D02*
X019912Y020751D01*
X020912Y020751D02*
X020912Y020151D01*
X020912Y023151D02*
X020912Y023751D01*
X019912Y023751D02*
X019912Y023151D01*
X018912Y023151D02*
X018912Y023751D01*
X017912Y023751D02*
X017912Y023151D01*
X016912Y023151D02*
X016912Y023751D01*
X015912Y023751D02*
X015912Y023151D01*
X014912Y023151D02*
X014912Y023751D01*
X013912Y023751D02*
X013912Y023151D01*
X012912Y023151D02*
X012912Y023751D01*
X011912Y023751D02*
X011912Y023151D01*
X010912Y023151D02*
X010912Y023751D01*
X009912Y023751D02*
X009912Y023151D01*
X008912Y023151D02*
X008912Y023751D01*
X007912Y023751D02*
X007912Y023151D01*
X005912Y024851D02*
X005912Y025451D01*
X004912Y025451D02*
X004912Y024851D01*
D17*
X005012Y021511D03*
X005012Y020391D03*
X005012Y019311D03*
X005012Y018191D03*
X003112Y013911D03*
X003112Y012791D03*
D18*
X002808Y017751D02*
X002217Y017751D01*
X002217Y018751D02*
X002808Y018751D01*
X002808Y019751D02*
X002217Y019751D01*
X002217Y020751D02*
X002808Y020751D01*
X002808Y021751D02*
X002217Y021751D01*
X002217Y022751D02*
X002808Y022751D01*
X002808Y023751D02*
X002217Y023751D01*
X002217Y024751D02*
X002808Y024751D01*
X006417Y002551D02*
X007008Y002551D01*
X007008Y001551D02*
X006417Y001551D01*
D19*
X009912Y024451D03*
X010912Y024451D03*
D20*
X002312Y002667D03*
D21*
X001415Y005541D03*
X003210Y005541D03*
D22*
X004512Y002902D03*
X004512Y001800D03*
D23*
X000512Y000351D02*
X000512Y025951D01*
X022112Y025951D01*
X022112Y000351D01*
X000512Y000351D01*
X000512Y000447D02*
X022112Y000447D01*
X022112Y000545D02*
X000512Y000545D01*
X000512Y000644D02*
X001366Y000644D01*
X001371Y000639D02*
X001463Y000601D01*
X005963Y000601D01*
X006062Y000601D01*
X006154Y000639D01*
X006621Y001106D01*
X006789Y001106D01*
X007012Y000927D01*
X007042Y000897D01*
X007058Y000890D01*
X007072Y000880D01*
X007113Y000868D01*
X007153Y000851D01*
X007170Y000851D01*
X007186Y000846D01*
X007229Y000851D01*
X014472Y000851D01*
X014582Y000897D01*
X014667Y000981D01*
X015467Y001781D01*
X015512Y001891D01*
X015512Y002011D01*
X015512Y003151D01*
X019872Y003151D01*
X019982Y003197D01*
X020067Y003281D01*
X020367Y003581D01*
X020412Y003691D01*
X020412Y003811D01*
X020412Y005019D01*
X020429Y005035D01*
X020429Y005851D01*
X020498Y005851D01*
X020566Y005841D01*
X020579Y005851D01*
X020595Y005851D01*
X020644Y005900D01*
X020928Y006113D01*
X020980Y006113D01*
X021104Y006165D01*
X021199Y006260D01*
X021251Y006384D01*
X021251Y006518D01*
X021199Y006643D01*
X021104Y006738D01*
X021012Y006776D01*
X021012Y011268D01*
X021012Y011434D01*
X019612Y012834D01*
X019612Y015409D01*
X019675Y015346D01*
X020430Y015346D01*
X020518Y015434D01*
X020518Y016268D01*
X020430Y016356D01*
X020271Y016356D01*
X020677Y016762D01*
X020823Y016701D01*
X021002Y016701D01*
X021167Y016770D01*
X021262Y016865D01*
X021262Y016356D01*
X020795Y016356D01*
X020707Y016268D01*
X020707Y015434D01*
X020795Y015346D01*
X021549Y015346D01*
X021637Y015434D01*
X021637Y015963D01*
X021654Y015979D01*
X021724Y016050D01*
X021762Y016142D01*
X021762Y019701D01*
X021762Y019801D01*
X021724Y019893D01*
X021362Y020255D01*
X021362Y020841D01*
X021294Y021006D01*
X021167Y021133D01*
X021002Y021201D01*
X020823Y021201D01*
X020658Y021133D01*
X020531Y021006D01*
X020462Y020841D01*
X020462Y020062D01*
X020531Y019896D01*
X020658Y019770D01*
X020823Y019701D01*
X021002Y019701D01*
X021148Y019762D01*
X021262Y019648D01*
X021262Y018037D01*
X021167Y018133D01*
X021002Y018201D01*
X020823Y018201D01*
X020658Y018133D01*
X020531Y018006D01*
X020462Y017841D01*
X020462Y017255D01*
X020362Y017155D01*
X020362Y017401D01*
X019963Y017401D01*
X019963Y017501D01*
X020362Y017501D01*
X020362Y017787D01*
X020351Y017857D01*
X020329Y017924D01*
X020297Y017987D01*
X020256Y018044D01*
X020206Y018094D01*
X020148Y018136D01*
X020085Y018168D01*
X020018Y018190D01*
X019962Y018199D01*
X019962Y017501D01*
X019862Y017501D01*
X019862Y018199D01*
X019807Y018190D01*
X019740Y018168D01*
X019677Y018136D01*
X019619Y018094D01*
X019612Y018087D01*
X019612Y018134D01*
X019312Y018434D01*
X019195Y018551D01*
X015266Y018551D01*
X015324Y018610D01*
X016124Y019410D01*
X016162Y019501D01*
X016162Y019601D01*
X016162Y019768D01*
X016167Y019770D01*
X016294Y019896D01*
X016362Y020062D01*
X016362Y020841D01*
X016294Y021006D01*
X016167Y021133D01*
X016162Y021135D01*
X016162Y022768D01*
X016167Y022770D01*
X016294Y022896D01*
X016362Y023062D01*
X016362Y023841D01*
X016294Y024006D01*
X016167Y024133D01*
X016002Y024201D01*
X015823Y024201D01*
X015658Y024133D01*
X015531Y024006D01*
X015462Y023841D01*
X015462Y023062D01*
X015531Y022896D01*
X015658Y022770D01*
X015662Y022768D01*
X015662Y021135D01*
X015658Y021133D01*
X015531Y021006D01*
X015462Y020841D01*
X015462Y020062D01*
X015531Y019896D01*
X015658Y019770D01*
X015662Y019768D01*
X015662Y019655D01*
X015162Y019155D01*
X015162Y019201D01*
X015162Y019768D01*
X015167Y019770D01*
X015294Y019896D01*
X015362Y020062D01*
X015362Y020841D01*
X015294Y021006D01*
X015167Y021133D01*
X015162Y021135D01*
X015162Y022768D01*
X015167Y022770D01*
X015294Y022896D01*
X015362Y023062D01*
X015362Y023841D01*
X015294Y024006D01*
X015167Y024133D01*
X015002Y024201D01*
X014823Y024201D01*
X014658Y024133D01*
X014531Y024006D01*
X014462Y023841D01*
X014462Y023062D01*
X014531Y022896D01*
X014658Y022770D01*
X014662Y022768D01*
X014662Y021135D01*
X014658Y021133D01*
X014531Y021006D01*
X014462Y020841D01*
X014462Y020062D01*
X014531Y019896D01*
X014658Y019770D01*
X014662Y019768D01*
X014662Y019401D01*
X008116Y019401D01*
X007811Y019706D01*
X007823Y019701D01*
X008002Y019701D01*
X008167Y019770D01*
X008294Y019896D01*
X008362Y020062D01*
X008362Y020841D01*
X008357Y020853D01*
X008462Y020748D01*
X008462Y020062D01*
X008531Y019896D01*
X008658Y019770D01*
X008823Y019701D01*
X009002Y019701D01*
X009167Y019770D01*
X009294Y019896D01*
X009362Y020062D01*
X009362Y020841D01*
X009294Y021006D01*
X009167Y021133D01*
X009002Y021201D01*
X008823Y021201D01*
X008747Y021170D01*
X008470Y021447D01*
X008711Y021447D01*
X008711Y021901D01*
X008296Y021901D01*
X008296Y021577D01*
X008307Y021539D01*
X008326Y021505D01*
X008330Y021501D01*
X008263Y021501D01*
X007316Y021501D01*
X006462Y022355D01*
X006462Y024901D01*
X006424Y024993D01*
X006362Y025055D01*
X006362Y025541D01*
X006294Y025706D01*
X006167Y025833D01*
X006002Y025901D01*
X005823Y025901D01*
X005658Y025833D01*
X005531Y025706D01*
X005462Y025541D01*
X005462Y024762D01*
X005531Y024596D01*
X005658Y024470D01*
X005823Y024401D01*
X005962Y024401D01*
X005962Y022501D01*
X004363Y022501D01*
X004271Y022463D01*
X004201Y022393D01*
X002973Y021165D01*
X002896Y021196D01*
X002129Y021196D01*
X001965Y021129D01*
X001840Y021003D01*
X001772Y020840D01*
X001772Y020663D01*
X001840Y020499D01*
X001965Y020374D01*
X002129Y020306D01*
X002814Y020306D01*
X002704Y020196D01*
X002129Y020196D01*
X001965Y020129D01*
X001840Y020003D01*
X001772Y019840D01*
X001772Y019663D01*
X001262Y019663D01*
X001262Y019761D02*
X001772Y019761D01*
X001772Y019663D02*
X001840Y019499D01*
X001965Y019374D01*
X002129Y019306D01*
X002896Y019306D01*
X003060Y019374D01*
X003185Y019499D01*
X003253Y019663D01*
X004512Y019663D01*
X004508Y019646D02*
X004508Y019361D01*
X004962Y019361D01*
X004962Y019261D01*
X004508Y019261D01*
X004508Y018976D01*
X004518Y018938D01*
X004537Y018904D01*
X004565Y018876D01*
X004600Y018856D01*
X004638Y018846D01*
X004962Y018846D01*
X004962Y019261D01*
X005062Y019261D01*
X005062Y018846D01*
X005387Y018846D01*
X005425Y018856D01*
X005459Y018876D01*
X005487Y018904D01*
X005507Y018938D01*
X005517Y018976D01*
X005517Y019261D01*
X005063Y019261D01*
X005063Y019361D01*
X005517Y019361D01*
X005517Y019646D01*
X005507Y019684D01*
X005487Y019718D01*
X005459Y019746D01*
X005425Y019766D01*
X005387Y019776D01*
X005062Y019776D01*
X005062Y019361D01*
X004962Y019361D01*
X004962Y019776D01*
X004638Y019776D01*
X004600Y019766D01*
X004565Y019746D01*
X004537Y019718D01*
X004518Y019684D01*
X004508Y019646D01*
X004508Y019564D02*
X003212Y019564D01*
X003253Y019663D02*
X003253Y019840D01*
X003195Y019980D01*
X004416Y021201D01*
X004508Y021201D01*
X004508Y021134D01*
X004595Y021046D01*
X005429Y021046D01*
X005517Y021134D01*
X005517Y021261D01*
X005549Y021261D01*
X007801Y019010D01*
X007809Y019001D01*
X007462Y019001D01*
X007363Y019001D01*
X007271Y018963D01*
X006709Y018401D01*
X005517Y018401D01*
X005517Y018568D01*
X005429Y018656D01*
X004595Y018656D01*
X004508Y018568D01*
X004508Y018441D01*
X003176Y018441D01*
X003152Y018465D01*
X003185Y018499D01*
X003253Y018663D01*
X003253Y018840D01*
X003185Y019003D01*
X003060Y019129D01*
X002896Y019196D01*
X002129Y019196D01*
X001965Y019129D01*
X001840Y019003D01*
X001772Y018840D01*
X001772Y018663D01*
X001840Y018499D01*
X001965Y018374D01*
X002129Y018306D01*
X002604Y018306D01*
X002714Y018196D01*
X002561Y018196D01*
X002561Y017800D01*
X002464Y017800D01*
X002464Y018196D01*
X002182Y018196D01*
X002113Y018185D01*
X002046Y018164D01*
X001984Y018132D01*
X001927Y018091D01*
X001878Y018041D01*
X001836Y017985D01*
X001805Y017922D01*
X001783Y017855D01*
X001774Y017800D01*
X002464Y017800D01*
X002464Y017703D01*
X001774Y017703D01*
X001783Y017647D01*
X001805Y017580D01*
X001836Y017518D01*
X001878Y017461D01*
X001927Y017412D01*
X001984Y017370D01*
X002046Y017339D01*
X002113Y017317D01*
X002182Y017306D01*
X002464Y017306D01*
X002464Y017702D01*
X002561Y017702D01*
X002561Y017306D01*
X002843Y017306D01*
X002912Y017317D01*
X002979Y017339D01*
X003041Y017370D01*
X003098Y017412D01*
X003147Y017461D01*
X003189Y017518D01*
X003220Y017580D01*
X003242Y017647D01*
X003251Y017703D01*
X002561Y017703D01*
X002561Y017800D01*
X003251Y017800D01*
X003242Y017855D01*
X003220Y017922D01*
X003210Y017941D01*
X004508Y017941D01*
X004508Y017814D01*
X004595Y017726D01*
X005429Y017726D01*
X005517Y017814D01*
X005517Y017901D01*
X006862Y017901D01*
X006954Y017939D01*
X007024Y018010D01*
X007516Y018501D01*
X014480Y018501D01*
X014128Y018149D01*
X014002Y018201D01*
X013823Y018201D01*
X013658Y018133D01*
X013531Y018006D01*
X013462Y017841D01*
X013462Y017062D01*
X013531Y016896D01*
X013658Y016770D01*
X013712Y016747D01*
X013712Y016351D01*
X010112Y016351D01*
X010112Y016434D01*
X010112Y016747D01*
X010167Y016770D01*
X010294Y016896D01*
X010362Y017062D01*
X010362Y017841D01*
X010294Y018006D01*
X010249Y018051D01*
X010576Y018051D01*
X010531Y018006D01*
X010462Y017841D01*
X010462Y017062D01*
X010531Y016896D01*
X010658Y016770D01*
X010823Y016701D01*
X011002Y016701D01*
X011167Y016770D01*
X011294Y016896D01*
X011362Y017062D01*
X011362Y017841D01*
X011294Y018006D01*
X011167Y018133D01*
X011112Y018155D01*
X011112Y018168D01*
X011112Y018334D01*
X010995Y018451D01*
X007795Y018451D01*
X007630Y018451D01*
X007230Y018051D01*
X007112Y017934D01*
X007112Y017151D01*
X003495Y017151D01*
X003330Y017151D01*
X001262Y015084D01*
X001262Y024348D01*
X001784Y024869D01*
X001772Y024840D01*
X001772Y024663D01*
X001840Y024499D01*
X001965Y024374D01*
X002129Y024306D01*
X002896Y024306D01*
X003060Y024374D01*
X003185Y024499D01*
X003253Y024663D01*
X003253Y024840D01*
X003185Y025003D01*
X003060Y025129D01*
X002896Y025196D01*
X002129Y025196D01*
X002099Y025184D01*
X002116Y025201D01*
X004462Y025201D01*
X004462Y024762D01*
X004531Y024596D01*
X004658Y024470D01*
X004823Y024401D01*
X005002Y024401D01*
X005167Y024470D01*
X005294Y024596D01*
X005362Y024762D01*
X005362Y025541D01*
X005294Y025706D01*
X005167Y025833D01*
X005002Y025901D01*
X004823Y025901D01*
X004658Y025833D01*
X004531Y025706D01*
X004529Y025701D01*
X002062Y025701D01*
X001963Y025701D01*
X001871Y025663D01*
X000801Y024593D01*
X000762Y024501D01*
X000762Y024401D01*
X000762Y008301D01*
X000801Y008210D01*
X000871Y008139D01*
X001662Y007348D01*
X001662Y006855D01*
X000984Y006855D01*
X000896Y006768D01*
X000896Y005935D01*
X000984Y005847D01*
X001068Y005847D01*
X001068Y005791D01*
X001062Y005791D01*
X000963Y005791D01*
X000871Y005753D01*
X000801Y005683D01*
X000762Y005591D01*
X000762Y001301D01*
X000801Y001210D01*
X000871Y001139D01*
X001301Y000710D01*
X001301Y000710D01*
X001371Y000639D01*
X001268Y000742D02*
X000512Y000742D01*
X000512Y000841D02*
X001169Y000841D01*
X001071Y000940D02*
X000512Y000940D01*
X000512Y001038D02*
X000972Y001038D01*
X000874Y001137D02*
X000512Y001137D01*
X000512Y001235D02*
X000790Y001235D01*
X000762Y001334D02*
X000512Y001334D01*
X000512Y001432D02*
X000762Y001432D01*
X000762Y001531D02*
X000512Y001531D01*
X000512Y001629D02*
X000762Y001629D01*
X000762Y001728D02*
X000512Y001728D01*
X000512Y001826D02*
X000762Y001826D01*
X000762Y001925D02*
X000512Y001925D01*
X000512Y002024D02*
X000762Y002024D01*
X000762Y002122D02*
X000512Y002122D01*
X000512Y002221D02*
X000762Y002221D01*
X000762Y002319D02*
X000512Y002319D01*
X000512Y002418D02*
X000762Y002418D01*
X000762Y002516D02*
X000512Y002516D01*
X000512Y002615D02*
X000762Y002615D01*
X000762Y002713D02*
X000512Y002713D01*
X000512Y002812D02*
X000762Y002812D01*
X000762Y002910D02*
X000512Y002910D01*
X000512Y003009D02*
X000762Y003009D01*
X000762Y003107D02*
X000512Y003107D01*
X000512Y003206D02*
X000762Y003206D01*
X000762Y003305D02*
X000512Y003305D01*
X000512Y003403D02*
X000762Y003403D01*
X000762Y003502D02*
X000512Y003502D01*
X000512Y003600D02*
X000762Y003600D01*
X000762Y003699D02*
X000512Y003699D01*
X000512Y003797D02*
X000762Y003797D01*
X000762Y003896D02*
X000512Y003896D01*
X000512Y003994D02*
X000762Y003994D01*
X000762Y004093D02*
X000512Y004093D01*
X000512Y004191D02*
X000762Y004191D01*
X000762Y004290D02*
X000512Y004290D01*
X000512Y004389D02*
X000762Y004389D01*
X000762Y004487D02*
X000512Y004487D01*
X000512Y004586D02*
X000762Y004586D01*
X000762Y004684D02*
X000512Y004684D01*
X000512Y004783D02*
X000762Y004783D01*
X000762Y004881D02*
X000512Y004881D01*
X000512Y004980D02*
X000762Y004980D01*
X000762Y005078D02*
X000512Y005078D01*
X000512Y005177D02*
X000762Y005177D01*
X000762Y005275D02*
X000512Y005275D01*
X000512Y005374D02*
X000762Y005374D01*
X000762Y005473D02*
X000512Y005473D01*
X000512Y005571D02*
X000762Y005571D01*
X000795Y005670D02*
X000512Y005670D01*
X000512Y005768D02*
X000908Y005768D01*
X000964Y005867D02*
X000512Y005867D01*
X000512Y005965D02*
X000896Y005965D01*
X000896Y006064D02*
X000512Y006064D01*
X000512Y006162D02*
X000896Y006162D01*
X000896Y006261D02*
X000512Y006261D01*
X000512Y006359D02*
X000896Y006359D01*
X000896Y006458D02*
X000512Y006458D01*
X000512Y006556D02*
X000896Y006556D01*
X000896Y006655D02*
X000512Y006655D01*
X000512Y006754D02*
X000896Y006754D01*
X000981Y006852D02*
X000512Y006852D01*
X000512Y006951D02*
X001662Y006951D01*
X001662Y007049D02*
X000512Y007049D01*
X000512Y007148D02*
X001662Y007148D01*
X001662Y007246D02*
X000512Y007246D01*
X000512Y007345D02*
X001662Y007345D01*
X001567Y007443D02*
X000512Y007443D01*
X000512Y007542D02*
X001468Y007542D01*
X001370Y007640D02*
X000512Y007640D01*
X000512Y007739D02*
X001271Y007739D01*
X001173Y007838D02*
X000512Y007838D01*
X000512Y007936D02*
X001074Y007936D01*
X000975Y008035D02*
X000512Y008035D01*
X000512Y008133D02*
X000877Y008133D01*
X000791Y008232D02*
X000512Y008232D01*
X000512Y008330D02*
X000762Y008330D01*
X000762Y008429D02*
X000512Y008429D01*
X000512Y008527D02*
X000762Y008527D01*
X000762Y008626D02*
X000512Y008626D01*
X000512Y008724D02*
X000762Y008724D01*
X000762Y008823D02*
X000512Y008823D01*
X000512Y008922D02*
X000762Y008922D01*
X000762Y009020D02*
X000512Y009020D01*
X000512Y009119D02*
X000762Y009119D01*
X000762Y009217D02*
X000512Y009217D01*
X000512Y009316D02*
X000762Y009316D01*
X000762Y009414D02*
X000512Y009414D01*
X000512Y009513D02*
X000762Y009513D01*
X000762Y009611D02*
X000512Y009611D01*
X000512Y009710D02*
X000762Y009710D01*
X000762Y009808D02*
X000512Y009808D01*
X000512Y009907D02*
X000762Y009907D01*
X000762Y010006D02*
X000512Y010006D01*
X000512Y010104D02*
X000762Y010104D01*
X000762Y010203D02*
X000512Y010203D01*
X000512Y010301D02*
X000762Y010301D01*
X000762Y010400D02*
X000512Y010400D01*
X000512Y010498D02*
X000762Y010498D01*
X000762Y010597D02*
X000512Y010597D01*
X000512Y010695D02*
X000762Y010695D01*
X000762Y010794D02*
X000512Y010794D01*
X000512Y010892D02*
X000762Y010892D01*
X000762Y010991D02*
X000512Y010991D01*
X000512Y011089D02*
X000762Y011089D01*
X000762Y011188D02*
X000512Y011188D01*
X000512Y011287D02*
X000762Y011287D01*
X000762Y011385D02*
X000512Y011385D01*
X000512Y011484D02*
X000762Y011484D01*
X000762Y011582D02*
X000512Y011582D01*
X000512Y011681D02*
X000762Y011681D01*
X000762Y011779D02*
X000512Y011779D01*
X000512Y011878D02*
X000762Y011878D01*
X000762Y011976D02*
X000512Y011976D01*
X000512Y012075D02*
X000762Y012075D01*
X000762Y012173D02*
X000512Y012173D01*
X000512Y012272D02*
X000762Y012272D01*
X000762Y012371D02*
X000512Y012371D01*
X000512Y012469D02*
X000762Y012469D01*
X000762Y012568D02*
X000512Y012568D01*
X000512Y012666D02*
X000762Y012666D01*
X000762Y012765D02*
X000512Y012765D01*
X000512Y012863D02*
X000762Y012863D01*
X000762Y012962D02*
X000512Y012962D01*
X000512Y013060D02*
X000762Y013060D01*
X000762Y013159D02*
X000512Y013159D01*
X000512Y013257D02*
X000762Y013257D01*
X000762Y013356D02*
X000512Y013356D01*
X000512Y013455D02*
X000762Y013455D01*
X000762Y013553D02*
X000512Y013553D01*
X000512Y013652D02*
X000762Y013652D01*
X000762Y013750D02*
X000512Y013750D01*
X000512Y013849D02*
X000762Y013849D01*
X000762Y013947D02*
X000512Y013947D01*
X000512Y014046D02*
X000762Y014046D01*
X000762Y014144D02*
X000512Y014144D01*
X000512Y014243D02*
X000762Y014243D01*
X000762Y014341D02*
X000512Y014341D01*
X000512Y014440D02*
X000762Y014440D01*
X000762Y014539D02*
X000512Y014539D01*
X000512Y014637D02*
X000762Y014637D01*
X000762Y014736D02*
X000512Y014736D01*
X000512Y014834D02*
X000762Y014834D01*
X000762Y014933D02*
X000512Y014933D01*
X000512Y015031D02*
X000762Y015031D01*
X000762Y015130D02*
X000512Y015130D01*
X000512Y015228D02*
X000762Y015228D01*
X000762Y015327D02*
X000512Y015327D01*
X000512Y015425D02*
X000762Y015425D01*
X000762Y015524D02*
X000512Y015524D01*
X000512Y015622D02*
X000762Y015622D01*
X000762Y015721D02*
X000512Y015721D01*
X000512Y015820D02*
X000762Y015820D01*
X000762Y015918D02*
X000512Y015918D01*
X000512Y016017D02*
X000762Y016017D01*
X000762Y016115D02*
X000512Y016115D01*
X000512Y016214D02*
X000762Y016214D01*
X000762Y016312D02*
X000512Y016312D01*
X000512Y016411D02*
X000762Y016411D01*
X000762Y016509D02*
X000512Y016509D01*
X000512Y016608D02*
X000762Y016608D01*
X000762Y016706D02*
X000512Y016706D01*
X000512Y016805D02*
X000762Y016805D01*
X000762Y016904D02*
X000512Y016904D01*
X000512Y017002D02*
X000762Y017002D01*
X000762Y017101D02*
X000512Y017101D01*
X000512Y017199D02*
X000762Y017199D01*
X000762Y017298D02*
X000512Y017298D01*
X000512Y017396D02*
X000762Y017396D01*
X000762Y017495D02*
X000512Y017495D01*
X000512Y017593D02*
X000762Y017593D01*
X000762Y017692D02*
X000512Y017692D01*
X000512Y017790D02*
X000762Y017790D01*
X000762Y017889D02*
X000512Y017889D01*
X000512Y017988D02*
X000762Y017988D01*
X000762Y018086D02*
X000512Y018086D01*
X000512Y018185D02*
X000762Y018185D01*
X000762Y018283D02*
X000512Y018283D01*
X000512Y018382D02*
X000762Y018382D01*
X000762Y018480D02*
X000512Y018480D01*
X000512Y018579D02*
X000762Y018579D01*
X000762Y018677D02*
X000512Y018677D01*
X000512Y018776D02*
X000762Y018776D01*
X000762Y018874D02*
X000512Y018874D01*
X000512Y018973D02*
X000762Y018973D01*
X000762Y019071D02*
X000512Y019071D01*
X000512Y019170D02*
X000762Y019170D01*
X000762Y019269D02*
X000512Y019269D01*
X000512Y019367D02*
X000762Y019367D01*
X000762Y019466D02*
X000512Y019466D01*
X000512Y019564D02*
X000762Y019564D01*
X000762Y019663D02*
X000512Y019663D01*
X000512Y019761D02*
X000762Y019761D01*
X000762Y019860D02*
X000512Y019860D01*
X000512Y019958D02*
X000762Y019958D01*
X000762Y020057D02*
X000512Y020057D01*
X000512Y020155D02*
X000762Y020155D01*
X000762Y020254D02*
X000512Y020254D01*
X000512Y020353D02*
X000762Y020353D01*
X000762Y020451D02*
X000512Y020451D01*
X000512Y020550D02*
X000762Y020550D01*
X000762Y020648D02*
X000512Y020648D01*
X000512Y020747D02*
X000762Y020747D01*
X000762Y020845D02*
X000512Y020845D01*
X000512Y020944D02*
X000762Y020944D01*
X000762Y021042D02*
X000512Y021042D01*
X000512Y021141D02*
X000762Y021141D01*
X000762Y021239D02*
X000512Y021239D01*
X000512Y021338D02*
X000762Y021338D01*
X000762Y021437D02*
X000512Y021437D01*
X000512Y021535D02*
X000762Y021535D01*
X000762Y021634D02*
X000512Y021634D01*
X000512Y021732D02*
X000762Y021732D01*
X000762Y021831D02*
X000512Y021831D01*
X000512Y021929D02*
X000762Y021929D01*
X000762Y022028D02*
X000512Y022028D01*
X000512Y022126D02*
X000762Y022126D01*
X000762Y022225D02*
X000512Y022225D01*
X000512Y022323D02*
X000762Y022323D01*
X000762Y022422D02*
X000512Y022422D01*
X000512Y022521D02*
X000762Y022521D01*
X000762Y022619D02*
X000512Y022619D01*
X000512Y022718D02*
X000762Y022718D01*
X000762Y022816D02*
X000512Y022816D01*
X000512Y022915D02*
X000762Y022915D01*
X000762Y023013D02*
X000512Y023013D01*
X000512Y023112D02*
X000762Y023112D01*
X000762Y023210D02*
X000512Y023210D01*
X000512Y023309D02*
X000762Y023309D01*
X000762Y023407D02*
X000512Y023407D01*
X000512Y023506D02*
X000762Y023506D01*
X000762Y023604D02*
X000512Y023604D01*
X000512Y023703D02*
X000762Y023703D01*
X000762Y023802D02*
X000512Y023802D01*
X000512Y023900D02*
X000762Y023900D01*
X000762Y023999D02*
X000512Y023999D01*
X000512Y024097D02*
X000762Y024097D01*
X000762Y024196D02*
X000512Y024196D01*
X000512Y024294D02*
X000762Y024294D01*
X000762Y024393D02*
X000512Y024393D01*
X000512Y024491D02*
X000762Y024491D01*
X000799Y024590D02*
X000512Y024590D01*
X000512Y024688D02*
X000896Y024688D01*
X000995Y024787D02*
X000512Y024787D01*
X000512Y024886D02*
X001093Y024886D01*
X001192Y024984D02*
X000512Y024984D01*
X000512Y025083D02*
X001290Y025083D01*
X001389Y025181D02*
X000512Y025181D01*
X000512Y025280D02*
X001487Y025280D01*
X001586Y025378D02*
X000512Y025378D01*
X000512Y025477D02*
X001685Y025477D01*
X001783Y025575D02*
X000512Y025575D01*
X000512Y025674D02*
X001897Y025674D01*
X001772Y024787D02*
X001702Y024787D01*
X001772Y024688D02*
X001603Y024688D01*
X001505Y024590D02*
X001802Y024590D01*
X001847Y024491D02*
X001406Y024491D01*
X001308Y024393D02*
X001946Y024393D01*
X001965Y024129D02*
X001840Y024003D01*
X001772Y023840D01*
X001772Y023663D01*
X001840Y023499D01*
X001965Y023374D01*
X002129Y023306D01*
X002896Y023306D01*
X003060Y023374D01*
X003185Y023499D01*
X003253Y023663D01*
X003253Y023840D01*
X003185Y024003D01*
X003060Y024129D01*
X002896Y024196D01*
X002129Y024196D01*
X001965Y024129D01*
X001934Y024097D02*
X001262Y024097D01*
X001262Y023999D02*
X001838Y023999D01*
X001797Y023900D02*
X001262Y023900D01*
X001262Y023802D02*
X001772Y023802D01*
X001772Y023703D02*
X001262Y023703D01*
X001262Y023604D02*
X001796Y023604D01*
X001837Y023506D02*
X001262Y023506D01*
X001262Y023407D02*
X001931Y023407D01*
X002121Y023309D02*
X001262Y023309D01*
X001262Y023210D02*
X005962Y023210D01*
X005962Y023112D02*
X003077Y023112D01*
X003060Y023129D02*
X002896Y023196D01*
X002129Y023196D01*
X001965Y023129D01*
X001840Y023003D01*
X001772Y022840D01*
X001772Y022663D01*
X001840Y022499D01*
X001965Y022374D01*
X002129Y022306D01*
X002896Y022306D01*
X003060Y022374D01*
X003185Y022499D01*
X003253Y022663D01*
X003253Y022840D01*
X003185Y023003D01*
X003060Y023129D01*
X003175Y023013D02*
X005962Y023013D01*
X005962Y022915D02*
X003222Y022915D01*
X003253Y022816D02*
X005962Y022816D01*
X005962Y022718D02*
X003253Y022718D01*
X003235Y022619D02*
X005962Y022619D01*
X005962Y022521D02*
X003194Y022521D01*
X003108Y022422D02*
X004230Y022422D01*
X004201Y022393D02*
X004201Y022393D01*
X004131Y022323D02*
X002939Y022323D01*
X002896Y022196D02*
X003060Y022129D01*
X003185Y022003D01*
X003253Y021840D01*
X003253Y021663D01*
X003185Y021499D01*
X003060Y021374D01*
X002896Y021306D01*
X002129Y021306D01*
X001965Y021374D01*
X001840Y021499D01*
X001772Y021663D01*
X001772Y021840D01*
X001840Y022003D01*
X001965Y022129D01*
X002129Y022196D01*
X002896Y022196D01*
X003062Y022126D02*
X003934Y022126D01*
X003836Y022028D02*
X003161Y022028D01*
X003216Y021929D02*
X003737Y021929D01*
X003639Y021831D02*
X003253Y021831D01*
X003253Y021732D02*
X003540Y021732D01*
X003441Y021634D02*
X003241Y021634D01*
X003200Y021535D02*
X003343Y021535D01*
X003244Y021437D02*
X003123Y021437D01*
X003146Y021338D02*
X002974Y021338D01*
X003047Y021239D02*
X001262Y021239D01*
X001262Y021141D02*
X001995Y021141D01*
X001879Y021042D02*
X001262Y021042D01*
X001262Y020944D02*
X001815Y020944D01*
X001774Y020845D02*
X001262Y020845D01*
X001262Y020747D02*
X001772Y020747D01*
X001778Y020648D02*
X001262Y020648D01*
X001262Y020550D02*
X001819Y020550D01*
X001888Y020451D02*
X001262Y020451D01*
X001262Y020353D02*
X002016Y020353D01*
X002030Y020155D02*
X001262Y020155D01*
X001262Y020057D02*
X001893Y020057D01*
X001821Y019958D02*
X001262Y019958D01*
X001262Y019860D02*
X001780Y019860D01*
X001813Y019564D02*
X001262Y019564D01*
X001262Y019466D02*
X001873Y019466D01*
X001981Y019367D02*
X001262Y019367D01*
X001262Y019269D02*
X004962Y019269D01*
X004962Y019367D02*
X005062Y019367D01*
X005063Y019269D02*
X007541Y019269D01*
X007443Y019367D02*
X005517Y019367D01*
X005517Y019466D02*
X007344Y019466D01*
X007246Y019564D02*
X005517Y019564D01*
X005513Y019663D02*
X007147Y019663D01*
X007049Y019761D02*
X005433Y019761D01*
X005387Y019926D02*
X005425Y019937D01*
X005459Y019956D01*
X005487Y019984D01*
X005507Y020018D01*
X005517Y020057D01*
X006753Y020057D01*
X006655Y020155D02*
X005517Y020155D01*
X005517Y020057D02*
X005517Y020341D01*
X005063Y020341D01*
X005063Y020441D01*
X005517Y020441D01*
X005517Y020726D01*
X005507Y020764D01*
X005487Y020798D01*
X005459Y020826D01*
X005425Y020846D01*
X005387Y020856D01*
X005062Y020856D01*
X005062Y020441D01*
X004962Y020441D01*
X004962Y020341D01*
X004508Y020341D01*
X004508Y020057D01*
X003272Y020057D01*
X003204Y019958D02*
X004563Y019958D01*
X004565Y019956D02*
X004600Y019937D01*
X004638Y019926D01*
X004962Y019926D01*
X004962Y020341D01*
X005062Y020341D01*
X005062Y019926D01*
X005387Y019926D01*
X005461Y019958D02*
X006852Y019958D01*
X006950Y019860D02*
X003245Y019860D01*
X003253Y019761D02*
X004592Y019761D01*
X004565Y019956D02*
X004537Y019984D01*
X004518Y020018D01*
X004508Y020057D01*
X004508Y020155D02*
X003370Y020155D01*
X003469Y020254D02*
X004508Y020254D01*
X004508Y020441D02*
X004962Y020441D01*
X004962Y020856D01*
X004638Y020856D01*
X004600Y020846D01*
X004565Y020826D01*
X004537Y020798D01*
X004518Y020764D01*
X004508Y020726D01*
X004508Y020441D01*
X004508Y020451D02*
X003666Y020451D01*
X003764Y020550D02*
X004508Y020550D01*
X004508Y020648D02*
X003863Y020648D01*
X003961Y020747D02*
X004513Y020747D01*
X004598Y020845D02*
X004060Y020845D01*
X004159Y020944D02*
X005866Y020944D01*
X005768Y021042D02*
X004257Y021042D01*
X004356Y021141D02*
X004508Y021141D01*
X004962Y020845D02*
X005062Y020845D01*
X005062Y020747D02*
X004962Y020747D01*
X004962Y020648D02*
X005062Y020648D01*
X005062Y020550D02*
X004962Y020550D01*
X004962Y020451D02*
X005062Y020451D01*
X005063Y020353D02*
X006458Y020353D01*
X006556Y020254D02*
X005517Y020254D01*
X005517Y020451D02*
X006359Y020451D01*
X006260Y020550D02*
X005517Y020550D01*
X005517Y020648D02*
X006162Y020648D01*
X006063Y020747D02*
X005512Y020747D01*
X005427Y020845D02*
X005965Y020845D01*
X005669Y021141D02*
X005517Y021141D01*
X005517Y021239D02*
X005571Y021239D01*
X005883Y021634D02*
X006476Y021634D01*
X006378Y021732D02*
X005772Y021732D01*
X005794Y021723D02*
X005702Y021761D01*
X005603Y021761D01*
X005517Y021761D01*
X005517Y021888D01*
X005429Y021976D01*
X004595Y021976D01*
X004508Y021888D01*
X004508Y021701D01*
X004263Y021701D01*
X004183Y021668D01*
X004516Y022001D01*
X006109Y022001D01*
X007001Y021110D01*
X007001Y021110D01*
X007071Y021039D01*
X007163Y021001D01*
X007529Y021001D01*
X007462Y020841D01*
X007462Y020062D01*
X007467Y020050D01*
X005794Y021723D01*
X005982Y021535D02*
X006575Y021535D01*
X006674Y021437D02*
X006081Y021437D01*
X006179Y021338D02*
X006772Y021338D01*
X006871Y021239D02*
X006278Y021239D01*
X006376Y021141D02*
X006969Y021141D01*
X007068Y021042D02*
X006475Y021042D01*
X006573Y020944D02*
X007505Y020944D01*
X007464Y020845D02*
X006672Y020845D01*
X006770Y020747D02*
X007462Y020747D01*
X007462Y020648D02*
X006869Y020648D01*
X006967Y020550D02*
X007462Y020550D01*
X007462Y020451D02*
X007066Y020451D01*
X007165Y020353D02*
X007462Y020353D01*
X007462Y020254D02*
X007263Y020254D01*
X007362Y020155D02*
X007462Y020155D01*
X007460Y020057D02*
X007464Y020057D01*
X007854Y019663D02*
X014662Y019663D01*
X014662Y019761D02*
X014138Y019761D01*
X014148Y019766D02*
X014206Y019808D01*
X014256Y019858D01*
X014297Y019915D01*
X014329Y019978D01*
X014351Y020046D01*
X014362Y020116D01*
X014362Y020401D01*
X013963Y020401D01*
X013963Y020501D01*
X014362Y020501D01*
X014362Y020787D01*
X014351Y020857D01*
X014329Y020924D01*
X014297Y020987D01*
X014256Y021044D01*
X014206Y021094D01*
X014148Y021136D01*
X014085Y021168D01*
X014018Y021190D01*
X013962Y021199D01*
X013962Y020501D01*
X013862Y020501D01*
X013862Y020401D01*
X013462Y020401D01*
X013462Y020116D01*
X013474Y020046D01*
X013495Y019978D01*
X013528Y019915D01*
X013569Y019858D01*
X013619Y019808D01*
X013677Y019766D01*
X013740Y019734D01*
X013807Y019712D01*
X013862Y019703D01*
X013862Y020401D01*
X013962Y020401D01*
X013962Y019703D01*
X014018Y019712D01*
X014085Y019734D01*
X014148Y019766D01*
X014257Y019860D02*
X014567Y019860D01*
X014505Y019958D02*
X014319Y019958D01*
X014353Y020057D02*
X014464Y020057D01*
X014462Y020155D02*
X014362Y020155D01*
X014362Y020254D02*
X014462Y020254D01*
X014462Y020353D02*
X014362Y020353D01*
X014462Y020451D02*
X013963Y020451D01*
X013962Y020353D02*
X013862Y020353D01*
X013862Y020451D02*
X013362Y020451D01*
X013362Y020353D02*
X013462Y020353D01*
X013462Y020254D02*
X013362Y020254D01*
X013362Y020155D02*
X013462Y020155D01*
X013472Y020057D02*
X013360Y020057D01*
X013362Y020062D02*
X013294Y019896D01*
X013167Y019770D01*
X013002Y019701D01*
X012823Y019701D01*
X012658Y019770D01*
X012531Y019896D01*
X012462Y020062D01*
X012462Y020841D01*
X012531Y021006D01*
X012658Y021133D01*
X012823Y021201D01*
X013002Y021201D01*
X013167Y021133D01*
X013294Y021006D01*
X013362Y020841D01*
X013362Y020062D01*
X013320Y019958D02*
X013506Y019958D01*
X013568Y019860D02*
X013257Y019860D01*
X013147Y019761D02*
X013686Y019761D01*
X013862Y019761D02*
X013962Y019761D01*
X013962Y019860D02*
X013862Y019860D01*
X013862Y019958D02*
X013962Y019958D01*
X013962Y020057D02*
X013862Y020057D01*
X013862Y020155D02*
X013962Y020155D01*
X013962Y020254D02*
X013862Y020254D01*
X013862Y020501D02*
X013462Y020501D01*
X013462Y020787D01*
X013474Y020857D01*
X013495Y020924D01*
X013528Y020987D01*
X013569Y021044D01*
X013619Y021094D01*
X013677Y021136D01*
X013740Y021168D01*
X013807Y021190D01*
X013862Y021199D01*
X013862Y020501D01*
X013862Y020550D02*
X013962Y020550D01*
X013962Y020648D02*
X013862Y020648D01*
X013862Y020747D02*
X013962Y020747D01*
X013962Y020845D02*
X013862Y020845D01*
X013862Y020944D02*
X013962Y020944D01*
X013962Y021042D02*
X013862Y021042D01*
X013862Y021141D02*
X013962Y021141D01*
X014139Y021141D02*
X014662Y021141D01*
X014662Y021239D02*
X011142Y021239D01*
X011142Y021143D02*
X011142Y021447D01*
X011338Y021447D01*
X011426Y021535D01*
X011611Y021535D01*
X011609Y021539D02*
X011629Y021505D01*
X011657Y021477D01*
X011691Y021457D01*
X011729Y021447D01*
X012014Y021447D01*
X012014Y021901D01*
X012114Y021901D01*
X012114Y022001D01*
X012529Y022001D01*
X012529Y022325D01*
X012518Y022363D01*
X012499Y022398D01*
X012471Y022426D01*
X012436Y022445D01*
X012398Y022455D01*
X012114Y022455D01*
X012114Y022001D01*
X012014Y022001D01*
X012014Y022455D01*
X011729Y022455D01*
X011691Y022445D01*
X011657Y022426D01*
X011629Y022398D01*
X011609Y022363D01*
X011599Y022325D01*
X011599Y022001D01*
X012013Y022001D01*
X012013Y021901D01*
X011599Y021901D01*
X011599Y021577D01*
X011609Y021539D01*
X011599Y021634D02*
X011426Y021634D01*
X011426Y021732D02*
X011599Y021732D01*
X011599Y021831D02*
X011426Y021831D01*
X011426Y021929D02*
X012013Y021929D01*
X012014Y021831D02*
X012114Y021831D01*
X012114Y021901D02*
X012114Y021447D01*
X012398Y021447D01*
X012436Y021457D01*
X012471Y021477D01*
X012499Y021505D01*
X012518Y021539D01*
X012529Y021577D01*
X012529Y021901D01*
X012114Y021901D01*
X012114Y021929D02*
X014662Y021929D01*
X014662Y021831D02*
X012529Y021831D01*
X012529Y021732D02*
X014662Y021732D01*
X014662Y021634D02*
X012529Y021634D01*
X012516Y021535D02*
X014662Y021535D01*
X014662Y021437D02*
X011142Y021437D01*
X011142Y021338D02*
X014662Y021338D01*
X014567Y021042D02*
X014257Y021042D01*
X014319Y020944D02*
X014505Y020944D01*
X014464Y020845D02*
X014353Y020845D01*
X014362Y020747D02*
X014462Y020747D01*
X014462Y020648D02*
X014362Y020648D01*
X014362Y020550D02*
X014462Y020550D01*
X015162Y021141D02*
X015662Y021141D01*
X015662Y021239D02*
X015162Y021239D01*
X015162Y021338D02*
X015662Y021338D01*
X015662Y021437D02*
X015162Y021437D01*
X015162Y021535D02*
X015662Y021535D01*
X015662Y021634D02*
X015162Y021634D01*
X015162Y021732D02*
X015662Y021732D01*
X015662Y021831D02*
X015162Y021831D01*
X015162Y021929D02*
X015662Y021929D01*
X015662Y022028D02*
X015162Y022028D01*
X015162Y022126D02*
X015662Y022126D01*
X015662Y022225D02*
X015162Y022225D01*
X015162Y022323D02*
X015662Y022323D01*
X015662Y022422D02*
X015162Y022422D01*
X015162Y022521D02*
X015662Y022521D01*
X015662Y022619D02*
X015162Y022619D01*
X015162Y022718D02*
X015662Y022718D01*
X015611Y022816D02*
X015214Y022816D01*
X015301Y022915D02*
X015523Y022915D01*
X015482Y023013D02*
X015342Y023013D01*
X015362Y023112D02*
X015462Y023112D01*
X015462Y023210D02*
X015362Y023210D01*
X015362Y023309D02*
X015462Y023309D01*
X015462Y023407D02*
X015362Y023407D01*
X015362Y023506D02*
X015462Y023506D01*
X015462Y023604D02*
X015362Y023604D01*
X015362Y023703D02*
X015462Y023703D01*
X015462Y023802D02*
X015362Y023802D01*
X015338Y023900D02*
X015487Y023900D01*
X015528Y023999D02*
X015297Y023999D01*
X015203Y024097D02*
X015622Y024097D01*
X015810Y024196D02*
X015015Y024196D01*
X014810Y024196D02*
X013982Y024196D01*
X013962Y024196D02*
X013862Y024196D01*
X013862Y024199D02*
X013807Y024190D01*
X013740Y024168D01*
X013677Y024136D01*
X013619Y024094D01*
X013569Y024044D01*
X013528Y023987D01*
X013495Y023924D01*
X013474Y023857D01*
X013462Y023787D01*
X013462Y023501D01*
X013862Y023501D01*
X013862Y023401D01*
X013462Y023401D01*
X013462Y023116D01*
X013474Y023046D01*
X013495Y022978D01*
X013528Y022915D01*
X013301Y022915D01*
X013294Y022896D02*
X013362Y023062D01*
X013362Y023841D01*
X013294Y024006D01*
X013167Y024133D01*
X013002Y024201D01*
X012823Y024201D01*
X012658Y024133D01*
X012531Y024006D01*
X012462Y023841D01*
X012462Y023062D01*
X012531Y022896D01*
X012658Y022770D01*
X012823Y022701D01*
X013002Y022701D01*
X013167Y022770D01*
X013294Y022896D01*
X013214Y022816D02*
X013611Y022816D01*
X013619Y022808D02*
X013677Y022766D01*
X013740Y022734D01*
X013807Y022712D01*
X013862Y022703D01*
X013862Y023401D01*
X013962Y023401D01*
X013962Y022703D01*
X014018Y022712D01*
X014085Y022734D01*
X014148Y022766D01*
X014206Y022808D01*
X014256Y022858D01*
X014297Y022915D01*
X014523Y022915D01*
X014482Y023013D02*
X014341Y023013D01*
X014351Y023046D02*
X014362Y023116D01*
X014362Y023401D01*
X013963Y023401D01*
X013963Y023501D01*
X014362Y023501D01*
X014362Y023787D01*
X014351Y023857D01*
X014329Y023924D01*
X014297Y023987D01*
X014256Y024044D01*
X014206Y024094D01*
X014148Y024136D01*
X014085Y024168D01*
X014018Y024190D01*
X013962Y024199D01*
X013962Y023501D01*
X013862Y023501D01*
X013862Y024199D01*
X013843Y024196D02*
X013015Y024196D01*
X012810Y024196D02*
X012015Y024196D01*
X012002Y024201D02*
X011823Y024201D01*
X011658Y024133D01*
X011531Y024006D01*
X011462Y023841D01*
X011462Y023062D01*
X011531Y022896D01*
X011658Y022770D01*
X011823Y022701D01*
X012002Y022701D01*
X012167Y022770D01*
X012294Y022896D01*
X012362Y023062D01*
X012362Y023841D01*
X012294Y024006D01*
X012167Y024133D01*
X012002Y024201D01*
X011810Y024196D02*
X011209Y024196D01*
X011243Y024230D02*
X011152Y024139D01*
X011167Y024133D01*
X011294Y024006D01*
X011362Y023841D01*
X011362Y023062D01*
X011294Y022896D01*
X011167Y022770D01*
X011142Y022759D01*
X011142Y022455D01*
X011338Y022455D01*
X011426Y022368D01*
X011426Y021535D01*
X011658Y021133D02*
X011531Y021006D01*
X011462Y020841D01*
X011462Y020062D01*
X011531Y019896D01*
X011658Y019770D01*
X011823Y019701D01*
X012002Y019701D01*
X012167Y019770D01*
X012294Y019896D01*
X012362Y020062D01*
X012362Y020841D01*
X012294Y021006D01*
X012167Y021133D01*
X012002Y021201D01*
X011823Y021201D01*
X011658Y021133D01*
X011678Y021141D02*
X011147Y021141D01*
X011142Y021143D02*
X011167Y021133D01*
X011294Y021006D01*
X011362Y020841D01*
X011362Y020062D01*
X011294Y019896D01*
X011167Y019770D01*
X011002Y019701D01*
X010823Y019701D01*
X010658Y019770D01*
X010531Y019896D01*
X010462Y020062D01*
X010462Y020841D01*
X010531Y021006D01*
X010658Y021133D01*
X010682Y021143D01*
X010682Y021447D01*
X010584Y021447D01*
X010496Y021535D01*
X010329Y021535D01*
X010329Y022368D01*
X010241Y022455D01*
X010142Y022455D01*
X010142Y022759D01*
X010167Y022770D01*
X010294Y022896D01*
X010362Y023062D01*
X010362Y023841D01*
X010294Y024006D01*
X010167Y024133D01*
X010152Y024139D01*
X010243Y024230D01*
X010302Y024374D01*
X010302Y024529D01*
X010243Y024672D01*
X010133Y024782D01*
X009990Y024841D01*
X009835Y024841D01*
X009691Y024782D01*
X009582Y024672D01*
X009522Y024529D01*
X009522Y024374D01*
X009582Y024230D01*
X009673Y024139D01*
X009658Y024133D01*
X009531Y024006D01*
X009462Y023841D01*
X009462Y023062D01*
X009531Y022896D01*
X009658Y022770D01*
X009682Y022759D01*
X009682Y022455D01*
X009486Y022455D01*
X009399Y022368D01*
X009399Y021535D01*
X009214Y021535D01*
X009216Y021539D02*
X009226Y021577D01*
X009226Y021901D01*
X008811Y021901D01*
X008811Y021447D01*
X009096Y021447D01*
X009134Y021457D01*
X009168Y021477D01*
X009196Y021505D01*
X009216Y021539D01*
X009226Y021634D02*
X009399Y021634D01*
X009399Y021732D02*
X009226Y021732D01*
X009226Y021831D02*
X009399Y021831D01*
X009399Y021929D02*
X008811Y021929D01*
X008811Y021901D02*
X008811Y022001D01*
X008711Y022001D01*
X008711Y021901D01*
X008811Y021901D01*
X008811Y021831D02*
X008711Y021831D01*
X008711Y021929D02*
X006888Y021929D01*
X006986Y021831D02*
X008296Y021831D01*
X008296Y021732D02*
X007085Y021732D01*
X007183Y021634D02*
X008296Y021634D01*
X008309Y021535D02*
X007282Y021535D01*
X006789Y022028D02*
X008296Y022028D01*
X008296Y022001D02*
X008711Y022001D01*
X008711Y022455D01*
X008427Y022455D01*
X008388Y022445D01*
X008354Y022426D01*
X008326Y022398D01*
X008307Y022363D01*
X008296Y022325D01*
X008296Y022001D01*
X008296Y022126D02*
X006691Y022126D01*
X006592Y022225D02*
X008296Y022225D01*
X008296Y022323D02*
X006494Y022323D01*
X006462Y022422D02*
X008351Y022422D01*
X008711Y022422D02*
X008811Y022422D01*
X008811Y022455D02*
X008811Y022001D01*
X009226Y022001D01*
X009226Y022325D01*
X009216Y022363D01*
X009196Y022398D01*
X009168Y022426D01*
X009134Y022445D01*
X009096Y022455D01*
X008811Y022455D01*
X008811Y022323D02*
X008711Y022323D01*
X008711Y022225D02*
X008811Y022225D01*
X008811Y022126D02*
X008711Y022126D01*
X008711Y022028D02*
X008811Y022028D01*
X008811Y021732D02*
X008711Y021732D01*
X008711Y021634D02*
X008811Y021634D01*
X008811Y021535D02*
X008711Y021535D01*
X008579Y021338D02*
X009682Y021338D01*
X009682Y021437D02*
X008481Y021437D01*
X008678Y021239D02*
X009682Y021239D01*
X009682Y021143D02*
X009658Y021133D01*
X009531Y021006D01*
X009462Y020841D01*
X009462Y020062D01*
X009531Y019896D01*
X009658Y019770D01*
X009823Y019701D01*
X010002Y019701D01*
X010167Y019770D01*
X010294Y019896D01*
X010362Y020062D01*
X010362Y020841D01*
X010294Y021006D01*
X010167Y021133D01*
X010142Y021143D01*
X010142Y021447D01*
X010241Y021447D01*
X010329Y021535D01*
X010329Y021634D02*
X010496Y021634D01*
X010496Y021732D02*
X010329Y021732D01*
X010329Y021831D02*
X010496Y021831D01*
X010496Y021929D02*
X010329Y021929D01*
X010329Y022028D02*
X010496Y022028D01*
X010496Y022126D02*
X010329Y022126D01*
X010329Y022225D02*
X010496Y022225D01*
X010496Y022323D02*
X010329Y022323D01*
X010274Y022422D02*
X010551Y022422D01*
X010584Y022455D02*
X010496Y022368D01*
X010496Y021535D01*
X010682Y021437D02*
X010142Y021437D01*
X010142Y021338D02*
X010682Y021338D01*
X010682Y021239D02*
X010142Y021239D01*
X010147Y021141D02*
X010678Y021141D01*
X010567Y021042D02*
X010258Y021042D01*
X010320Y020944D02*
X010505Y020944D01*
X010464Y020845D02*
X010361Y020845D01*
X010362Y020747D02*
X010462Y020747D01*
X010462Y020648D02*
X010362Y020648D01*
X010362Y020550D02*
X010462Y020550D01*
X010462Y020451D02*
X010362Y020451D01*
X010362Y020353D02*
X010462Y020353D01*
X010462Y020254D02*
X010362Y020254D01*
X010362Y020155D02*
X010462Y020155D01*
X010464Y020057D02*
X010360Y020057D01*
X010320Y019958D02*
X010505Y019958D01*
X010567Y019860D02*
X010257Y019860D01*
X010147Y019761D02*
X010678Y019761D01*
X011147Y019761D02*
X011678Y019761D01*
X011567Y019860D02*
X011257Y019860D01*
X011320Y019958D02*
X011505Y019958D01*
X011464Y020057D02*
X011360Y020057D01*
X011362Y020155D02*
X011462Y020155D01*
X011462Y020254D02*
X011362Y020254D01*
X011362Y020353D02*
X011462Y020353D01*
X011462Y020451D02*
X011362Y020451D01*
X011362Y020550D02*
X011462Y020550D01*
X011462Y020648D02*
X011362Y020648D01*
X011362Y020747D02*
X011462Y020747D01*
X011464Y020845D02*
X011361Y020845D01*
X011320Y020944D02*
X011505Y020944D01*
X011567Y021042D02*
X011258Y021042D01*
X012014Y021535D02*
X012114Y021535D01*
X012114Y021634D02*
X012014Y021634D01*
X012014Y021732D02*
X012114Y021732D01*
X012114Y022028D02*
X012014Y022028D01*
X012014Y022126D02*
X012114Y022126D01*
X012114Y022225D02*
X012014Y022225D01*
X012014Y022323D02*
X012114Y022323D01*
X012114Y022422D02*
X012014Y022422D01*
X012042Y022718D02*
X012783Y022718D01*
X012611Y022816D02*
X012214Y022816D01*
X012301Y022915D02*
X012523Y022915D01*
X012482Y023013D02*
X012342Y023013D01*
X012362Y023112D02*
X012462Y023112D01*
X012462Y023210D02*
X012362Y023210D01*
X012362Y023309D02*
X012462Y023309D01*
X012462Y023407D02*
X012362Y023407D01*
X012362Y023506D02*
X012462Y023506D01*
X012462Y023604D02*
X012362Y023604D01*
X012362Y023703D02*
X012462Y023703D01*
X012462Y023802D02*
X012362Y023802D01*
X012338Y023900D02*
X012487Y023900D01*
X012528Y023999D02*
X012297Y023999D01*
X012203Y024097D02*
X012622Y024097D01*
X013203Y024097D02*
X013623Y024097D01*
X013536Y023999D02*
X013297Y023999D01*
X013338Y023900D02*
X013488Y023900D01*
X013465Y023802D02*
X013362Y023802D01*
X013362Y023703D02*
X013462Y023703D01*
X013462Y023604D02*
X013362Y023604D01*
X013362Y023506D02*
X013462Y023506D01*
X013362Y023407D02*
X013862Y023407D01*
X013862Y023309D02*
X013962Y023309D01*
X013963Y023407D02*
X014462Y023407D01*
X014462Y023309D02*
X014362Y023309D01*
X014362Y023210D02*
X014462Y023210D01*
X014462Y023112D02*
X014362Y023112D01*
X014351Y023046D02*
X014329Y022978D01*
X014297Y022915D01*
X014214Y022816D02*
X014611Y022816D01*
X014662Y022718D02*
X014034Y022718D01*
X013962Y022718D02*
X013862Y022718D01*
X013791Y022718D02*
X013042Y022718D01*
X013342Y023013D02*
X013484Y023013D01*
X013463Y023112D02*
X013362Y023112D01*
X013362Y023210D02*
X013462Y023210D01*
X013462Y023309D02*
X013362Y023309D01*
X013528Y022915D02*
X013569Y022858D01*
X013619Y022808D01*
X013862Y022816D02*
X013962Y022816D01*
X013962Y022915D02*
X013862Y022915D01*
X013862Y023013D02*
X013962Y023013D01*
X013962Y023112D02*
X013862Y023112D01*
X013862Y023210D02*
X013962Y023210D01*
X013962Y023506D02*
X013862Y023506D01*
X013862Y023604D02*
X013962Y023604D01*
X013962Y023703D02*
X013862Y023703D01*
X013862Y023802D02*
X013962Y023802D01*
X013962Y023900D02*
X013862Y023900D01*
X013862Y023999D02*
X013962Y023999D01*
X013962Y024097D02*
X013862Y024097D01*
X014202Y024097D02*
X014622Y024097D01*
X014528Y023999D02*
X014289Y023999D01*
X014337Y023900D02*
X014487Y023900D01*
X014462Y023802D02*
X014360Y023802D01*
X014362Y023703D02*
X014462Y023703D01*
X014462Y023604D02*
X014362Y023604D01*
X014362Y023506D02*
X014462Y023506D01*
X014662Y022619D02*
X011142Y022619D01*
X011142Y022521D02*
X014662Y022521D01*
X014662Y022422D02*
X012474Y022422D01*
X012529Y022323D02*
X014662Y022323D01*
X014662Y022225D02*
X012529Y022225D01*
X012529Y022126D02*
X014662Y022126D01*
X014662Y022028D02*
X012529Y022028D01*
X012678Y021141D02*
X012147Y021141D01*
X012258Y021042D02*
X012567Y021042D01*
X012505Y020944D02*
X012320Y020944D01*
X012361Y020845D02*
X012464Y020845D01*
X012462Y020747D02*
X012362Y020747D01*
X012362Y020648D02*
X012462Y020648D01*
X012462Y020550D02*
X012362Y020550D01*
X012362Y020451D02*
X012462Y020451D01*
X012462Y020353D02*
X012362Y020353D01*
X012362Y020254D02*
X012462Y020254D01*
X012462Y020155D02*
X012362Y020155D01*
X012360Y020057D02*
X012464Y020057D01*
X012505Y019958D02*
X012320Y019958D01*
X012257Y019860D02*
X012567Y019860D01*
X012678Y019761D02*
X012147Y019761D01*
X013362Y020550D02*
X013462Y020550D01*
X013462Y020648D02*
X013362Y020648D01*
X013362Y020747D02*
X013462Y020747D01*
X013472Y020845D02*
X013361Y020845D01*
X013320Y020944D02*
X013506Y020944D01*
X013568Y021042D02*
X013258Y021042D01*
X013147Y021141D02*
X013686Y021141D01*
X014662Y019564D02*
X007953Y019564D01*
X008051Y019466D02*
X014662Y019466D01*
X015162Y019466D02*
X015473Y019466D01*
X015375Y019367D02*
X015162Y019367D01*
X015162Y019269D02*
X015276Y019269D01*
X015178Y019170D02*
X015162Y019170D01*
X015491Y018776D02*
X021262Y018776D01*
X021262Y018874D02*
X015589Y018874D01*
X015688Y018973D02*
X021262Y018973D01*
X021262Y019071D02*
X015786Y019071D01*
X015885Y019170D02*
X021262Y019170D01*
X021262Y019269D02*
X015983Y019269D01*
X016082Y019367D02*
X021262Y019367D01*
X021262Y019466D02*
X016148Y019466D01*
X016162Y019564D02*
X021262Y019564D01*
X021247Y019663D02*
X016162Y019663D01*
X016162Y019761D02*
X016678Y019761D01*
X016658Y019770D02*
X016823Y019701D01*
X017002Y019701D01*
X017167Y019770D01*
X017294Y019896D01*
X017362Y020062D01*
X017362Y020841D01*
X017294Y021006D01*
X017167Y021133D01*
X017002Y021201D01*
X016823Y021201D01*
X016658Y021133D01*
X016531Y021006D01*
X016462Y020841D01*
X016462Y020062D01*
X016531Y019896D01*
X016658Y019770D01*
X016567Y019860D02*
X016257Y019860D01*
X016320Y019958D02*
X016505Y019958D01*
X016464Y020057D02*
X016360Y020057D01*
X016362Y020155D02*
X016462Y020155D01*
X016462Y020254D02*
X016362Y020254D01*
X016362Y020353D02*
X016462Y020353D01*
X016462Y020451D02*
X016362Y020451D01*
X016362Y020550D02*
X016462Y020550D01*
X016462Y020648D02*
X016362Y020648D01*
X016362Y020747D02*
X016462Y020747D01*
X016464Y020845D02*
X016361Y020845D01*
X016320Y020944D02*
X016505Y020944D01*
X016567Y021042D02*
X016258Y021042D01*
X016162Y021141D02*
X016678Y021141D01*
X017147Y021141D02*
X017678Y021141D01*
X017658Y021133D02*
X017531Y021006D01*
X017462Y020841D01*
X017462Y020062D01*
X017531Y019896D01*
X017658Y019770D01*
X017823Y019701D01*
X018002Y019701D01*
X018167Y019770D01*
X018294Y019896D01*
X018362Y020062D01*
X018362Y020841D01*
X018294Y021006D01*
X018167Y021133D01*
X018002Y021201D01*
X017823Y021201D01*
X017658Y021133D01*
X017567Y021042D02*
X017258Y021042D01*
X017320Y020944D02*
X017505Y020944D01*
X017464Y020845D02*
X017361Y020845D01*
X017362Y020747D02*
X017462Y020747D01*
X017462Y020648D02*
X017362Y020648D01*
X017362Y020550D02*
X017462Y020550D01*
X017462Y020451D02*
X017362Y020451D01*
X017362Y020353D02*
X017462Y020353D01*
X017462Y020254D02*
X017362Y020254D01*
X017362Y020155D02*
X017462Y020155D01*
X017464Y020057D02*
X017360Y020057D01*
X017320Y019958D02*
X017505Y019958D01*
X017567Y019860D02*
X017257Y019860D01*
X017147Y019761D02*
X017678Y019761D01*
X018147Y019761D02*
X018678Y019761D01*
X018658Y019770D02*
X018823Y019701D01*
X019002Y019701D01*
X019167Y019770D01*
X019294Y019896D01*
X019362Y020062D01*
X019362Y020841D01*
X019294Y021006D01*
X019167Y021133D01*
X019002Y021201D01*
X018823Y021201D01*
X018658Y021133D01*
X018531Y021006D01*
X018462Y020841D01*
X018462Y020062D01*
X018531Y019896D01*
X018658Y019770D01*
X018567Y019860D02*
X018257Y019860D01*
X018320Y019958D02*
X018505Y019958D01*
X018464Y020057D02*
X018360Y020057D01*
X018362Y020155D02*
X018462Y020155D01*
X018462Y020254D02*
X018362Y020254D01*
X018362Y020353D02*
X018462Y020353D01*
X018462Y020451D02*
X018362Y020451D01*
X018362Y020550D02*
X018462Y020550D01*
X018462Y020648D02*
X018362Y020648D01*
X018362Y020747D02*
X018462Y020747D01*
X018464Y020845D02*
X018361Y020845D01*
X018320Y020944D02*
X018505Y020944D01*
X018567Y021042D02*
X018258Y021042D01*
X018147Y021141D02*
X018678Y021141D01*
X019147Y021141D02*
X019678Y021141D01*
X019658Y021133D02*
X019531Y021006D01*
X019462Y020841D01*
X019462Y020062D01*
X019531Y019896D01*
X019658Y019770D01*
X019823Y019701D01*
X020002Y019701D01*
X020167Y019770D01*
X020294Y019896D01*
X020362Y020062D01*
X020362Y020841D01*
X020294Y021006D01*
X020167Y021133D01*
X020002Y021201D01*
X019823Y021201D01*
X019658Y021133D01*
X019567Y021042D02*
X019258Y021042D01*
X019320Y020944D02*
X019505Y020944D01*
X019464Y020845D02*
X019361Y020845D01*
X019362Y020747D02*
X019462Y020747D01*
X019462Y020648D02*
X019362Y020648D01*
X019362Y020550D02*
X019462Y020550D01*
X019462Y020451D02*
X019362Y020451D01*
X019362Y020353D02*
X019462Y020353D01*
X019462Y020254D02*
X019362Y020254D01*
X019362Y020155D02*
X019462Y020155D01*
X019464Y020057D02*
X019360Y020057D01*
X019320Y019958D02*
X019505Y019958D01*
X019567Y019860D02*
X019257Y019860D01*
X019147Y019761D02*
X019678Y019761D01*
X020147Y019761D02*
X020678Y019761D01*
X020567Y019860D02*
X020257Y019860D01*
X020320Y019958D02*
X020505Y019958D01*
X020464Y020057D02*
X020360Y020057D01*
X020362Y020155D02*
X020462Y020155D01*
X020462Y020254D02*
X020362Y020254D01*
X020362Y020353D02*
X020462Y020353D01*
X020462Y020451D02*
X020362Y020451D01*
X020362Y020550D02*
X020462Y020550D01*
X020462Y020648D02*
X020362Y020648D01*
X020362Y020747D02*
X020462Y020747D01*
X020464Y020845D02*
X020361Y020845D01*
X020320Y020944D02*
X020505Y020944D01*
X020567Y021042D02*
X020258Y021042D01*
X020147Y021141D02*
X020678Y021141D01*
X021147Y021141D02*
X022112Y021141D01*
X022112Y021239D02*
X016162Y021239D01*
X016162Y021338D02*
X022112Y021338D01*
X022112Y021437D02*
X016162Y021437D01*
X016162Y021535D02*
X022112Y021535D01*
X022112Y021634D02*
X016162Y021634D01*
X016162Y021732D02*
X022112Y021732D01*
X022112Y021831D02*
X016162Y021831D01*
X016162Y021929D02*
X022112Y021929D01*
X022112Y022028D02*
X016162Y022028D01*
X016162Y022126D02*
X022112Y022126D01*
X022112Y022225D02*
X016162Y022225D01*
X016162Y022323D02*
X022112Y022323D01*
X022112Y022422D02*
X016162Y022422D01*
X016162Y022521D02*
X022112Y022521D01*
X022112Y022619D02*
X016162Y022619D01*
X016162Y022718D02*
X016783Y022718D01*
X016823Y022701D02*
X017002Y022701D01*
X017167Y022770D01*
X017294Y022896D01*
X017362Y023062D01*
X017362Y023841D01*
X017294Y024006D01*
X017167Y024133D01*
X017002Y024201D01*
X016823Y024201D01*
X016658Y024133D01*
X016531Y024006D01*
X016462Y023841D01*
X016462Y023062D01*
X016531Y022896D01*
X016658Y022770D01*
X016823Y022701D01*
X017042Y022718D02*
X017783Y022718D01*
X017823Y022701D02*
X018002Y022701D01*
X018167Y022770D01*
X018294Y022896D01*
X018362Y023062D01*
X018362Y023841D01*
X018294Y024006D01*
X018167Y024133D01*
X018002Y024201D01*
X017823Y024201D01*
X017658Y024133D01*
X017531Y024006D01*
X017462Y023841D01*
X017462Y023062D01*
X017531Y022896D01*
X017658Y022770D01*
X017823Y022701D01*
X018042Y022718D02*
X018783Y022718D01*
X018823Y022701D02*
X019002Y022701D01*
X019167Y022770D01*
X019294Y022896D01*
X019362Y023062D01*
X019362Y023841D01*
X019294Y024006D01*
X019167Y024133D01*
X019002Y024201D01*
X018823Y024201D01*
X018658Y024133D01*
X018531Y024006D01*
X018462Y023841D01*
X018462Y023062D01*
X018531Y022896D01*
X018658Y022770D01*
X018823Y022701D01*
X019042Y022718D02*
X019783Y022718D01*
X019823Y022701D02*
X020002Y022701D01*
X020167Y022770D01*
X020294Y022896D01*
X020362Y023062D01*
X020362Y023841D01*
X020294Y024006D01*
X020167Y024133D01*
X020002Y024201D01*
X019823Y024201D01*
X019658Y024133D01*
X019531Y024006D01*
X019462Y023841D01*
X019462Y023062D01*
X019531Y022896D01*
X019658Y022770D01*
X019823Y022701D01*
X020042Y022718D02*
X020783Y022718D01*
X020823Y022701D02*
X021002Y022701D01*
X021167Y022770D01*
X021294Y022896D01*
X021362Y023062D01*
X021362Y023841D01*
X021294Y024006D01*
X021167Y024133D01*
X021002Y024201D01*
X020823Y024201D01*
X020658Y024133D01*
X020531Y024006D01*
X020462Y023841D01*
X020462Y023062D01*
X020531Y022896D01*
X020658Y022770D01*
X020823Y022701D01*
X021042Y022718D02*
X022112Y022718D01*
X022112Y022816D02*
X021214Y022816D01*
X021301Y022915D02*
X022112Y022915D01*
X022112Y023013D02*
X021342Y023013D01*
X021362Y023112D02*
X022112Y023112D01*
X022112Y023210D02*
X021362Y023210D01*
X021362Y023309D02*
X022112Y023309D01*
X022112Y023407D02*
X021362Y023407D01*
X021362Y023506D02*
X022112Y023506D01*
X022112Y023604D02*
X021362Y023604D01*
X021362Y023703D02*
X022112Y023703D01*
X022112Y023802D02*
X021362Y023802D01*
X021338Y023900D02*
X022112Y023900D01*
X022112Y023999D02*
X021297Y023999D01*
X021203Y024097D02*
X022112Y024097D01*
X022112Y024196D02*
X021015Y024196D01*
X020810Y024196D02*
X020015Y024196D01*
X019810Y024196D02*
X019015Y024196D01*
X018810Y024196D02*
X018015Y024196D01*
X017810Y024196D02*
X017015Y024196D01*
X016810Y024196D02*
X016015Y024196D01*
X016203Y024097D02*
X016622Y024097D01*
X016528Y023999D02*
X016297Y023999D01*
X016338Y023900D02*
X016487Y023900D01*
X016462Y023802D02*
X016362Y023802D01*
X016362Y023703D02*
X016462Y023703D01*
X016462Y023604D02*
X016362Y023604D01*
X016362Y023506D02*
X016462Y023506D01*
X016462Y023407D02*
X016362Y023407D01*
X016362Y023309D02*
X016462Y023309D01*
X016462Y023210D02*
X016362Y023210D01*
X016362Y023112D02*
X016462Y023112D01*
X016482Y023013D02*
X016342Y023013D01*
X016301Y022915D02*
X016523Y022915D01*
X016611Y022816D02*
X016214Y022816D01*
X017214Y022816D02*
X017611Y022816D01*
X017523Y022915D02*
X017301Y022915D01*
X017342Y023013D02*
X017482Y023013D01*
X017462Y023112D02*
X017362Y023112D01*
X017362Y023210D02*
X017462Y023210D01*
X017462Y023309D02*
X017362Y023309D01*
X017362Y023407D02*
X017462Y023407D01*
X017462Y023506D02*
X017362Y023506D01*
X017362Y023604D02*
X017462Y023604D01*
X017462Y023703D02*
X017362Y023703D01*
X017362Y023802D02*
X017462Y023802D01*
X017487Y023900D02*
X017338Y023900D01*
X017297Y023999D02*
X017528Y023999D01*
X017622Y024097D02*
X017203Y024097D01*
X018203Y024097D02*
X018622Y024097D01*
X018528Y023999D02*
X018297Y023999D01*
X018338Y023900D02*
X018487Y023900D01*
X018462Y023802D02*
X018362Y023802D01*
X018362Y023703D02*
X018462Y023703D01*
X018462Y023604D02*
X018362Y023604D01*
X018362Y023506D02*
X018462Y023506D01*
X018462Y023407D02*
X018362Y023407D01*
X018362Y023309D02*
X018462Y023309D01*
X018462Y023210D02*
X018362Y023210D01*
X018362Y023112D02*
X018462Y023112D01*
X018482Y023013D02*
X018342Y023013D01*
X018301Y022915D02*
X018523Y022915D01*
X018611Y022816D02*
X018214Y022816D01*
X019214Y022816D02*
X019611Y022816D01*
X019523Y022915D02*
X019301Y022915D01*
X019342Y023013D02*
X019482Y023013D01*
X019462Y023112D02*
X019362Y023112D01*
X019362Y023210D02*
X019462Y023210D01*
X019462Y023309D02*
X019362Y023309D01*
X019362Y023407D02*
X019462Y023407D01*
X019462Y023506D02*
X019362Y023506D01*
X019362Y023604D02*
X019462Y023604D01*
X019462Y023703D02*
X019362Y023703D01*
X019362Y023802D02*
X019462Y023802D01*
X019487Y023900D02*
X019338Y023900D01*
X019297Y023999D02*
X019528Y023999D01*
X019622Y024097D02*
X019203Y024097D01*
X020203Y024097D02*
X020622Y024097D01*
X020528Y023999D02*
X020297Y023999D01*
X020338Y023900D02*
X020487Y023900D01*
X020462Y023802D02*
X020362Y023802D01*
X020362Y023703D02*
X020462Y023703D01*
X020462Y023604D02*
X020362Y023604D01*
X020362Y023506D02*
X020462Y023506D01*
X020462Y023407D02*
X020362Y023407D01*
X020362Y023309D02*
X020462Y023309D01*
X020462Y023210D02*
X020362Y023210D01*
X020362Y023112D02*
X020462Y023112D01*
X020482Y023013D02*
X020342Y023013D01*
X020301Y022915D02*
X020523Y022915D01*
X020611Y022816D02*
X020214Y022816D01*
X021258Y021042D02*
X022112Y021042D01*
X022112Y020944D02*
X021320Y020944D01*
X021361Y020845D02*
X022112Y020845D01*
X022112Y020747D02*
X021362Y020747D01*
X021362Y020648D02*
X022112Y020648D01*
X022112Y020550D02*
X021362Y020550D01*
X021362Y020451D02*
X022112Y020451D01*
X022112Y020353D02*
X021362Y020353D01*
X021363Y020254D02*
X022112Y020254D01*
X022112Y020155D02*
X021462Y020155D01*
X021560Y020057D02*
X022112Y020057D01*
X022112Y019958D02*
X021659Y019958D01*
X021738Y019860D02*
X022112Y019860D01*
X022112Y019761D02*
X021762Y019761D01*
X021762Y019663D02*
X022112Y019663D01*
X022112Y019564D02*
X021762Y019564D01*
X021762Y019466D02*
X022112Y019466D01*
X022112Y019367D02*
X021762Y019367D01*
X021762Y019269D02*
X022112Y019269D01*
X022112Y019170D02*
X021762Y019170D01*
X021762Y019071D02*
X022112Y019071D01*
X022112Y018973D02*
X021762Y018973D01*
X021762Y018874D02*
X022112Y018874D01*
X022112Y018776D02*
X021762Y018776D01*
X021762Y018677D02*
X022112Y018677D01*
X022112Y018579D02*
X021762Y018579D01*
X021762Y018480D02*
X022112Y018480D01*
X022112Y018382D02*
X021762Y018382D01*
X021762Y018283D02*
X022112Y018283D01*
X022112Y018185D02*
X021762Y018185D01*
X021762Y018086D02*
X022112Y018086D01*
X022112Y017988D02*
X021762Y017988D01*
X021762Y017889D02*
X022112Y017889D01*
X022112Y017790D02*
X021762Y017790D01*
X021762Y017692D02*
X022112Y017692D01*
X022112Y017593D02*
X021762Y017593D01*
X021762Y017495D02*
X022112Y017495D01*
X022112Y017396D02*
X021762Y017396D01*
X021762Y017298D02*
X022112Y017298D01*
X022112Y017199D02*
X021762Y017199D01*
X021762Y017101D02*
X022112Y017101D01*
X022112Y017002D02*
X021762Y017002D01*
X021762Y016904D02*
X022112Y016904D01*
X022112Y016805D02*
X021762Y016805D01*
X021762Y016706D02*
X022112Y016706D01*
X022112Y016608D02*
X021762Y016608D01*
X021762Y016509D02*
X022112Y016509D01*
X022112Y016411D02*
X021762Y016411D01*
X021762Y016312D02*
X022112Y016312D01*
X022112Y016214D02*
X021762Y016214D01*
X021751Y016115D02*
X022112Y016115D01*
X022112Y016017D02*
X021691Y016017D01*
X021654Y015979D02*
X021654Y015979D01*
X021637Y015918D02*
X022112Y015918D01*
X022112Y015820D02*
X021637Y015820D01*
X021637Y015721D02*
X022112Y015721D01*
X022112Y015622D02*
X021637Y015622D01*
X021637Y015524D02*
X022112Y015524D01*
X022112Y015425D02*
X021629Y015425D01*
X022112Y015327D02*
X019612Y015327D01*
X019612Y015228D02*
X022112Y015228D01*
X022112Y015130D02*
X019612Y015130D01*
X019612Y015031D02*
X022112Y015031D01*
X022112Y014933D02*
X019612Y014933D01*
X019612Y014834D02*
X022112Y014834D01*
X022112Y014736D02*
X019612Y014736D01*
X019612Y014637D02*
X022112Y014637D01*
X022112Y014539D02*
X019612Y014539D01*
X019612Y014440D02*
X022112Y014440D01*
X022112Y014341D02*
X019612Y014341D01*
X019612Y014243D02*
X022112Y014243D01*
X022112Y014144D02*
X019612Y014144D01*
X019612Y014046D02*
X022112Y014046D01*
X022112Y013947D02*
X019612Y013947D01*
X019612Y013849D02*
X022112Y013849D01*
X022112Y013750D02*
X019612Y013750D01*
X019612Y013652D02*
X022112Y013652D01*
X022112Y013553D02*
X019612Y013553D01*
X019612Y013455D02*
X022112Y013455D01*
X022112Y013356D02*
X019612Y013356D01*
X019612Y013257D02*
X022112Y013257D01*
X022112Y013159D02*
X019612Y013159D01*
X019612Y013060D02*
X022112Y013060D01*
X022112Y012962D02*
X019612Y012962D01*
X019612Y012863D02*
X022112Y012863D01*
X022112Y012765D02*
X019682Y012765D01*
X019780Y012666D02*
X022112Y012666D01*
X022112Y012568D02*
X019879Y012568D01*
X019977Y012469D02*
X022112Y012469D01*
X022112Y012371D02*
X020076Y012371D01*
X020174Y012272D02*
X022112Y012272D01*
X022112Y012173D02*
X020273Y012173D01*
X020371Y012075D02*
X022112Y012075D01*
X022112Y011976D02*
X020470Y011976D01*
X020569Y011878D02*
X022112Y011878D01*
X022112Y011779D02*
X020667Y011779D01*
X020766Y011681D02*
X022112Y011681D01*
X022112Y011582D02*
X020864Y011582D01*
X020963Y011484D02*
X022112Y011484D01*
X022112Y011385D02*
X021012Y011385D01*
X021012Y011287D02*
X022112Y011287D01*
X022112Y011188D02*
X021012Y011188D01*
X021012Y011089D02*
X022112Y011089D01*
X022112Y010991D02*
X021012Y010991D01*
X021012Y010892D02*
X022112Y010892D01*
X022112Y010794D02*
X021012Y010794D01*
X021012Y010695D02*
X022112Y010695D01*
X022112Y010597D02*
X021012Y010597D01*
X021012Y010498D02*
X022112Y010498D01*
X022112Y010400D02*
X021012Y010400D01*
X021012Y010301D02*
X022112Y010301D01*
X022112Y010203D02*
X021012Y010203D01*
X021012Y010104D02*
X022112Y010104D01*
X022112Y010006D02*
X021012Y010006D01*
X021012Y009907D02*
X022112Y009907D01*
X022112Y009808D02*
X021012Y009808D01*
X021012Y009710D02*
X022112Y009710D01*
X022112Y009611D02*
X021012Y009611D01*
X021012Y009513D02*
X022112Y009513D01*
X022112Y009414D02*
X021012Y009414D01*
X021012Y009316D02*
X022112Y009316D01*
X022112Y009217D02*
X021012Y009217D01*
X021012Y009119D02*
X022112Y009119D01*
X022112Y009020D02*
X021012Y009020D01*
X021012Y008922D02*
X022112Y008922D01*
X022112Y008823D02*
X021012Y008823D01*
X021012Y008724D02*
X022112Y008724D01*
X022112Y008626D02*
X021012Y008626D01*
X021012Y008527D02*
X022112Y008527D01*
X022112Y008429D02*
X021012Y008429D01*
X021012Y008330D02*
X022112Y008330D01*
X022112Y008232D02*
X021012Y008232D01*
X021012Y008133D02*
X022112Y008133D01*
X022112Y008035D02*
X021012Y008035D01*
X021012Y007936D02*
X022112Y007936D01*
X022112Y007838D02*
X021012Y007838D01*
X021012Y007739D02*
X022112Y007739D01*
X022112Y007640D02*
X021012Y007640D01*
X021012Y007542D02*
X022112Y007542D01*
X022112Y007443D02*
X021012Y007443D01*
X021012Y007345D02*
X022112Y007345D01*
X022112Y007246D02*
X021012Y007246D01*
X021012Y007148D02*
X022112Y007148D01*
X022112Y007049D02*
X021012Y007049D01*
X021012Y006951D02*
X022112Y006951D01*
X022112Y006852D02*
X021012Y006852D01*
X021066Y006754D02*
X022112Y006754D01*
X022112Y006655D02*
X021187Y006655D01*
X021235Y006556D02*
X022112Y006556D01*
X022112Y006458D02*
X021251Y006458D01*
X021240Y006359D02*
X022112Y006359D01*
X022112Y006261D02*
X021200Y006261D01*
X021099Y006162D02*
X022112Y006162D01*
X022112Y006064D02*
X020862Y006064D01*
X020731Y005965D02*
X022112Y005965D01*
X022112Y005867D02*
X020611Y005867D01*
X020429Y005768D02*
X022112Y005768D01*
X022112Y005670D02*
X020429Y005670D01*
X020429Y005571D02*
X022112Y005571D01*
X022112Y005473D02*
X020429Y005473D01*
X020429Y005374D02*
X022112Y005374D01*
X022112Y005275D02*
X020429Y005275D01*
X020429Y005177D02*
X022112Y005177D01*
X022112Y005078D02*
X020429Y005078D01*
X020412Y004980D02*
X022112Y004980D01*
X022112Y004881D02*
X020412Y004881D01*
X020412Y004783D02*
X022112Y004783D01*
X022112Y004684D02*
X020412Y004684D01*
X020412Y004586D02*
X022112Y004586D01*
X022112Y004487D02*
X020412Y004487D01*
X020412Y004389D02*
X022112Y004389D01*
X022112Y004290D02*
X020412Y004290D01*
X020412Y004191D02*
X022112Y004191D01*
X022112Y004093D02*
X020412Y004093D01*
X020412Y003994D02*
X022112Y003994D01*
X022112Y003896D02*
X020412Y003896D01*
X020412Y003797D02*
X022112Y003797D01*
X022112Y003699D02*
X020412Y003699D01*
X020375Y003600D02*
X022112Y003600D01*
X022112Y003502D02*
X020287Y003502D01*
X020189Y003403D02*
X022112Y003403D01*
X022112Y003305D02*
X020090Y003305D01*
X019992Y003206D02*
X022112Y003206D01*
X022112Y003107D02*
X015512Y003107D01*
X015512Y003009D02*
X022112Y003009D01*
X022112Y002910D02*
X015512Y002910D01*
X015512Y002812D02*
X019945Y002812D01*
X019887Y002788D02*
X019676Y002577D01*
X019561Y002301D01*
X019561Y002002D01*
X019676Y001726D01*
X019887Y001514D01*
X020163Y001400D01*
X020462Y001400D01*
X020738Y001514D01*
X020949Y001726D01*
X021064Y002002D01*
X021064Y002301D01*
X020949Y002577D01*
X020738Y002788D01*
X020462Y002902D01*
X020163Y002902D01*
X019887Y002788D01*
X019812Y002713D02*
X015512Y002713D01*
X015512Y002615D02*
X019714Y002615D01*
X019651Y002516D02*
X015512Y002516D01*
X015512Y002418D02*
X019610Y002418D01*
X019569Y002319D02*
X015512Y002319D01*
X015512Y002221D02*
X019561Y002221D01*
X019561Y002122D02*
X015512Y002122D01*
X015512Y002024D02*
X019561Y002024D01*
X019593Y001925D02*
X015512Y001925D01*
X015485Y001826D02*
X019634Y001826D01*
X019675Y001728D02*
X015413Y001728D01*
X015315Y001629D02*
X019772Y001629D01*
X019871Y001531D02*
X015216Y001531D01*
X015118Y001432D02*
X020085Y001432D01*
X020540Y001432D02*
X022112Y001432D01*
X022112Y001334D02*
X015019Y001334D01*
X014921Y001235D02*
X022112Y001235D01*
X022112Y001137D02*
X014822Y001137D01*
X014724Y001038D02*
X022112Y001038D01*
X022112Y000940D02*
X014625Y000940D01*
X014288Y001451D02*
X012295Y001451D01*
X012312Y001468D01*
X012312Y001634D01*
X012312Y003676D01*
X012919Y003676D01*
X012919Y003656D01*
X013007Y003569D01*
X013293Y003569D01*
X013293Y001855D01*
X013381Y001767D01*
X014509Y001767D01*
X014597Y001855D01*
X014597Y003633D01*
X014509Y003721D01*
X014046Y003721D01*
X014046Y004096D01*
X014019Y004122D01*
X014046Y004148D01*
X014046Y004560D01*
X014696Y004560D01*
X014696Y004335D01*
X014784Y004247D01*
X014912Y004247D01*
X014912Y003411D01*
X014912Y003291D01*
X014912Y002075D01*
X014288Y001451D01*
X014368Y001531D02*
X012312Y001531D01*
X012312Y001629D02*
X014466Y001629D01*
X014565Y001728D02*
X012312Y001728D01*
X012312Y001826D02*
X013322Y001826D01*
X013293Y001925D02*
X012312Y001925D01*
X012312Y002024D02*
X013293Y002024D01*
X013293Y002122D02*
X012312Y002122D01*
X012312Y002221D02*
X013293Y002221D01*
X013293Y002319D02*
X012312Y002319D01*
X012312Y002418D02*
X013293Y002418D01*
X013293Y002516D02*
X012312Y002516D01*
X012312Y002615D02*
X013293Y002615D01*
X013293Y002713D02*
X012312Y002713D01*
X012312Y002812D02*
X013293Y002812D01*
X013293Y002910D02*
X012312Y002910D01*
X012312Y003009D02*
X013293Y003009D01*
X013293Y003107D02*
X012312Y003107D01*
X012312Y003206D02*
X013293Y003206D01*
X013293Y003305D02*
X012312Y003305D01*
X012312Y003403D02*
X013293Y003403D01*
X013293Y003502D02*
X012312Y003502D01*
X012312Y003600D02*
X012975Y003600D01*
X012919Y004076D02*
X012195Y004076D01*
X012112Y004076D01*
X012112Y004168D01*
X012919Y004168D01*
X012919Y004148D01*
X012946Y004122D01*
X012919Y004096D01*
X012919Y004076D01*
X012919Y004093D02*
X012112Y004093D01*
X012112Y003876D02*
X012112Y001551D01*
X010112Y001551D01*
X010112Y003451D01*
X009512Y003451D01*
X009512Y004351D01*
X005845Y004351D01*
X005845Y006996D01*
X006101Y006996D02*
X006101Y004551D01*
X009712Y004551D01*
X009712Y003651D01*
X010312Y003651D01*
X010312Y001751D01*
X011912Y001751D01*
X011912Y004368D01*
X013483Y004368D01*
X013483Y003876D02*
X012112Y003876D01*
X011762Y004501D02*
X011762Y004588D01*
X011736Y004614D01*
X011762Y004641D01*
X011762Y005080D01*
X011736Y005106D01*
X011762Y005133D01*
X011762Y005572D01*
X011736Y005598D01*
X011762Y005625D01*
X011762Y006064D01*
X011736Y006091D01*
X011762Y006117D01*
X011762Y006556D01*
X011736Y006583D01*
X011762Y006609D01*
X011762Y007048D01*
X011736Y007075D01*
X011762Y007101D01*
X011762Y007540D01*
X011736Y007567D01*
X011762Y007593D01*
X011762Y008033D01*
X011736Y008059D01*
X011762Y008085D01*
X011762Y008525D01*
X011736Y008551D01*
X011762Y008578D01*
X011762Y009017D01*
X011736Y009043D01*
X011762Y009070D01*
X011762Y009509D01*
X011736Y009535D01*
X011762Y009562D01*
X011762Y010001D01*
X011736Y010028D01*
X011762Y010054D01*
X011762Y010493D01*
X011736Y010520D01*
X011762Y010546D01*
X011762Y010985D01*
X011736Y011012D01*
X011762Y011038D01*
X011762Y011477D01*
X011736Y011504D01*
X011762Y011530D01*
X011762Y011970D01*
X011736Y011996D01*
X011762Y012022D01*
X011762Y012462D01*
X011736Y012488D01*
X011762Y012515D01*
X011762Y012601D01*
X011830Y012534D01*
X011995Y012534D01*
X012919Y012534D01*
X012919Y012515D01*
X012946Y012488D01*
X012919Y012462D01*
X012919Y012022D01*
X012946Y011996D01*
X012919Y011970D01*
X012919Y011530D01*
X012946Y011504D01*
X012919Y011477D01*
X012919Y011038D01*
X012946Y011012D01*
X012919Y010985D01*
X012919Y010546D01*
X012946Y010520D01*
X012919Y010493D01*
X012919Y010054D01*
X012946Y010028D01*
X012919Y010001D01*
X012919Y009562D01*
X012946Y009535D01*
X012919Y009509D01*
X012919Y009070D01*
X012946Y009043D01*
X012919Y009017D01*
X012919Y008578D01*
X012946Y008551D01*
X012919Y008525D01*
X012919Y008085D01*
X012946Y008059D01*
X012919Y008033D01*
X012919Y007593D01*
X012946Y007567D01*
X012919Y007540D01*
X012919Y007101D01*
X012946Y007075D01*
X012919Y007048D01*
X012919Y006609D01*
X012946Y006583D01*
X012919Y006556D01*
X012919Y006117D01*
X012946Y006091D01*
X012919Y006064D01*
X012919Y005625D01*
X012946Y005598D01*
X012919Y005572D01*
X012919Y005133D01*
X012946Y005106D01*
X012919Y005080D01*
X012919Y004641D01*
X012946Y004614D01*
X012919Y004588D01*
X012919Y004568D01*
X011995Y004568D01*
X011830Y004568D01*
X011762Y004501D01*
X011762Y004586D02*
X012919Y004586D01*
X012919Y004684D02*
X011762Y004684D01*
X011762Y004783D02*
X012919Y004783D01*
X012919Y004881D02*
X011762Y004881D01*
X011762Y004980D02*
X012919Y004980D01*
X012919Y005078D02*
X011762Y005078D01*
X011762Y005177D02*
X012919Y005177D01*
X012919Y005275D02*
X011762Y005275D01*
X011762Y005374D02*
X012919Y005374D01*
X012919Y005473D02*
X011762Y005473D01*
X011762Y005571D02*
X012919Y005571D01*
X012919Y005670D02*
X011762Y005670D01*
X011762Y005768D02*
X012919Y005768D01*
X012919Y005867D02*
X011762Y005867D01*
X011762Y005965D02*
X012919Y005965D01*
X012919Y006064D02*
X011762Y006064D01*
X011762Y006162D02*
X012919Y006162D01*
X012919Y006261D02*
X011762Y006261D01*
X011762Y006359D02*
X012919Y006359D01*
X012919Y006458D02*
X011762Y006458D01*
X011762Y006556D02*
X012919Y006556D01*
X012919Y006655D02*
X011762Y006655D01*
X011762Y006754D02*
X012919Y006754D01*
X012919Y006852D02*
X011762Y006852D01*
X011762Y006951D02*
X012919Y006951D01*
X012920Y007049D02*
X011762Y007049D01*
X011762Y007148D02*
X012919Y007148D01*
X012919Y007246D02*
X011762Y007246D01*
X011762Y007345D02*
X012919Y007345D01*
X012919Y007443D02*
X011762Y007443D01*
X011761Y007542D02*
X012921Y007542D01*
X012919Y007640D02*
X011762Y007640D01*
X011762Y007739D02*
X012919Y007739D01*
X012919Y007838D02*
X011762Y007838D01*
X011762Y007936D02*
X012919Y007936D01*
X012921Y008035D02*
X011760Y008035D01*
X011762Y008133D02*
X012919Y008133D01*
X012919Y008232D02*
X011762Y008232D01*
X011762Y008330D02*
X012919Y008330D01*
X012919Y008429D02*
X011762Y008429D01*
X011760Y008527D02*
X012922Y008527D01*
X012919Y008626D02*
X011762Y008626D01*
X011762Y008724D02*
X012919Y008724D01*
X012919Y008823D02*
X011762Y008823D01*
X011762Y008922D02*
X012919Y008922D01*
X012922Y009020D02*
X011759Y009020D01*
X011762Y009119D02*
X012919Y009119D01*
X012919Y009217D02*
X011762Y009217D01*
X011762Y009316D02*
X012919Y009316D01*
X012919Y009414D02*
X011762Y009414D01*
X011759Y009513D02*
X012923Y009513D01*
X012919Y009611D02*
X011762Y009611D01*
X011762Y009710D02*
X012919Y009710D01*
X012919Y009808D02*
X011762Y009808D01*
X011762Y009907D02*
X012919Y009907D01*
X012924Y010006D02*
X011758Y010006D01*
X011762Y010104D02*
X012919Y010104D01*
X012919Y010203D02*
X011762Y010203D01*
X011762Y010301D02*
X012919Y010301D01*
X012919Y010400D02*
X011762Y010400D01*
X011757Y010498D02*
X012924Y010498D01*
X012919Y010597D02*
X011762Y010597D01*
X011762Y010695D02*
X012919Y010695D01*
X012919Y010794D02*
X011762Y010794D01*
X011762Y010892D02*
X012919Y010892D01*
X012925Y010991D02*
X011757Y010991D01*
X011762Y011089D02*
X012919Y011089D01*
X012919Y011188D02*
X011762Y011188D01*
X011762Y011287D02*
X012919Y011287D01*
X012919Y011385D02*
X011762Y011385D01*
X011756Y011484D02*
X012925Y011484D01*
X012919Y011582D02*
X011762Y011582D01*
X011762Y011681D02*
X012919Y011681D01*
X012919Y011779D02*
X011762Y011779D01*
X011762Y011878D02*
X012919Y011878D01*
X012926Y011976D02*
X011756Y011976D01*
X011762Y012075D02*
X012919Y012075D01*
X012919Y012173D02*
X011762Y012173D01*
X011762Y012272D02*
X012919Y012272D01*
X012919Y012371D02*
X011762Y012371D01*
X011755Y012469D02*
X012926Y012469D01*
X012919Y012934D02*
X012112Y012934D01*
X012112Y013026D01*
X012195Y013026D01*
X012919Y013026D01*
X012919Y013007D01*
X012946Y012980D01*
X012919Y012954D01*
X012919Y012934D01*
X012927Y012962D02*
X012112Y012962D01*
X012112Y013226D02*
X012112Y015551D01*
X010112Y015551D01*
X010112Y013651D01*
X009512Y013651D01*
X009512Y012751D01*
X005845Y012751D01*
X005845Y010106D01*
X005636Y010106D02*
X005589Y010106D01*
X005589Y009759D01*
X005668Y009759D01*
X005706Y009770D01*
X005711Y009772D01*
X005724Y009759D01*
X005966Y009759D01*
X005973Y009766D01*
X005979Y009759D01*
X006222Y009759D01*
X006229Y009766D01*
X006235Y009759D01*
X006478Y009759D01*
X006484Y009766D01*
X006491Y009759D01*
X006734Y009759D01*
X006740Y009766D01*
X006747Y009759D01*
X006990Y009759D01*
X006996Y009766D01*
X007003Y009759D01*
X007245Y009759D01*
X007252Y009766D01*
X007259Y009759D01*
X007501Y009759D01*
X007508Y009766D01*
X007515Y009759D01*
X007757Y009759D01*
X007764Y009766D01*
X007771Y009759D01*
X008013Y009759D01*
X008020Y009766D01*
X008027Y009759D01*
X008269Y009759D01*
X008276Y009766D01*
X008283Y009759D01*
X008525Y009759D01*
X008532Y009766D01*
X008538Y009759D01*
X008781Y009759D01*
X008788Y009766D01*
X008794Y009759D01*
X009037Y009759D01*
X009112Y009835D01*
X009112Y009725D01*
X004090Y009725D01*
X004002Y009637D01*
X004002Y007465D01*
X004090Y007378D01*
X009112Y007378D01*
X009112Y007267D01*
X009037Y007343D01*
X008794Y007343D01*
X008788Y007336D01*
X008781Y007343D01*
X008538Y007343D01*
X008532Y007336D01*
X008525Y007343D01*
X008283Y007343D01*
X008276Y007336D01*
X008269Y007343D01*
X008027Y007343D01*
X008020Y007336D01*
X008013Y007343D01*
X007771Y007343D01*
X007764Y007336D01*
X007757Y007343D01*
X007515Y007343D01*
X007508Y007336D01*
X007501Y007343D01*
X007259Y007343D01*
X007252Y007336D01*
X007245Y007343D01*
X007003Y007343D01*
X006996Y007336D01*
X006990Y007343D01*
X006747Y007343D01*
X006740Y007336D01*
X006734Y007343D01*
X006491Y007343D01*
X006484Y007336D01*
X006478Y007343D01*
X006235Y007343D01*
X006229Y007336D01*
X006222Y007343D01*
X005979Y007343D01*
X005973Y007336D01*
X005966Y007343D01*
X005724Y007343D01*
X005717Y007336D01*
X005710Y007343D01*
X005468Y007343D01*
X005461Y007336D01*
X005454Y007343D01*
X005212Y007343D01*
X005205Y007336D01*
X005198Y007343D01*
X004956Y007343D01*
X004949Y007336D01*
X004942Y007343D01*
X004700Y007343D01*
X004693Y007336D01*
X004686Y007343D01*
X004444Y007343D01*
X004437Y007336D01*
X004430Y007343D01*
X004188Y007343D01*
X004100Y007255D01*
X004100Y007051D01*
X004095Y007051D01*
X002112Y009034D01*
X002112Y011468D01*
X003430Y010151D01*
X003595Y010151D01*
X004100Y010151D01*
X004100Y009847D01*
X004188Y009759D01*
X004430Y009759D01*
X004437Y009766D01*
X004444Y009759D01*
X004686Y009759D01*
X004693Y009766D01*
X004700Y009759D01*
X004942Y009759D01*
X004949Y009766D01*
X004956Y009759D01*
X005198Y009759D01*
X005205Y009766D01*
X005212Y009759D01*
X005454Y009759D01*
X005467Y009772D01*
X005472Y009770D01*
X005510Y009759D01*
X005589Y009759D01*
X005589Y010106D01*
X005589Y010106D01*
X005589Y010106D01*
X005636Y010106D01*
X005636Y010106D01*
X005612Y010106D02*
X005589Y010106D01*
X005589Y011751D01*
X005612Y011751D01*
X005589Y011751D02*
X005364Y011751D01*
X005414Y011779D02*
X005645Y011779D01*
X005645Y011801D02*
X005645Y011701D01*
X005414Y011701D01*
X005414Y011801D01*
X005645Y011801D01*
X005414Y011801D02*
X005414Y012255D01*
X005645Y012255D01*
X005645Y012834D01*
X005657Y012846D01*
X005422Y012846D01*
X005422Y013301D01*
X005322Y013301D01*
X004907Y013301D01*
X004907Y012976D01*
X004918Y012938D01*
X004937Y012904D01*
X004965Y012876D01*
X004999Y012856D01*
X005038Y012846D01*
X005322Y012846D01*
X005322Y013301D01*
X005322Y013401D01*
X004907Y013401D01*
X004907Y013726D01*
X004918Y013764D01*
X004937Y013798D01*
X004965Y013826D01*
X004999Y013846D01*
X005038Y013856D01*
X005322Y013856D01*
X005322Y013401D01*
X005422Y013401D01*
X005422Y013856D01*
X005707Y013856D01*
X005745Y013846D01*
X005779Y013826D01*
X005807Y013798D01*
X005827Y013764D01*
X005837Y013726D01*
X005837Y013401D01*
X005422Y013401D01*
X005422Y013301D01*
X005837Y013301D01*
X005837Y012976D01*
X005830Y012951D01*
X005928Y012951D01*
X009312Y012951D01*
X009312Y013734D01*
X009430Y013851D01*
X009595Y013851D01*
X009912Y013851D01*
X009912Y015551D01*
X004095Y015551D01*
X002920Y014376D01*
X003062Y014376D01*
X003062Y013961D01*
X003162Y013961D01*
X003162Y014376D01*
X003487Y014376D01*
X003525Y014366D01*
X003559Y014346D01*
X003587Y014318D01*
X003607Y014284D01*
X003617Y014246D01*
X003617Y013961D01*
X003163Y013961D01*
X003163Y013861D01*
X003617Y013861D01*
X003617Y013576D01*
X003607Y013538D01*
X003587Y013504D01*
X003559Y013476D01*
X003525Y013456D01*
X003487Y013446D01*
X003162Y013446D01*
X003162Y013861D01*
X003062Y013861D01*
X003062Y013446D01*
X002738Y013446D01*
X002712Y013453D01*
X002712Y013256D01*
X003529Y013256D01*
X003617Y013168D01*
X003617Y012414D01*
X003529Y012326D01*
X002712Y012326D01*
X002712Y012034D01*
X003795Y010951D01*
X004330Y010951D01*
X004230Y011051D01*
X004112Y011168D01*
X004112Y011247D01*
X003884Y011247D01*
X003796Y011335D01*
X003796Y011451D01*
X003672Y011451D01*
X003580Y011413D01*
X003445Y011413D01*
X003321Y011465D01*
X003226Y011560D01*
X003174Y011684D01*
X003174Y011818D01*
X003226Y011943D01*
X003321Y012038D01*
X003445Y012089D01*
X003580Y012089D01*
X003672Y012051D01*
X003796Y012051D01*
X003796Y012168D01*
X003884Y012255D01*
X004425Y012255D01*
X004212Y012468D01*
X004212Y012634D01*
X004212Y012846D01*
X003875Y012846D01*
X003788Y012934D01*
X003788Y013768D01*
X003875Y013856D01*
X004630Y013856D01*
X004718Y013768D01*
X004718Y012934D01*
X004630Y012846D01*
X004612Y012846D01*
X004612Y012634D01*
X004895Y012351D01*
X004999Y012247D01*
X005029Y012255D01*
X005314Y012255D01*
X005314Y011801D01*
X005414Y011801D01*
X005414Y011878D02*
X005314Y011878D01*
X005314Y011976D02*
X005414Y011976D01*
X005414Y012075D02*
X005314Y012075D01*
X005314Y012173D02*
X005414Y012173D01*
X005645Y012272D02*
X004974Y012272D01*
X004876Y012371D02*
X005645Y012371D01*
X005645Y012469D02*
X004777Y012469D01*
X004679Y012568D02*
X005645Y012568D01*
X005645Y012666D02*
X004612Y012666D01*
X004612Y012765D02*
X005645Y012765D01*
X005422Y012863D02*
X005322Y012863D01*
X005322Y012962D02*
X005422Y012962D01*
X005422Y013060D02*
X005322Y013060D01*
X005322Y013159D02*
X005422Y013159D01*
X005422Y013257D02*
X005322Y013257D01*
X005322Y013356D02*
X004718Y013356D01*
X004718Y013455D02*
X004907Y013455D01*
X004907Y013553D02*
X004718Y013553D01*
X004718Y013652D02*
X004907Y013652D01*
X004914Y013750D02*
X004718Y013750D01*
X004637Y013849D02*
X005010Y013849D01*
X005322Y013849D02*
X005422Y013849D01*
X005422Y013750D02*
X005322Y013750D01*
X005322Y013652D02*
X005422Y013652D01*
X005422Y013553D02*
X005322Y013553D01*
X005322Y013455D02*
X005422Y013455D01*
X005422Y013356D02*
X009312Y013356D01*
X009312Y013455D02*
X007593Y013455D01*
X007462Y013400D02*
X007738Y013514D01*
X007949Y013726D01*
X008064Y014002D01*
X008064Y014301D01*
X007949Y014577D01*
X007738Y014788D01*
X007462Y014902D01*
X007163Y014902D01*
X006887Y014788D01*
X006676Y014577D01*
X006561Y014301D01*
X006561Y014002D01*
X006676Y013726D01*
X006887Y013514D01*
X007163Y013400D01*
X007462Y013400D01*
X007777Y013553D02*
X009312Y013553D01*
X009312Y013652D02*
X007875Y013652D01*
X007959Y013750D02*
X009329Y013750D01*
X009427Y013849D02*
X008000Y013849D01*
X008041Y013947D02*
X009912Y013947D01*
X009912Y014046D02*
X008064Y014046D01*
X008064Y014144D02*
X009912Y014144D01*
X009912Y014243D02*
X008064Y014243D01*
X008047Y014341D02*
X009912Y014341D01*
X009912Y014440D02*
X008006Y014440D01*
X007965Y014539D02*
X009912Y014539D01*
X009912Y014637D02*
X007889Y014637D01*
X007790Y014736D02*
X009912Y014736D01*
X009912Y014834D02*
X007626Y014834D01*
X006998Y014834D02*
X003378Y014834D01*
X003280Y014736D02*
X006835Y014736D01*
X006736Y014637D02*
X003181Y014637D01*
X003083Y014539D02*
X006660Y014539D01*
X006619Y014440D02*
X002984Y014440D01*
X003062Y014341D02*
X003162Y014341D01*
X003162Y014243D02*
X003062Y014243D01*
X003062Y014144D02*
X003162Y014144D01*
X003162Y014046D02*
X003062Y014046D01*
X003112Y014051D02*
X003112Y013911D01*
X003163Y013947D02*
X006584Y013947D01*
X006561Y014046D02*
X003617Y014046D01*
X003617Y014144D02*
X006561Y014144D01*
X006561Y014243D02*
X003617Y014243D01*
X003564Y014341D02*
X006578Y014341D01*
X006625Y013849D02*
X005734Y013849D01*
X005831Y013750D02*
X006665Y013750D01*
X006750Y013652D02*
X005837Y013652D01*
X005837Y013553D02*
X006848Y013553D01*
X007031Y013455D02*
X005837Y013455D01*
X005837Y013257D02*
X009312Y013257D01*
X009312Y013159D02*
X005837Y013159D01*
X005837Y013060D02*
X009312Y013060D01*
X009312Y012962D02*
X005833Y012962D01*
X006101Y012551D02*
X006101Y010106D01*
X006357Y010106D02*
X006357Y012351D01*
X009912Y012351D01*
X009912Y013226D01*
X011199Y013226D01*
X011199Y012734D02*
X010112Y012734D01*
X010112Y012151D01*
X006612Y012151D01*
X006612Y010106D01*
X006868Y010106D02*
X006868Y011951D01*
X010312Y011951D01*
X010312Y012242D01*
X011199Y012242D01*
X011199Y011751D02*
X011199Y011750D01*
X011199Y011751D02*
X007212Y011751D01*
X007212Y011750D01*
X007124Y011750D01*
X007124Y010106D01*
X007380Y010106D02*
X007380Y011551D01*
X010312Y011551D01*
X010312Y011258D01*
X011199Y011258D01*
X011199Y010766D02*
X010112Y010766D01*
X010112Y011351D01*
X007636Y011351D01*
X007636Y010106D01*
X007892Y010106D02*
X007892Y011151D01*
X009912Y011151D01*
X009912Y010274D01*
X011199Y010274D01*
X011199Y009781D02*
X009712Y009781D01*
X009712Y010951D01*
X008148Y010951D01*
X008148Y010106D01*
X008404Y010106D02*
X008404Y010751D01*
X009512Y010751D01*
X009512Y009289D01*
X011199Y009289D01*
X011199Y008797D02*
X009312Y008797D01*
X009312Y010551D01*
X008660Y010551D01*
X008660Y010106D01*
X009086Y009808D02*
X009112Y009808D01*
X009512Y009089D02*
X009595Y009089D01*
X010636Y009089D01*
X010636Y009070D01*
X010662Y009043D01*
X010636Y009017D01*
X010636Y008997D01*
X009512Y008997D01*
X009512Y009089D01*
X009512Y009020D02*
X010639Y009020D01*
X010636Y008597D02*
X010636Y008578D01*
X010662Y008551D01*
X010636Y008525D01*
X010636Y008505D01*
X009395Y008505D01*
X009230Y008505D01*
X009223Y008499D01*
X009223Y008604D01*
X009230Y008597D01*
X009395Y008597D01*
X010636Y008597D01*
X010638Y008527D02*
X009223Y008527D01*
X009312Y008305D02*
X009312Y006551D01*
X008660Y006551D01*
X008660Y006996D01*
X008404Y006996D02*
X008404Y006351D01*
X009512Y006351D01*
X009512Y007813D01*
X011199Y007813D01*
X011199Y007321D02*
X009712Y007321D01*
X009712Y006151D01*
X008148Y006151D01*
X008148Y006996D01*
X007892Y006996D02*
X007892Y005951D01*
X009912Y005951D01*
X009912Y006829D01*
X011199Y006829D01*
X011199Y006337D02*
X010112Y006337D01*
X010112Y005751D01*
X007636Y005751D01*
X007636Y006996D01*
X007380Y006996D02*
X007380Y005551D01*
X010312Y005551D01*
X010312Y005844D01*
X011199Y005844D01*
X011199Y005352D02*
X011199Y005351D01*
X007212Y005351D01*
X007212Y005352D01*
X007124Y005352D01*
X007124Y006996D01*
X006868Y006996D02*
X006868Y005151D01*
X010312Y005151D01*
X010312Y004860D01*
X011199Y004860D01*
X011199Y004368D02*
X010112Y004368D01*
X010112Y004951D01*
X006612Y004951D01*
X006612Y006996D01*
X006357Y006996D02*
X006357Y004751D01*
X009912Y004751D01*
X009912Y003876D01*
X011199Y003876D01*
X010662Y004122D02*
X010636Y004096D01*
X010636Y004076D01*
X010112Y004076D01*
X010112Y004168D01*
X010195Y004168D01*
X010636Y004168D01*
X010636Y004148D01*
X010662Y004122D01*
X010636Y004093D02*
X010112Y004093D01*
X010312Y004568D02*
X010312Y004660D01*
X010395Y004660D01*
X010636Y004660D01*
X010636Y004641D01*
X010662Y004614D01*
X010636Y004588D01*
X010636Y004568D01*
X010312Y004568D01*
X010312Y004586D02*
X010636Y004586D01*
X010636Y005060D02*
X010512Y005060D01*
X010512Y005068D01*
X010512Y005151D01*
X010636Y005151D01*
X010636Y005133D01*
X010662Y005106D01*
X010636Y005080D01*
X010636Y005060D01*
X010636Y005078D02*
X010512Y005078D01*
X010512Y005551D02*
X010512Y005634D01*
X010512Y005644D01*
X010636Y005644D01*
X010636Y005625D01*
X010662Y005598D01*
X010636Y005572D01*
X010636Y005551D01*
X010512Y005551D01*
X010512Y005571D02*
X010636Y005571D01*
X010636Y006044D02*
X010395Y006044D01*
X010312Y006044D01*
X010312Y006137D01*
X010636Y006137D01*
X010636Y006117D01*
X010662Y006091D01*
X010636Y006064D01*
X010636Y006044D01*
X010636Y006064D02*
X010312Y006064D01*
X010195Y006537D02*
X010112Y006537D01*
X010112Y006629D01*
X010636Y006629D01*
X010636Y006609D01*
X010662Y006583D01*
X010636Y006556D01*
X010636Y006537D01*
X010195Y006537D01*
X010112Y006556D02*
X010636Y006556D01*
X010636Y007029D02*
X009995Y007029D01*
X009912Y007029D01*
X009912Y007121D01*
X010636Y007121D01*
X010636Y007101D01*
X010662Y007075D01*
X010636Y007048D01*
X010636Y007029D01*
X010637Y007049D02*
X009912Y007049D01*
X009795Y007521D02*
X009712Y007521D01*
X009712Y007613D01*
X010636Y007613D01*
X010636Y007593D01*
X010662Y007567D01*
X010636Y007540D01*
X010636Y007521D01*
X009795Y007521D01*
X009712Y007542D02*
X010637Y007542D01*
X010636Y008013D02*
X009595Y008013D01*
X009512Y008013D01*
X009512Y008105D01*
X010636Y008105D01*
X010636Y008085D01*
X010662Y008059D01*
X010636Y008033D01*
X010636Y008013D01*
X010638Y008035D02*
X009512Y008035D01*
X009312Y008305D02*
X011199Y008305D01*
X010636Y009489D02*
X009712Y009489D01*
X009712Y009581D01*
X009795Y009581D01*
X010636Y009581D01*
X010636Y009562D01*
X010662Y009535D01*
X010636Y009509D01*
X010636Y009489D01*
X010639Y009513D02*
X009712Y009513D01*
X009912Y009981D02*
X009912Y010074D01*
X009995Y010074D01*
X010636Y010074D01*
X010636Y010054D01*
X010662Y010028D01*
X010636Y010001D01*
X010636Y009981D01*
X009912Y009981D01*
X009912Y010006D02*
X010640Y010006D01*
X010636Y010474D02*
X010112Y010474D01*
X010112Y010566D01*
X010195Y010566D01*
X010636Y010566D01*
X010636Y010546D01*
X010662Y010520D01*
X010636Y010493D01*
X010636Y010474D01*
X010641Y010498D02*
X010112Y010498D01*
X010312Y010966D02*
X010312Y011058D01*
X010395Y011058D01*
X010636Y011058D01*
X010636Y011038D01*
X010662Y011012D01*
X010636Y010985D01*
X010636Y010966D01*
X010312Y010966D01*
X010312Y010991D02*
X010641Y010991D01*
X010636Y011458D02*
X010512Y011458D01*
X010512Y011551D01*
X010636Y011551D01*
X010636Y011530D01*
X010662Y011504D01*
X010636Y011477D01*
X010636Y011458D01*
X010642Y011484D02*
X010512Y011484D01*
X010512Y011951D02*
X010512Y012034D01*
X010512Y012042D01*
X010636Y012042D01*
X010636Y012022D01*
X010662Y011996D01*
X010636Y011970D01*
X010636Y011951D01*
X010512Y011951D01*
X010512Y011976D02*
X010642Y011976D01*
X010636Y012442D02*
X010395Y012442D01*
X010312Y012442D01*
X010312Y012534D01*
X010636Y012534D01*
X010636Y012515D01*
X010662Y012488D01*
X010636Y012462D01*
X010636Y012442D01*
X010643Y012469D02*
X010312Y012469D01*
X010195Y012934D02*
X010112Y012934D01*
X010112Y013026D01*
X010636Y013026D01*
X010636Y013007D01*
X010662Y012980D01*
X010636Y012954D01*
X010636Y012934D01*
X010195Y012934D01*
X010112Y012962D02*
X010644Y012962D01*
X010312Y013451D02*
X009712Y013451D01*
X009712Y012551D01*
X006101Y012551D01*
X005372Y013351D02*
X005112Y013351D01*
X004907Y013257D02*
X004718Y013257D01*
X004718Y013159D02*
X004907Y013159D01*
X004907Y013060D02*
X004718Y013060D01*
X004718Y012962D02*
X004911Y012962D01*
X004988Y012863D02*
X004647Y012863D01*
X004412Y012551D02*
X004812Y012151D01*
X004812Y011151D01*
X005333Y011151D01*
X005333Y010106D01*
X005589Y010104D02*
X005589Y010104D01*
X005589Y010107D02*
X005589Y010453D01*
X005645Y010453D01*
X005645Y011247D01*
X005520Y011247D01*
X005533Y011234D01*
X005533Y010453D01*
X005589Y010453D01*
X005589Y010107D01*
X005589Y010107D01*
X005589Y010203D02*
X005589Y010203D01*
X005589Y010301D02*
X005589Y010301D01*
X005589Y010400D02*
X005589Y010400D01*
X005533Y010498D02*
X005645Y010498D01*
X005645Y010597D02*
X005533Y010597D01*
X005533Y010695D02*
X005645Y010695D01*
X005645Y010794D02*
X005533Y010794D01*
X005533Y010892D02*
X005645Y010892D01*
X005645Y010991D02*
X005533Y010991D01*
X005533Y011089D02*
X005645Y011089D01*
X005645Y011188D02*
X005533Y011188D01*
X005077Y010951D02*
X004612Y010951D01*
X004312Y011251D01*
X004312Y011700D01*
X004261Y011751D01*
X004112Y011751D01*
X003796Y012075D02*
X003614Y012075D01*
X003411Y012075D02*
X002712Y012075D01*
X002712Y012173D02*
X003802Y012173D01*
X003574Y012371D02*
X004310Y012371D01*
X004212Y012469D02*
X003617Y012469D01*
X003617Y012568D02*
X004212Y012568D01*
X004212Y012666D02*
X003617Y012666D01*
X003617Y012765D02*
X004212Y012765D01*
X004412Y012551D02*
X004412Y013351D01*
X004253Y013351D01*
X003868Y013849D02*
X003617Y013849D01*
X003617Y013750D02*
X003788Y013750D01*
X003788Y013652D02*
X003617Y013652D01*
X003611Y013553D02*
X003788Y013553D01*
X003788Y013455D02*
X003519Y013455D01*
X003788Y013356D02*
X002712Y013356D01*
X002712Y013257D02*
X003788Y013257D01*
X003788Y013159D02*
X003617Y013159D01*
X003617Y013060D02*
X003788Y013060D01*
X003788Y012962D02*
X003617Y012962D01*
X003617Y012863D02*
X003858Y012863D01*
X004409Y012272D02*
X002712Y012272D01*
X002512Y011951D02*
X002512Y012751D01*
X002553Y012791D01*
X003112Y012791D01*
X002512Y012751D02*
X002512Y014251D01*
X004012Y015751D01*
X015912Y015751D01*
X015912Y017451D01*
X015462Y017495D02*
X015362Y017495D01*
X015362Y017593D02*
X015462Y017593D01*
X015462Y017692D02*
X015362Y017692D01*
X015362Y017790D02*
X015462Y017790D01*
X015462Y017841D02*
X015462Y017062D01*
X015531Y016896D01*
X015658Y016770D01*
X015712Y016747D01*
X015712Y015951D01*
X015112Y015951D01*
X015112Y016034D01*
X015112Y016747D01*
X015167Y016770D01*
X015294Y016896D01*
X015362Y017062D01*
X015362Y017841D01*
X015294Y018006D01*
X015167Y018133D01*
X015122Y018151D01*
X015702Y018151D01*
X015658Y018133D01*
X015531Y018006D01*
X015462Y017841D01*
X015482Y017889D02*
X015342Y017889D01*
X015302Y017988D02*
X015523Y017988D01*
X015611Y018086D02*
X015214Y018086D01*
X015294Y018579D02*
X021262Y018579D01*
X021262Y018677D02*
X015392Y018677D01*
X014612Y018351D02*
X013912Y017651D01*
X013912Y017451D01*
X013912Y016151D01*
X003812Y016151D01*
X002112Y014451D01*
X002112Y011751D01*
X003512Y010351D01*
X004312Y010351D01*
X004309Y010248D01*
X004309Y010106D01*
X004100Y010104D02*
X002112Y010104D01*
X002112Y010006D02*
X004100Y010006D01*
X004100Y009907D02*
X002112Y009907D01*
X002112Y009808D02*
X004139Y009808D01*
X004075Y009710D02*
X002112Y009710D01*
X002112Y009611D02*
X004002Y009611D01*
X004002Y009513D02*
X002112Y009513D01*
X002112Y009414D02*
X004002Y009414D01*
X004002Y009316D02*
X002112Y009316D01*
X002112Y009217D02*
X004002Y009217D01*
X004002Y009119D02*
X002112Y009119D01*
X002126Y009020D02*
X004002Y009020D01*
X004002Y008922D02*
X002225Y008922D01*
X002323Y008823D02*
X004002Y008823D01*
X004002Y008724D02*
X002422Y008724D01*
X002521Y008626D02*
X004002Y008626D01*
X004002Y008527D02*
X002619Y008527D01*
X002718Y008429D02*
X004002Y008429D01*
X004002Y008330D02*
X002816Y008330D01*
X002915Y008232D02*
X004002Y008232D01*
X004002Y008133D02*
X003013Y008133D01*
X003112Y008035D02*
X004002Y008035D01*
X004002Y007936D02*
X003210Y007936D01*
X003309Y007838D02*
X004002Y007838D01*
X004002Y007739D02*
X003407Y007739D01*
X003506Y007640D02*
X004002Y007640D01*
X004002Y007542D02*
X003604Y007542D01*
X003703Y007443D02*
X004024Y007443D01*
X004100Y007246D02*
X003900Y007246D01*
X003999Y007148D02*
X004100Y007148D01*
X004309Y006996D02*
X004309Y006851D01*
X004012Y006851D01*
X001912Y008951D01*
X001912Y014551D01*
X003712Y016351D01*
X009912Y016351D01*
X009912Y017451D01*
X009462Y017495D02*
X009362Y017495D01*
X009362Y017593D02*
X009462Y017593D01*
X009462Y017692D02*
X009362Y017692D01*
X009362Y017790D02*
X009462Y017790D01*
X009462Y017841D02*
X009462Y017062D01*
X009531Y016896D01*
X009658Y016770D01*
X009712Y016747D01*
X009712Y016551D01*
X009112Y016551D01*
X009112Y016634D01*
X009112Y016747D01*
X009167Y016770D01*
X009294Y016896D01*
X009362Y017062D01*
X009362Y017841D01*
X009294Y018006D01*
X009249Y018051D01*
X009576Y018051D01*
X009531Y018006D01*
X009462Y017841D01*
X009482Y017889D02*
X009342Y017889D01*
X009302Y017988D02*
X009523Y017988D01*
X009462Y017396D02*
X009362Y017396D01*
X009362Y017298D02*
X009462Y017298D01*
X009462Y017199D02*
X009362Y017199D01*
X009362Y017101D02*
X009462Y017101D01*
X009487Y017002D02*
X009338Y017002D01*
X009297Y016904D02*
X009528Y016904D01*
X009622Y016805D02*
X009203Y016805D01*
X009112Y016706D02*
X009712Y016706D01*
X009712Y016608D02*
X009112Y016608D01*
X008912Y016551D02*
X003612Y016551D01*
X001712Y014651D01*
X001712Y008851D01*
X004012Y006551D01*
X004565Y006551D01*
X004565Y006996D01*
X004821Y006996D02*
X004821Y006351D01*
X003912Y006351D01*
X001512Y008751D01*
X001512Y014751D01*
X003512Y016751D01*
X007912Y016751D01*
X007912Y017451D01*
X008362Y017495D02*
X008462Y017495D01*
X008462Y017593D02*
X008362Y017593D01*
X008362Y017692D02*
X008462Y017692D01*
X008462Y017790D02*
X008362Y017790D01*
X008362Y017841D02*
X008294Y018006D01*
X008249Y018051D01*
X008576Y018051D01*
X008531Y018006D01*
X008462Y017841D01*
X008462Y017062D01*
X008531Y016896D01*
X008658Y016770D01*
X008702Y016751D01*
X008123Y016751D01*
X008167Y016770D01*
X008294Y016896D01*
X008362Y017062D01*
X008362Y017841D01*
X008342Y017889D02*
X008482Y017889D01*
X008523Y017988D02*
X008302Y017988D01*
X008362Y017396D02*
X008462Y017396D01*
X008462Y017298D02*
X008362Y017298D01*
X008362Y017199D02*
X008462Y017199D01*
X008462Y017101D02*
X008362Y017101D01*
X008338Y017002D02*
X008487Y017002D01*
X008528Y016904D02*
X008297Y016904D01*
X008203Y016805D02*
X008622Y016805D01*
X008912Y016551D02*
X008912Y017451D01*
X007712Y018251D02*
X007312Y017851D01*
X007312Y016951D01*
X003412Y016951D01*
X001312Y014851D01*
X001312Y008651D01*
X003812Y006151D01*
X005333Y006151D01*
X005333Y006996D01*
X005589Y006996D01*
X005333Y006996D02*
X005077Y006996D01*
X005021Y006649D02*
X005133Y006649D01*
X005133Y006351D01*
X005021Y006351D01*
X005021Y006649D01*
X005021Y006556D02*
X005133Y006556D01*
X005133Y006458D02*
X005021Y006458D01*
X005021Y006359D02*
X005133Y006359D01*
X005533Y006359D02*
X005645Y006359D01*
X005645Y006261D02*
X005533Y006261D01*
X005533Y006234D02*
X005533Y006649D01*
X005645Y006649D01*
X005645Y004268D01*
X005762Y004151D01*
X005928Y004151D01*
X009312Y004151D01*
X009312Y003368D01*
X009430Y003251D01*
X009595Y003251D01*
X009912Y003251D01*
X009912Y001468D01*
X009930Y001451D01*
X007448Y001451D01*
X007453Y001463D01*
X007453Y001640D01*
X007385Y001803D01*
X007260Y001929D01*
X007096Y001996D01*
X006329Y001996D01*
X006165Y001929D01*
X006040Y001803D01*
X005972Y001640D01*
X005972Y001463D01*
X006040Y001299D01*
X006073Y001265D01*
X005909Y001101D01*
X001616Y001101D01*
X001421Y001296D01*
X003438Y001296D01*
X003525Y001384D01*
X003525Y001550D01*
X004008Y001550D01*
X004008Y001423D01*
X004096Y001335D01*
X004929Y001335D01*
X005017Y001423D01*
X005017Y002177D01*
X004929Y002265D01*
X004096Y002265D01*
X004008Y002177D01*
X004008Y002050D01*
X003525Y002050D01*
X003525Y003950D01*
X003438Y004037D01*
X002162Y004037D01*
X002162Y005847D01*
X002414Y005847D01*
X002414Y006301D01*
X002514Y006301D01*
X002514Y006401D01*
X002929Y006401D01*
X002929Y006725D01*
X002919Y006762D01*
X003612Y006068D01*
X003730Y005951D01*
X005416Y005951D01*
X005533Y006068D01*
X005533Y006234D01*
X005533Y006162D02*
X005645Y006162D01*
X005645Y006064D02*
X005528Y006064D01*
X005430Y005965D02*
X005645Y005965D01*
X005645Y005867D02*
X003557Y005867D01*
X003557Y005876D02*
X003547Y005914D01*
X003527Y005948D01*
X003499Y005976D01*
X003465Y005996D01*
X003427Y006006D01*
X003259Y006006D01*
X003259Y005590D01*
X003162Y005590D01*
X003162Y006006D01*
X002993Y006006D01*
X002955Y005996D01*
X002929Y005980D01*
X002929Y006301D01*
X002514Y006301D01*
X002514Y005847D01*
X002798Y005847D01*
X002836Y005857D01*
X002863Y005873D01*
X002863Y005589D01*
X003161Y005589D01*
X003161Y005492D01*
X002863Y005492D01*
X002863Y005206D01*
X002873Y005168D01*
X002893Y005134D01*
X002921Y005106D01*
X002955Y005086D01*
X002993Y005076D01*
X003162Y005076D01*
X003162Y005492D01*
X003259Y005492D01*
X003259Y005589D01*
X003557Y005589D01*
X003557Y005876D01*
X003510Y005965D02*
X003716Y005965D01*
X003617Y006064D02*
X002929Y006064D01*
X002929Y006162D02*
X003518Y006162D01*
X003420Y006261D02*
X002929Y006261D01*
X002929Y006458D02*
X003223Y006458D01*
X003321Y006359D02*
X002514Y006359D01*
X002514Y006401D02*
X002414Y006401D01*
X002414Y006855D01*
X002162Y006855D01*
X002162Y007401D01*
X002162Y007501D01*
X002150Y007531D01*
X002835Y006846D01*
X002798Y006855D01*
X002514Y006855D01*
X002514Y006401D01*
X002514Y006458D02*
X002414Y006458D01*
X002414Y006556D02*
X002514Y006556D01*
X002514Y006655D02*
X002414Y006655D01*
X002414Y006754D02*
X002514Y006754D01*
X002514Y006852D02*
X002414Y006852D01*
X002162Y006951D02*
X002730Y006951D01*
X002811Y006852D02*
X002829Y006852D01*
X002921Y006754D02*
X002927Y006754D01*
X002929Y006655D02*
X003026Y006655D01*
X002929Y006556D02*
X003124Y006556D01*
X003162Y005965D02*
X003259Y005965D01*
X003259Y005867D02*
X003162Y005867D01*
X003162Y005768D02*
X003259Y005768D01*
X003259Y005670D02*
X003162Y005670D01*
X003161Y005571D02*
X002162Y005571D01*
X002162Y005473D02*
X002863Y005473D01*
X002863Y005374D02*
X002162Y005374D01*
X002162Y005275D02*
X002863Y005275D01*
X002871Y005177D02*
X002162Y005177D01*
X002162Y005078D02*
X002985Y005078D01*
X003162Y005078D02*
X003259Y005078D01*
X003259Y005076D02*
X003427Y005076D01*
X003465Y005086D01*
X003499Y005106D01*
X003527Y005134D01*
X003547Y005168D01*
X003557Y005206D01*
X003557Y005492D01*
X003259Y005492D01*
X003259Y005076D01*
X003259Y005177D02*
X003162Y005177D01*
X003162Y005275D02*
X003259Y005275D01*
X003259Y005374D02*
X003162Y005374D01*
X003162Y005473D02*
X003259Y005473D01*
X003259Y005571D02*
X005645Y005571D01*
X005645Y005473D02*
X003557Y005473D01*
X003557Y005374D02*
X005645Y005374D01*
X005645Y005275D02*
X003557Y005275D01*
X003549Y005177D02*
X005645Y005177D01*
X005645Y005078D02*
X003435Y005078D01*
X003557Y005670D02*
X005645Y005670D01*
X005645Y005768D02*
X003557Y005768D01*
X002863Y005768D02*
X002162Y005768D01*
X002162Y005670D02*
X002863Y005670D01*
X002853Y005867D02*
X002863Y005867D01*
X002514Y005867D02*
X002414Y005867D01*
X002414Y005965D02*
X002514Y005965D01*
X002514Y006064D02*
X002414Y006064D01*
X002414Y006162D02*
X002514Y006162D01*
X002514Y006261D02*
X002414Y006261D01*
X002632Y007049D02*
X002162Y007049D01*
X002162Y007148D02*
X002533Y007148D01*
X002434Y007246D02*
X002162Y007246D01*
X002162Y007345D02*
X002336Y007345D01*
X002237Y007443D02*
X002162Y007443D01*
X003802Y007345D02*
X009112Y007345D01*
X009312Y004093D02*
X002162Y004093D01*
X002162Y004191D02*
X005722Y004191D01*
X005645Y004290D02*
X002162Y004290D01*
X002162Y004389D02*
X005645Y004389D01*
X005645Y004487D02*
X002162Y004487D01*
X002162Y004586D02*
X005645Y004586D01*
X005645Y004684D02*
X002162Y004684D01*
X002162Y004783D02*
X005645Y004783D01*
X005645Y004881D02*
X002162Y004881D01*
X002162Y004980D02*
X005645Y004980D01*
X005645Y006458D02*
X005533Y006458D01*
X005533Y006556D02*
X005645Y006556D01*
X003481Y003994D02*
X009312Y003994D01*
X009312Y003896D02*
X003525Y003896D01*
X003525Y003797D02*
X009312Y003797D01*
X009312Y003699D02*
X003525Y003699D01*
X003525Y003600D02*
X009312Y003600D01*
X009312Y003502D02*
X003525Y003502D01*
X003525Y003403D02*
X009312Y003403D01*
X009376Y003305D02*
X004990Y003305D01*
X004987Y003309D02*
X004959Y003337D01*
X004925Y003357D01*
X004886Y003367D01*
X004562Y003367D01*
X004562Y002952D01*
X004462Y002952D01*
X004462Y002852D01*
X004008Y002852D01*
X004008Y002568D01*
X004018Y002529D01*
X004038Y002495D01*
X004066Y002467D01*
X004100Y002448D01*
X004138Y002437D01*
X004462Y002437D01*
X004462Y002852D01*
X004562Y002852D01*
X004562Y002437D01*
X004886Y002437D01*
X004925Y002448D01*
X004959Y002467D01*
X004987Y002495D01*
X005006Y002529D01*
X005017Y002568D01*
X005017Y002852D01*
X004563Y002852D01*
X004563Y002952D01*
X005017Y002952D01*
X005017Y003237D01*
X005006Y003275D01*
X004987Y003309D01*
X005017Y003206D02*
X009912Y003206D01*
X009912Y003107D02*
X005017Y003107D01*
X005017Y003009D02*
X009912Y003009D01*
X009912Y002910D02*
X007271Y002910D01*
X007298Y002891D02*
X007241Y002932D01*
X007179Y002964D01*
X007112Y002985D01*
X007043Y002996D01*
X006761Y002996D01*
X006761Y002600D01*
X006664Y002600D01*
X006664Y002996D01*
X006382Y002996D01*
X006313Y002985D01*
X006246Y002964D01*
X006184Y002932D01*
X006127Y002891D01*
X006078Y002841D01*
X006036Y002785D01*
X006005Y002722D01*
X005983Y002655D01*
X005974Y002600D01*
X006664Y002600D01*
X006664Y002503D01*
X005974Y002503D01*
X005983Y002447D01*
X006005Y002380D01*
X006036Y002318D01*
X006078Y002261D01*
X006127Y002212D01*
X006184Y002170D01*
X006246Y002139D01*
X006313Y002117D01*
X006382Y002106D01*
X006664Y002106D01*
X006664Y002502D01*
X006761Y002502D01*
X006761Y002106D01*
X007043Y002106D01*
X007112Y002117D01*
X007179Y002139D01*
X007241Y002170D01*
X007298Y002212D01*
X007347Y002261D01*
X007389Y002318D01*
X007420Y002380D01*
X007442Y002447D01*
X007451Y002503D01*
X006761Y002503D01*
X006761Y002600D01*
X007451Y002600D01*
X007442Y002655D01*
X007420Y002722D01*
X007389Y002785D01*
X007347Y002841D01*
X007298Y002891D01*
X007369Y002812D02*
X009912Y002812D01*
X009912Y002713D02*
X007423Y002713D01*
X007448Y002615D02*
X009912Y002615D01*
X009912Y002516D02*
X006761Y002516D01*
X006664Y002516D02*
X004999Y002516D01*
X005017Y002615D02*
X005976Y002615D01*
X006002Y002713D02*
X005017Y002713D01*
X005017Y002812D02*
X006056Y002812D01*
X006154Y002910D02*
X004563Y002910D01*
X004562Y002812D02*
X004462Y002812D01*
X004462Y002910D02*
X003525Y002910D01*
X003525Y002812D02*
X004008Y002812D01*
X004008Y002713D02*
X003525Y002713D01*
X003525Y002615D02*
X004008Y002615D01*
X004026Y002516D02*
X003525Y002516D01*
X003525Y002418D02*
X005992Y002418D01*
X006036Y002319D02*
X003525Y002319D01*
X003525Y002221D02*
X004052Y002221D01*
X004008Y002122D02*
X003525Y002122D01*
X003525Y001531D02*
X004008Y001531D01*
X004008Y001432D02*
X003525Y001432D01*
X003475Y001334D02*
X006025Y001334D01*
X006043Y001235D02*
X001482Y001235D01*
X001580Y001137D02*
X005944Y001137D01*
X005984Y001432D02*
X005017Y001432D01*
X005017Y001531D02*
X005972Y001531D01*
X005972Y001629D02*
X005017Y001629D01*
X005017Y001728D02*
X006008Y001728D01*
X006063Y001826D02*
X005017Y001826D01*
X005017Y001925D02*
X006161Y001925D01*
X006297Y002122D02*
X005017Y002122D01*
X005017Y002024D02*
X009912Y002024D01*
X009912Y002122D02*
X007128Y002122D01*
X007307Y002221D02*
X009912Y002221D01*
X009912Y002319D02*
X007389Y002319D01*
X007432Y002418D02*
X009912Y002418D01*
X009912Y001925D02*
X007264Y001925D01*
X007362Y001826D02*
X009912Y001826D01*
X009912Y001728D02*
X007416Y001728D01*
X007453Y001629D02*
X009912Y001629D01*
X009912Y001531D02*
X007453Y001531D01*
X006997Y000940D02*
X006454Y000940D01*
X006553Y001038D02*
X006874Y001038D01*
X006356Y000841D02*
X022112Y000841D01*
X022112Y000742D02*
X006257Y000742D01*
X006159Y000644D02*
X022112Y000644D01*
X022112Y001531D02*
X020754Y001531D01*
X020853Y001629D02*
X022112Y001629D01*
X022112Y001728D02*
X020950Y001728D01*
X020991Y001826D02*
X022112Y001826D01*
X022112Y001925D02*
X021032Y001925D01*
X021064Y002024D02*
X022112Y002024D01*
X022112Y002122D02*
X021064Y002122D01*
X021064Y002221D02*
X022112Y002221D01*
X022112Y002319D02*
X021056Y002319D01*
X021015Y002418D02*
X022112Y002418D01*
X022112Y002516D02*
X020974Y002516D01*
X020911Y002615D02*
X022112Y002615D01*
X022112Y002713D02*
X020813Y002713D01*
X020680Y002812D02*
X022112Y002812D01*
X019812Y004693D02*
X019749Y004756D01*
X019579Y004756D01*
X019581Y004952D01*
X019586Y004947D01*
X019812Y004947D01*
X019812Y004693D01*
X019812Y004783D02*
X019579Y004783D01*
X019580Y004881D02*
X019812Y004881D01*
X019964Y005451D02*
X020112Y005451D01*
X019964Y005451D02*
X019648Y006151D01*
X019648Y006996D01*
X019904Y006996D02*
X019904Y006260D01*
X020112Y006051D01*
X020512Y006051D01*
X020912Y006351D01*
X020912Y006451D01*
X020812Y006851D02*
X020812Y011351D01*
X019412Y012751D01*
X019412Y018051D01*
X019112Y018351D01*
X014612Y018351D01*
X014459Y018480D02*
X007495Y018480D01*
X007560Y018382D02*
X007396Y018382D01*
X007462Y018283D02*
X007298Y018283D01*
X007363Y018185D02*
X007199Y018185D01*
X007264Y018086D02*
X007101Y018086D01*
X007166Y017988D02*
X007002Y017988D01*
X007112Y017889D02*
X005517Y017889D01*
X005494Y017790D02*
X007112Y017790D01*
X007112Y017692D02*
X003249Y017692D01*
X003225Y017593D02*
X007112Y017593D01*
X007112Y017495D02*
X003172Y017495D01*
X003077Y017396D02*
X007112Y017396D01*
X007112Y017298D02*
X001262Y017298D01*
X001262Y017396D02*
X001948Y017396D01*
X001853Y017495D02*
X001262Y017495D01*
X001262Y017593D02*
X001800Y017593D01*
X001776Y017692D02*
X001262Y017692D01*
X001262Y017790D02*
X002464Y017790D01*
X002561Y017790D02*
X004531Y017790D01*
X004508Y017889D02*
X003231Y017889D01*
X003166Y018480D02*
X004508Y018480D01*
X004518Y018579D02*
X003218Y018579D01*
X003253Y018677D02*
X006985Y018677D01*
X006887Y018579D02*
X005507Y018579D01*
X005517Y018480D02*
X006788Y018480D01*
X007084Y018776D02*
X003253Y018776D01*
X003239Y018874D02*
X004568Y018874D01*
X004508Y018973D02*
X003198Y018973D01*
X003117Y019071D02*
X004508Y019071D01*
X004508Y019170D02*
X002960Y019170D01*
X003044Y019367D02*
X004508Y019367D01*
X004508Y019466D02*
X003152Y019466D01*
X002762Y020254D02*
X001262Y020254D01*
X001262Y021338D02*
X002051Y021338D01*
X001902Y021437D02*
X001262Y021437D01*
X001262Y021535D02*
X001825Y021535D01*
X001784Y021634D02*
X001262Y021634D01*
X001262Y021732D02*
X001772Y021732D01*
X001772Y021831D02*
X001262Y021831D01*
X001262Y021929D02*
X001809Y021929D01*
X001864Y022028D02*
X001262Y022028D01*
X001262Y022126D02*
X001963Y022126D01*
X002086Y022323D02*
X001262Y022323D01*
X001262Y022225D02*
X004033Y022225D01*
X004345Y021831D02*
X004508Y021831D01*
X004508Y021732D02*
X004247Y021732D01*
X004444Y021929D02*
X004549Y021929D01*
X005476Y021929D02*
X006181Y021929D01*
X006279Y021831D02*
X005517Y021831D01*
X006462Y022521D02*
X009682Y022521D01*
X009682Y022619D02*
X006462Y022619D01*
X006462Y022718D02*
X007783Y022718D01*
X007823Y022701D02*
X008002Y022701D01*
X008167Y022770D01*
X008294Y022896D01*
X008362Y023062D01*
X008362Y023841D01*
X008294Y024006D01*
X008167Y024133D01*
X008002Y024201D01*
X007823Y024201D01*
X007658Y024133D01*
X007531Y024006D01*
X007462Y023841D01*
X007462Y023062D01*
X007531Y022896D01*
X007658Y022770D01*
X007823Y022701D01*
X008042Y022718D02*
X008783Y022718D01*
X008823Y022701D02*
X009002Y022701D01*
X009167Y022770D01*
X009294Y022896D01*
X009362Y023062D01*
X009362Y023841D01*
X009294Y024006D01*
X009167Y024133D01*
X009002Y024201D01*
X008823Y024201D01*
X008658Y024133D01*
X008531Y024006D01*
X008462Y023841D01*
X008462Y023062D01*
X008531Y022896D01*
X008658Y022770D01*
X008823Y022701D01*
X009042Y022718D02*
X009682Y022718D01*
X009611Y022816D02*
X009214Y022816D01*
X009301Y022915D02*
X009523Y022915D01*
X009482Y023013D02*
X009342Y023013D01*
X009362Y023112D02*
X009462Y023112D01*
X009462Y023210D02*
X009362Y023210D01*
X009362Y023309D02*
X009462Y023309D01*
X009462Y023407D02*
X009362Y023407D01*
X009362Y023506D02*
X009462Y023506D01*
X009462Y023604D02*
X009362Y023604D01*
X009362Y023703D02*
X009462Y023703D01*
X009462Y023802D02*
X009362Y023802D01*
X009338Y023900D02*
X009487Y023900D01*
X009528Y023999D02*
X009297Y023999D01*
X009203Y024097D02*
X009622Y024097D01*
X009616Y024196D02*
X009015Y024196D01*
X008810Y024196D02*
X008015Y024196D01*
X007810Y024196D02*
X006462Y024196D01*
X006462Y024294D02*
X009555Y024294D01*
X009522Y024393D02*
X006462Y024393D01*
X006462Y024491D02*
X009522Y024491D01*
X009548Y024590D02*
X006462Y024590D01*
X006462Y024688D02*
X009598Y024688D01*
X009704Y024787D02*
X006462Y024787D01*
X006462Y024886D02*
X022112Y024886D01*
X022112Y024984D02*
X006428Y024984D01*
X006362Y025083D02*
X022112Y025083D01*
X022112Y025181D02*
X006362Y025181D01*
X006362Y025280D02*
X022112Y025280D01*
X022112Y025378D02*
X006362Y025378D01*
X006362Y025477D02*
X022112Y025477D01*
X022112Y025575D02*
X006348Y025575D01*
X006307Y025674D02*
X022112Y025674D01*
X022112Y025772D02*
X006228Y025772D01*
X006075Y025871D02*
X022112Y025871D01*
X022112Y024787D02*
X011121Y024787D01*
X011133Y024782D02*
X010990Y024841D01*
X010835Y024841D01*
X010691Y024782D01*
X010582Y024672D01*
X010522Y024529D01*
X010522Y024374D01*
X010582Y024230D01*
X010673Y024139D01*
X010658Y024133D01*
X010531Y024006D01*
X010462Y023841D01*
X010462Y023062D01*
X010531Y022896D01*
X010658Y022770D01*
X010682Y022759D01*
X010682Y022455D01*
X010584Y022455D01*
X010682Y022521D02*
X010142Y022521D01*
X010142Y022619D02*
X010682Y022619D01*
X010682Y022718D02*
X010142Y022718D01*
X010214Y022816D02*
X010611Y022816D01*
X010523Y022915D02*
X010301Y022915D01*
X010342Y023013D02*
X010482Y023013D01*
X010462Y023112D02*
X010362Y023112D01*
X010362Y023210D02*
X010462Y023210D01*
X010462Y023309D02*
X010362Y023309D01*
X010362Y023407D02*
X010462Y023407D01*
X010462Y023506D02*
X010362Y023506D01*
X010362Y023604D02*
X010462Y023604D01*
X010462Y023703D02*
X010362Y023703D01*
X010362Y023802D02*
X010462Y023802D01*
X010487Y023900D02*
X010338Y023900D01*
X010297Y023999D02*
X010528Y023999D01*
X010622Y024097D02*
X010203Y024097D01*
X010209Y024196D02*
X010616Y024196D01*
X010555Y024294D02*
X010270Y024294D01*
X010302Y024393D02*
X010522Y024393D01*
X010522Y024491D02*
X010302Y024491D01*
X010277Y024590D02*
X010548Y024590D01*
X010598Y024688D02*
X010227Y024688D01*
X010121Y024787D02*
X010704Y024787D01*
X011133Y024782D02*
X011243Y024672D01*
X011302Y024529D01*
X011302Y024374D01*
X011243Y024230D01*
X011270Y024294D02*
X022112Y024294D01*
X022112Y024393D02*
X011302Y024393D01*
X011302Y024491D02*
X022112Y024491D01*
X022112Y024590D02*
X011277Y024590D01*
X011227Y024688D02*
X022112Y024688D01*
X021147Y019761D02*
X021149Y019761D01*
X021262Y018480D02*
X019266Y018480D01*
X019365Y018382D02*
X021262Y018382D01*
X021262Y018283D02*
X019463Y018283D01*
X019562Y018185D02*
X019790Y018185D01*
X019862Y018185D02*
X019962Y018185D01*
X020035Y018185D02*
X020783Y018185D01*
X020611Y018086D02*
X020214Y018086D01*
X020297Y017988D02*
X020523Y017988D01*
X020482Y017889D02*
X020341Y017889D01*
X020362Y017790D02*
X020462Y017790D01*
X020462Y017692D02*
X020362Y017692D01*
X020362Y017593D02*
X020462Y017593D01*
X020462Y017495D02*
X019963Y017495D01*
X019962Y017401D02*
X019962Y016755D01*
X019871Y016663D01*
X019801Y016593D01*
X019762Y016501D01*
X019762Y016356D01*
X019675Y016356D01*
X019612Y016293D01*
X019612Y016815D01*
X019619Y016808D01*
X019677Y016766D01*
X019740Y016734D01*
X019807Y016712D01*
X019862Y016703D01*
X019862Y017401D01*
X019962Y017401D01*
X019962Y017396D02*
X019862Y017396D01*
X019862Y017298D02*
X019962Y017298D01*
X019962Y017199D02*
X019862Y017199D01*
X019862Y017101D02*
X019962Y017101D01*
X019962Y017002D02*
X019862Y017002D01*
X019862Y016904D02*
X019962Y016904D01*
X019962Y016805D02*
X019862Y016805D01*
X019862Y016706D02*
X019914Y016706D01*
X019844Y016706D02*
X019612Y016706D01*
X019612Y016608D02*
X019816Y016608D01*
X019766Y016509D02*
X019612Y016509D01*
X019612Y016411D02*
X019762Y016411D01*
X019632Y016312D02*
X019612Y016312D01*
X019212Y016312D02*
X019112Y016312D01*
X019112Y016214D02*
X019212Y016214D01*
X019212Y016115D02*
X019112Y016115D01*
X019112Y016017D02*
X019212Y016017D01*
X019212Y015918D02*
X019112Y015918D01*
X019112Y015820D02*
X019212Y015820D01*
X019212Y015721D02*
X019112Y015721D01*
X019112Y015622D02*
X019212Y015622D01*
X019212Y015524D02*
X019112Y015524D01*
X019112Y015425D02*
X019212Y015425D01*
X019212Y015327D02*
X019112Y015327D01*
X019112Y015228D02*
X019212Y015228D01*
X019212Y015130D02*
X019112Y015130D01*
X019112Y015031D02*
X019212Y015031D01*
X019212Y014933D02*
X019112Y014933D01*
X019112Y014834D02*
X019212Y014834D01*
X019212Y014736D02*
X019112Y014736D01*
X019112Y014637D02*
X019212Y014637D01*
X019212Y014539D02*
X019112Y014539D01*
X019112Y014440D02*
X019212Y014440D01*
X019212Y014341D02*
X019112Y014341D01*
X019112Y014243D02*
X019212Y014243D01*
X019212Y014144D02*
X019112Y014144D01*
X019112Y014046D02*
X019212Y014046D01*
X019212Y013947D02*
X019112Y013947D01*
X019112Y013849D02*
X019212Y013849D01*
X019212Y013750D02*
X019112Y013750D01*
X019112Y013652D02*
X019212Y013652D01*
X019212Y013553D02*
X019112Y013553D01*
X019112Y013455D02*
X019212Y013455D01*
X019212Y013356D02*
X019112Y013356D01*
X019112Y013257D02*
X019212Y013257D01*
X019212Y013159D02*
X019112Y013159D01*
X019112Y013060D02*
X019212Y013060D01*
X019212Y012962D02*
X019185Y012962D01*
X019212Y012934D02*
X019112Y013034D01*
X019112Y016747D01*
X019167Y016770D01*
X019212Y016815D01*
X019212Y012934D01*
X018912Y012951D02*
X018912Y017451D01*
X018462Y017495D02*
X018362Y017495D01*
X018362Y017593D02*
X018462Y017593D01*
X018462Y017692D02*
X018362Y017692D01*
X018362Y017790D02*
X018462Y017790D01*
X018462Y017841D02*
X018462Y017062D01*
X018531Y016896D01*
X018658Y016770D01*
X018712Y016747D01*
X018712Y013134D01*
X018112Y013734D01*
X018112Y016747D01*
X018167Y016770D01*
X018294Y016896D01*
X018362Y017062D01*
X018362Y017841D01*
X018294Y018006D01*
X018167Y018133D01*
X018122Y018151D01*
X018702Y018151D01*
X018658Y018133D01*
X018531Y018006D01*
X018462Y017841D01*
X018482Y017889D02*
X018342Y017889D01*
X018302Y017988D02*
X018523Y017988D01*
X018611Y018086D02*
X018214Y018086D01*
X017912Y017451D02*
X017912Y013651D01*
X020160Y011404D01*
X020160Y010106D01*
X020416Y010106D02*
X020416Y011448D01*
X018912Y012951D01*
X018712Y013159D02*
X018688Y013159D01*
X018712Y013257D02*
X018589Y013257D01*
X018490Y013356D02*
X018712Y013356D01*
X018712Y013455D02*
X018392Y013455D01*
X018293Y013553D02*
X018712Y013553D01*
X018712Y013652D02*
X018195Y013652D01*
X018112Y013750D02*
X018712Y013750D01*
X018712Y013849D02*
X018112Y013849D01*
X018112Y013947D02*
X018712Y013947D01*
X018712Y014046D02*
X018112Y014046D01*
X018112Y014144D02*
X018712Y014144D01*
X018712Y014243D02*
X018112Y014243D01*
X018112Y014341D02*
X018712Y014341D01*
X018712Y014440D02*
X018112Y014440D01*
X018112Y014539D02*
X018712Y014539D01*
X018712Y014637D02*
X018112Y014637D01*
X018112Y014736D02*
X018712Y014736D01*
X018712Y014834D02*
X018112Y014834D01*
X018112Y014933D02*
X018712Y014933D01*
X018712Y015031D02*
X018112Y015031D01*
X018112Y015130D02*
X018712Y015130D01*
X018712Y015228D02*
X018112Y015228D01*
X018112Y015327D02*
X018712Y015327D01*
X018712Y015425D02*
X018112Y015425D01*
X018112Y015524D02*
X018712Y015524D01*
X018712Y015622D02*
X018112Y015622D01*
X018112Y015721D02*
X018712Y015721D01*
X018712Y015820D02*
X018112Y015820D01*
X018112Y015918D02*
X018712Y015918D01*
X018712Y016017D02*
X018112Y016017D01*
X018112Y016115D02*
X018712Y016115D01*
X018712Y016214D02*
X018112Y016214D01*
X018112Y016312D02*
X018712Y016312D01*
X018712Y016411D02*
X018112Y016411D01*
X018112Y016509D02*
X018712Y016509D01*
X018712Y016608D02*
X018112Y016608D01*
X018112Y016706D02*
X018712Y016706D01*
X018622Y016805D02*
X018203Y016805D01*
X018297Y016904D02*
X018528Y016904D01*
X018487Y017002D02*
X018338Y017002D01*
X018362Y017101D02*
X018462Y017101D01*
X018462Y017199D02*
X018362Y017199D01*
X018362Y017298D02*
X018462Y017298D01*
X018462Y017396D02*
X018362Y017396D01*
X017712Y016747D02*
X017712Y013834D01*
X017112Y014434D01*
X017112Y016747D01*
X017167Y016770D01*
X017294Y016896D01*
X017362Y017062D01*
X017362Y017841D01*
X017294Y018006D01*
X017167Y018133D01*
X017122Y018151D01*
X017702Y018151D01*
X017658Y018133D01*
X017531Y018006D01*
X017462Y017841D01*
X017462Y017062D01*
X017531Y016896D01*
X017658Y016770D01*
X017712Y016747D01*
X017712Y016706D02*
X017112Y016706D01*
X017112Y016608D02*
X017712Y016608D01*
X017712Y016509D02*
X017112Y016509D01*
X017112Y016411D02*
X017712Y016411D01*
X017712Y016312D02*
X017112Y016312D01*
X017112Y016214D02*
X017712Y016214D01*
X017712Y016115D02*
X017112Y016115D01*
X017112Y016017D02*
X017712Y016017D01*
X017712Y015918D02*
X017112Y015918D01*
X017112Y015820D02*
X017712Y015820D01*
X017712Y015721D02*
X017112Y015721D01*
X017112Y015622D02*
X017712Y015622D01*
X017712Y015524D02*
X017112Y015524D01*
X017112Y015425D02*
X017712Y015425D01*
X017712Y015327D02*
X017112Y015327D01*
X017112Y015228D02*
X017712Y015228D01*
X017712Y015130D02*
X017112Y015130D01*
X017112Y015031D02*
X017712Y015031D01*
X017712Y014933D02*
X017112Y014933D01*
X017112Y014834D02*
X017712Y014834D01*
X017712Y014736D02*
X017112Y014736D01*
X017112Y014637D02*
X017712Y014637D01*
X017712Y014539D02*
X017112Y014539D01*
X017112Y014440D02*
X017712Y014440D01*
X017712Y014341D02*
X017205Y014341D01*
X017304Y014243D02*
X017712Y014243D01*
X017712Y014144D02*
X017402Y014144D01*
X017501Y014046D02*
X017712Y014046D01*
X017712Y013947D02*
X017599Y013947D01*
X017698Y013849D02*
X017712Y013849D01*
X017428Y013553D02*
X014597Y013553D01*
X014597Y013469D02*
X014597Y015247D01*
X014509Y015335D01*
X013381Y015335D01*
X013293Y015247D01*
X013293Y013534D01*
X013007Y013534D01*
X012919Y013446D01*
X012919Y013426D01*
X012312Y013426D01*
X012312Y015468D01*
X012312Y015551D01*
X015995Y015551D01*
X016112Y015668D01*
X016112Y015834D01*
X016112Y016747D01*
X016167Y016770D01*
X016294Y016896D01*
X016362Y017062D01*
X016362Y017841D01*
X016294Y018006D01*
X016167Y018133D01*
X016122Y018151D01*
X016702Y018151D01*
X016658Y018133D01*
X016531Y018006D01*
X016462Y017841D01*
X016462Y017062D01*
X016531Y016896D01*
X016658Y016770D01*
X016712Y016747D01*
X016712Y014268D01*
X016830Y014151D01*
X019500Y011481D01*
X019480Y011489D01*
X019345Y011489D01*
X019221Y011438D01*
X019126Y011343D01*
X019074Y011218D01*
X019074Y011084D01*
X019126Y010960D01*
X019212Y010873D01*
X019212Y010453D01*
X019015Y010453D01*
X019008Y010446D01*
X019001Y010453D01*
X018759Y010453D01*
X018752Y010446D01*
X018745Y010453D01*
X018503Y010453D01*
X018496Y010446D01*
X018490Y010453D01*
X018247Y010453D01*
X018240Y010446D01*
X018234Y010453D01*
X018056Y010453D01*
X018056Y012034D01*
X017939Y012151D01*
X017774Y012151D01*
X014612Y012151D01*
X014612Y012325D01*
X014495Y012442D01*
X014330Y012442D01*
X014046Y012442D01*
X014046Y012462D01*
X014019Y012488D01*
X014046Y012515D01*
X014046Y012954D01*
X014019Y012980D01*
X014046Y013007D01*
X014046Y013381D01*
X014509Y013381D01*
X014597Y013469D01*
X014582Y013455D02*
X017526Y013455D01*
X017625Y013356D02*
X014046Y013356D01*
X014046Y013257D02*
X017723Y013257D01*
X017822Y013159D02*
X014046Y013159D01*
X014046Y013060D02*
X017920Y013060D01*
X018019Y012962D02*
X014038Y012962D01*
X014046Y012863D02*
X018117Y012863D01*
X018216Y012765D02*
X014046Y012765D01*
X014046Y012666D02*
X018315Y012666D01*
X018413Y012568D02*
X014046Y012568D01*
X014039Y012469D02*
X018512Y012469D01*
X018610Y012371D02*
X014567Y012371D01*
X014612Y012272D02*
X018709Y012272D01*
X018807Y012173D02*
X014612Y012173D01*
X014412Y012242D02*
X014412Y011951D01*
X017857Y011951D01*
X017857Y010106D01*
X017601Y010106D02*
X017601Y011750D01*
X017512Y011750D01*
X017512Y011751D01*
X013483Y011751D01*
X013483Y011750D01*
X013483Y012242D02*
X014412Y012242D01*
X014212Y012042D02*
X014212Y012034D01*
X014212Y011951D01*
X014046Y011951D01*
X014046Y011970D01*
X014019Y011996D01*
X014046Y012022D01*
X014046Y012042D01*
X014212Y012042D01*
X014212Y011976D02*
X014039Y011976D01*
X014046Y011551D02*
X014212Y011551D01*
X014212Y011468D01*
X014212Y011458D01*
X014046Y011458D01*
X014046Y011477D01*
X014019Y011504D01*
X014046Y011530D01*
X014046Y011551D01*
X014040Y011484D02*
X014212Y011484D01*
X014412Y011551D02*
X014412Y011258D01*
X013483Y011258D01*
X013483Y010766D02*
X014612Y010766D01*
X014612Y011351D01*
X017089Y011351D01*
X017089Y010106D01*
X017345Y010106D02*
X017345Y011551D01*
X014412Y011551D01*
X014412Y011058D02*
X014330Y011058D01*
X014046Y011058D01*
X014046Y011038D01*
X014019Y011012D01*
X014046Y010985D01*
X014046Y010966D01*
X014412Y010966D01*
X014412Y011058D01*
X014412Y010991D02*
X014040Y010991D01*
X014046Y010566D02*
X014530Y010566D01*
X014612Y010566D01*
X014612Y010474D01*
X014046Y010474D01*
X014046Y010493D01*
X014019Y010520D01*
X014046Y010546D01*
X014046Y010566D01*
X014041Y010498D02*
X014612Y010498D01*
X014812Y010274D02*
X014812Y011151D01*
X016833Y011151D01*
X016833Y010106D01*
X016577Y010106D02*
X016577Y010951D01*
X015012Y010951D01*
X015012Y009781D01*
X013483Y009781D01*
X013483Y009289D02*
X015212Y009289D01*
X015212Y010751D01*
X016321Y010751D01*
X016321Y010106D01*
X016065Y010106D02*
X016065Y010551D01*
X015412Y010551D01*
X015412Y008797D01*
X013483Y008797D01*
X013483Y008305D02*
X015412Y008305D01*
X015412Y006551D01*
X016065Y006551D01*
X016065Y006996D01*
X016321Y006996D02*
X016321Y006351D01*
X015212Y006351D01*
X015212Y007813D01*
X013483Y007813D01*
X013483Y007321D02*
X015012Y007321D01*
X015012Y006151D01*
X016577Y006151D01*
X016577Y006996D01*
X016833Y006996D02*
X016833Y005951D01*
X014812Y005951D01*
X014812Y006829D01*
X013483Y006829D01*
X013483Y006337D02*
X014612Y006337D01*
X014612Y005751D01*
X017089Y005751D01*
X017089Y006996D01*
X017345Y006996D02*
X017345Y005551D01*
X014412Y005551D01*
X014412Y005844D01*
X013483Y005844D01*
X013483Y005352D02*
X013483Y005351D01*
X017512Y005351D01*
X017512Y005352D01*
X017601Y005352D01*
X017601Y006996D01*
X017729Y007336D02*
X017722Y007343D01*
X017479Y007343D01*
X017473Y007336D01*
X017466Y007343D01*
X017224Y007343D01*
X017217Y007336D01*
X017210Y007343D01*
X016968Y007343D01*
X016961Y007336D01*
X016954Y007343D01*
X016712Y007343D01*
X016705Y007336D01*
X016698Y007343D01*
X016456Y007343D01*
X016449Y007336D01*
X016442Y007343D01*
X016200Y007343D01*
X016193Y007336D01*
X016186Y007343D01*
X015944Y007343D01*
X015937Y007336D01*
X015930Y007343D01*
X015688Y007343D01*
X015612Y007267D01*
X015612Y007378D01*
X020612Y007378D01*
X020612Y007267D01*
X020537Y007343D01*
X020294Y007343D01*
X020288Y007336D01*
X020281Y007343D01*
X020038Y007343D01*
X020032Y007336D01*
X020025Y007343D01*
X019783Y007343D01*
X019776Y007336D01*
X019769Y007343D01*
X019527Y007343D01*
X019520Y007336D01*
X019513Y007343D01*
X019271Y007343D01*
X019258Y007330D01*
X019253Y007333D01*
X019215Y007343D01*
X019136Y007343D01*
X019057Y007343D01*
X019019Y007333D01*
X019014Y007330D01*
X019001Y007343D01*
X018759Y007343D01*
X018752Y007336D01*
X018745Y007343D01*
X018503Y007343D01*
X018496Y007336D01*
X018490Y007343D01*
X018247Y007343D01*
X018240Y007336D01*
X018234Y007343D01*
X017991Y007343D01*
X017984Y007336D01*
X017978Y007343D01*
X017735Y007343D01*
X017729Y007336D01*
X017801Y006649D02*
X017978Y006649D01*
X017984Y006656D01*
X017991Y006649D01*
X018234Y006649D01*
X018240Y006656D01*
X018247Y006649D01*
X018490Y006649D01*
X018496Y006656D01*
X018503Y006649D01*
X018745Y006649D01*
X018752Y006656D01*
X018759Y006649D01*
X019001Y006649D01*
X019014Y006662D01*
X019019Y006659D01*
X019057Y006649D01*
X019136Y006649D01*
X019136Y006996D01*
X019136Y006996D01*
X019136Y006649D01*
X019192Y006649D01*
X019192Y005955D01*
X018911Y005955D01*
X018911Y005501D01*
X018811Y005501D01*
X018811Y005401D01*
X018396Y005401D01*
X018396Y005077D01*
X018407Y005039D01*
X018426Y005005D01*
X018454Y004977D01*
X018488Y004957D01*
X018527Y004947D01*
X018811Y004947D01*
X018811Y005401D01*
X018911Y005401D01*
X018911Y004947D01*
X019181Y004947D01*
X019179Y004756D01*
X018995Y004756D01*
X018907Y004668D01*
X018907Y003834D01*
X018990Y003751D01*
X018605Y003751D01*
X018625Y003756D01*
X018660Y003776D01*
X018688Y003804D01*
X018707Y003838D01*
X018718Y003876D01*
X018718Y004201D01*
X018303Y004201D01*
X018303Y004301D01*
X018718Y004301D01*
X018718Y004626D01*
X018707Y004664D01*
X018688Y004698D01*
X018660Y004726D01*
X018625Y004746D01*
X018587Y004756D01*
X018302Y004756D01*
X018302Y004301D01*
X018203Y004301D01*
X018203Y004756D01*
X017918Y004756D01*
X017880Y004746D01*
X017846Y004726D01*
X017818Y004698D01*
X017798Y004664D01*
X017788Y004626D01*
X017788Y004301D01*
X018202Y004301D01*
X018202Y004201D01*
X017788Y004201D01*
X017788Y003876D01*
X017798Y003838D01*
X017818Y003804D01*
X017846Y003776D01*
X017880Y003756D01*
X017900Y003751D01*
X015512Y003751D01*
X015512Y004247D01*
X015538Y004247D01*
X015626Y004335D01*
X015626Y005151D01*
X015806Y005151D01*
X015799Y005125D01*
X015799Y004801D01*
X016213Y004801D01*
X016213Y004701D01*
X015799Y004701D01*
X015799Y004377D01*
X015809Y004339D01*
X015829Y004305D01*
X015857Y004277D01*
X015891Y004257D01*
X015929Y004247D01*
X016214Y004247D01*
X016214Y004701D01*
X016314Y004701D01*
X016314Y004801D01*
X016729Y004801D01*
X016729Y005125D01*
X016722Y005151D01*
X017595Y005151D01*
X017596Y005152D01*
X017683Y005152D01*
X017801Y005269D01*
X017801Y005435D01*
X017801Y006649D01*
X017801Y006556D02*
X019192Y006556D01*
X019192Y006458D02*
X017801Y006458D01*
X017801Y006359D02*
X019192Y006359D01*
X019192Y006261D02*
X017801Y006261D01*
X017801Y006162D02*
X019192Y006162D01*
X019192Y006064D02*
X017801Y006064D01*
X017801Y005965D02*
X019192Y005965D01*
X019392Y005811D02*
X019392Y006996D01*
X019136Y006996D02*
X019136Y007343D01*
X019136Y006996D01*
X019136Y006996D01*
X019136Y006951D02*
X019136Y006951D01*
X019136Y007049D02*
X019136Y007049D01*
X019136Y007148D02*
X019136Y007148D01*
X019136Y007246D02*
X019136Y007246D01*
X019136Y006852D02*
X019136Y006852D01*
X019136Y006754D02*
X019136Y006754D01*
X019136Y006655D02*
X019136Y006655D01*
X019036Y006655D02*
X019007Y006655D01*
X018753Y006655D02*
X018751Y006655D01*
X018497Y006655D02*
X018495Y006655D01*
X018241Y006655D02*
X018239Y006655D01*
X017985Y006655D02*
X017984Y006655D01*
X017801Y005867D02*
X018408Y005867D01*
X018407Y005863D02*
X018396Y005825D01*
X018396Y005501D01*
X018811Y005501D01*
X018811Y005955D01*
X018527Y005955D01*
X018488Y005945D01*
X018454Y005926D01*
X018426Y005898D01*
X018407Y005863D01*
X018396Y005768D02*
X017801Y005768D01*
X017801Y005670D02*
X018396Y005670D01*
X018396Y005571D02*
X017801Y005571D01*
X017801Y005473D02*
X018811Y005473D01*
X018811Y005571D02*
X018911Y005571D01*
X018911Y005670D02*
X018811Y005670D01*
X018811Y005768D02*
X018911Y005768D01*
X018911Y005867D02*
X018811Y005867D01*
X018811Y005374D02*
X018911Y005374D01*
X018911Y005275D02*
X018811Y005275D01*
X018811Y005177D02*
X018911Y005177D01*
X018911Y005078D02*
X018811Y005078D01*
X018811Y004980D02*
X018911Y004980D01*
X019180Y004881D02*
X016729Y004881D01*
X016729Y004980D02*
X018451Y004980D01*
X018396Y005078D02*
X016729Y005078D01*
X016729Y004701D02*
X016314Y004701D01*
X016314Y004247D01*
X016598Y004247D01*
X016636Y004257D01*
X016671Y004277D01*
X016699Y004305D01*
X016718Y004339D01*
X016729Y004377D01*
X016729Y004701D01*
X016729Y004684D02*
X017810Y004684D01*
X017788Y004586D02*
X016729Y004586D01*
X016729Y004487D02*
X017788Y004487D01*
X017788Y004389D02*
X016729Y004389D01*
X016684Y004290D02*
X018202Y004290D01*
X018203Y004389D02*
X018302Y004389D01*
X018302Y004487D02*
X018203Y004487D01*
X018203Y004586D02*
X018302Y004586D01*
X018302Y004684D02*
X018203Y004684D01*
X018303Y004290D02*
X018907Y004290D01*
X018907Y004389D02*
X018718Y004389D01*
X018718Y004487D02*
X018907Y004487D01*
X018907Y004586D02*
X018718Y004586D01*
X018696Y004684D02*
X018923Y004684D01*
X019179Y004783D02*
X016314Y004783D01*
X016314Y004684D02*
X016214Y004684D01*
X016214Y004586D02*
X016314Y004586D01*
X016314Y004487D02*
X016214Y004487D01*
X016214Y004389D02*
X016314Y004389D01*
X016314Y004290D02*
X016214Y004290D01*
X016213Y004783D02*
X015626Y004783D01*
X015626Y004881D02*
X015799Y004881D01*
X015799Y004980D02*
X015626Y004980D01*
X015626Y005078D02*
X015799Y005078D01*
X015799Y004684D02*
X015626Y004684D01*
X015626Y004586D02*
X015799Y004586D01*
X015799Y004487D02*
X015626Y004487D01*
X015626Y004389D02*
X015799Y004389D01*
X015843Y004290D02*
X015581Y004290D01*
X015512Y004191D02*
X017788Y004191D01*
X017788Y004093D02*
X015512Y004093D01*
X015512Y003994D02*
X017788Y003994D01*
X017788Y003896D02*
X015512Y003896D01*
X015512Y003797D02*
X017824Y003797D01*
X018681Y003797D02*
X018944Y003797D01*
X018907Y003896D02*
X018718Y003896D01*
X018718Y003994D02*
X018907Y003994D01*
X018907Y004093D02*
X018718Y004093D01*
X018718Y004191D02*
X018907Y004191D01*
X019372Y004251D02*
X019392Y005811D01*
X020312Y006451D02*
X020160Y006651D01*
X020160Y006996D01*
X020416Y006996D02*
X020416Y006851D01*
X020812Y006851D01*
X020634Y006651D02*
X020626Y006643D01*
X020612Y006610D01*
X020599Y006643D01*
X020591Y006651D01*
X020634Y006651D01*
X020612Y007345D02*
X015612Y007345D01*
X015012Y007521D02*
X014930Y007521D01*
X014046Y007521D01*
X014046Y007540D01*
X014019Y007567D01*
X014046Y007593D01*
X014046Y007613D01*
X015012Y007613D01*
X015012Y007521D01*
X015012Y007542D02*
X014044Y007542D01*
X014046Y007121D02*
X014812Y007121D01*
X014812Y007029D01*
X014730Y007029D01*
X014046Y007029D01*
X014046Y007048D01*
X014019Y007075D01*
X014046Y007101D01*
X014046Y007121D01*
X014045Y007049D02*
X014812Y007049D01*
X014612Y006629D02*
X014612Y006537D01*
X014530Y006537D01*
X014046Y006537D01*
X014046Y006556D01*
X014019Y006583D01*
X014046Y006609D01*
X014046Y006629D01*
X014612Y006629D01*
X014612Y006556D02*
X014046Y006556D01*
X014046Y006137D02*
X014412Y006137D01*
X014412Y006044D01*
X014330Y006044D01*
X014046Y006044D01*
X014046Y006064D01*
X014019Y006091D01*
X014046Y006117D01*
X014046Y006137D01*
X014046Y006064D02*
X014412Y006064D01*
X014212Y005644D02*
X014212Y005634D01*
X014212Y005551D01*
X014046Y005551D01*
X014046Y005572D01*
X014019Y005598D01*
X014046Y005625D01*
X014046Y005644D01*
X014212Y005644D01*
X014212Y005571D02*
X014046Y005571D01*
X014046Y004487D02*
X014696Y004487D01*
X014696Y004389D02*
X014046Y004389D01*
X014046Y004290D02*
X014741Y004290D01*
X014912Y004191D02*
X014046Y004191D01*
X014046Y004093D02*
X014912Y004093D01*
X014912Y003994D02*
X014046Y003994D01*
X014046Y003896D02*
X014912Y003896D01*
X014912Y003797D02*
X014046Y003797D01*
X014531Y003699D02*
X014912Y003699D01*
X014912Y003600D02*
X014597Y003600D01*
X014597Y003502D02*
X014912Y003502D01*
X014912Y003403D02*
X014597Y003403D01*
X014597Y003305D02*
X014912Y003305D01*
X014912Y003206D02*
X014597Y003206D01*
X014597Y003107D02*
X014912Y003107D01*
X014912Y003009D02*
X014597Y003009D01*
X014597Y002910D02*
X014912Y002910D01*
X014912Y002812D02*
X014597Y002812D01*
X014597Y002713D02*
X014912Y002713D01*
X014912Y002615D02*
X014597Y002615D01*
X014597Y002516D02*
X014912Y002516D01*
X014912Y002418D02*
X014597Y002418D01*
X014597Y002319D02*
X014912Y002319D01*
X014912Y002221D02*
X014597Y002221D01*
X014597Y002122D02*
X014912Y002122D01*
X014861Y002024D02*
X014597Y002024D01*
X014597Y001925D02*
X014762Y001925D01*
X014663Y001826D02*
X014568Y001826D01*
X015161Y004751D02*
X015212Y004751D01*
X017708Y005177D02*
X018396Y005177D01*
X018396Y005275D02*
X017801Y005275D01*
X017801Y005374D02*
X018396Y005374D01*
X015502Y008499D02*
X015502Y008604D01*
X015495Y008597D01*
X015330Y008597D01*
X014046Y008597D01*
X014046Y008578D01*
X014019Y008551D01*
X014046Y008525D01*
X014046Y008505D01*
X015330Y008505D01*
X015495Y008505D01*
X015502Y008499D01*
X015502Y008527D02*
X014043Y008527D01*
X014046Y008997D02*
X015212Y008997D01*
X015212Y009089D01*
X015130Y009089D01*
X014046Y009089D01*
X014046Y009070D01*
X014019Y009043D01*
X014046Y009017D01*
X014046Y008997D01*
X014043Y009020D02*
X015212Y009020D01*
X015012Y009489D02*
X014046Y009489D01*
X014046Y009509D01*
X014019Y009535D01*
X014046Y009562D01*
X014046Y009581D01*
X014930Y009581D01*
X015012Y009581D01*
X015012Y009489D01*
X015012Y009513D02*
X014042Y009513D01*
X014046Y009981D02*
X014812Y009981D01*
X014812Y010074D01*
X014730Y010074D01*
X014046Y010074D01*
X014046Y010054D01*
X014019Y010028D01*
X014046Y010001D01*
X014046Y009981D01*
X014041Y010006D02*
X014812Y010006D01*
X014812Y010274D02*
X013483Y010274D01*
X014046Y008105D02*
X015212Y008105D01*
X015212Y008013D01*
X015130Y008013D01*
X014046Y008013D01*
X014046Y008033D01*
X014019Y008059D01*
X014046Y008085D01*
X014046Y008105D01*
X014044Y008035D02*
X015212Y008035D01*
X015612Y009725D02*
X015612Y009835D01*
X015688Y009759D01*
X015930Y009759D01*
X015937Y009766D01*
X015944Y009759D01*
X016186Y009759D01*
X016193Y009766D01*
X016200Y009759D01*
X016442Y009759D01*
X016449Y009766D01*
X016456Y009759D01*
X016698Y009759D01*
X016705Y009766D01*
X016712Y009759D01*
X016954Y009759D01*
X016961Y009766D01*
X016968Y009759D01*
X017210Y009759D01*
X017217Y009766D01*
X017224Y009759D01*
X017466Y009759D01*
X017473Y009766D01*
X017479Y009759D01*
X017722Y009759D01*
X017729Y009766D01*
X017735Y009759D01*
X017978Y009759D01*
X017984Y009766D01*
X017991Y009759D01*
X018234Y009759D01*
X018240Y009766D01*
X018247Y009759D01*
X018490Y009759D01*
X018496Y009766D01*
X018503Y009759D01*
X018745Y009759D01*
X018752Y009766D01*
X018759Y009759D01*
X019001Y009759D01*
X019008Y009766D01*
X019015Y009759D01*
X019257Y009759D01*
X019264Y009766D01*
X019271Y009759D01*
X019513Y009759D01*
X019520Y009766D01*
X019527Y009759D01*
X019769Y009759D01*
X019776Y009766D01*
X019783Y009759D01*
X020025Y009759D01*
X020032Y009766D01*
X020038Y009759D01*
X020281Y009759D01*
X020288Y009766D01*
X020294Y009759D01*
X020537Y009759D01*
X020612Y009835D01*
X020612Y009725D01*
X015612Y009725D01*
X015612Y009808D02*
X015639Y009808D01*
X018056Y010498D02*
X019212Y010498D01*
X019212Y010597D02*
X018056Y010597D01*
X018056Y010695D02*
X019212Y010695D01*
X019212Y010794D02*
X018056Y010794D01*
X018056Y010892D02*
X019193Y010892D01*
X019113Y010991D02*
X018056Y010991D01*
X018056Y011089D02*
X019074Y011089D01*
X019074Y011188D02*
X018056Y011188D01*
X018056Y011287D02*
X019103Y011287D01*
X019168Y011385D02*
X018056Y011385D01*
X018056Y011484D02*
X019332Y011484D01*
X019399Y011582D02*
X018056Y011582D01*
X018056Y011681D02*
X019300Y011681D01*
X019201Y011779D02*
X018056Y011779D01*
X018056Y011878D02*
X019103Y011878D01*
X019004Y011976D02*
X018056Y011976D01*
X018016Y012075D02*
X018906Y012075D01*
X019493Y011484D02*
X019497Y011484D01*
X019412Y011151D02*
X019412Y010127D01*
X019392Y010106D01*
X019648Y010106D01*
X019904Y010106D02*
X019904Y011360D01*
X016912Y014351D01*
X016912Y017451D01*
X016462Y017495D02*
X016362Y017495D01*
X016362Y017593D02*
X016462Y017593D01*
X016462Y017692D02*
X016362Y017692D01*
X016362Y017790D02*
X016462Y017790D01*
X016482Y017889D02*
X016342Y017889D01*
X016302Y017988D02*
X016523Y017988D01*
X016611Y018086D02*
X016214Y018086D01*
X016362Y017396D02*
X016462Y017396D01*
X016462Y017298D02*
X016362Y017298D01*
X016362Y017199D02*
X016462Y017199D01*
X016462Y017101D02*
X016362Y017101D01*
X016338Y017002D02*
X016487Y017002D01*
X016528Y016904D02*
X016297Y016904D01*
X016203Y016805D02*
X016622Y016805D01*
X016712Y016706D02*
X016112Y016706D01*
X016112Y016608D02*
X016712Y016608D01*
X016712Y016509D02*
X016112Y016509D01*
X016112Y016411D02*
X016712Y016411D01*
X016712Y016312D02*
X016112Y016312D01*
X016112Y016214D02*
X016712Y016214D01*
X016712Y016115D02*
X016112Y016115D01*
X016112Y016017D02*
X016712Y016017D01*
X016712Y015918D02*
X016112Y015918D01*
X016112Y015820D02*
X016712Y015820D01*
X016712Y015721D02*
X016112Y015721D01*
X016067Y015622D02*
X016712Y015622D01*
X016712Y015524D02*
X012312Y015524D01*
X012312Y015425D02*
X016712Y015425D01*
X016712Y015327D02*
X014517Y015327D01*
X014597Y015228D02*
X016712Y015228D01*
X016712Y015130D02*
X014597Y015130D01*
X014597Y015031D02*
X016712Y015031D01*
X016712Y014933D02*
X014597Y014933D01*
X014597Y014834D02*
X016712Y014834D01*
X016712Y014736D02*
X014597Y014736D01*
X014597Y014637D02*
X016712Y014637D01*
X016712Y014539D02*
X014597Y014539D01*
X014597Y014440D02*
X016712Y014440D01*
X016712Y014341D02*
X014597Y014341D01*
X014597Y014243D02*
X016738Y014243D01*
X016836Y014144D02*
X014597Y014144D01*
X014597Y014046D02*
X016935Y014046D01*
X017034Y013947D02*
X014597Y013947D01*
X014597Y013849D02*
X017132Y013849D01*
X017231Y013750D02*
X014597Y013750D01*
X014597Y013652D02*
X017329Y013652D01*
X015712Y016017D02*
X015112Y016017D01*
X015112Y016115D02*
X015712Y016115D01*
X015712Y016214D02*
X015112Y016214D01*
X015112Y016312D02*
X015712Y016312D01*
X015712Y016411D02*
X015112Y016411D01*
X015112Y016509D02*
X015712Y016509D01*
X015712Y016608D02*
X015112Y016608D01*
X015112Y016706D02*
X015712Y016706D01*
X015622Y016805D02*
X015203Y016805D01*
X015297Y016904D02*
X015528Y016904D01*
X015487Y017002D02*
X015338Y017002D01*
X015362Y017101D02*
X015462Y017101D01*
X015462Y017199D02*
X015362Y017199D01*
X015362Y017298D02*
X015462Y017298D01*
X015462Y017396D02*
X015362Y017396D01*
X014912Y017451D02*
X014912Y015951D01*
X003912Y015951D01*
X002312Y014351D01*
X002312Y011851D01*
X003612Y010551D01*
X004565Y010551D01*
X004565Y010106D01*
X004821Y010106D02*
X004821Y010751D01*
X003712Y010751D01*
X002512Y011951D01*
X002770Y011976D02*
X003259Y011976D01*
X003199Y011878D02*
X002869Y011878D01*
X002967Y011779D02*
X003174Y011779D01*
X003176Y011681D02*
X003066Y011681D01*
X003164Y011582D02*
X003216Y011582D01*
X003263Y011484D02*
X003302Y011484D01*
X003361Y011385D02*
X003796Y011385D01*
X003844Y011287D02*
X003460Y011287D01*
X003558Y011188D02*
X004112Y011188D01*
X004191Y011089D02*
X003657Y011089D01*
X003755Y010991D02*
X004290Y010991D01*
X004600Y011247D02*
X004612Y011234D01*
X004612Y011247D01*
X004600Y011247D01*
X005077Y010951D02*
X005077Y010106D01*
X005589Y010006D02*
X005589Y010006D01*
X005589Y009907D02*
X005589Y009907D01*
X005589Y009808D02*
X005589Y009808D01*
X003378Y010203D02*
X002112Y010203D01*
X002112Y010301D02*
X003280Y010301D01*
X003181Y010400D02*
X002112Y010400D01*
X002112Y010498D02*
X003083Y010498D01*
X002984Y010597D02*
X002112Y010597D01*
X002112Y010695D02*
X002885Y010695D01*
X002787Y010794D02*
X002112Y010794D01*
X002112Y010892D02*
X002688Y010892D01*
X002590Y010991D02*
X002112Y010991D01*
X002112Y011089D02*
X002491Y011089D01*
X002393Y011188D02*
X002112Y011188D01*
X002112Y011287D02*
X002294Y011287D01*
X002196Y011385D02*
X002112Y011385D01*
X003062Y013455D02*
X003162Y013455D01*
X003162Y013553D02*
X003062Y013553D01*
X003062Y013652D02*
X003162Y013652D01*
X003162Y013750D02*
X003062Y013750D01*
X003062Y013849D02*
X003162Y013849D01*
X003477Y014933D02*
X009912Y014933D01*
X009912Y015031D02*
X003575Y015031D01*
X003674Y015130D02*
X009912Y015130D01*
X009912Y015228D02*
X003772Y015228D01*
X003871Y015327D02*
X009912Y015327D01*
X009912Y015425D02*
X003969Y015425D01*
X004068Y015524D02*
X009912Y015524D01*
X010312Y015351D02*
X010312Y013451D01*
X011762Y012568D02*
X011796Y012568D01*
X011912Y012734D02*
X011912Y015351D01*
X010312Y015351D01*
X010112Y016411D02*
X013712Y016411D01*
X013712Y016509D02*
X010112Y016509D01*
X010112Y016608D02*
X013712Y016608D01*
X013712Y016706D02*
X013015Y016706D01*
X013002Y016701D02*
X013167Y016770D01*
X013294Y016896D01*
X013362Y017062D01*
X013362Y017841D01*
X013294Y018006D01*
X013167Y018133D01*
X013002Y018201D01*
X012823Y018201D01*
X012658Y018133D01*
X012531Y018006D01*
X012462Y017841D01*
X012462Y017062D01*
X012531Y016896D01*
X012658Y016770D01*
X012823Y016701D01*
X013002Y016701D01*
X012810Y016706D02*
X011981Y016706D01*
X011962Y016706D02*
X011862Y016706D01*
X011862Y016703D02*
X011862Y017401D01*
X011462Y017401D01*
X011462Y017116D01*
X011474Y017046D01*
X011495Y016978D01*
X011528Y016915D01*
X011569Y016858D01*
X011619Y016808D01*
X011677Y016766D01*
X011740Y016734D01*
X011807Y016712D01*
X011862Y016703D01*
X011844Y016706D02*
X011015Y016706D01*
X010810Y016706D02*
X010112Y016706D01*
X010203Y016805D02*
X010622Y016805D01*
X010528Y016904D02*
X010297Y016904D01*
X010338Y017002D02*
X010487Y017002D01*
X010462Y017101D02*
X010362Y017101D01*
X010362Y017199D02*
X010462Y017199D01*
X010462Y017298D02*
X010362Y017298D01*
X010362Y017396D02*
X010462Y017396D01*
X010462Y017495D02*
X010362Y017495D01*
X010362Y017593D02*
X010462Y017593D01*
X010462Y017692D02*
X010362Y017692D01*
X010362Y017790D02*
X010462Y017790D01*
X010482Y017889D02*
X010342Y017889D01*
X010302Y017988D02*
X010523Y017988D01*
X010912Y018251D02*
X010912Y017451D01*
X011362Y017495D02*
X011862Y017495D01*
X011862Y017501D02*
X011862Y017401D01*
X011962Y017401D01*
X011962Y016703D01*
X012018Y016712D01*
X012085Y016734D01*
X012148Y016766D01*
X012206Y016808D01*
X012256Y016858D01*
X012297Y016915D01*
X012329Y016978D01*
X012351Y017046D01*
X012362Y017116D01*
X012362Y017401D01*
X011963Y017401D01*
X011963Y017501D01*
X012362Y017501D01*
X012362Y017787D01*
X012351Y017857D01*
X012329Y017924D01*
X012297Y017987D01*
X012256Y018044D01*
X012206Y018094D01*
X012148Y018136D01*
X012085Y018168D01*
X012018Y018190D01*
X011962Y018199D01*
X011962Y017501D01*
X011862Y017501D01*
X011462Y017501D01*
X011462Y017787D01*
X011474Y017857D01*
X011495Y017924D01*
X011528Y017987D01*
X011569Y018044D01*
X011619Y018094D01*
X011677Y018136D01*
X011740Y018168D01*
X011807Y018190D01*
X011862Y018199D01*
X011862Y017501D01*
X011862Y017593D02*
X011962Y017593D01*
X011963Y017495D02*
X012462Y017495D01*
X012462Y017593D02*
X012362Y017593D01*
X012362Y017692D02*
X012462Y017692D01*
X012462Y017790D02*
X012362Y017790D01*
X012341Y017889D02*
X012482Y017889D01*
X012523Y017988D02*
X012297Y017988D01*
X012214Y018086D02*
X012611Y018086D01*
X012783Y018185D02*
X012035Y018185D01*
X011962Y018185D02*
X011862Y018185D01*
X011790Y018185D02*
X011112Y018185D01*
X011112Y018283D02*
X014262Y018283D01*
X014360Y018382D02*
X011065Y018382D01*
X010912Y018251D02*
X007712Y018251D01*
X007182Y018874D02*
X005457Y018874D01*
X005516Y018973D02*
X007295Y018973D01*
X007640Y019170D02*
X005517Y019170D01*
X005517Y019071D02*
X007739Y019071D01*
X008147Y019761D02*
X008678Y019761D01*
X008567Y019860D02*
X008257Y019860D01*
X008320Y019958D02*
X008505Y019958D01*
X008464Y020057D02*
X008360Y020057D01*
X008362Y020155D02*
X008462Y020155D01*
X008462Y020254D02*
X008362Y020254D01*
X008362Y020353D02*
X008462Y020353D01*
X008462Y020451D02*
X008362Y020451D01*
X008362Y020550D02*
X008462Y020550D01*
X008462Y020648D02*
X008362Y020648D01*
X008362Y020747D02*
X008462Y020747D01*
X008365Y020845D02*
X008361Y020845D01*
X009147Y021141D02*
X009678Y021141D01*
X009682Y021143D02*
X009682Y021447D01*
X009486Y021447D01*
X009399Y021535D01*
X009399Y022028D02*
X009226Y022028D01*
X009226Y022126D02*
X009399Y022126D01*
X009399Y022225D02*
X009226Y022225D01*
X009226Y022323D02*
X009399Y022323D01*
X009453Y022422D02*
X009172Y022422D01*
X008611Y022816D02*
X008214Y022816D01*
X008301Y022915D02*
X008523Y022915D01*
X008482Y023013D02*
X008342Y023013D01*
X008362Y023112D02*
X008462Y023112D01*
X008462Y023210D02*
X008362Y023210D01*
X008362Y023309D02*
X008462Y023309D01*
X008462Y023407D02*
X008362Y023407D01*
X008362Y023506D02*
X008462Y023506D01*
X008462Y023604D02*
X008362Y023604D01*
X008362Y023703D02*
X008462Y023703D01*
X008462Y023802D02*
X008362Y023802D01*
X008338Y023900D02*
X008487Y023900D01*
X008528Y023999D02*
X008297Y023999D01*
X008203Y024097D02*
X008622Y024097D01*
X007622Y024097D02*
X006462Y024097D01*
X006462Y023999D02*
X007528Y023999D01*
X007487Y023900D02*
X006462Y023900D01*
X006462Y023802D02*
X007462Y023802D01*
X007462Y023703D02*
X006462Y023703D01*
X006462Y023604D02*
X007462Y023604D01*
X007462Y023506D02*
X006462Y023506D01*
X006462Y023407D02*
X007462Y023407D01*
X007462Y023309D02*
X006462Y023309D01*
X006462Y023210D02*
X007462Y023210D01*
X007462Y023112D02*
X006462Y023112D01*
X006462Y023013D02*
X007482Y023013D01*
X007523Y022915D02*
X006462Y022915D01*
X006462Y022816D02*
X007611Y022816D01*
X005962Y023309D02*
X002903Y023309D01*
X003094Y023407D02*
X005962Y023407D01*
X005962Y023506D02*
X003188Y023506D01*
X003229Y023604D02*
X005962Y023604D01*
X005962Y023703D02*
X003253Y023703D01*
X003253Y023802D02*
X005962Y023802D01*
X005962Y023900D02*
X003228Y023900D01*
X003187Y023999D02*
X005962Y023999D01*
X005962Y024097D02*
X003091Y024097D01*
X002898Y024196D02*
X005962Y024196D01*
X005962Y024294D02*
X001262Y024294D01*
X001262Y024196D02*
X002127Y024196D01*
X003079Y024393D02*
X005962Y024393D01*
X005636Y024491D02*
X005189Y024491D01*
X005288Y024590D02*
X005537Y024590D01*
X005493Y024688D02*
X005332Y024688D01*
X005362Y024787D02*
X005462Y024787D01*
X005462Y024886D02*
X005362Y024886D01*
X005362Y024984D02*
X005462Y024984D01*
X005462Y025083D02*
X005362Y025083D01*
X005362Y025181D02*
X005462Y025181D01*
X005462Y025280D02*
X005362Y025280D01*
X005362Y025378D02*
X005462Y025378D01*
X005462Y025477D02*
X005362Y025477D01*
X005348Y025575D02*
X005477Y025575D01*
X005518Y025674D02*
X005307Y025674D01*
X005228Y025772D02*
X005597Y025772D01*
X005750Y025871D02*
X005075Y025871D01*
X004750Y025871D02*
X000512Y025871D01*
X000512Y025772D02*
X004597Y025772D01*
X004462Y025181D02*
X002933Y025181D01*
X003106Y025083D02*
X004462Y025083D01*
X004462Y024984D02*
X003193Y024984D01*
X003234Y024886D02*
X004462Y024886D01*
X004462Y024787D02*
X003253Y024787D01*
X003253Y024688D02*
X004493Y024688D01*
X004537Y024590D02*
X003223Y024590D01*
X003178Y024491D02*
X004636Y024491D01*
X001948Y023112D02*
X001262Y023112D01*
X001262Y023013D02*
X001850Y023013D01*
X001803Y022915D02*
X001262Y022915D01*
X001262Y022816D02*
X001772Y022816D01*
X001772Y022718D02*
X001262Y022718D01*
X001262Y022619D02*
X001790Y022619D01*
X001831Y022521D02*
X001262Y022521D01*
X001262Y022422D02*
X001917Y022422D01*
X003567Y020353D02*
X004962Y020353D01*
X004962Y020254D02*
X005062Y020254D01*
X005062Y020155D02*
X004962Y020155D01*
X004962Y020057D02*
X005062Y020057D01*
X005062Y019958D02*
X004962Y019958D01*
X004962Y019761D02*
X005062Y019761D01*
X005062Y019663D02*
X004962Y019663D01*
X004962Y019564D02*
X005062Y019564D01*
X005062Y019466D02*
X004962Y019466D01*
X004962Y019170D02*
X005062Y019170D01*
X005062Y019071D02*
X004962Y019071D01*
X004962Y018973D02*
X005062Y018973D01*
X005062Y018874D02*
X004962Y018874D01*
X003279Y017101D02*
X001262Y017101D01*
X001262Y017199D02*
X007112Y017199D01*
X009147Y019761D02*
X009678Y019761D01*
X009567Y019860D02*
X009257Y019860D01*
X009320Y019958D02*
X009505Y019958D01*
X009464Y020057D02*
X009360Y020057D01*
X009362Y020155D02*
X009462Y020155D01*
X009462Y020254D02*
X009362Y020254D01*
X009362Y020353D02*
X009462Y020353D01*
X009462Y020451D02*
X009362Y020451D01*
X009362Y020550D02*
X009462Y020550D01*
X009462Y020648D02*
X009362Y020648D01*
X009362Y020747D02*
X009462Y020747D01*
X009464Y020845D02*
X009361Y020845D01*
X009320Y020944D02*
X009505Y020944D01*
X009567Y021042D02*
X009258Y021042D01*
X011142Y022718D02*
X011783Y022718D01*
X011611Y022816D02*
X011214Y022816D01*
X011301Y022915D02*
X011523Y022915D01*
X011482Y023013D02*
X011342Y023013D01*
X011362Y023112D02*
X011462Y023112D01*
X011462Y023210D02*
X011362Y023210D01*
X011362Y023309D02*
X011462Y023309D01*
X011462Y023407D02*
X011362Y023407D01*
X011362Y023506D02*
X011462Y023506D01*
X011462Y023604D02*
X011362Y023604D01*
X011362Y023703D02*
X011462Y023703D01*
X011462Y023802D02*
X011362Y023802D01*
X011338Y023900D02*
X011487Y023900D01*
X011528Y023999D02*
X011297Y023999D01*
X011203Y024097D02*
X011622Y024097D01*
X011653Y022422D02*
X011372Y022422D01*
X011426Y022323D02*
X011599Y022323D01*
X011599Y022225D02*
X011426Y022225D01*
X011426Y022126D02*
X011599Y022126D01*
X011599Y022028D02*
X011426Y022028D01*
X013042Y018185D02*
X013783Y018185D01*
X013611Y018086D02*
X013214Y018086D01*
X013302Y017988D02*
X013523Y017988D01*
X013482Y017889D02*
X013342Y017889D01*
X013362Y017790D02*
X013462Y017790D01*
X013462Y017692D02*
X013362Y017692D01*
X013362Y017593D02*
X013462Y017593D01*
X013462Y017495D02*
X013362Y017495D01*
X013362Y017396D02*
X013462Y017396D01*
X013462Y017298D02*
X013362Y017298D01*
X013362Y017199D02*
X013462Y017199D01*
X013462Y017101D02*
X013362Y017101D01*
X013338Y017002D02*
X013487Y017002D01*
X013528Y016904D02*
X013297Y016904D01*
X013203Y016805D02*
X013622Y016805D01*
X014112Y016747D02*
X014167Y016770D01*
X014294Y016896D01*
X014362Y017062D01*
X014362Y017818D01*
X014517Y017973D01*
X014462Y017841D01*
X014462Y017062D01*
X014531Y016896D01*
X014658Y016770D01*
X014712Y016747D01*
X014712Y016151D01*
X014112Y016151D01*
X014112Y016234D01*
X014112Y016747D01*
X014112Y016706D02*
X014712Y016706D01*
X014712Y016608D02*
X014112Y016608D01*
X014112Y016509D02*
X014712Y016509D01*
X014712Y016411D02*
X014112Y016411D01*
X014112Y016312D02*
X014712Y016312D01*
X014712Y016214D02*
X014112Y016214D01*
X014203Y016805D02*
X014622Y016805D01*
X014528Y016904D02*
X014297Y016904D01*
X014338Y017002D02*
X014487Y017002D01*
X014462Y017101D02*
X014362Y017101D01*
X014362Y017199D02*
X014462Y017199D01*
X014462Y017298D02*
X014362Y017298D01*
X014362Y017396D02*
X014462Y017396D01*
X014462Y017495D02*
X014362Y017495D01*
X014362Y017593D02*
X014462Y017593D01*
X014462Y017692D02*
X014362Y017692D01*
X014362Y017790D02*
X014462Y017790D01*
X014482Y017889D02*
X014433Y017889D01*
X014690Y018146D02*
X014695Y018151D01*
X014702Y018151D01*
X014690Y018146D01*
X014163Y018185D02*
X014042Y018185D01*
X015162Y019564D02*
X015572Y019564D01*
X015662Y019663D02*
X015162Y019663D01*
X015162Y019761D02*
X015662Y019761D01*
X015567Y019860D02*
X015257Y019860D01*
X015320Y019958D02*
X015505Y019958D01*
X015464Y020057D02*
X015360Y020057D01*
X015362Y020155D02*
X015462Y020155D01*
X015462Y020254D02*
X015362Y020254D01*
X015362Y020353D02*
X015462Y020353D01*
X015462Y020451D02*
X015362Y020451D01*
X015362Y020550D02*
X015462Y020550D01*
X015462Y020648D02*
X015362Y020648D01*
X015362Y020747D02*
X015462Y020747D01*
X015464Y020845D02*
X015361Y020845D01*
X015320Y020944D02*
X015505Y020944D01*
X015567Y021042D02*
X015258Y021042D01*
X017214Y018086D02*
X017611Y018086D01*
X017523Y017988D02*
X017302Y017988D01*
X017342Y017889D02*
X017482Y017889D01*
X017462Y017790D02*
X017362Y017790D01*
X017362Y017692D02*
X017462Y017692D01*
X017462Y017593D02*
X017362Y017593D01*
X017362Y017495D02*
X017462Y017495D01*
X017462Y017396D02*
X017362Y017396D01*
X017362Y017298D02*
X017462Y017298D01*
X017462Y017199D02*
X017362Y017199D01*
X017362Y017101D02*
X017462Y017101D01*
X017487Y017002D02*
X017338Y017002D01*
X017297Y016904D02*
X017528Y016904D01*
X017622Y016805D02*
X017203Y016805D01*
X019112Y016706D02*
X019212Y016706D01*
X019212Y016608D02*
X019112Y016608D01*
X019112Y016509D02*
X019212Y016509D01*
X019212Y016411D02*
X019112Y016411D01*
X019203Y016805D02*
X019212Y016805D01*
X019612Y016805D02*
X019623Y016805D01*
X020326Y016411D02*
X021262Y016411D01*
X021262Y016509D02*
X020424Y016509D01*
X020523Y016608D02*
X021262Y016608D01*
X021262Y016706D02*
X021015Y016706D01*
X020810Y016706D02*
X020621Y016706D01*
X020751Y016312D02*
X020473Y016312D01*
X020518Y016214D02*
X020707Y016214D01*
X020707Y016115D02*
X020518Y016115D01*
X020518Y016017D02*
X020707Y016017D01*
X020707Y015918D02*
X020518Y015918D01*
X020518Y015820D02*
X020707Y015820D01*
X020707Y015721D02*
X020518Y015721D01*
X020518Y015622D02*
X020707Y015622D01*
X020707Y015524D02*
X020518Y015524D01*
X020509Y015425D02*
X020716Y015425D01*
X021203Y016805D02*
X021262Y016805D01*
X020462Y017298D02*
X020362Y017298D01*
X020362Y017396D02*
X020462Y017396D01*
X020407Y017199D02*
X020362Y017199D01*
X019962Y017593D02*
X019862Y017593D01*
X019862Y017692D02*
X019962Y017692D01*
X019962Y017790D02*
X019862Y017790D01*
X019862Y017889D02*
X019962Y017889D01*
X019962Y017988D02*
X019862Y017988D01*
X019862Y018086D02*
X019962Y018086D01*
X021042Y018185D02*
X021262Y018185D01*
X021262Y018086D02*
X021214Y018086D01*
X019704Y010971D02*
X019704Y010453D01*
X019612Y010453D01*
X019612Y010873D01*
X019699Y010960D01*
X019704Y010971D01*
X019704Y010892D02*
X019632Y010892D01*
X019612Y010794D02*
X019704Y010794D01*
X019704Y010695D02*
X019612Y010695D01*
X019612Y010597D02*
X019704Y010597D01*
X019704Y010498D02*
X019612Y010498D01*
X019392Y010106D02*
X019136Y010106D01*
X020586Y009808D02*
X020612Y009808D01*
X013483Y012734D02*
X011912Y012734D01*
X012112Y013226D02*
X013483Y013226D01*
X013293Y013553D02*
X012312Y013553D01*
X012312Y013455D02*
X012928Y013455D01*
X013293Y013652D02*
X012312Y013652D01*
X012312Y013750D02*
X013293Y013750D01*
X013293Y013849D02*
X012312Y013849D01*
X012312Y013947D02*
X013293Y013947D01*
X013293Y014046D02*
X012312Y014046D01*
X012312Y014144D02*
X013293Y014144D01*
X013293Y014243D02*
X012312Y014243D01*
X012312Y014341D02*
X013293Y014341D01*
X013293Y014440D02*
X012312Y014440D01*
X012312Y014539D02*
X013293Y014539D01*
X013293Y014637D02*
X012312Y014637D01*
X012312Y014736D02*
X013293Y014736D01*
X013293Y014834D02*
X012312Y014834D01*
X012312Y014933D02*
X013293Y014933D01*
X013293Y015031D02*
X012312Y015031D01*
X012312Y015130D02*
X013293Y015130D01*
X013293Y015228D02*
X012312Y015228D01*
X012312Y015327D02*
X013373Y015327D01*
X012622Y016805D02*
X012202Y016805D01*
X012289Y016904D02*
X012528Y016904D01*
X012487Y017002D02*
X012337Y017002D01*
X012360Y017101D02*
X012462Y017101D01*
X012462Y017199D02*
X012362Y017199D01*
X012362Y017298D02*
X012462Y017298D01*
X012462Y017396D02*
X012362Y017396D01*
X011962Y017396D02*
X011862Y017396D01*
X011862Y017298D02*
X011962Y017298D01*
X011962Y017199D02*
X011862Y017199D01*
X011862Y017101D02*
X011962Y017101D01*
X011962Y017002D02*
X011862Y017002D01*
X011862Y016904D02*
X011962Y016904D01*
X011962Y016805D02*
X011862Y016805D01*
X011623Y016805D02*
X011203Y016805D01*
X011297Y016904D02*
X011536Y016904D01*
X011488Y017002D02*
X011338Y017002D01*
X011362Y017101D02*
X011465Y017101D01*
X011462Y017199D02*
X011362Y017199D01*
X011362Y017298D02*
X011462Y017298D01*
X011462Y017396D02*
X011362Y017396D01*
X011362Y017593D02*
X011462Y017593D01*
X011462Y017692D02*
X011362Y017692D01*
X011362Y017790D02*
X011463Y017790D01*
X011484Y017889D02*
X011342Y017889D01*
X011302Y017988D02*
X011528Y017988D01*
X011611Y018086D02*
X011214Y018086D01*
X011862Y018086D02*
X011962Y018086D01*
X011962Y017988D02*
X011862Y017988D01*
X011862Y017889D02*
X011962Y017889D01*
X011962Y017790D02*
X011862Y017790D01*
X011862Y017692D02*
X011962Y017692D01*
X003181Y017002D02*
X001262Y017002D01*
X001262Y016904D02*
X003082Y016904D01*
X002983Y016805D02*
X001262Y016805D01*
X001262Y016706D02*
X002885Y016706D01*
X002786Y016608D02*
X001262Y016608D01*
X001262Y016509D02*
X002688Y016509D01*
X002589Y016411D02*
X001262Y016411D01*
X001262Y016312D02*
X002491Y016312D01*
X002392Y016214D02*
X001262Y016214D01*
X001262Y016115D02*
X002294Y016115D01*
X002195Y016017D02*
X001262Y016017D01*
X001262Y015918D02*
X002097Y015918D01*
X001998Y015820D02*
X001262Y015820D01*
X001262Y015721D02*
X001899Y015721D01*
X001801Y015622D02*
X001262Y015622D01*
X001262Y015524D02*
X001702Y015524D01*
X001604Y015425D02*
X001262Y015425D01*
X001262Y015327D02*
X001505Y015327D01*
X001407Y015228D02*
X001262Y015228D01*
X001262Y015130D02*
X001308Y015130D01*
X002464Y017396D02*
X002561Y017396D01*
X002561Y017495D02*
X002464Y017495D01*
X002464Y017593D02*
X002561Y017593D01*
X002561Y017692D02*
X002464Y017692D01*
X002464Y017889D02*
X002561Y017889D01*
X002561Y017988D02*
X002464Y017988D01*
X002464Y018086D02*
X002561Y018086D01*
X002561Y018185D02*
X002464Y018185D01*
X002627Y018283D02*
X001262Y018283D01*
X001262Y018185D02*
X002110Y018185D01*
X001922Y018086D02*
X001262Y018086D01*
X001262Y017988D02*
X001839Y017988D01*
X001794Y017889D02*
X001262Y017889D01*
X001262Y018382D02*
X001957Y018382D01*
X001858Y018480D02*
X001262Y018480D01*
X001262Y018579D02*
X001807Y018579D01*
X001772Y018677D02*
X001262Y018677D01*
X001262Y018776D02*
X001772Y018776D01*
X001786Y018874D02*
X001262Y018874D01*
X001262Y018973D02*
X001827Y018973D01*
X001908Y019071D02*
X001262Y019071D01*
X001262Y019170D02*
X002065Y019170D01*
X001662Y005076D02*
X001262Y005076D01*
X001262Y004037D01*
X001662Y004037D01*
X001662Y005076D01*
X001662Y004980D02*
X001262Y004980D01*
X001262Y004881D02*
X001662Y004881D01*
X001662Y004783D02*
X001262Y004783D01*
X001262Y004684D02*
X001662Y004684D01*
X001662Y004586D02*
X001262Y004586D01*
X001262Y004487D02*
X001662Y004487D01*
X001662Y004389D02*
X001262Y004389D01*
X001262Y004290D02*
X001662Y004290D01*
X001662Y004191D02*
X001262Y004191D01*
X001262Y004093D02*
X001662Y004093D01*
X003525Y003305D02*
X004035Y003305D01*
X004038Y003309D02*
X004018Y003275D01*
X004008Y003237D01*
X004008Y002952D01*
X004462Y002952D01*
X004462Y003367D01*
X004138Y003367D01*
X004100Y003357D01*
X004066Y003337D01*
X004038Y003309D01*
X004008Y003206D02*
X003525Y003206D01*
X003525Y003107D02*
X004008Y003107D01*
X004008Y003009D02*
X003525Y003009D01*
X004462Y003009D02*
X004562Y003009D01*
X004562Y003107D02*
X004462Y003107D01*
X004462Y003206D02*
X004562Y003206D01*
X004562Y003305D02*
X004462Y003305D01*
X004462Y002713D02*
X004562Y002713D01*
X004562Y002615D02*
X004462Y002615D01*
X004462Y002516D02*
X004562Y002516D01*
X004973Y002221D02*
X006118Y002221D01*
X006664Y002221D02*
X006761Y002221D01*
X006761Y002319D02*
X006664Y002319D01*
X006664Y002418D02*
X006761Y002418D01*
X006761Y002615D02*
X006664Y002615D01*
X006664Y002713D02*
X006761Y002713D01*
X006761Y002812D02*
X006664Y002812D01*
X006664Y002910D02*
X006761Y002910D01*
X006761Y002122D02*
X006664Y002122D01*
X000871Y001139D02*
X000871Y001139D01*
D24*
X003512Y011751D03*
X005112Y012551D03*
X017212Y004751D03*
X020312Y006451D03*
X020912Y006451D03*
X019412Y011151D03*
D25*
X020112Y005451D02*
X020112Y003751D01*
X019812Y003451D01*
X015312Y003451D01*
X015212Y003351D01*
X015212Y004751D01*
X015161Y004751D02*
X015052Y004860D01*
X013483Y004860D01*
X015212Y003351D02*
X015212Y001951D01*
X014412Y001151D01*
X007212Y001151D01*
X006712Y001551D01*
X004261Y011751D02*
X003512Y011751D01*
D26*
X001012Y008351D02*
X001012Y024451D01*
X002012Y025451D01*
X004612Y025451D01*
X004912Y025151D01*
X005912Y025151D02*
X006212Y024851D01*
X006212Y022251D01*
X004412Y022251D01*
X002912Y020751D01*
X002512Y020751D01*
X002512Y019751D02*
X002612Y019751D01*
X004312Y021451D01*
X004953Y021451D01*
X005012Y021511D01*
X005653Y021511D01*
X008012Y019151D01*
X014912Y019151D01*
X014912Y020451D01*
X014912Y023451D01*
X015912Y023451D02*
X015912Y020451D01*
X015912Y019551D01*
X015112Y018751D01*
X007412Y018751D01*
X006812Y018151D01*
X005053Y018151D01*
X005012Y018191D01*
X003072Y018191D01*
X002512Y018751D01*
X004953Y019251D02*
X005012Y019311D01*
X007212Y021251D02*
X006212Y022251D01*
X007212Y021251D02*
X008312Y021251D01*
X008912Y020651D01*
X008912Y020451D01*
X010912Y020451D02*
X010912Y020502D01*
X020012Y016451D02*
X020012Y015891D01*
X020053Y015851D01*
X020012Y016451D02*
X020912Y017351D01*
X020912Y017451D01*
X021512Y016191D02*
X021512Y019751D01*
X020912Y020351D01*
X020912Y020451D01*
X021512Y016191D02*
X021172Y015851D01*
X006712Y002551D02*
X005612Y002551D01*
X004512Y002902D01*
X004512Y004239D01*
X003210Y005541D01*
X003210Y005605D01*
X001912Y007451D02*
X001012Y008351D01*
X001912Y007451D02*
X001912Y003067D01*
X002312Y002667D01*
X002312Y001800D01*
X004512Y001800D01*
X004512Y002902D02*
X004312Y002902D01*
X006012Y000851D02*
X001512Y000851D01*
X001012Y001351D01*
X001012Y005541D01*
X001415Y005541D01*
X001415Y005705D01*
X001361Y005758D01*
X001361Y006351D01*
X006712Y001551D02*
X006012Y000851D01*
D27*
X005712Y008551D03*
X006312Y008551D03*
X006912Y008551D03*
X007512Y008551D03*
X017212Y008551D03*
X017812Y008551D03*
X018412Y008551D03*
X019012Y008551D03*
D28*
X010912Y020451D02*
X010912Y021951D01*
X010961Y021951D01*
X010912Y021951D02*
X010912Y023451D01*
X010912Y024451D01*
X009912Y024451D02*
X009912Y023451D01*
X009912Y021951D01*
X009912Y020451D01*
X009864Y021951D02*
X009912Y021951D01*
M02*
